<?xml version="1.0" encoding="utf-8"?>
<!-- Generator: Adobe Illustrator 21.0.0, SVG Export Plug-In . SVG Version: 6.00 Build 0)  -->
<svg version="1.1" id="图层_1" xmlns="http://www.w3.org/2000/svg" xmlns:xlink="http://www.w3.org/1999/xlink" x="0px" y="0px"
	 viewBox="0 0 200 120" style="enable-background:new 0 0 200 120;" xml:space="preserve">
<style type="text/css">
	.st0{fill:#FFFFFF;}
</style>
<g>
	<g>
		<g>
			<path class="st0" d="M90.3,38.3v7.5c-0.5,0.2-1,0.5-1.4,0.8c0,0,0,0,0,0c-1.2,0.9-1.9,2.4-1.9,4c0,0.8,0.2,1.6,0.6,2.4l-5.2,5.3
				v-20H90.3z"/>
			<path class="st0" d="M78.2,54.6v8.1l-6.7,6.9c-0.3-0.1-0.6-0.1-1-0.1c-0.1,0-0.2,0-0.3,0V54.6H78.2z"/>
			<path class="st0" d="M102.5,30.3v34.6l-6.9-10.5c1.1-0.9,1.7-2.3,1.7-3.9c0-1.3-0.4-2.4-1.2-3.3c0,0,0,0,0,0
				c-0.4-0.5-1-1-1.6-1.3V30.3H102.5z"/>
			<path class="st0" d="M114.7,21v28.7c-4.3,4.9-6.6,8.9-7.9,12.4V21H114.7z"/>
		</g>
		<path class="st0" d="M132.4,36.4c-1.3,0-2.4,1.1-2.4,2.4c0,0.2,0,0.4,0.1,0.6c-18.5,8.6-23.5,24.1-24.8,28.3
			c-0.3-0.1-0.7-0.1-1-0.1c-0.3,0-0.7,0-1,0.1l-8.8-13.4c1.2-0.8,2-2.1,2-3.7c0-2.4-2-4.4-4.4-4.4c-2.4,0-4.4,2-4.4,4.4
			c0,0.9,0.3,1.8,0.8,2.5L71.3,70.8c-0.3-0.1-0.6-0.1-1-0.1c-1.9,0-3.4,1.5-3.4,3.4c0,1.9,1.5,3.4,3.4,3.4c1.9,0,3.4-1.5,3.4-3.4
			c0-0.6-0.1-1.1-0.4-1.6l16-18.6c0.8,0.7,1.8,1.1,2.9,1.1c0.2,0,0.4,0,0.5,0l7.4,14.8c-0.7,0.9-1.1,2-1.1,3.3c0,3,2.4,5.4,5.4,5.4
			c3,0,5.4-2.4,5.4-5.4c0-1.3-0.4-2.4-1.1-3.3c3-16.9,16.7-27.2,21.7-29.9c0.4,0.8,1.2,1.4,2.2,1.4c1.3,0,2.4-1.1,2.4-2.4
			C134.8,37.5,133.7,36.4,132.4,36.4z"/>
		<path class="st0" d="M154.7,56.8c0,5.6-2.3,10.7-6,14.4c-0.1,0.1-0.1,0.1-0.2,0.2c-3.7,3.6-8.7,5.8-14.2,5.8h-25
			c0.9-1.1,1.4-2.6,1.4-4.1c0-0.6-0.1-1.1-0.2-1.7h23.8c0.7,0,1.5-0.1,2.2-0.2c7-1.1,12.4-7.1,12.4-14.4c0-7.8-6.2-14.3-14-14.6
			c-0.1,0-0.2,0-0.4,0h-0.2c-0.2,0-0.4,0-0.6,0h-2.1c-1.4-0.2-1.9-0.9-2.4-1.7c0.3-0.2,0.5-0.3,0.7-0.4c0.5,0.8,1.3,1.4,2.4,1.4
			c1.5,0,2.8-1.2,2.8-2.8c0-1.5-1.2-2.8-2.8-2.8c-1.5,0-2.8,1.2-2.8,2.8c0,0.2,0,0.4,0.1,0.6c-0.2,0.1-0.5,0.2-0.7,0.3
			c0-0.2,0-0.3,0-0.5v-2.1c0-0.2,0-0.3,0-0.5c0-15.5-12.6-28.1-28.1-28.1c-13.7,0-25.1,9.8-27.6,22.8c-0.3,1.7-0.5,3.5-0.5,5.3
			c0,0.4-0.3,0.6-0.6,0.6c0,0-0.1,0-0.1,0c-1.1-0.2-2.2-0.3-3.3-0.3c-0.7,0-1.3,0-2,0.1c-8.5,1-15.2,8.2-15.2,17
			c0,8.4,6,15.4,14,16.8c0,0,0,0,0.1,0c0,0,0,0,0.1,0c0,0,0,0,0,0c0.4,0.1,1.2,0.2,1.4,0.2c-0.2,0.2-0.4,0.5-0.6,0.9c0,0,0,0,0,0
			c-0.3,0.6-0.5,1.3-0.5,2c0,0.1,0,0.3,0,0.4c0,0.2,0,0.4,0.1,0.6v0c0,0.1,0.1,0.3,0.1,0.4c0.3,0.7,0.8,1.6,1.2,2
			c-0.2,0-1.2-0.2-1.9-0.3c-0.1,0-0.2,0-0.3,0c-0.1,0-0.1,0-0.2,0c0,0,0,0,0,0c0,0-0.1,0-0.1,0c0,0-0.1,0-0.1,0c0,0,0,0-0.1,0
			c-0.2,0-0.5-0.1-0.7-0.1c-1.1-0.2-2.2-0.5-3.2-0.9c-2.9-1.1-5.6-2.7-7.8-4.7c-4.6-4.2-7.6-10.4-7.6-17.1C45.3,42,54.6,32,66.5,31
			c0.3,0,0.5-0.2,0.6-0.5c2.9-15.9,16.9-28,33.7-28c18.6,0,33.8,14.9,34.2,33.4c0,0.3,0.3,0.6,0.6,0.6
			C146.3,37.2,154.7,46,154.7,56.8z"/>
	</g>
	<g>
		<path class="st0" d="M2.9,97v-2.8c3.2-0.4,6.3-0.9,9.2-1.2v2.8c-0.7,0.1-1.6,0.3-2.7,0.4v3.1h2.6v2.6H9.5c0.6,1.9,1.5,3.7,2.7,5.4
			v3.5c-1-0.9-1.9-2.1-2.8-3.4v9.8H5.7v-8.4c-0.8,1.4-1.9,2.9-3.4,4.4v-3.7c1.4-2.5,2.5-5,3.2-7.6H2.6v-2.6h3v-2.7L2.9,97z
			 M12.7,106.8V95.3h1.9c-0.4-0.8-0.6-1.6-0.7-2.6h3.7c0.1,0.8,0.3,1.6,0.7,2.6h3.5c0-0.1,0-0.3,0.1-0.5c0.2-0.8,0.4-1.4,0.4-1.9H26
			c-0.1,0.9-0.3,1.8-0.7,2.5h2v7.6c0.1,2.6-1.1,3.9-3.5,3.9v6.8c0,0.7,0.3,1.1,1,1.1h0.3c0.7,0,1-0.4,1-1.2v-0.9h2.5v1.5
			c0.1,2-1,3-3.1,2.9h-2.2c-2.2,0-3.2-1.1-3.2-3.2v-7h-1.3c0.3,5.4-2.3,9-7.9,10.7v-2.5c3-1.8,4.4-4.5,4.1-8.3H12.7z M16.5,104.2H22
			c1,0.1,1.5-0.4,1.5-1.5v-4.8h-6.9V104.2z"/>
		<path class="st0" d="M32,110.3V92.7h3.6v16.4h1.9V92.7h3.7v24.6h-3.7v-4.8h-3.1C33.1,112.6,32,111.6,32,110.3z M41.8,102.3v-2.4
			c1.9-1.6,2.9-4,3.2-7.2h3.9c-0.2,0.9-0.3,1.8-0.6,2.6h8.7v2.6h-2c-0.1,5.8-1.2,10.1-3.5,13c1.3,1.5,3.1,2.8,5.3,3.9v2.6
			c-3-1.3-5.4-2.7-7.4-4.2c-1.5,1.2-3.9,2.6-7.3,4.3v-2.7c2.1-1.2,3.8-2.5,5.1-4c-1.8-2.1-3.1-5.2-4-9.2
			C42.9,101.8,42.4,102.1,41.8,102.3z M46.9,100.5c0.5,3,1.3,5.5,2.5,7.4c1.2-2.3,1.8-5.6,1.9-10h-4c-0.4,0.9-1.2,1.8-2.1,2.6H46.9z
			"/>
		<path class="st0" d="M60.3,100v-3h9.9v-4.1h4.9V97h9.9v3h-9.9c0.6,6.9,4.1,11.7,10.4,14.6v2.7c-6.4-2.2-10.7-5.5-12.7-9.8
			c-2.4,4.5-6.7,7.7-13,9.8v-2.7c6.3-3,9.8-7.9,10.4-14.6H60.3z"/>
		<path class="st0" d="M88.5,108.9v-2.8h1.6v-1.6h3.4v1.6H98v-1.6h3.5v1.6h1.3v2.8h-1.6c-0.2,2.3-1.1,4.1-2.6,5.3
			c0.4,0.1,0.9,0.3,1.7,0.4c0.6,0.1,1.1,0.1,1.5,0.2v2.5c-2.5-0.4-4.6-1-6.1-1.7c-1.9,0.7-4.3,1.2-7.3,1.7v-2.5
			c0.4-0.1,0.9-0.1,1.6-0.2c0.6-0.1,1.5-0.3,2.6-0.6c-1.3-1.2-2.1-2.9-2.3-5.1H88.5z M102.7,104.8c-2.8-1-4.6-2.8-5.3-5.1v4.6H94
			v-4.6h-0.1c-0.7,2.3-2.4,4-5.1,5.1v-2.1c1.2-0.9,2-1.9,2.3-3h-2.2V97H94v-4.1h3.5V97h4.9v1.8c1.4-1.5,2.3-2.7,2.7-5.9h3.7
			c-0.2,1.2-0.4,1.1-0.7,2h6.4v2.8H113c-0.1,5.8-1,10.2-2.9,13.1c1,1.3,2.4,2.6,4,3.9v2.8c-2.5-1.4-4.5-2.9-6-4.4
			c-1.1,1.2-3.1,2.6-5.8,4.4v-2.8c1.6-1.3,2.9-2.7,3.9-4c-1.5-2.4-2.5-5.6-3-9.6l-0.9,0.4v-1.8h-1.9c0.4,1.1,1.2,2.1,2.3,3V104.8z
			 M90.2,96.3c-0.6-1.3-1-2.1-1.1-3.4h3c0.1,1,0.3,1.6,0.8,3c0.1,0.1,0.1,0.3,0.1,0.4H90.2z M95.5,112.6c1.3-0.8,2.1-2,2.3-3.7h-4.4
			C93.7,110.6,94.4,111.8,95.5,112.6z M98.4,96.2c0.5-1.2,0.8-1.9,0.9-3.3h3c-0.2,1.6-0.6,2.3-1,3.3H98.4z M108,107.2
			c0.8-1.9,1.3-5.1,1.6-9.5h-2.7c-0.4,0.7-0.9,1.3-1.6,1.9h1.1C106.8,102.6,107.3,105.1,108,107.2z"/>
		<path class="st0" d="M124.7,97.9v-2.6H123v-2.6h-3.7v2.6h-2v2.6h2v6.3l-2.3,0.2v3.2l2.3-0.4v6.3c0,0.8-0.4,1.2-1.1,1.2h-0.8v2.5
			h2.1c2.3,0,3.5-1.1,3.5-3.4v-7.6l1.7-0.8v-2.6l-1.7,0.6v-5.5H124.7z"/>
		<path class="st0" d="M129.1,105.7V95.3h9.8v1.3c0.1,0.8-0.3,1.2-1.1,1.1h-8.2v2.5h9.4c2.2,0.1,3.3-1,3.2-3.2v-4.2h-16.8v13.7
			c0.1,3.4-0.5,6.1-2,8.2v2.8c3.9-2.4,5.8-6.3,5.6-11.6C129.1,105.8,129.1,105.7,129.1,105.7z"/>
		<g>
			<path class="st0" d="M137.9,107.7v-2.6h4.6v-2.6h-4.6v-2.1h-3.6v2.1h-4.5v2.6h4.5v2.6h-4.5v8.9h9c2.5,0.1,3.7-1.1,3.7-3.5v-5.5
				H137.9z M139.1,113c0,1-0.4,1.5-1.3,1.5h-4.5v-4.2h5.8V113z"/>
		</g>
		<path class="st0" d="M146.9,95.6v-2.8h23.4v2.8h-9.5V106h10.6v2.9h-10.6v8.5h-4.5v-8.5h-10.7V106h10.7V95.6H146.9z M150.1,103.9
			c-1-1.9-1.7-3.9-2.1-6.1h4.2c0.3,2.2,0.9,4.3,1.7,6.1H150.1z M163.3,103.9c0.9-2.2,1.5-4.3,1.7-6.1h4.2c-0.4,2.3-1.2,4.4-2.2,6.1
			H163.3z"/>
		<path class="st0" d="M129.1,105.8L129.1,105.8l0-0.1C129.1,105.7,129.1,105.8,129.1,105.8z"/>
		<g>
			<path class="st0" d="M175.9,116.7h16.7c2.8,0.1,4.2-1.3,4.1-4V105h-20.8V116.7z M180,107.9h12.4v4.4c0.1,1.2-0.4,1.8-1.6,1.7H180
				V107.9z"/>
			<path class="st0" d="M197.6,100.4c-0.1-0.2-0.2-0.4-0.3-0.6c-0.6-1.5-1.4-2.9-2.2-4.3h-4.2c0.7,1,2,3.8,2.2,4.3h-13
				c2.8-2.4,3.8-4.2,5.7-7H181c-1.5,2.5-2.9,4-5.4,6.1c-0.5,0.4-0.8,1.1-0.8,1.8v0.9c0,0.7,0.6,1.4,1.4,1.4l18.2,0h1.5
				C197.2,102.9,198,101.6,197.6,100.4z"/>
		</g>
	</g>
</g>
</svg>
