<?xml version="1.0" encoding="utf-8"?>
<!-- Generator: Adobe Illustrator 21.0.0, SVG Export Plug-In . SVG Version: 6.00 Build 0)  -->
<svg version="1.1" id="图层_1" xmlns="http://www.w3.org/2000/svg" xmlns:xlink="http://www.w3.org/1999/xlink" x="0px" y="0px"
	 viewBox="0 0 24 24" style="enable-background:new 0 0 24 24;" xml:space="preserve">
<style type="text/css">
	.st0{fill:#FFFFFF;}
</style>
<path class="st0" d="M18.5,1h-13C3.6,1,2.1,2.5,2.1,4.4v17.1c0,0.2,0.1,0.5,0.2,0.7C2.5,22.7,3.2,23,3.7,23c0.2,0,0.5-0.1,0.7-0.2
	l6.9-3.4c0.2-0.1,0.4-0.2,0.7-0.2s0.4,0,0.7,0.2l6.9,3.4c0.2,0.1,0.5,0.1,0.7,0.1c0.9,0,1.6-0.7,1.6-1.6V4.4C21.9,2.5,20.3,1,18.5,1
	z M5.5,1.8h12.9C19.9,1.8,21,3,21,4.4V10h-2.2l-1.1-1c-0.2-0.2-0.5-0.2-0.7,0c0,0-0.1,0.1-0.1,0.2L16,11.5L14,8
	c-0.1-0.2-0.4-0.3-0.6-0.2c-0.1,0-0.2,0.1-0.2,0.2l-2,4.4L8.9,5.9C8.8,5.7,8.6,5.6,8.3,5.6C8.2,5.6,8.1,5.7,8,5.8L5.6,10H3V4.4
	C3,3,4.1,1.8,5.5,1.8z M20.6,22.1c-0.1,0-0.2,0.1-0.3,0.1c-0.1,0-0.2,0-0.3-0.1l-6.9-3.4c-0.7-0.3-1.5-0.3-2.2,0L4,22
	c-0.3,0.1-0.6,0-0.8-0.2c-0.1,0-0.2-0.2-0.2-0.4V10.8h2.9c0.2,0,0.4-0.1,0.4-0.2l2-3.5l2.2,6.7c0.1,0.2,0.2,0.3,0.4,0.3
	s0.4-0.1,0.5-0.3l2.2-4.6l2.1,3.6c0.1,0.2,0.4,0.3,0.6,0.2c0.1,0,0.2-0.1,0.2-0.2l1-2.7l0.7,0.6c0.1,0.1,0.2,0.1,0.3,0.1H21v10.7
	C21,21.7,20.9,21.9,20.6,22.1z"/>
<path class="st0" d="M18.5,0.6h-13c-2.1,0-3.8,1.7-3.8,3.8v17.1c0,0.3,0.1,0.7,0.2,0.8C2.2,23,3,23.4,3.7,23.4
	c0.3,0,0.7-0.1,0.9-0.2l6.9-3.4c0.2-0.1,0.3-0.2,0.5-0.2c0.3,0,0.3,0,0.5,0.2l6.9,3.4c0.3,0.1,0.6,0.1,0.9,0.1c1.1,0,2-0.9,2-2V4.4
	C22.3,2.3,20.6,0.6,18.5,0.6z M20.6,4.4v5.2H19l-1-0.9c-0.3-0.3-0.9-0.3-1.3,0c0,0-0.2,0.2-0.2,0.4l-0.6,1.5l-1.6-2.8
	c-0.2-0.4-0.7-0.6-1.1-0.4c-0.2,0-0.4,0.2-0.5,0.5l-1.6,3.4l-2-5.6c-0.1-0.2-0.4-0.5-1-0.5C8,5.2,7.9,5.4,7.7,5.5L5.4,9.6h-2V4.4
	c0-1.2,0.9-2.2,2.1-2.2h12.9C19.6,2.2,20.6,3.2,20.6,4.4z M17,9L17,9L17,9L17,9z M3.9,21.6c-0.2,0.1-0.3-0.1-0.4-0.1l-0.1-0.1
	c0,0,0,0,0,0V11.2h2.5c0.3,0,0.7-0.2,0.8-0.5l1.5-2.7l1.9,5.9c0.1,0.1,0.3,0.5,0.8,0.5c0.4,0,0.7-0.2,0.9-0.5l1.9-3.9l1.7,2.9
	c0.1,0.2,0.3,0.3,0.5,0.4c0.2,0.1,0.4,0.1,0.6,0c0.2,0,0.4-0.3,0.5-0.5l0.8-2.1l0.2,0.2c0.2,0.2,0.5,0.2,0.6,0.2h2.1v10.3
	c0,0,0,0.1-0.2,0.2c-0.1,0-0.1,0.1-0.2,0.1l-7-3.5c-0.4-0.2-0.8-0.3-1.3-0.3c-0.4,0-0.9,0.1-1.3,0.3L3.9,21.6z"/>
</svg>
