<?xml version="1.0" encoding="utf-8"?>
<!-- Generator: Adobe Illustrator 21.0.0, SVG Export Plug-In . SVG Version: 6.00 Build 0)  -->
<svg version="1.1" id="图层_1" xmlns="http://www.w3.org/2000/svg" xmlns:xlink="http://www.w3.org/1999/xlink" x="0px" y="0px"
	 viewBox="0 0 24 24" style="enable-background:new 0 0 24 24;" xml:space="preserve">
<style type="text/css">
	.st0{fill:#FFFFFF;}
</style>
<g>
	<path class="st0" d="M22.6,5.6c-0.5,0-0.9,0.4-0.9,0.9v14.3H2.2V6.5c0-0.5-0.4-0.9-0.9-0.9S0.5,6,0.5,6.5v15.2
		c0,0.5,0.4,0.9,0.9,0.9h21.2c0.5,0,0.9-0.4,0.9-0.9V6.5C23.5,6,23.1,5.6,22.6,5.6z"/>
	<path class="st0" d="M4.3,18.6c2.9,0,5.2,0.3,7.2,1.5c0,0,0,0,0,0c0,0,0,0,0,0c0,0,0.1,0,0.1,0c0,0,0.1,0,0.1,0c0.1,0,0.1,0,0.2,0
		h0h0c0.1,0,0.3,0,0.4-0.1c0,0,0,0,0,0c0,0,0,0,0,0c0,0,0,0,0,0c2-1.3,4.3-1.5,7.2-1.5c0.5,0,0.9-0.4,0.9-0.9V2.4
		c0-0.5-0.4-0.9-0.9-0.9c-1.8,0-3.1,0.1-4.3,0.3C14.1,2.1,13,2.5,12,3c-1-0.6-2.1-1-3.4-1.2C7.4,1.6,6.1,1.5,4.3,1.5
		c-0.5,0-0.9,0.4-0.9,0.9v15.3C3.5,18.2,3.8,18.6,4.3,18.6z M5.2,16.9V3.2c2.7,0.1,4.4,0.4,6,1.3v13.4C9.2,17.1,7.1,16.9,5.2,16.9z
		 M12.9,17.9V4.5c1.5-0.8,3.3-1.2,6-1.3v13.6C16.9,16.9,14.8,17.1,12.9,17.9z"/>
</g>
</svg>
