<?xml version="1.0" encoding="utf-8"?>
<!-- Generator: Adobe Illustrator 21.0.0, SVG Export Plug-In . SVG Version: 6.00 Build 0)  -->
<svg version="1.1" id="图层_1" xmlns="http://www.w3.org/2000/svg" xmlns:xlink="http://www.w3.org/1999/xlink" x="0px" y="0px"
	 viewBox="0 0 24 24" style="enable-background:new 0 0 24 24;" xml:space="preserve">
<style type="text/css">
	.st0{fill:#FFFFFF;}
</style>
<g>
	<rect x="15.5" y="7.1" class="st0" width="1.7" height="5.2"/>
	<rect x="10.8" y="5.9" class="st0" width="1.7" height="8.7"/>
	<rect x="6.1" y="8.2" class="st0" width="1.7" height="8.7"/>
	<path class="st0" d="M22.4,21.4L22.4,21.4l-1.1-1.3c0.5-0.7,0.8-1.6,0.8-2.4c0-2.4-2-4.4-4.4-4.4c-2.4,0-4.4,2-4.4,4.4
		c0,2.4,2,4.4,4.4,4.4c1,0,1.8-0.3,2.4-0.7c0,0,0,0,0,0l1.2,1.2c0.1,0.2,0.4,0.2,0.6,0.2c0.5,0,0.8-0.4,0.8-0.8
		C22.6,21.7,22.6,21.5,22.4,21.4z M17.7,20.2c-1.5,0-2.7-1.2-2.7-2.7c0-1.5,1.2-2.7,2.7-2.7s2.7,1.2,2.7,2.7
		C20.4,19,19.1,20.2,17.7,20.2z"/>
	<path class="st0" d="M21.9,1.2v10.7c0,0.5-0.4,0.9-0.9,0.9c-0.5,0-0.8-0.4-0.8-0.9v-9H3.1V20h9c0.5,0,0.9,0.4,0.9,0.8
		c0,0.5-0.4,0.9-0.9,0.9H1.4V1.2H21.9z"/>
</g>
</svg>
