<?xml version="1.0" encoding="utf-8"?>
<!-- Generator: Adobe Illustrator 21.0.0, SVG Export Plug-In . SVG Version: 6.00 Build 0)  -->
<svg version="1.1" id="图层_1" xmlns="http://www.w3.org/2000/svg" xmlns:xlink="http://www.w3.org/1999/xlink" x="0px" y="0px"
	 viewBox="0 0 205 40" style="enable-background:new 0 0 205 40;" xml:space="preserve">
<style type="text/css">
	.st0{fill:#FFFFFF;}
	.st1{fill-rule:evenodd;clip-rule:evenodd;fill:url(#SVGID_1_);}
	.st2{fill-rule:evenodd;clip-rule:evenodd;fill:url(#SVGID_2_);}
</style>
<title></title>
<desc>Created with Sketch.</desc>
<g>
	<g>
		<path class="st0" d="M89.8,7.2V4.9h21.1v2.3h-2.3V21c0,2.3-1.1,3.4-3.4,3.4h-2.9v-2.2h1.4c0.9,0.1,1.3-0.4,1.3-1.4V7.2H89.8z
			 M91.9,20.6V9.3h10.4v8.1c0.1,2.2-1,3.3-3.2,3.3h-7.2C91.9,20.7,91.9,20.6,91.9,20.6z M95.1,18.3H98c0.8,0,1.2-0.4,1.2-1.2v-5.7
			h-4.1V18.3z"/>
		<path class="st0" d="M115.2,25v-7.1c-0.7,0.5-1.6,1.1-2.5,1.6v-2.2c2.1-2,3.4-4.3,4-6.8h-3.6V8.3h7v2.1c-0.4,1.6-1,3-1.6,4.1
			c0.3,0.4,0.8,1,1.6,1.8c0.2,0.2,0.3,0.3,0.5,0.5v2.1c-0.8-0.4-1.5-0.8-2.2-1.3V25H115.2z M115.6,7.8c-0.1-1.1-0.5-1.7-1-2.9h2.6
			c0.6,1.1,1.1,1.8,1.4,2.9H115.6z M119.8,25v-2.3c3.9-2.4,5.8-5.6,5.5-9.7V8.5h3v4.3c0,1.1-0.1,2.1-0.2,3.1h0.9v5.5
			c0,0.8,0.3,1.1,0.9,1.1h0.4c0.7,0.1,1.1-0.3,1-1.1v-0.6h2.3V22c0.1,1.8-0.8,2.6-2.5,2.5h-2.2c-1.9,0.1-2.8-0.9-2.7-2.9v-1.3
			C125,21.8,122.9,23.3,119.8,25z M121,18.1V4.9h11.7v13.2h-3V7H124v11.1H121z"/>
		<path class="st0" d="M138.3,24.9V13.1c-0.7,0.3-1.5,0.5-2.3,0.7v-1.9c2-1.1,3.3-3.5,3.9-7h3.5c-0.5,2.4-1.2,4-1.9,5.1v14.9H138.3z
			 M149.9,24.9c-2.5,0.1-3.8-1.1-3.7-3.4V18c-1,0.4-2.1,0.7-3.3,0.9v-2.3c1.2-0.3,2.3-0.7,3.3-1.2V4.9h3.6v8.3
			c1.8-1.4,3-3.3,3.9-5.5h3.4c-1.4,4-3.8,6.9-7.3,8.7V21c-0.1,1.2,0.4,1.8,1.4,1.7h1.4c0.8,0,1.2-0.4,1.2-1.3V20h2.9v1.9
			c0,2-1.1,3-3.3,3H149.9z"/>
		<path class="st0" d="M160.9,7.2V5H180v2.3h-7.8v8.5h8.7v2.4h-8.7v6.7h-3.7v-6.7h-8.8v-2.4h8.8V7.3h-7.6V7.2z M163.5,14
			c-0.8-1.5-1.4-3.2-1.7-5h3.5c0.3,1.8,0.7,3.5,1.4,5H163.5z M174.3,14c0.8-1.8,1.2-3.5,1.4-5h3.5c-0.4,1.9-0.9,3.6-1.8,5H174.3z"/>
		<path class="st0" d="M43.2,18.1v-2.3h1.3v-1.3h2.7v1.3H51v-1.3h2.8v1.3h1.1v2.3h-1.3c-0.2,1.9-0.9,3.3-2.1,4.3
			c0.3,0.1,0.8,0.3,1.4,0.4c0.5,0.1,0.9,0.1,1.2,0.2v2c-2.1-0.4-3.8-0.9-5-1.4c-1.5,0.6-3.5,1-6,1.4v-2c0.3-0.1,0.8-0.1,1.3-0.2
			s1.2-0.2,2.1-0.5c-1.1-0.9-1.7-2.4-1.9-4.3L43.2,18.1L43.2,18.1z M54.8,14.8c-2.4-0.9-3.8-2.3-4.3-4.3v3.8h-2.8v-3.8h-0.1
			c-0.6,1.9-2,3.3-4.3,4.3v-1.7c0.9-0.8,1.6-1.5,1.9-2.5h-1.8V8.4h4.3V5.1h2.8v3.3h4.1v1.4c1.1-1.2,1.9-2.2,2.2-4.8h3
			c-0.2,0.9-0.4,0.9-0.6,1.6h5.2v2.3h-1.2c-0.1,4.7-0.9,8.3-2.4,10.7c0.9,1.1,2,2.2,3.3,3.2v2.3c-2-1.1-3.7-2.4-4.9-3.6
			c-0.9,0.9-2.5,2.2-4.7,3.6v-2.3c1.3-1.1,2.4-2.2,3.2-3.3c-1.2-2-2.1-4.5-2.5-7.9L54.4,12v-1.4h-1.6c0.4,0.9,1,1.7,1.9,2.5
			L54.8,14.8L54.8,14.8z M44.5,7.8C44,6.7,43.7,6.1,43.6,5h2.5c0.1,0.8,0.3,1.2,0.7,2.5c0.1,0.1,0.1,0.3,0.1,0.4L44.5,7.8L44.5,7.8z
			 M48.9,21.1c1.1-0.7,1.7-1.7,1.9-3h-3.6C47.4,19.5,48,20.5,48.9,21.1z M51.3,7.7C51.8,6.8,52,6.2,52.1,5h2.5
			c-0.2,1.3-0.5,1.9-0.9,2.7H51.3z M59.1,16.7c0.7-1.6,1.1-4.2,1.3-7.8h-2.2c-0.3,0.6-0.8,1-1.3,1.5h0.9
			C58.1,13,58.6,15.1,59.1,16.7z"/>
		<g>
			<path class="st0" d="M73.5,9.1V7h-1.4V5h-3v2.1h-1.6v2.1h1.6v5.1l-1.9,0.2v2.6l1.9-0.4v5.1c0,0.7-0.3,1-0.9,1h-0.7v2h1.7
				c1.9,0,2.8-0.9,2.8-2.7v-6.2l1.4-0.7v-2.1L72,13.6V9.2L73.5,9.1L73.5,9.1z"/>
			<path class="st0" d="M77,15.5V7h8v1.1C85.1,8.8,84.7,9,84.1,9h-6.7v2h7.7c1.8,0.1,2.7-0.9,2.6-2.6V4.9H74v11.3
				c0.1,2.8-0.5,5-1.6,6.7v2.3C75.5,23.1,77.1,19.9,77,15.5C77,15.6,77,15.6,77,15.5z"/>
			<g>
				<path class="st0" d="M84.2,17.2v-2.1H88v-2.2h-3.8v-1.7h-2.9v1.7h-3.7V15h3.7v2.1h-3.7v7.3H85c2.1,0.1,3-0.9,3-2.8v-4.4
					L84.2,17.2L84.2,17.2z M85.2,21.4c0,0.9-0.4,1.2-1.1,1.2h-3.7v-3.5h4.7L85.2,21.4L85.2,21.4z"/>
			</g>
			<path class="st0" d="M77,15.6L77,15.6L77,15.6L77,15.6z"/>
		</g>
		<g>
			<path class="st0" d="M184.7,24.9h13.6c2.4,0.1,3.4-1,3.4-3.3v-6.2h-17V24.9z M188,17.9h10.1v3.6c0.1,0.9-0.4,1.4-1.3,1.3h-8.9
				L188,17.9L188,17.9z"/>
			<path class="st0" d="M202.4,11.6c-0.1-0.2-0.2-0.4-0.2-0.6c-0.5-1.2-1.1-2.4-1.8-3.5H197c0.6,0.9,1.6,3.1,1.8,3.5h-10.7
				c2.3-2,3.1-3.4,4.6-5.7h-3.9c-1.2,2-2.4,3.3-4.4,5c-0.5,0.4-0.7,0.9-0.7,1.5v0.7c0,0.6,0.5,1.1,1.1,1.1h14.9h1.2
				C202.1,13.7,202.8,12.6,202.4,11.6z"/>
		</g>
		<g>
			<path class="st0" d="M43.2,34.9v-8h2.7c2.8,0,4.1,1.3,4.1,3.9c0.1,2.8-1.2,4.1-4.1,4L43.2,34.9L43.2,34.9z M44.5,34.2h1.3
				c1.9,0.1,2.9-1,2.8-3.2c0-2.1-0.9-3.2-2.8-3.1h-1.3V34.2z"/>
			<path class="st0" d="M53.4,31.3h1.4c0-1-0.4-1.5-1.4-1.4c-0.8,0-1.4,0.3-1.7,1.1h-1c0.3-1.3,1.2-1.9,2.7-1.9c1.6,0,2.3,0.7,2.3,2
				V35h-2.6c-1.6,0-2.4-0.6-2.4-1.7C50.7,32,51.6,31.3,53.4,31.3z M54.8,34.3v-2.1h-1.5c-1.1,0-1.7,0.4-1.7,1.1c0,0.7,0.5,1,1.5,1
				H54.8z"/>
			<path class="st0" d="M56.7,30.1v-0.8h1V27H59v2.3h1.3v0.8H59v3.3c0,0.6,0.2,0.8,0.7,0.8c0.2,0,0.5-0.1,0.7-0.2v0.7
				c-0.3,0.3-0.7,0.4-1.1,0.4c-1,0-1.5-0.5-1.5-1.5v-3.4L56.7,30.1L56.7,30.1z"/>
			<path class="st0" d="M63.6,31.3H65c0-1-0.4-1.5-1.4-1.4c-0.8,0-1.4,0.3-1.7,1.1h-1c0.3-1.3,1.2-1.9,2.7-1.9c1.6,0,2.3,0.7,2.3,2
				V35h-2.6c-1.6,0-2.4-0.6-2.4-1.7C60.9,32,61.8,31.3,63.6,31.3z M65,34.3v-2.1h-1.5c-1.1,0-1.7,0.4-1.7,1.1c0,0.7,0.5,1,1.5,1H65z
				"/>
			<path class="st0" d="M72.9,34.9l-3.2-8h1.4l2.6,6.9l2.5-6.9h1.3l-3.1,8H72.9z"/>
			<path class="st0" d="M78.2,28.1V27h1.3v1.2h-1.3V28.1z M78.2,34.9v-5.6h1.3v5.6H78.2z"/>
			<path class="st0" d="M80.5,34v-1c0.8,0.9,1.6,1.3,2.6,1.3c0.9,0,1.3-0.3,1.3-0.8s-0.4-0.8-1.3-1c-1.6-0.3-2.4-0.9-2.4-1.8
				c0.1-1,0.9-1.5,2.3-1.6c1.4,0,2.2,0.6,2.5,1.7h-1.2c-0.1-0.6-0.5-0.8-1.2-0.8S82,30.2,82,30.7c0,0.5,0.4,0.8,1.5,0.9
				c1.5,0.2,2.2,0.8,2.3,1.8c0,1.1-0.8,1.6-2.5,1.6C82.1,35.1,81.2,34.7,80.5,34z"/>
			<path class="st0" d="M86.6,32.9v-3.6h1.3v3.5c0,1,0.5,1.5,1.5,1.5h1.1v-5h1.3V35h-3C87.3,35.1,86.5,34.4,86.6,32.9z"/>
			<path class="st0" d="M95.4,31.3h1.4c0-1-0.4-1.5-1.4-1.4c-0.8,0-1.4,0.3-1.7,1.1h-1c0.3-1.3,1.2-1.9,2.7-1.9c1.6,0,2.3,0.7,2.3,2
				V35h-2.6c-1.6,0-2.4-0.6-2.4-1.7C92.8,32,93.6,31.3,95.4,31.3z M96.8,34.3v-2.1h-1.5c-1.1,0-1.7,0.4-1.7,1.1c0,0.7,0.5,1,1.5,1
				H96.8z"/>
			<path class="st0" d="M99.1,34.9v-8.4h1.3v8.4H99.1z"/>
			<path class="st0" d="M101.5,28.1V27h1.3v1.2h-1.3V28.1z M101.5,34.9v-5.6h1.3v5.6H101.5z"/>
			<path class="st0" d="M103.8,34.9v-0.8l3.5-4h-3.4v-0.8h4.9v0.8l-3.5,4h3.7v0.8H103.8z"/>
			<path class="st0" d="M112.4,31.3h1.4c0-1-0.4-1.5-1.4-1.4c-0.8,0-1.4,0.3-1.7,1.1h-1c0.3-1.3,1.2-1.9,2.7-1.9
				c1.6,0,2.3,0.7,2.3,2V35h-2.6c-1.6,0-2.4-0.6-2.4-1.7C109.7,32,110.6,31.3,112.4,31.3z M113.8,34.3v-2.1h-1.5
				c-1.1,0-1.7,0.4-1.7,1.1c0,0.7,0.5,1,1.5,1H113.8z"/>
			<path class="st0" d="M115.6,30.1v-0.8h1V27h1.3v2.3h1.3v0.8h-1.3v3.3c0,0.6,0.2,0.8,0.7,0.8c0.2,0,0.5-0.1,0.7-0.2v0.7
				c-0.3,0.3-0.7,0.4-1.1,0.4c-1,0-1.5-0.5-1.5-1.5v-3.4L115.6,30.1L115.6,30.1z"/>
			<path class="st0" d="M120,28.1V27h1.3v1.2H120V28.1z M120,34.9v-5.6h1.3v5.6H120z"/>
			<path class="st0" d="M125.3,35.1c-1.8-0.1-2.8-1.1-2.9-2.9c0.1-1.9,1.1-3,3-3c1.8,0.1,2.8,1.1,2.9,3
				C128.2,34,127.2,35,125.3,35.1z M125.3,34.3c1,0,1.6-0.8,1.6-2.1c0-1.4-0.6-2.2-1.6-2.2c-1.1,0-1.6,0.8-1.6,2.2
				C123.7,33.5,124.3,34.2,125.3,34.3z"/>
			<path class="st0" d="M129.2,34.9v-5.8h2.9c1.6,0,2.3,0.7,2.3,2.2v3.6h-1.3v-3.5c0-1-0.5-1.5-1.4-1.5h-1.2v4.9L129.2,34.9
				L129.2,34.9z"/>
			<path class="st0" d="M141.2,31.3h1.4c0-1-0.4-1.5-1.4-1.4c-0.8,0-1.4,0.3-1.7,1.1h-1c0.3-1.3,1.2-1.9,2.7-1.9
				c1.6,0,2.3,0.7,2.3,2V35h-2.6c-1.6,0-2.4-0.6-2.4-1.7C138.5,32,139.4,31.3,141.2,31.3z M142.6,34.3v-2.1h-1.5
				c-1.1,0-1.7,0.4-1.7,1.1c0,0.7,0.5,1,1.5,1H142.6z"/>
			<path class="st0" d="M144.5,34v-1c0.8,0.9,1.6,1.3,2.6,1.3c0.9,0,1.3-0.3,1.3-0.8s-0.4-0.8-1.3-1c-1.6-0.3-2.4-0.9-2.4-1.8
				c0.1-1,0.9-1.5,2.3-1.6c1.4,0,2.2,0.6,2.5,1.7h-1.2c-0.1-0.6-0.5-0.8-1.2-0.8s-1.1,0.2-1.1,0.7c0,0.5,0.4,0.8,1.5,0.9
				c1.5,0.2,2.2,0.8,2.3,1.8c0,1.1-0.8,1.6-2.5,1.6C146.1,35.1,145.2,34.7,144.5,34z"/>
			<path class="st0" d="M156.2,31.3h1.4c0-1-0.4-1.5-1.4-1.4c-0.8,0-1.4,0.3-1.7,1.1h-1c0.3-1.3,1.2-1.9,2.7-1.9
				c1.6,0,2.3,0.7,2.3,2V35h-2.6c-1.6,0-2.4-0.6-2.4-1.7C153.5,32,154.4,31.3,156.2,31.3z M157.6,34.3v-2.1h-1.5
				c-1.1,0-1.7,0.4-1.7,1.1c0,0.7,0.5,1,1.5,1H157.6z"/>
			<path class="st0" d="M162.8,33.4v-1.1c0.8,1.3,1.9,1.9,3.2,2c1.3,0,1.9-0.5,2-1.4c0-0.8-0.6-1.3-1.9-1.5c-2.1-0.3-3.1-1.1-3-2.4
				c0-1.4,1-2.1,2.9-2.1c1.8,0,2.8,0.8,3.2,2.4h-1.3c-0.3-1-0.9-1.5-1.9-1.5s-1.6,0.4-1.6,1.3c0,0.7,0.6,1.2,1.8,1.3
				c2.1,0.3,3.2,1.2,3.1,2.4c0,1.5-1.1,2.3-3.1,2.3C164.6,35.1,163.5,34.5,162.8,33.4z"/>
			<path class="st0" d="M175.9,32.5h-4.5c0.1,1.2,0.8,1.8,2.1,1.8c0.9,0,1.7-0.4,2.4-1.2V34c-0.6,0.7-1.5,1-2.7,1
				c-2-0.1-3-1-3.1-2.9c0-2,1-3,2.9-3.1C175,29.1,175.9,30.2,175.9,32.5z M171.4,31.6h3.2c0-1.1-0.6-1.6-1.6-1.7
				C172.1,30,171.6,30.6,171.4,31.6z"/>
			<path class="st0" d="M177.1,35v-3.9c0-1.3,0.7-1.9,1.9-1.9h1.8V30h-1.4c-0.7,0-1,0.3-1,1v4H177.1z"/>
			<path class="st0" d="M183.3,34.9l-2.2-5.6h1.4l1.5,4.6l1.6-4.6h1.4l-2.3,5.6H183.3z"/>
			<path class="st0" d="M187.7,28.1V27h1.3v1.2h-1.3V28.1z M187.7,34.9v-5.6h1.3v5.6H187.7z"/>
			<path class="st0" d="M195.8,31.1h-1.3c-0.2-0.7-0.7-1.1-1.5-1.1c-1,0.1-1.5,0.8-1.6,2.2c0,1.4,0.7,2.1,2,2.1
				c0.8,0,1.6-0.5,2.4-1.4v1c-0.6,0.7-1.5,1.1-2.7,1.1c-1.9-0.1-2.9-1-3-2.9c0.1-1.9,1-3,2.9-3C194.5,29.2,195.4,29.8,195.8,31.1z"
				/>
			<path class="st0" d="M202.4,32.5h-4.5c0.1,1.2,0.8,1.8,2.1,1.8c0.9,0,1.7-0.4,2.4-1.2V34c-0.6,0.7-1.5,1-2.7,1
				c-2-0.1-3-1-3.1-2.9c0-2,1-3,2.9-3.1C201.5,29.1,202.4,30.2,202.4,32.5z M197.9,31.6h3.2c0-1.1-0.6-1.6-1.6-1.7
				C198.6,30,198.1,30.6,197.9,31.6z"/>
		</g>
	</g>
	<g>
		<g>
			<path class="st0" d="M21.3,38c-0.6,0-1.2-0.2-1.7-0.5c-0.6-0.3-1.2-0.6-1.8-0.8c-0.5-0.2-1-0.5-1.5-0.7c-0.5-0.3-1.1-0.5-1.6-0.7
				c-0.9-0.4-1.8-0.7-2.7-1c-0.6-0.2-1.2-0.4-1.9-0.5c-0.7-0.2-1.4-0.5-2.1-0.9c-0.1-0.1-0.2-0.2-0.3-0.2c-0.2-0.1-0.3-0.3-0.2-0.6
				c0.2-0.6,0.4-1.1,0.6-1.7c0-0.1,0-0.2,0.1-0.1c0.4,0.4,0.9,0.6,1.4,0.8c0.6,0.3,1.1,0.5,1.7,0.7c0.6,0.2,1.2,0.4,1.8,0.6
				c0.7,0.2,1.4,0.5,2.1,0.7c0.6,0.3,1.2,0.5,1.9,0.8c0.8,0.3,1.5,0.7,2.3,1c0.7,0.4,1.5,0.6,2.3,0.6c0.7,0,1.3-0.1,1.9-0.4
				c1-0.4,1.9-0.9,2.9-1.4c1.4-0.7,2.8-1.3,4.3-1.8c0.9-0.3,1.7-0.6,2.6-1c0.6-0.3,1.1-0.5,1.6-0.9c0.2-0.1,0.2,0,0.2,0.1
				c0.1,0.5,0.2,1,0.3,1.5c0.1,0.5-0.2,0.7-0.5,0.9c-0.4,0.3-0.8,0.5-1.2,0.6c-1,0.4-2,0.6-2.9,1c-0.7,0.3-1.4,0.6-2.1,0.9
				c-0.7,0.3-1.5,0.7-2.2,1c-0.7,0.4-1.5,0.8-2.2,1.1c-0.7,0.3-1.4,0.6-2.2,0.8C21.8,38,21.5,38,21.3,38z"/>
			<path class="st0" d="M17.9,26.5c0.5,0,0.8,0.2,1.2,0.5c0.4,0.4,0.9,0.7,1.4,1c0.5,0.3,1,0.4,1.6,0.3c0.5-0.1,1.1-0.2,1.5-0.5
				c0.4-0.2,0.7-0.5,1.1-0.8c0.3-0.3,0.7-0.4,1.2-0.4c0.4,0,0.8,0.6,0.6,0.9c-0.1,0.2-0.3,0.4-0.5,0.6c-0.4,0.3-0.9,0.6-1.5,0.7
				c-0.3,0.1-0.6,0.1-0.9,0.2c-0.2,0.1-0.3,0.3-0.4,0.5c-0.1,0.6-0.1,1.2,0.1,1.8c0,0.1,0.1,0.3,0.1,0.4c-0.1,0.1-0.2,0-0.4,0
				c-0.6-0.1-1.3,0-1.9,0c-0.3,0-0.6,0-0.8,0.1c-0.2,0.1-0.2,0-0.2-0.2c0.1-0.4,0.2-0.8,0.3-1.1c0.1-0.5,0-1-0.2-1.4
				c0-0.1-0.1-0.1-0.1-0.1c-0.8,0.1-1.5-0.3-2.2-0.6c-0.3-0.2-0.5-0.3-0.7-0.6c-0.2-0.4-0.1-0.8,0.3-1
				C17.6,26.5,17.8,26.5,17.9,26.5z"/>
			<path class="st0" d="M3.7,29.2c0.7-0.2,1.3-0.4,2-0.6c0.2-0.1,0.2-0.1,0.1-0.3c-0.3-0.5-0.6-1.1-0.9-1.6c0.4,0.1,0.7,0.2,1,0.3
				c1.2,0.3,2.3,0.7,3.5,1.1c0.5,0.2,1,0.4,1.3,0.8c-0.1,0.1-0.2,0-0.4,0c-0.7,0-1.4-0.1-2.1,0C8.1,28.9,8,29,8,29.2
				c-0.1,0.4-0.3,0.8-0.4,1.2c-0.1,0.2-0.2,0.2-0.3,0.2c-0.8-0.2-1.6-0.5-2.3-0.9C4.5,29.6,4.2,29.4,3.7,29.2z"/>
			<path class="st0" d="M21.7,35.1c-0.7,0-1.3-0.2-1.9-0.5c-1.2-0.6-2.5-1.1-3.7-1.7c-0.8-0.3-1.6-0.7-2.4-1
				c-0.7-0.3-1.5-0.4-2.2-0.7c-1-0.4-2-0.7-2.9-1.3c-0.3-0.2-0.4-0.3-0.2-0.5c0-0.1,0.1-0.1,0.1,0c0.3,0.4,0.8,0.6,1.3,0.8
				c0.7,0.3,1.3,0.5,2,0.8c0.8,0.3,1.7,0.5,2.6,0.8c1,0.3,2,0.8,3,1.2c0.9,0.4,1.8,0.9,2.7,1.3c0.5,0.2,1,0.3,1.5,0.4
				c0.8,0.2,1.4-0.1,2.1-0.4c1.5-0.7,2.9-1.4,4.4-2c0.8-0.4,1.7-0.6,2.6-1c1-0.4,2-0.8,3-1.3c0.4-0.2,0.9-0.4,1.2-0.8
				c0,0,0.1-0.1,0.1,0c0,0.1,0.2,0.2,0,0.3c-0.2,0.1-0.4,0.2-0.5,0.3c-1.4,0.8-2.8,1.4-4.3,1.9c-1.1,0.4-2.2,0.9-3.4,1.4
				c-1.1,0.5-2.1,0.9-3.2,1.4C22.9,34.9,22.3,35.1,21.7,35.1z"/>
			<path class="st0" d="M32.9,28.7c0-0.3,0.2-0.4,0.5-0.5c1.2-0.4,2.3-0.8,3.5-1.2c0.3-0.1,0.7-0.2,1.1-0.3c-0.3,0.5-0.5,1-0.8,1.5
				c-0.2,0.3-0.2,0.3,0.2,0.5c0.4,0.2,0.9,0.3,1.3,0.4c0,0,0.1,0,0.1,0.1c-0.4,0.2-0.7,0.4-1.1,0.6c-0.6,0.3-1.2,0.5-1.8,0.6
				c-0.2,0-0.3,0-0.3-0.2c0-0.4-0.1-0.7-0.2-1.1c-0.1-0.3-0.2-0.4-0.6-0.4C34.1,28.6,33.5,28.6,32.9,28.7z"/>
			<path class="st0" d="M10.8,24.4c0,0.5,0.3,0.9,0.5,1.2c0.1,0.2,0.3,0.3,0.3,0.5c0,0.3,0.2,0.5,0.3,0.7c-0.4-0.3-0.7-0.6-1-0.9
				c-0.4-0.5-0.8-0.9-1-1.6c-0.2-0.5-0.3-1-0.4-1.5c0-0.3-0.1-0.6-0.1-0.9c0-0.1,0-0.2,0.2-0.1c0.6,0.2,1,0.6,1.5,1
				c0.4,0.3,0.8,0.7,1.1,1.1c0.5,0.5,0.8,1.1,1.1,1.8c0.1,0.2,0,0.2-0.1,0.1c-0.4-0.1-0.8-0.1-1.2-0.1c-0.1,0-0.1,0-0.2-0.2
				C11.4,25.1,11.2,24.8,10.8,24.4C10.8,24.4,10.8,24.4,10.8,24.4z"/>
			<path class="st0" d="M21.8,38.5c-1,0-1.8-0.3-2.6-0.7c-0.8-0.4-1.6-0.8-2.5-1.2c-1.4-0.7-2.9-1.3-4.4-1.9
				c-0.9-0.4-1.9-0.7-2.8-0.9c-0.7-0.2-1.4-0.4-2-0.8c-0.1-0.1-0.2-0.2-0.3-0.3c-0.1-0.1,0-0.2,0-0.2c0.1-0.1,0.1,0,0.1,0.1
				c0.3,0.4,0.7,0.6,1.2,0.8c1.3,0.6,2.6,0.9,3.9,1.3c0.8,0.2,1.5,0.5,2.3,0.8c0.5,0.2,1.1,0.4,1.6,0.7c0.6,0.3,1.2,0.6,1.8,0.9
				c0.4,0.2,0.8,0.4,1.1,0.5c0.3,0.1,0.6,0.3,0.9,0.4c1,0.4,1.9,0.4,2.9-0.1c0.9-0.4,1.8-0.9,2.7-1.3c1.1-0.6,2.2-1.1,3.4-1.6
				c0.9-0.4,1.8-0.7,2.7-1c0.5-0.2,1.1-0.3,1.6-0.5c0.7-0.3,1.4-0.6,1.9-1.1c0,0,0.1-0.1,0.1-0.1c0.1,0.1,0.1,0.1,0,0.2
				c-0.2,0.2-0.4,0.4-0.6,0.6c-0.7,0.4-1.5,0.6-2.2,0.9c-1.2,0.4-2.3,0.9-3.5,1.4c-0.5,0.2-1,0.4-1.4,0.6c-0.7,0.4-1.4,0.8-2.1,1.1
				c-0.6,0.3-1.1,0.6-1.7,0.8c-0.4,0.2-0.7,0.4-1.2,0.5C22.5,38.4,22.1,38.5,21.8,38.5z"/>
			<path class="st0" d="M10.1,22c-0.3-0.2-0.6-0.3-0.7-0.7c-0.2-0.4-0.4-0.7-0.6-1c-0.1-0.1-0.1-0.1-0.2-0.2c0,0.5,0.1,0.8,0.3,1.1
				c0.1,0.1,0.2,0.3,0.3,0.4c0.2,0.1,0.1,0.3,0.1,0.5c0,0.3,0.1,0.5,0.1,0.8c-0.4-0.2-0.6-0.5-0.8-0.9c-0.5-0.8-0.8-1.7-0.9-2.7
				c-0.1-0.7,0-1.5-0.1-2.3c0.5,0.5,0.9,0.9,1.3,1.3c0.5,0.5,0.9,1.1,1.2,1.8c0.1,0.1,0.1,0.2,0.1,0.3C10,21,10.1,21.5,10.1,22z"/>
			<path class="st0" d="M3.7,25.8c2.2,0.6,4.3,1.3,6.5,1.9c-0.1,0-0.1,0.1-0.2,0.1c-0.3,0-0.2,0.1-0.1,0.3c-0.3,0-0.6-0.2-0.9-0.2
				c-1.1-0.3-2.2-0.7-3.3-1c-0.3-0.1-0.7-0.2-1-0.3c0,0-0.1,0-0.1,0c0,0.1,0,0.1,0,0.1c0.3,0.6,0.6,1.1,0.9,1.7
				c0.1,0.2,0.1,0.2-0.1,0.2c-0.7,0.2-1.3,0.3-2,0.5c-0.1,0-0.1,0-0.2,0.1c0.3,0.2,0.6,0.4,1,0.5c1,0.4,2,0.8,3,1.1
				c0.1,0,0.1,0.1,0.1,0.1c-0.1,0.1,0,0.3-0.2,0.2C6.8,31,6.4,30.9,6,30.7c-0.5-0.2-1-0.4-1.5-0.6c-0.6-0.3-1.3-0.6-1.8-1
				c-0.1,0-0.1-0.1-0.1-0.2c0-0.1,0.1-0.1,0.2-0.1c0.7-0.2,1.4-0.5,2-0.7C4.9,28,4.9,28,4.8,27.8C4.4,27.2,4,26.5,3.7,25.8
				C3.7,25.8,3.7,25.8,3.7,25.8z"/>
			<path class="st0" d="M18,30.4c-0.4,0-0.6,0.1-0.9,0.1c-0.1,0-0.3,0-0.4,0c0,0-0.1,0-0.1,0.1c0,0.1,0.1,0.1,0.1,0.1
				c0.4,0.1,0.8,0.2,1.2,0.1c0,0,0,0,0.1,0c-0.3,0.3-0.7,0.4-1,0.5c-0.5,0.2-1,0.2-1.5-0.1c-0.6-0.2-1.2-0.5-1.7-0.8
				c-0.2-0.1-0.3-0.2-0.5-0.3c-0.1-0.1-0.1-0.1,0-0.2c0.4-0.2,0.8-0.4,1.3-0.5c0.6-0.2,1.3-0.2,1.9-0.3c0.3,0,0.5,0.2,0.7,0.4
				C17.4,30,17.7,30.1,18,30.4z"/>
			<path class="st0" d="M31.5,26.8c0.2-0.3,0.3-0.5,0.3-0.8c0-0.2,0.2-0.3,0.3-0.5c0.2-0.3,0.4-0.6,0.5-1.1
				c-0.2,0.1-0.4,0.3-0.5,0.5c-0.1,0.2-0.3,0.4-0.4,0.6c0,0.1-0.1,0.2-0.3,0.2c-0.2,0-0.5,0.1-0.8,0.2c0.2-0.2,0.3-0.4,0.5-0.6
				c0.3-0.5,0.6-0.9,0.6-1.5c0-0.3,0.2-0.4,0.3-0.5c0.3-0.3,0.6-0.7,0.9-0.9c0.2-0.2,0.5-0.3,0.8-0.4c0.1,0,0.1,0,0.1,0.1
				c0,0.4-0.1,0.8-0.1,1.1c-0.1,0.5-0.2,1-0.4,1.5c-0.2,0.5-0.5,0.9-0.9,1.2c-0.3,0.3-0.5,0.6-0.9,0.8
				C31.7,26.8,31.6,26.9,31.5,26.8z"/>
			<path class="st0" d="M35.9,17.6c0.1,0.8,0,1.6-0.1,2.3c-0.1,0.6-0.3,1.2-0.6,1.8c-0.2,0.5-0.5,0.8-0.9,1.2c0,0-0.1,0.1-0.1,0.1
				c-0.1,0,0-0.1,0-0.1c0-0.4,0.2-0.7,0.4-1.1c0.2-0.4,0.3-0.8,0.4-1.2c0-0.1,0-0.2,0-0.3c-0.3,0.2-0.5,0.5-0.6,0.9
				c-0.1,0.2-0.1,0.3-0.1,0.5c0,0.1,0,0.1-0.1,0.2c-0.2,0.1-0.5,0.2-0.7,0.4c0-0.4,0.1-0.7,0.2-1.1c0.1-0.9,0.7-1.6,1.2-2.2
				C35.1,18.4,35.5,18,35.9,17.6z"/>
			<path class="st0" d="M25.5,30.8c0.5,0,0.9,0,1.2-0.1c0.1,0,0.2,0,0.1-0.1c0-0.1-0.1-0.1-0.2-0.1c-0.4-0.1-0.8,0-1.3-0.1
				c0-0.1,0.2-0.1,0.2-0.2c0.3-0.2,0.5-0.5,0.7-0.7c0.1-0.1,0.2-0.2,0.4-0.2c0.7,0,1.4,0.1,2,0.3c0.4,0.1,0.9,0.2,1.3,0.4
				c0.1,0,0.2,0,0.2,0.1c0,0.1-0.1,0.1-0.1,0.1c-0.9,0.5-1.8,0.9-2.8,1.3c-0.2,0.1-0.3,0-0.5,0C26.5,31.3,26,31.1,25.5,30.8z"/>
			<path class="st0" d="M39.2,25.6c-0.3,0.5-0.6,1-0.9,1.5c-0.1,0.2-0.3,0.4-0.4,0.6c-0.1,0.1-0.1,0.2,0.1,0.3
				c0.5,0.1,1,0.3,1.5,0.5c0.1,0,0.2,0.1,0.4,0.1c-0.2,0.3-0.4,0.5-0.6,0.6c-0.7,0.5-1.5,0.8-2.3,1.1c-0.4,0.2-0.9,0.3-1.3,0.4
				c-0.1,0-0.2,0.1-0.2-0.1c0-0.1-0.1-0.2,0.1-0.3c0.3-0.1,0.7-0.2,1-0.3c0.9-0.3,1.7-0.7,2.5-1.2c0,0,0.1,0,0.1-0.1
				c0-0.1-0.1,0-0.1,0c-0.5-0.2-1.1-0.4-1.6-0.5c-0.2,0-0.2-0.1-0.1-0.2c0.2-0.5,0.5-0.9,0.7-1.4c0.1-0.1,0.1-0.2,0.2-0.4
				c-1.6,0.3-3.1,0.9-4.7,1.5c0.1-0.2,0-0.3-0.2-0.3C35.2,26.8,37.2,26.1,39.2,25.6z"/>
			<path class="st0" d="M7.3,17c-0.1-0.3-0.2-0.7-0.5-1c0,0.5,0.1,0.9,0.3,1.3C6.7,17,6.3,16.6,6,16.1c-0.1-0.1-0.1-0.3-0.1-0.4
				c-0.1-0.7-0.1-1.4,0-2.2c0.1-0.6,0.3-1.2,0.6-1.8c0-0.1,0.1-0.1,0.1-0.2c0.1,0.7,0.3,1.4,0.6,2c0,0.1,0.1,0.2,0.1,0.2
				c0.3,0.2,0.2,0.5,0.1,0.8c-0.2,0.6-0.2,1.3-0.1,2C7.4,16.7,7.3,16.8,7.3,17z"/>
			<path class="st0" d="M8.7,9c0,0.5,0,1,0.1,1.5c0.1,0.4,0.1,0.7-0.1,1.1c-0.2,0.4-0.1,0.8-0.2,1.2c-0.1,0.4-0.4,0.6-0.6,0.9
				c0-0.4,0-0.9-0.2-1.3c-0.2,0.5-0.1,1-0.1,1.5c-0.1-0.3-0.2-0.5-0.3-0.8c-0.1-0.4-0.3-0.8-0.4-1.3c0-0.1,0-0.1,0-0.2
				C7,11,7.3,10.4,7.7,9.9c0.2-0.3,0.5-0.6,0.8-0.8C8.6,9,8.7,9,8.7,9z"/>
			<path class="st0" d="M11.6,23.1c-0.1-0.1-0.1-0.1-0.2-0.2c-0.2-0.2-0.4-0.3-0.3-0.7c0.1-0.3,0.1-0.7-0.1-1.1
				c-0.1,0.2-0.2,0.5-0.2,0.8c0,0.2,0,0.3,0,0.5c-0.1-0.1-0.3-0.2-0.4-0.2c-0.1,0-0.1-0.1-0.1-0.2c-0.1-0.5,0-1-0.1-1.4
				c-0.1-0.7,0.2-1.2,0.6-1.7c0.1-0.1,0.2-0.1,0.3,0c0.5,0.6,0.8,1.4,1,2.2c0,0.1,0,0.3,0.1,0.4c0,0.3,0,0.5-0.3,0.7
				C11.6,22.4,11.7,22.8,11.6,23.1z"/>
			<path class="st0" d="M15.7,27.8c0.1,0.5,0.4,0.9,0.6,1.3c-0.4,0.1-0.5-0.2-0.6-0.4c-0.5-0.7-1-1.4-1.5-2
				c-0.3-0.4-0.4-0.8-0.3-1.3c0.1-0.3,0-0.6,0.1-0.9c0-0.1,0-0.1,0.1-0.2c1,0.7,1.7,1.7,2.4,2.8c-0.3,0-0.3,0.1-0.3,0.3
				c0,0.4,0.1,0.8,0.2,1.1C16.1,28.3,15.9,28,15.7,27.8C15.8,27.8,15.7,27.8,15.7,27.8z"/>
			<path class="st0" d="M8.1,17.5c-0.3-0.2-0.4-0.5-0.6-0.7c0,0,0-0.1,0-0.1c0-0.7,0-1.5,0.2-2.2c0.1-0.4,0.4-0.8,0.7-1.1
				c0.1-0.1,0.2,0,0.2,0c0.2,0.3,0.5,0.7,0.4,1.2c-0.1,0.7,0,1.4,0.3,2.1c0.1,0.3,0,0.5-0.1,0.8c-0.1,0.2-0.2,0.4-0.3,0.7
				c0,0.1-0.1,0.1-0.2,0c-0.1-0.1-0.2-0.2-0.3-0.4c-0.1-0.1,0-0.3,0-0.4c0.1-0.4,0-0.8-0.2-1.2c0,0,0-0.1-0.1-0.1
				c-0.1,0-0.1,0.1-0.1,0.1C8,16.6,8,17,8.1,17.5C8.1,17.4,8.1,17.4,8.1,17.5z"/>
			<path class="st0" d="M15.8,29.1c-0.2,0.1-0.4,0-0.5-0.1c-0.4-0.4-0.8-0.7-1.2-1c-0.1,0-0.2-0.1-0.2-0.1c-0.1,0.1,0,0.1,0.1,0.2
				c0.3,0.4,0.7,0.7,1.1,0.9c-0.4,0.1-0.7,0-1.1-0.3c-0.5-0.4-1-0.7-1.4-1.1c-0.4-0.4-0.7-1-0.8-1.6c0-0.1,0-0.1,0.1-0.1
				c0.5,0.1,1.1,0.2,1.6,0.3c0.3,0.1,0.4,0.3,0.6,0.6c0.5,0.8,1.1,1.5,1.6,2.2C15.8,29,15.8,29,15.8,29.1z"/>
			<path class="st0" d="M27.1,29.1c0.2-0.5,0.5-0.8,0.7-1.3c-0.3,0.2-0.4,0.5-0.6,0.8c0.1-0.2,0.1-0.4,0.2-0.6
				c0.1-0.2,0.1-0.4,0.1-0.7c0-0.2,0-0.4-0.3-0.3c0.6-1.1,1.3-2.1,2.3-2.8c0.1,0.3,0.1,0.7,0.1,1c0,0.2,0,0.5,0,0.7
				c0,0.1-0.1,0.2-0.1,0.3c-0.5,0.7-1,1.4-1.5,2.1c-0.1,0.2-0.3,0.3-0.4,0.5C27.4,29,27.3,29.1,27.1,29.1z"/>
			<path class="st0" d="M28.4,29c0.2-0.2,0.5-0.3,0.7-0.5c0.2-0.1,0.3-0.3,0.5-0.5c0,0,0.1-0.1,0-0.1c0-0.1-0.1,0-0.1,0
				c-0.5,0.3-0.9,0.6-1.3,1c-0.2,0.2-0.3,0.2-0.6,0.1c0.2-0.2,0.4-0.4,0.5-0.6c0.5-0.6,1-1.3,1.4-1.9c0.1-0.2,0.3-0.3,0.5-0.3
				c0.5-0.1,1-0.2,1.5-0.2c0.3,0,0.2,0.2,0.1,0.3c-0.1,0.7-0.5,1.2-1,1.6c-0.5,0.4-1,0.7-1.5,1.1C28.9,29.1,28.6,29.1,28.4,29z"/>
			<path class="st0" d="M7.7,24.3c0.5,0.2,0.9,0.5,1.4,0.5c0.2,0,0.5,0.1,0.7,0.1c0.1,0,0.1,0,0.2,0.1c0.5,0.8,1.1,1.5,1.8,2
				c0.1,0.1,0.3,0.2,0.4,0.4c-0.5-0.3-0.9-0.6-1.5-0.7c0.2,0.4,0.6,0.5,0.9,0.7c-0.4,0-0.8,0.1-1.1,0C9.9,27.3,9.4,27,9,26.5
				c-0.3-0.3-0.5-0.7-0.7-1.1C8.1,25.1,7.9,24.7,7.7,24.3z"/>
			<path class="st0" d="M9.5,24c-0.4-0.2-0.7-0.5-1.1-0.5c0.3,0.4,0.6,0.7,1.1,0.9c0.2,0.1,0.3,0.2,0.3,0.4c-0.2,0-0.3,0-0.4-0.1
				c-0.3-0.1-0.5-0.1-0.8-0.2c-0.4-0.1-0.7-0.4-1-0.7c-0.5-0.7-0.9-1.5-0.9-2.4c0,0,0,0,0,0c0-0.2-0.1-0.4,0-0.4
				c0.1-0.1,0.3,0.1,0.5,0.1c0,0,0,0,0.1,0c0.4,0.2,0.8,0.4,1,0.9c0.2,0.4,0.5,0.8,0.9,1.1c0.1,0.1,0.2,0.2,0.2,0.3
				C9.4,23.6,9.4,23.8,9.5,24z"/>
			<path class="st0" d="M31.4,21.8c0.1-0.7,0.3-1.4,0.6-2.1c0.1-0.3,0.3-0.5,0.5-0.7c0-0.1,0.1-0.2,0.2,0c0.3,0.4,0.6,0.8,0.7,1.2
				c0.1,0.2,0,0.4,0,0.6c0,0.4-0.1,0.7-0.2,1.1c0,0.2-0.4,0.5-0.5,0.5c-0.1,0-0.1-0.1-0.1-0.1c0-0.3,0-0.6-0.1-0.9
				c0,0,0-0.1-0.1-0.1c0,0-0.1,0.1-0.1,0.1c-0.1,0.4-0.1,0.7,0,1.1c0,0.1,0,0.1,0,0.2c-0.1,0.1-0.3,0.3-0.4,0.4
				c-0.1,0.1-0.1,0.1-0.2-0.1c0-0.3-0.1-0.6-0.3-0.9C31.4,22.1,31.3,21.9,31.4,21.8z"/>
			<path class="st0" d="M16.3,27.2c0.2,0.1,0.4,0.2,0.6,0.4c0.2,0.2,0.3,0.3,0.5,0.5c0.3,0.3,0.7,0.4,1.1,0.6c0.6,0.2,1.1,0.5,1.6,1
				c0.1,0.1,0.1,0.2,0.2,0.3c0.1,0.1,0,0.3-0.1,0.3c-0.1,0.1-0.3,0-0.4-0.1c-0.3-0.3-0.7-0.5-1.1-0.7c-0.1,0-0.1-0.1-0.2,0
				c0,0.1,0,0.1,0.1,0.2c0.3,0.3,0.6,0.5,1,0.7c-0.4,0.3-0.7,0.2-1.1,0.1c-0.8-0.4-1.4-1-1.9-1.7C16.3,28.2,16.3,27.7,16.3,27.2z"/>
			<path class="st0" d="M37.1,12.6c0.2,0.4,0.3,0.8,0.4,1.1c0.1,0.4,0.1,0.8,0.1,1.2c0,0.5-0.1,1.1-0.2,1.6c0,0.2-0.2,0.3-0.3,0.4
				c-0.2,0.3-0.5,0.6-0.8,0.9c0.3-0.6,0.5-1.1,0.5-1.7c-0.3,0.4-0.5,0.8-0.7,1.3c-0.1-0.2-0.1-0.4,0-0.6c0.1-0.7,0.1-1.3-0.1-1.9
				c0-0.1-0.1-0.2,0-0.3c0.4-0.6,0.8-1.1,1-1.8C37,12.7,37,12.7,37.1,12.6z"/>
			<path class="st0" d="M25.1,29.4c-0.5,0.1-0.9,0.3-1.2,0.6c-0.1,0.1-0.1,0.2-0.3,0.2c-0.1,0-0.2,0-0.3-0.1c0-0.1,0-0.2,0-0.3
				c0.3-0.5,0.7-0.7,1.2-1c0.3-0.1,0.7-0.3,1-0.4c0.4-0.2,0.7-0.5,1-0.8c0.1-0.2,0.3-0.3,0.5-0.4c0.1-0.1,0.1,0,0.1,0.1
				c0,0.8-0.2,1.4-0.7,2c-0.4,0.4-0.8,0.7-1.2,1c-0.4,0.2-0.7,0.2-1.1,0.1c0,0-0.1,0-0.1-0.1c0-0.1,0.1,0,0.1-0.1
				C24.5,30,24.9,29.9,25.1,29.4z"/>
			<path class="st0" d="M35.5,24.6c-0.4,0.7-0.7,1.5-1.3,2.1c-0.4,0.4-0.9,0.7-1.4,0.8c-0.3,0.1-0.7,0-1,0c0.3-0.2,0.6-0.3,0.8-0.6
				c0,0,0.1-0.1,0.1-0.1c0-0.1-0.1,0-0.2,0c-0.3,0.1-0.7,0.3-1,0.5c-0.1,0.1-0.2,0.1-0.4,0.2c0.2-0.2,0.4-0.4,0.6-0.5
				c0.6-0.5,1.1-1.1,1.5-1.7c0.2-0.3,0.4-0.3,0.7-0.3c0.4,0,0.9-0.2,1.3-0.3C35.4,24.6,35.4,24.6,35.5,24.6z"/>
			<path class="st0" d="M32.1,7.6c0.5,0.2,1,0.5,1.4,0.8c0.5,0.3,1,0.8,1.3,1.2c0.2,0.3,0.3,0.5,0.2,0.8c-0.1,0.4-0.1,0.8-0.2,1.3
				c0,0.1,0,0.1-0.1,0.2c-0.2-0.6-0.4-1.3-0.9-1.9c-0.1,0.5,0.1,0.8,0.3,1.3c-0.2-0.3-0.5-0.5-0.7-0.6c-0.5-0.2-0.6-0.6-0.7-1
				C32.8,9,32.5,8.3,32.1,7.6z"/>
			<path class="st0" d="M7.9,21.2c-0.4-0.2-0.8-0.4-1.2-0.6c-0.2-0.1-0.2-0.3-0.3-0.5c-0.3-0.6-0.5-1.3-0.6-2c-0.1-0.5,0-1.1,0-1.6
				c0-0.1,0-0.2,0.1-0.3c0.4,0.5,0.9,1,1.4,1.4c0.1,0.1,0.1,0.2,0.1,0.3c0,0.6,0,1.1,0.1,1.7c0,0.1,0,0.2,0,0.3
				c-0.2-0.2-0.4-0.4-0.5-0.6c0,0-0.1-0.1-0.2-0.1c-0.1,0,0,0.1,0,0.2c0.2,0.5,0.5,0.9,0.8,1.2C7.8,20.8,7.8,20.8,7.9,21.2z"/>
			<path class="st0" d="M35,23.6c-0.4,0.1-0.7,0.3-1.1,0.5c0.2-0.4,0.1-0.7,0.5-1c0.4-0.3,0.7-0.7,0.9-1.1c0.2-0.3,0.4-0.5,0.8-0.6
				c0.1,0,0.1,0,0.2,0c0.5-0.2,0.5-0.2,0.4,0.4c-0.1,1.1-0.5,2-1.3,2.7c-0.1,0.1-0.2,0.1-0.4,0.2c-0.4,0.1-0.8,0.2-1.1,0.3
				c-0.1,0-0.1,0.1-0.1,0c0,0,0-0.1,0-0.1c0-0.1,0.1-0.2,0.2-0.2C34.3,24.3,34.7,24,35,23.6z"/>
			<path class="st0" d="M14,29c-0.4-0.1-0.8-0.2-1.2,0c0.4,0.2,0.9,0.3,1.4,0.4c-0.2,0.1-0.4,0.2-0.6,0.2c-0.6,0.3-1.1-0.1-1.7-0.3
				c-0.6-0.3-1.2-0.6-1.6-1.1c-0.1-0.1-0.1-0.3-0.3-0.4c0.4-0.1,0.7-0.1,1-0.2c0.3,0,0.7,0,1-0.1c0.2,0,0.3,0,0.5,0.2
				c0.4,0.4,0.9,0.8,1.4,1.1C13.9,28.9,14,29,14,29z"/>
			<path class="st0" d="M35.5,17.7c0.1-0.5,0-1-0.1-1.5c-0.2,0.2-0.2,0.4-0.2,0.6c-0.1,0.3-0.1,0.6-0.1,0.9c0,0.2-0.3,0.5-0.5,0.6
				c-0.1,0-0.1,0-0.1-0.1c-0.1-0.1-0.1-0.2-0.1-0.4c-0.1-0.6-0.1-1.2,0.1-1.8c0.1-0.3,0.1-0.7,0.1-1c0-0.5,0.3-0.8,0.5-1.2
				c0.1-0.1,0.1,0,0.2,0c0.3,0.4,0.5,0.9,0.5,1.3c0.1,0.6,0.1,1.1,0.1,1.7c0,0.2-0.1,0.4-0.2,0.5C35.6,17.6,35.6,17.7,35.5,17.7z"/>
			<path class="st0" d="M35.9,14.3c0.1-0.5,0.2-0.9,0.2-1.3c0-0.1,0-0.3,0-0.4c0,0,0-0.1-0.1-0.1c-0.1,0-0.1,0.1-0.1,0.1
				c-0.1,0.4-0.3,0.9-0.2,1.4c-0.2-0.3-0.5-0.5-0.5-0.8c0-0.4,0-0.7-0.2-1.1c-0.1-0.2,0-0.4,0-0.6c0.1-0.5,0.2-1,0.2-1.6
				c0-0.1,0-0.1,0-0.3c0.3,0.3,0.5,0.5,0.7,0.8c0.4,0.6,0.7,1.2,0.9,1.9c0,0.1,0,0.3-0.1,0.4c-0.2,0.5-0.3,1.1-0.7,1.5
				C36,14.3,36,14.3,35.9,14.3z"/>
			<path class="st0" d="M11.6,7.2c-0.5,0.9-0.8,1.8-0.9,2.7c0,0.1-0.1,0.2-0.2,0.3c-0.3,0.2-0.6,0.4-0.9,0.5
				c0.2-0.3,0.2-0.6,0.2-0.9c0-0.1,0.1-0.2,0-0.2c-0.1,0-0.1,0.1-0.2,0.1c-0.2,0.3-0.4,0.6-0.5,0.9c0,0.1,0,0.1-0.1,0.3
				C9,10.4,8.9,9.9,8.9,9.4c0-0.1,0-0.1,0-0.2C9.6,8.2,10.5,7.6,11.6,7.2z"/>
			<path class="st0" d="M30.7,25.7c0.1-0.3,0.2-0.7,0.1-1c-0.3,0.4-0.5,0.8-0.6,1.2c0,0.1-0.1,0.2-0.2,0.2c-0.2,0.1-0.3,0-0.3-0.2
				c0-0.6,0-1.1,0-1.7c0-0.3,0.1-0.4,0.4-0.4c0.2,0,0.4-0.4,0.4-0.6c-0.1-0.4,0.1-0.8,0.5-1c0.1,0,0.1,0,0.2,0.1
				c0.2,0.3,0.3,0.5,0.4,0.9c0.1,0.8-0.2,1.5-0.7,2.2C30.9,25.5,30.9,25.6,30.7,25.7z"/>
			<path class="st0" d="M15.7,31.9c1.6-0.4,3-1.2,4.6-1.5c-0.1,0.3-0.2,0.6-0.3,0.9c-0.1,0.1-0.1,0.2-0.3,0.3
				c-0.7,0.3-1.3,0.5-2,0.9c-0.3,0.2-0.6,0-0.8-0.1C16.5,32.2,16.1,32.1,15.7,31.9z"/>
			<path class="st0" d="M10,19.9c-0.1-0.2-0.3-0.4-0.3-0.6c0-0.1,0-0.3,0.1-0.5c0-0.2,0-0.4,0-0.6c0-0.1,0-0.1-0.1-0.1
				c-0.1,0-0.1,0.1-0.1,0.1c-0.1,0.3-0.1,0.5-0.1,0.8c-0.4-0.3-0.5-0.6-0.3-1.3c0.2-0.6,0.4-1.2,0.9-1.7c0,0,0.1-0.1,0.1-0.1
				c0.2-0.2,0.2-0.1,0.3,0.1c0.1,0.5,0.4,1,0.5,1.6c0,0.2,0,0.4,0,0.6c0,0.1-0.1,0.1-0.1,0.2C10.4,18.9,10.2,19.3,10,19.9z"/>
			<path class="st0" d="M29.2,29.4c0.4-0.1,0.9-0.2,1.3-0.4c-0.4-0.2-0.8-0.1-1.1,0c0.3-0.2,0.5-0.4,0.8-0.5
				c0.3-0.2,0.5-0.5,0.8-0.7c0.1-0.1,0.1-0.1,0.2-0.1c0.4,0,0.7,0,1.1,0c0.3,0,0.7,0,1,0.1c-0.1,0.3-0.4,0.5-0.6,0.7
				c-0.6,0.5-1.4,0.9-2.2,1.1c-0.3,0.1-0.6,0-0.9-0.1C29.5,29.5,29.3,29.5,29.2,29.4z"/>
			<path class="st0" d="M36.6,19.3c-0.3,0.2-0.5,0.5-0.7,0.7c0.1-0.5,0.1-1,0.1-1.5c0-0.1,0.1-0.1,0.1-0.2c0.4-0.3,0.8-0.8,1.1-1.2
				c0,0,0.1-0.1,0.1-0.2c0.1,0.3,0.2,0.5,0.2,0.8c0,1-0.2,2-0.8,2.9c0,0.1-0.1,0.1-0.1,0.1c-0.3,0.2-0.6,0.3-1,0.5
				c0,0-0.1,0.1-0.1,0c0,0,0-0.1,0-0.2c0.1-0.3,0.3-0.4,0.5-0.7C36.3,20.1,36.5,19.8,36.6,19.3z"/>
			<path class="st0" d="M27.8,31.7c-0.6,0.3-1.2,0.4-1.8,0.6c-0.1,0-0.2,0-0.2,0c-0.7-0.3-1.3-0.6-2-0.8c-0.2,0-0.2-0.2-0.2-0.3
				c-0.1-0.2-0.1-0.4-0.1-0.7c0-0.2,0.1-0.2,0.2-0.2c0.7,0.2,1.5,0.4,2.1,0.7c0.4,0.2,0.8,0.4,1.2,0.5
				C27.2,31.6,27.5,31.7,27.8,31.7z"/>
			<path class="st0" d="M33.5,20.2c-0.1-0.5-0.3-1-0.8-1.3c-0.3-0.2-0.2-0.5-0.1-0.7c0.1-0.6,0.3-1.2,0.5-1.8c0-0.1,0.1-0.1,0.1-0.1
				c0.7,0.6,1,1.4,1.1,2.2c0,0.4-0.2,0.6-0.4,0.8c0-0.3-0.1-0.5-0.1-0.8c0,0,0,0,0-0.1c0-0.1-0.1-0.3-0.2-0.3c-0.1,0,0,0.2-0.1,0.3
				c0,0.3,0,0.6,0.1,0.9C33.8,19.7,33.6,19.9,33.5,20.2z"/>
			<path class="st0" d="M11.8,23.1c0.1-0.3,0.2-0.6,0.4-0.9c0.1-0.1,0.1-0.1,0.2,0c0.2,0.1,0.3,0.2,0.5,0.3c0.1,0.1,0.2,0.1,0.1,0.3
				c0,0.2,0,0.4,0,0.6c0,0.2,0.2,0.2,0.3,0.2c0.3,0.1,0.5,0.3,0.5,0.6c0,0.2,0,0.5,0,0.7c-0.1,0.3,0,0.7,0,1c0,0.1,0,0.2-0.1,0.2
				c-0.1,0-0.2,0-0.2-0.2c-0.1-0.7-0.5-1.3-0.9-1.8c-0.2-0.2-0.4-0.5-0.6-0.7C11.8,23.3,11.8,23.2,11.8,23.1z"/>
			<path class="st0" d="M8.9,13.4c-0.2-0.4-0.2-0.7-0.1-1.1c0.2-0.6,0.6-1.1,1.1-1.5c0.2-0.2,0.4-0.3,0.7-0.4c0,0.2-0.1,0.3-0.1,0.5
				c-0.1,0.5-0.1,1-0.1,1.5c0,0.3-0.1,0.5-0.3,0.7c-0.3,0.3-0.5,0.6-0.9,0.8c-0.1,0.1-0.1,0-0.2,0c0-0.1-0.1-0.3,0-0.4
				c0.2-0.2,0.3-0.4,0.3-0.7c0-0.1,0.1-0.2,0-0.2c-0.1,0-0.1,0-0.2,0.1C9,12.8,8.9,13.1,8.9,13.4z"/>
			<path class="st0" d="M33.4,13.4c0.3,0.4,0.6,0.7,1,1c0.1,0.1,0.1,0.1,0.1,0.2c0,0.4,0,0.7-0.1,1.2c-0.1-0.3-0.1-0.7-0.4-0.9
				c-0.1,0.2,0,0.5,0,0.7c0,0.1,0.1,0.3,0.1,0.4c0.2,0.3,0,0.6,0,0.8c0,0,0,0.1-0.1,0c-0.3-0.3-0.7-0.5-1-0.9
				c-0.2-0.2-0.2-0.4-0.1-0.6C33.3,14.8,33.4,14.2,33.4,13.4C33.3,13.5,33.3,13.4,33.4,13.4z"/>
			<path class="st0" d="M33.2,10.7c1.1,0.5,1.9,1.9,1.4,2.9c0-0.3-0.1-0.5-0.2-0.7c-0.1-0.1-0.1-0.3-0.3-0.2c-0.1,0.1,0,0.2,0,0.3
				c0.1,0.2,0.2,0.4,0.3,0.6c0,0.1,0.1,0.1,0,0.2c0,0.1,0,0.2-0.1,0.3c-0.1,0-0.1-0.1-0.2-0.2c-0.2-0.2-0.4-0.4-0.6-0.7
				c-0.3-0.4-0.2-0.9-0.2-1.3c0-0.4,0-0.7-0.1-1C33.2,10.8,33.1,10.8,33.2,10.7z"/>
			<path class="st0" d="M10.4,13c-0.1,0.3-0.1,0.5-0.1,0.8c0,0.5,0.1,1.1,0.2,1.6c0,0.2,0,0.3-0.1,0.4c-0.2,0.3-0.5,0.5-0.9,0.8
				c-0.1-0.2-0.2-0.4,0-0.7c0.2-0.3,0.3-0.7,0.3-1.1c-0.3,0.2-0.5,0.5-0.6,0.8c0-0.2-0.1-0.4-0.1-0.6c0-0.2,0.1-0.5,0.1-0.7
				c0-0.1,0.2-0.2,0.3-0.3C9.8,13.6,10.1,13.3,10.4,13C10.3,13,10.3,13,10.4,13C10.4,12.9,10.4,13,10.4,13z"/>
			<path class="st0" d="M8.4,29.2c0.1-0.1,0.3-0.1,0.4-0.1c0.4,0,0.7,0,1.1,0c0.2,0,0.5,0.1,0.7,0c0.3-0.1,0.6,0.1,0.8,0.3
				c0.1,0,0,0.1,0,0.1c-0.1,0.3-0.1,0.5-0.2,0.8c0,0.2-0.2,0.1-0.3,0.1c-0.3-0.1-0.5-0.1-0.8-0.2c-0.3-0.1-0.6-0.2-0.9-0.4
				C9,29.6,8.7,29.5,8.4,29.2z"/>
			<path class="st0" d="M34.6,29.1c-0.5,0.4-1.1,0.7-1.7,1c-0.1,0.1-0.2,0.1-0.3,0.1c-0.3,0.1-0.4,0.1-0.5-0.3
				c-0.1-0.2-0.1-0.3-0.2-0.5c-0.1-0.3,0-0.4,0.2-0.4c0.1,0,0.3,0,0.4,0c0.6,0,1.2-0.1,1.8-0.1C34.4,29,34.5,29,34.6,29.1z"/>
		</g>
		<g>
			
				<radialGradient id="SVGID_1_" cx="-354.1727" cy="131.809" r="6.6757" gradientTransform="matrix(2.7187 0 0 2.7187 979.5745 -351.0979)" gradientUnits="userSpaceOnUse">
				<stop  offset="2.000000e-02" style="stop-color:#E60012"/>
				<stop  offset="0.1352" style="stop-color:#E60012"/>
				<stop  offset="0.98" style="stop-color:#B60005"/>
			</radialGradient>
			<path class="st1" d="M10.7,13.3L10.7,13.3l0,0.4c0,0,0,0.4,0,0.4c0,0,0.1,0.6,0.1,0.6l0.1,0.2l0.2,0c0.3,1.5,1,2.9,1.8,4.2l0,0.2
				l0,0.1l0.1,0.1l0.8,0.9l0,0c0,0,0.1,0,0.1,0c0,0,0,0,0,0l-0.6,3.2l0.8,0.1l0,0.3l0.8,0.2l0,0.4l0.7,0.2l0,0.2l1.7,0.2l0-0.6
				l0.9-0.4L18,24.5l-0.1,0.4l0.6,0.1l0,0.1l1,0.2l0.1-0.1c0,0,0.2,0.1,0.2,0.1c0,0,1.2,0.1,1.2,0.1c0,0,0.1-0.1,0.1-0.1l1.2,0
				l0.1,0.1l1,0l0.1,0l0.1-0.1l0,0l0.1,0.1l1-0.1l0.1-0.1l0.5-0.1l0-0.4l-0.2-0.3l0.9,0.4l0,0.1l0,0.5l1.7-0.2l0-0.1l0,0l0.7-0.2
				l0-0.4l0,0l0.8-0.2l0-0.3l0,0l0.7-0.1l-0.5-3.2l0.2,0l0.7-0.8l0.1-0.2l0-0.3c0.9-1.2,1.6-2.6,1.9-4.1l0.1,0l0.1,0l0.1,0l0.1-0.2
				l0.2-1.3l0-0.1l-0.1,0l-0.1,0l0,0c0-0.3,0-0.5,0-0.8c0-2-0.6-3.9-1.5-5.6c0,0,0-0.1,0-0.1c0,0,0.1-0.1,0.1-0.1l0-0.1l-0.3-0.4
				L31,6.2L30.8,6h-0.1l-0.1,0c-2-2.7-5.3-4.5-8.9-4.5c-3.5,0-6.6,1.7-8.7,4.2l0,0l-0.1,0l-0.1,0.1l-0.5,0.7l0,0.1l0.1,0.1
				c-1.1,1.7-1.7,3.6-1.7,5.8c0,0.2,0,0.4,0,0.6l-0.1,0L10.7,13.3L10.7,13.3z"/>
			
				<radialGradient id="SVGID_2_" cx="-353.8857" cy="131.5431" r="6.8605" gradientTransform="matrix(2.7187 0 0 2.7187 979.5745 -351.0979)" gradientUnits="userSpaceOnUse">
				<stop  offset="5.000000e-02" style="stop-color:#FFFFFF"/>
				<stop  offset="0.113" style="stop-color:#FFFFFF"/>
				<stop  offset="0.554" style="stop-color:#FFF100"/>
				<stop  offset="0.941" style="stop-color:#F7AD00"/>
				<stop  offset="0.95" style="stop-color:#F7AD00"/>
			</radialGradient>
			<path class="st2" d="M26.1,7.5l0.2,0.9l0.9,0.1L26.5,9l0.2,0.9L26,9.3l-0.8,0.5l0.4-0.9l-0.7-0.6l0.9,0.1L26.1,7.5L26.1,7.5
				L26.1,7.5z M22.8,25.2L22.8,25.2l0.8-0.1l0-0.2l-0.3,0l0,0l0-0.8l-0.2,0l0,0.7L22,25l0-0.4l-0.2,0l0,0.6L22.8,25.2L22.8,25.2
				L22.8,25.2z M11,13.4L11,13.4l0,0.3c0,0,1.1-1.1,1.2-1.3c0.2-0.2,1.3-1.3,1.5-1.5c0,0.1,0,0.2-0.1,0.3c-0.1,0.1-0.3,0.2-0.3,0.3
				c-0.1,0.1-0.9,0.9-1.1,1.1c-0.1,0.2-1.3,1.4-1.3,1.4l0,0.4c0,0,1-1.1,1.2-1.3c0.2-0.2,1.1-1.2,1.4-1.4c0,0.3,0,0.6,0,0.8
				c0,2.7,1.3,5.1,3.3,6.6l0.4,2l0,0c0,0-0.1-0.1-0.1-0.1c0,0-0.1-0.1-0.1-0.1c0,0,0-0.1,0-0.1s-0.1-0.1-0.1-0.1
				c0,0-0.2-0.3-0.2-0.3c0,0,0,0-0.1,0c-0.1,0,0,0,0,0.1c0,0,0.1,0.1,0.1,0.1c0,0,0,0.1,0,0.2c0,0,0,0-0.1,0c0,0-0.1-0.1-0.1-0.1
				c0,0,0-0.1,0-0.1c0,0-0.1-0.1-0.1-0.1c0,0,0-0.1,0.1-0.1c0,0,0.1,0,0.1,0s-0.2-0.1-0.2-0.2c-0.1,0-0.1-0.2-0.1-0.2
				c0,0-0.1,0-0.1,0c0,0-0.1,0-0.1-0.1c0,0-0.1,0-0.1,0c0,0,0,0.1,0.1,0.1c0,0,0,0.1,0,0.2c0,0.1,0,0.2,0,0.2l-0.1,0L16,20l-0.4-0.4
				h-0.1L15,19.1l-0.1,0l-0.4-0.5l-0.1,0l0.4,0.5l0.1,0l0.5,0.5h0.1l0.5,0.4c0,0,0.2,0,0.2,0c0,0,0.5,0.4,0.5,0.4
				c0,0,0.4,0.3,0.6,0.4c0,0,0.1,0.5,0.4,0.8c0.3,0.3,0.7,0.5,1.1,0.6c0.5,0.1,0.8,0.1,1,0.1c0.2,0,0.5,0,0.7-0.1
				c0.2-0.1,0.3-0.1,0.4-0.1c0.1,0,0.2-0.1,0.2-0.1l0,0c0,0.1,0,0.1,0,0.1c0,0-0.1,0.1-0.3,0.2c-0.2,0.1-0.6,0.3-0.9,0.3
				c-0.3,0.1-0.6,0.1-1.3,0.1c-0.7-0.1-1.2-0.5-1.2-0.5l0,0c0,0-0.1-0.1-0.3-0.2c-0.1-0.1-0.3-0.3-0.3-0.3l-0.1,0
				c0,0-0.2-0.4-0.4-0.7c-0.2-0.4-0.2-0.8-0.2-0.8l-0.1,0l0,0.1c0,0,0,0.3,0.1,0.6c0.1,0.2,0.2,0.5,0.6,1.1c0.5,0.6,1.1,0.8,1.1,0.8
				l0.1-0.1c0,0,0,0.1,0.3,0.1c0.2,0,0.9,0.1,1.1,0.1c0.1,0,0.8-0.1,1.1-0.2c0.3-0.1,0.7-0.3,0.8-0.4l0,0.1L21,22.4l-0.1,0
				c0.2,0.2,0.5,0.3,0.8,0.3c0.3,0,0.6-0.1,0.8-0.3l0,0l-0.2-0.2l0,0c0.1,0.1,0.5,0.4,0.8,0.5c0.4,0.1,1,0.2,1.1,0.2
				c0.1,0,0.9,0,1.1-0.1c0.2,0,0.3-0.1,0.3-0.1l0.1,0.1c0,0,0.6-0.2,1.1-0.8c0.5-0.6,0.6-0.8,0.6-1.1c0.1-0.2,0.1-0.6,0.1-0.6l0-0.1
				l-0.1,0c0,0-0.1,0.5-0.2,0.8c-0.2,0.4-0.4,0.7-0.4,0.7l-0.1,0c0,0-0.2,0.2-0.3,0.3c-0.1,0.1-0.3,0.2-0.3,0.2l0,0
				c0,0-0.5,0.4-1.2,0.5c-0.7,0.1-1,0-1.3-0.1c-0.3-0.1-0.7-0.2-0.9-0.3c-0.2-0.1-0.3-0.2-0.3-0.2c0,0,0-0.1,0-0.1l0,0
				c0,0,0.2,0.1,0.2,0.1c0.1,0,0.2,0.1,0.4,0.1c0.2,0.1,0.6,0.1,0.7,0.1c0.2,0,0.5,0.1,1-0.1c0.5-0.1,0.8-0.4,1.2-0.6
				c0.3-0.3,0.4-0.7,0.4-0.7l-0.2,0.1c0,0,0,0.1-0.1,0.3c-0.1,0.2-0.1,0.2-0.5,0.5c-0.4,0.3-0.8,0.4-1,0.4c-0.3,0-0.8,0-1.2,0
				c-0.5-0.1-0.8-0.4-0.8-0.4c0-0.1,0-0.2,0-0.3c0,0,0,0,0,0c0,0,0,0,0-0.1c0.1-0.1,0.1,0,0.2,0c0,0,0.1,0,0.1,0l0,0l0.3,0
				c0,0,0,0,0,0c0.1,0,0.2,0,0.2,0c0.1,0,0.1,0,0.2,0c0,0,0,0,0,0l0.3,0l0,0c0.1,0,0.3,0,0.3,0c0.2,0,0.3,0,0.3,0l0.1,0l0,0
				c0.1,0,0.2,0,0.2,0c0.2,0,0.4-0.1,0.4-0.1l0,0l0.1-0.3l-0.7,0.2l0,0l0.1,0l0,0.1l0,0l0-0.1l-0.2-0.1l-0.1-0.3l0.2-0.1l-0.2-0.5
				l-0.2,0.1l-0.2-0.3l0.1-0.3l-0.3-0.3l-0.2,0.1L23,19.6l0.1-0.3l-0.4-0.2l-0.2,0.2L22,19.3L21.9,19h-0.4l-0.1,0.3l-0.4,0.1
				l-0.2-0.2l-0.3,0.2l0,0.3l-0.3,0.2L20,19.7L19.7,20l0.1,0.3l-0.2,0.3l-0.3,0l-0.2,0.4l0.2,0.2l0,0.3l-0.3,0l0,0.1l-0.1,0l0-0.1
				l0.1,0l0,0l-0.7-0.2l0,0.3l0,0c0,0,0.2,0.1,0.4,0.1c0.2,0,0.4,0.1,0.4,0.1l0,0c0.1,0,0.5,0,0.7,0c0,0,0,0,0,0l0.2,0c0,0,0,0,0,0
				c0.1,0,0.1,0,0.2,0c0.1,0,0.2,0,0.2,0l0,0l0.3,0l0,0c0.1,0,0.1,0,0.2,0c0,0,0.1,0,0.1,0.1c0,0,0,0,0,0c0,0,0,0.1,0,0.3
				c0,0-0.4,0.3-0.9,0.4c-0.5,0.1-1,0.1-1.2,0c-0.3,0-0.7-0.2-1-0.5c-0.4-0.3-0.4-0.3-0.5-0.5c-0.1-0.2-0.1-0.3-0.1-0.3l0,0l0.4,0.2
				l-0.4-1.9c0.1,0,0.1,0.1,0.2,0.1l0.4,1.8l0.4,0.1L18,19.7c0.5,0.3,1.1,0.5,1.7,0.7l0-0.1c-0.6-0.2-1.2-0.4-1.7-0.7l0,0l-0.4-0.2
				l0,0c-0.1,0-0.1-0.1-0.2-0.1l-0.4-0.3l0,0c-0.2-0.1-0.3-0.2-0.4-0.4L27,18.7l0,0c-0.9,0.8-2,1.3-3.1,1.6l0,0.1
				c0.6-0.2,1.1-0.4,1.6-0.6l-0.4,1.7l0.4-0.1l0.4-1.9c0.1,0,0.1-0.1,0.2-0.1l-0.4,1.9l0.4-0.2l0.5-2c2.1-1.5,3.4-3.9,3.4-6.6
				c0-0.2,0-0.4,0-0.7c0.3,0.3,1.2,1.3,1.4,1.5c0.2,0.2,1.2,1.3,1.2,1.3l0-0.4c0,0-1.1-1.2-1.3-1.4c-0.1-0.2-1-1-1-1.1
				c0,0-0.2-0.2-0.3-0.3c0-0.1,0-0.2,0-0.3c0.2,0.2,1.4,1.4,1.5,1.5c0.2,0.2,1.2,1.4,1.2,1.4l0-0.3c0,0-1.1-1.2-1.3-1.5
				c-0.2-0.2-1.2-1.3-1.5-1.5c-0.8-3.6-4.1-6.4-8-6.4c-3.8,0-7,2.6-7.9,6.2c-0.3,0.3-1.3,1.3-1.5,1.5C12.1,12.2,11,13.4,11,13.4
				L11,13.4z M23,10l0.6,0.7l0.9-0.4L24,11.1l0.6,0.7l-0.9-0.2l-0.5,0.8l-0.1-0.9l-0.9-0.2l0.9-0.4L23,10L23,10L23,10z M20.6,10
				L20.5,11l0.9,0.4l-0.9,0.2l-0.1,0.9l-0.5-0.8L19,11.9l0.6-0.7l-0.5-0.8l0.9,0.4L20.6,10L20.6,10L20.6,10z M17.5,7.4l0.4,0.9
				l0.9-0.1l-0.7,0.6l0.4,0.9l-0.8-0.5l-0.7,0.6l0.2-0.9l-0.8-0.5l0.9-0.1L17.5,7.4L17.5,7.4L17.5,7.4z M19.2,14.4L19.2,14.4l0-0.1
				l0,0c0,0,0.1,0.1,0.1,0.1L19.2,14.4L19.2,14.4l5.2,0.2v-0.1l-0.1-0.1l0,0l0,0l0,0l0,0.1c0,0,0.1,0.1,0.1,0.1c0,0,0,0.1,0,0.1
				l0,0.6l0,0l0-0.6l0,0l0,0.6l-0.1,0l0-0.6l-5.3-0.1l0,0.6l-0.1,0l0-0.1l0-0.6l0,0l0,0.6l0,0l0-0.6c0,0,0-0.1,0-0.1
				C19.1,14.4,19.1,14.4,19.2,14.4L19.2,14.4L19.2,14.4z M19.2,15.3l0-0.6l0,0l5.1,0.1l0,0.6l0,0v0l0,0l0,0l0,0l0,0l0,0l0-0.1l0,0
				l0.1,0l0,0l0,0l0,0l0,0l0,0l0,0l0,0l0,0l0,0l0,0l0,0l0,0l0,0l0.1,0l0,0.1h0l0.1,0l0,0l0,0l-0.1,0.1h-0.5v0l-5.7-0.1l-0.1-0.1l0,0
				l0,0h0.1h0l0-0.1l0.1,0l0,0l0,0l0,0l0,0l0,0l0,0l0,0l0,0v0l0,0l0,0l0,0l0,0l0.1,0l0,0l0,0.1l0,0L19.2,15.3L19.2,15.3L19.2,15.3
				L19.2,15.3L19.2,15.3L19.2,15.3z M18.8,15.6l6,0.1l0,0.1L18.8,15.6L18.8,15.6L18.8,15.6L18.8,15.6z M18.6,15.8l0.1-0.1l6,0.1
				l0.2,0.1l0,0l0,0l0,0l0.1,0l0,0.1l0,0.1l0,0l0.1,0.1h0.1l0,0L25.2,16l-6.8-0.1l0,0l0,0h0.1L18.6,15.8L18.6,15.8L18.6,15.8
				L18.6,15.8l0-0.1L18.6,15.8L18.6,15.8L18.6,15.8L18.6,15.8L18.6,15.8z M18.6,16.1L18.6,16.1l6.4,0l-0.1,0.1L18.6,16.1L18.6,16.1
				L18.6,16.1z M21.4,16.3L21.4,16.3l0.7,0l0,0.1l0,0c0,0,0.1,0,0.1,0c0,0,0,0,0,0l0,0.3l0,0c0,0-0.1,0-0.1,0c0,0,0,0,0,0l0,0l0,0
				l-0.6,0c0,0,0-0.1,0-0.1c0,0,0,0,0,0l-0.1,0l0,0l0-0.3L21.4,16.3L21.4,16.3L21.4,16.3L21.4,16.3L21.4,16.3z M24.8,16.7L24.8,16.7
				L24.8,16.7L24.8,16.7L24.8,16.7L24.8,16.7L24.8,16.7l-0.1,0.1L24.8,16.7C24.7,16.7,24.7,16.7,24.8,16.7
				C24.7,16.7,24.7,16.7,24.8,16.7L24.8,16.7L24.8,16.7L24.8,16.7L24.8,16.7z M24.6,16.7L24.6,16.7L24.6,16.7L24.6,16.7l-0.1,0
				c0,0,0,0,0,0c0,0,0,0,0,0c0,0,0,0,0,0L24.6,16.7C24.6,16.7,24.6,16.7,24.6,16.7C24.6,16.7,24.6,16.7,24.6,16.7L24.6,16.7
				L24.6,16.7z M24,16.7L24,16.7L24,16.7C24,16.7,23.9,16.7,24,16.7C23.9,16.7,23.9,16.7,24,16.7c-0.1,0-0.1,0-0.1,0c0,0,0,0,0,0
				C23.9,16.7,23.9,16.7,24,16.7C23.9,16.7,24,16.7,24,16.7C24,16.7,24,16.7,24,16.7C24,16.7,24,16.7,24,16.7L24,16.7L24,16.7z
				 M23.2,16.7L23.2,16.7L23.2,16.7L23.2,16.7L23.2,16.7L23.2,16.7c0.1-0.1,0.1-0.1,0.1-0.1c0,0,0,0,0,0v0l0,0L23.2,16.7L23.2,16.7
				L23.2,16.7z M22.6,16.7L22.6,16.7L22.6,16.7L22.6,16.7L22.6,16.7L22.6,16.7c0.1,0,0.1,0,0.1,0c0,0,0,0,0,0l0,0l0,0l0,0L22.6,16.7
				L22.6,16.7L22.6,16.7L22.6,16.7L22.6,16.7L22.6,16.7z M22.2,16.2L22.2,16.2l0.3,0l0,0l0,0l0,0l0,0l0,0.4l0,0l0,0l0,0l0,0l0,0
				l0-0.1c0,0,0,0,0,0c0,0,0,0,0,0c0,0,0,0,0,0h0l0-0.3c0,0,0,0,0.1,0c0,0,0,0,0,0c0,0,0,0,0,0l0.2,0c0,0,0,0,0,0c0,0,0,0,0,0
				c0,0,0,0,0,0c0,0,0,0,0,0c0,0,0,0.3,0,0.3c0,0,0,0,0,0c0,0-0.1,0-0.1,0l0,0H23v-0.4c0,0,0,0-0.1,0c0,0,0,0,0,0v0l0.2,0l0,0
				l-0.1,0l0,0l0,0.4h0.1c0,0,0-0.1,0-0.1c0,0,0,0,0,0c0,0,0,0,0,0l0,0v-0.3c0,0,0,0,0,0c0,0,0.1-0.1,0.1-0.1c0,0,0,0,0,0
				c0,0,0.1,0,0.1,0l0,0l0,0l0.1,0l0,0.3c0,0,0,0,0,0c0,0,0,0,0,0c0,0,0,0,0,0h0.1c0,0,0-0.1,0-0.1c0,0,0-0.4,0-0.4s0,0,0,0
				c0,0,0,0,0,0l0,0l0.3,0c0,0,0,0,0,0c0,0-0.1,0-0.1,0c0,0,0,0,0,0c0,0,0,0.4,0,0.4c0,0,0,0,0,0c0,0,0.1,0,0.1,0c0,0,0,0,0,0
				c0,0,0,0,0,0c0,0,0,0,0,0c0,0,0,0,0,0c0,0,0,0,0,0c0,0,0,0,0,0c0,0,0-0.3,0-0.3c0,0,0.1,0,0.1,0c0,0,0.1,0,0.1,0c0,0,0,0,0.1,0
				c0,0,0.1,0,0.1,0c0,0,0,0,0,0c0,0,0.1,0,0.1,0.1c0,0,0,0.3,0,0.3c0,0-0.1,0-0.1,0c0,0,0,0,0,0c0,0,0,0,0,0h0.1c0,0,0,0,0,0
				c0,0,0-0.4,0-0.4c0,0,0,0,0,0c0,0,0,0,0,0c0,0,0,0,0,0c0,0,0.2,0,0.2,0l0,0c0,0-0.1,0-0.1,0c0,0,0,0,0,0c0,0,0,0.4,0,0.4
				c0,0,0,0,0,0c0,0,0.1,0,0.1,0c0,0,0,0,0,0c0,0,0,0,0,0c0,0,0,0,0,0c0,0,0,0,0,0c0,0,0,0,0,0c0,0,0,0,0,0c0,0,0-0.3,0-0.3
				c0,0,0,0,0.1,0c0,0,0,0,0,0c0,0,0,0,0.1,0c0,0,0.1,0,0.1,0c0,0,0.1,0,0.1,0c0,0,0.1,0,0.1,0.1c0,0,0,0,0,0c0,0,0,0.2,0,0.2
				c0,0,0,0,0,0c0,0,0,0,0,0c0,0,0-0.3,0-0.3c0,0,0,0,0,0c0,0,0,0,0,0c0,0,0,0,0,0l0.1,0v0.4c0,0,0,0,0,0c0,0,0,0,0,0
				c0,0,0.1,0,0.1,0c0,0,0,0,0,0c0,0,0,0,0,0s0,0,0,0c0,0,0,0,0,0c0,0,0,0,0,0c0,0,0,0.1,0,0.1l-3,0c0,0,0,0,0,0c0,0,0,0,0,0
				c0,0,0.1,0,0.1,0C22.3,16.7,22.3,16.3,22.2,16.2C22.3,16.3,22.3,16.3,22.2,16.2C22.3,16.3,22.2,16.2,22.2,16.2L22.2,16.2
				L22.2,16.2z M18.8,16.6L18.8,16.6L18.8,16.6C18.7,16.6,18.7,16.6,18.8,16.6C18.7,16.6,18.7,16.7,18.8,16.6
				C18.7,16.7,18.8,16.7,18.8,16.6L18.8,16.6c0.1,0.1,0.1,0.1,0.1,0.1c0,0,0,0,0,0L18.8,16.6C18.8,16.6,18.8,16.6,18.8,16.6
				C18.8,16.6,18.8,16.6,18.8,16.6L18.8,16.6L18.8,16.6z M18.9,16.6L18.9,16.6L18.9,16.6L18.9,16.6L18.9,16.6l0.1,0c0,0,0,0,0,0
				c0,0,0,0,0,0c0,0,0,0,0,0L18.9,16.6C19,16.7,18.9,16.7,18.9,16.6C18.9,16.7,18.9,16.6,18.9,16.6L18.9,16.6L18.9,16.6z M19.6,16.6
				L19.6,16.6L19.6,16.6L19.6,16.6L19.6,16.6l0.1,0l0,0L19.6,16.6L19.6,16.6L19.6,16.6C19.6,16.7,19.6,16.6,19.6,16.6
				C19.6,16.6,19.6,16.6,19.6,16.6L19.6,16.6L19.6,16.6L19.6,16.6z M20.8,16.6L20.8,16.6L20.8,16.6L20.8,16.6
				C20.8,16.6,20.9,16.6,20.8,16.6C20.9,16.6,20.9,16.7,20.8,16.6c0.1,0,0.1,0,0.1,0l0,0c0,0,0,0,0,0c0,0,0,0,0,0c0,0,0,0,0,0l0,0
				L20.8,16.6C20.8,16.7,20.8,16.7,20.8,16.6C20.8,16.7,20.8,16.6,20.8,16.6L20.8,16.6L20.8,16.6z M18.6,16.6l0-0.5l0.2,0l0,0
				l-0.1,0v0.3l0,0l0,0v-0.2l0.1-0.1l0.1,0l0.1,0l0.1,0l0.1,0l0.1,0.1l0,0l0,0.2l0,0l0,0l0,0l0,0l0,0l0,0.1l0.1,0l0,0l0,0l0-0.4
				l-0.1,0v0l0.2,0l0,0c0,0-0.1,0-0.1,0c0,0,0,0.1,0,0.1v0.3l0,0h0.1l0,0l-0.1,0l0-0.2l0-0.1l0,0l0.1,0l0,0l0.1,0l0.1,0.1l0,0.1
				l0,0.1l0,0.1l0,0.1l0,0l0,0l0,0l0,0c0,0,0,0,0,0c0,0,0,0,0,0l0.1,0v-0.4l-0.1,0l0,0l0,0h0.3l0,0l-0.1,0l0,0v0.4l0.1,0l0,0
				c0,0-0.1,0-0.1,0c0,0,0-0.3,0-0.3l0,0l0.1-0.1l0,0l0.1,0l0,0l0.1,0.1l0,0.1l0,0.2l0,0l0,0l0,0l0,0.1l0.1,0l0,0l0-0.4l-0.1,0l0,0
				v0l0.2,0l0,0l0,0l-0.1,0l0,0l0,0.4l0,0l0.1,0l0,0l-0.1,0l0,0l0-0.2l0,0l0.1-0.1l0,0l0.2,0l0,0l0.1,0.1l0.1,0l0,0l0,0.2l0,0.1l0,0
				l0,0l-0.1,0l0,0l0,0l0,0h0.1l0-0.4c0,0,0,0,0,0c0,0-0.1,0-0.1,0l0,0l0.3,0l0,0c0,0-0.1,0-0.1,0c0,0,0,0,0,0l0,0.4l0.1,0l0,0l0,0
				l0,0l-3,0v-0.1h0l0,0.1l0,0L18.6,16.6L18.6,16.6L18.6,16.6L18.6,16.6z M15.4,16.9l0-0.1l12.7,0.2l0,0.1L24,17v-0.1h-0.1l0,0.1
				L19.7,17l0-0.1l-0.1,0l0,0.1L15.4,16.9L15.4,16.9L15.4,16.9z M19.6,17.1L19.6,17.1c0-0.1,0.1-0.1,0.1-0.1L19.6,17.1L19.6,17.1
				L19.6,17.1L19.6,17.1z M19.7,17.2h-0.1l0,0.1l-0.1,0l0,0l0,0l0,0c0,0,0,0.1,0.1,0.1c0,0,0.1,0,0.1,0c0,0,0,0,0,0l0,0v0.8
				c0,0,0,0-0.1,0c0,0,0,0,0,0c0,0,0,0,0,0l0,0l0,0l0,0.1c0,0-0.1,0-0.1,0c0,0-0.1-0.1-0.1-0.1l0,0l-0.1,0l0,0h0l0,0l0,0l0,0h0l0,0
				l0,0l0,0h0l0,0l0,0l0,0h0l-0.1,0.1l1.2,0l0-0.1l0,0l0,0l-0.1,0l0,0l0-0.8l0,0l0,0c0,0,0.1,0,0.1,0c0,0,0-0.1,0-0.1l0,0l-0.1,0.1
				l-0.1,0l-0.1,0L19.7,17.2L19.7,17.2L19.7,17.2L19.7,17.2z M19,17.7c-0.1,0-0.1,0-0.2,0.1v0.3l0,0v0h0l0,0l0.1,0v0l0,0v0l0.1,0v0
				h0l0-0.3C19.1,17.8,19.1,17.7,19,17.7L19,17.7L19,17.7z M17.1,18.1V18V18.1L17.1,18.1L17.1,18.1L17.1,18.1l0.1,0l0,0l0,0l0,0
				l0,0.1l0,0h0L17.1,18.1L17.1,18.1L17.1,18.1L17.1,18.1L17.1,18.1z M17.4,18.2L17.4,18.2L17.4,18.2l0-0.1L17.4,18.2L17.4,18.2
				L17.4,18.2L17.4,18.2L17.4,18.2l0.1-0.1l0,0l0,0l0,0l0,0l0,0L17.4,18.2L17.4,18.2L17.4,18.2L17.4,18.2L17.4,18.2z M17.7,18.1
				L17.7,18.1L17.7,18.1l0,0.1l0,0h0l0.1,0l0,0l0-0.1L17.7,18.1L17.7,18.1L17.7,18.1L17.7,18.1L17.7,18.1L17.7,18.1L17.7,18.1z
				 M17.9,18.1L17.9,18.1L17.9,18.1L17.9,18.1l0.1,0l0,0l0,0.1l0,0L17.9,18.1L17.9,18.1L17.9,18.1L17.9,18.1L17.9,18.1L17.9,18.1z
				 M18.2,18.1L18.2,18.1C18.1,18.1,18.1,18.1,18.2,18.1c0,0,0,0.1,0,0.1c0,0,0,0,0,0l0,0l0,0l0,0l0,0L18.2,18.1L18.2,18.1
				L18.2,18.1L18.2,18.1L18.2,18.1L18.2,18.1L18.2,18.1z M18.5,18.1L18.5,18.1L18.5,18.1L18.5,18.1L18.5,18.1l0,0.1l0,0h0L18.5,18.1
				l0.1,0.1h0l0,0l0,0L18.5,18.1L18.5,18.1L18.5,18.1L18.5,18.1L18.5,18.1L18.5,18.1z M16.9,18.2l0-0.1l0,0L16.9,18.2L16.9,18.2
				l0.1-0.1l0,0h0l0,0l0,0.1c0,0,0,0,0,0c0,0,0,0,0,0S17,18.2,16.9,18.2C17,18.2,17,18.2,16.9,18.2L16.9,18.2L16.9,18.2L16.9,18.2
				L16.9,18.2L16.9,18.2z M20.1,17.8l0,0.3l0.3,0l0-0.3c0,0,0-0.1-0.1-0.1C20.2,17.7,20.1,17.8,20.1,17.8L20.1,17.8L20.1,17.8z
				 M20,18.2L20,18.2L20,18.2L20,18.2L20,18.2l0.1-0.1l0,0h0.1l0,0h0v0l0.1,0v0h0v0l0.1,0l0.1,0l0,0l0,0L20,18.2L20,18.2L20,18.2
				L20,18.2L20,18.2z M21.9,18.1l-0.3,0l0-0.4c0,0,0-0.1,0.2-0.1c0.1,0,0.2,0.1,0.2,0.1L21.9,18.1L21.9,18.1L21.9,18.1z M21.5,18.2
				L21.5,18.2L21.5,18.2L21.5,18.2l-0.1,0.1l0.7,0L22,18.2l0,0l0,0l0,0l0,0v0h-0.1l0,0h0l0,0h-0.1l0,0h0l0,0l0,0l0,0L21.5,18.2
				L21.5,18.2L21.5,18.2L21.5,18.2L21.5,18.2z M23.4,18.2l-0.3,0v-0.3c0,0,0-0.1,0.1-0.1c0.1,0,0.1,0.1,0.1,0.1L23.4,18.2L23.4,18.2
				L23.4,18.2z M23.5,18.3l-0.6,0l0,0l0,0l0,0l0.2,0v0l0.1,0l0,0l0,0l0,0h0l0,0l0,0l0,0h0l0,0l0,0L23.5,18.3L23.5,18.3L23.5,18.3
				L23.5,18.3L23.5,18.3L23.5,18.3L23.5,18.3z M23.9,17.2L23.9,17.2L23.9,17.2l0.1-0.1l0,0l0,0.1H23.9L23.9,17.2L23.9,17.2z
				 M23.7,17.3L23.7,17.3L23.7,17.3l0.1,0.1c0,0,0,0,0,0c0,0,0,0,0,0l0-0.1l0,0c0,0,0.1,0,0.1,0c0,0,0,0,0,0v0.1h0.1h0.1l0,0l0,0
				l0,0l0,0l0,0.1l0,0l0,0l-0.1,0l0,0l0,0.8l0,0l0,0l0,0l0,0l0,0l0,0l0,0l0,0v0l0,0l0.1,0l0,0l0,0l-0.6,0l0,0l0,0l0,0l0,0l0,0l0,0
				l0,0l0,0l0,0l0,0l0,0l0-0.8l-0.1,0l-0.1,0L23.7,17.3L23.7,17.3L23.7,17.3L23.7,17.3L23.7,17.3z M24.7,18.2l-0.3,0l0-0.3
				c0,0,0-0.1,0.1-0.1c0.1,0,0.2,0.1,0.2,0.1L24.7,18.2L24.7,18.2L24.7,18.2z M24.9,18.4l-0.6,0l0-0.1l0,0l0,0l0,0l0,0l0.1,0l0,0
				h0.1c0,0,0,0,0,0c0,0,0,0,0,0v0h0.1c0,0,0,0,0,0c0,0,0,0,0,0v0h0v0l0.1,0L24.9,18.4L24.9,18.4L24.9,18.4
				C24.9,18.3,24.9,18.4,24.9,18.4C24.9,18.4,24.9,18.4,24.9,18.4L24.9,18.4L24.9,18.4z M22.3,18.1L22.3,18.1L22.3,18.1L22.3,18.1
				L22.3,18.1l0,0.1l-0.1,0L22.3,18.1L22.3,18.1L22.3,18.1L22.3,18.1L22.3,18.1L22.3,18.1z M20.9,18.2L20.9,18.2L20.9,18.2
				L20.9,18.2l0.1,0c0,0,0,0,0,0s0,0,0,0l0,0l0,0.1l-0.1,0L20.9,18.2L20.9,18.2L20.9,18.2L20.9,18.2z M21.1,18.2l0-0.1l0,0l0,0
				L21.1,18.2L21.1,18.2l0.1,0l0,0l0,0l0,0l0,0L21.1,18.2L21.1,18.2L21.1,18.2L21.1,18.2z M22.5,18.2L22.5,18.2L22.5,18.2L22.5,18.2
				l0.1,0l0,0l0,0l0,0v0.1l0,0L22.5,18.2L22.5,18.2L22.5,18.2L22.5,18.2L22.5,18.2z M23.8,17.1l-4-0.1l0,0l0,0l0,0l0,0l0,0l0,0l0,0
				l0,0l0,0l0,0l0,0l0,0.1c0,0,0,0,0,0.1c0,0,0,0.1,0,0.1c0,0,0,0-0.1,0c0,0,0,0-0.1,0c0,0-0.1,0-0.1,0l0,0.6l0,0l0,0l0,0l0,0
				c0,0,0,0,0,0c0,0,0,0,0,0c0,0,0,0,0,0c0,0,0,0,0,0s0,0,0,0c0,0,0,0,0,0c0,0,0,0,0,0c0,0,0,0,0,0c0,0,0.1,0,0.1,0s0,0,0,0
				c0,0,0-0.2,0-0.3c0,0,0-0.2,0.2-0.2c0.2,0,0.2,0.2,0.2,0.2l0,0.3l0.1,0l0,0c0,0,0,0,0,0c0,0,0,0,0,0c0,0,0,0.1,0,0.1c0,0,0,0,0,0
				c0,0,0.7,0,0.7,0s0-0.1,0-0.1c0,0,0,0,0,0c0,0,0,0,0,0c0,0,0-0.1,0-0.1l0.1,0l0-0.3c0,0,0-0.2,0.2-0.2c0.2,0,0.2,0.2,0.2,0.2
				l0,0.3l0,0l0.1,0v0.1l0,0l0,0l0.1,0.1l0.7,0l0,0l0,0l0.1-0.1h0.1l0-0.4c0,0,0-0.1,0.2-0.1c0.2,0,0.2,0.1,0.2,0.1l0,0.3l0.1,0.1
				l0-0.1l0.1,0l0,0l0,0l0,0l0-0.7l-0.1,0l-0.1-0.1l0-0.1l0-0.1l0.1-0.1L23.8,17.1l0,0.1L23.8,17.1L23.8,17.1L23.8,17.1z M25.4,18.1
				L25.4,18.1L25.4,18.1L25.4,18.1L25.4,18.1l-0.1,0.1l0,0c0,0,0,0,0,0c0,0,0,0.1,0,0.1c0,0,0,0,0,0l0,0l0,0c0,0,0,0,0,0
				c0,0,0,0,0,0l0,0C25.4,18.2,25.4,18.2,25.4,18.1C25.4,18.2,25.4,18.2,25.4,18.1C25.4,18.2,25.4,18.1,25.4,18.1L25.4,18.1
				L25.4,18.1z M25.5,18.2L25.5,18.2L25.5,18.2l0.1,0l0,0h0l0,0l0,0.1l0,0L25.5,18.2L25.5,18.2L25.5,18.2L25.5,18.2L25.5,18.2
				C25.5,18.3,25.5,18.3,25.5,18.2C25.5,18.3,25.5,18.2,25.5,18.2L25.5,18.2L25.5,18.2L25.5,18.2z M25.9,18.2L25.9,18.2L25.9,18.2
				L25.9,18.2L25.9,18.2L25.9,18.2l-0.1,0c0,0,0,0,0,0c0,0,0,0,0,0c0,0,0,0,0,0l0,0l0,0l0,0l0,0L25.9,18.2L25.9,18.2L25.9,18.2
				L25.9,18.2L25.9,18.2z M26,18.3L26,18.3L26,18.3L26,18.3L26,18.3l0.1-0.1l0,0l0,0l0,0l0,0l0,0l0,0l0,0L26,18.3L26,18.3L26,18.3
				L26,18.3z M26.4,18.3L26.4,18.3L26.4,18.3L26.4,18.3l0.1-0.1l0,0l0,0l0,0.1l0,0l0,0L26.4,18.3L26.4,18.3L26.4,18.3L26.4,18.3
				L26.4,18.3L26.4,18.3L26.4,18.3z M26.2,18.2L26.2,18.2L26.2,18.2L26.2,18.2l0.1-0.1l0,0h0l0,0.1l0,0L26.2,18.2L26.2,18.2
				L26.2,18.2L26.2,18.2L26.2,18.2z M25,18.2L25,18.2L25,18.2l0.1,0l0,0l0-0.1l0,0l0,0l0,0.1l0,0l0,0h0L25,18.2L25,18.2L25,18.2
				C25,18.3,25,18.3,25,18.2C25,18.3,25,18.2,25,18.2L25,18.2L25,18.2z M29.6,23.2l-0.3-2.4l-0.9,0.8l0.1,1.8L29.6,23.2L29.6,23.2
				L29.6,23.2z M28.2,20.5l0-0.4l-0.1,0c0,0,0,0.7-0.2,1.1c-0.2,0.4-0.4,0.7-0.5,0.8c-0.2,0.2-0.3,0.3-0.5,0.4
				c-0.2,0.1-0.6,0.3-0.7,0.4c-0.1,0-0.2,0.1-0.2,0.1l0.1,0.1c0,0,0.6-0.2,0.7-0.3c0.1-0.1,0.3-0.2,0.3-0.2l0,2.2l0.6,0l0,0.2
				l-1,0.1l0.1-0.7l0.3-0.8l0,0l-0.4,0.8l-0.3,0.4l-2.5-1.1l0,0l0.5,0.2l0.1,1l-0.1,0l0,0.2l0.4,0l0-0.1l0.6-0.1l0-0.5l0.2,0.2
				l0.8,0.3l0.2-0.3l0,0.5l1.3-0.1l0-0.3l0.7-0.1l0-0.5l0.8-0.1l0-0.5l0.6,0l-0.3-2.9L28.9,21c0,0,0.3-0.5,0.3-0.8
				c0.1-0.3,0.1-0.7,0.1-0.7l-0.1-0.3c0,0,0,0.6-0.1,0.9c-0.2,0.4-0.3,0.6-0.4,0.8c-0.1,0.2-0.5,0.5-0.5,0.5c0,0,0.3-0.5,0.4-0.9
				c0.1-0.4,0.1-0.9,0.1-1c0,0,0-0.2,0-0.2l-0.1,0c0,0,0,0.9-0.1,1.1c-0.1,0.2-0.1,0.4-0.2,0.6c-0.1,0.2-0.2,0.5-0.3,0.6
				c-0.1,0.1-0.4,0.3-0.4,0.3s0.4-0.5,0.5-0.8C28.1,20.9,28.2,20.7,28.2,20.5L28.2,20.5L28.2,20.5z M23.4,2l-1.2-0.1l-0.1,0l0,0.1
				l0,0l1.2,0.1l0.8,0.2c0,0,0.2,0.1,0.3,0.1c0,0,0.2,0.2,0.2,0.3C24.7,2.8,24.9,3,25,3c0.1,0,0.3-0.1,0.2-0.2
				c0-0.1-0.2-0.2-0.3-0.2c-0.1,0-0.3-0.1-0.3-0.1c-0.1,0-0.2-0.2-0.2-0.2C24.3,2.2,23.6,2.1,23.4,2L23.4,2L23.4,2z M24.2,2.8
				l0.4-0.1c0,0,0-0.2-0.1-0.3c-0.1-0.1-0.5-0.1-0.6-0.2c-0.2,0-0.6-0.1-0.8-0.1c-0.2,0-0.8-0.1-0.8-0.1l-0.1,0l0,0.1l0,0
				c0,0,0.7,0,0.8,0.1c0.2,0,0.6,0.1,0.8,0.1c0.1,0,0.3,0.1,0.4,0.2C24.2,2.7,24.2,2.8,24.2,2.8L24.2,2.8L24.2,2.8z M22.6,2.4
				l-0.4,0l-0.1,0l0,0.1c0,0,0.8,0,0.9,0.1c0.2,0,0.7,0.1,0.7,0.1c0.1,0,0,0.1,0,0.1c0,0-0.6-0.1-0.8-0.1c-0.2,0-0.7-0.1-0.7-0.1
				c-0.1,0-0.1,0-0.1,0l0,0l0,0c0,0,0.7,0,0.9,0.1c0.2,0,0.6,0.1,0.6,0.1C23.8,3,24,3,24,3c0,0,0.1-0.1,0.1-0.1c0-0.1,0-0.1-0.1-0.2
				c-0.1,0-0.1-0.1-0.3-0.1c-0.2,0-0.6-0.1-0.7-0.1C22.9,2.5,22.7,2.5,22.6,2.4L22.6,2.4L22.6,2.4z M24.4,2.9c0.1,0,0.1,0,0.2,0
				c0,0,0.1,0,0.1,0.1c0,0.1-0.1,0.2-0.2,0.2c-0.1,0-0.3,0-0.3,0c-0.1,0-0.3,0-0.3,0c0,0-0.2-0.1-0.4-0.1c-0.2,0-0.4-0.1-0.5-0.1
				c-0.1,0-0.5,0-0.5,0c0,0-0.1,0-0.1-0.1c0,0,0-0.1,0.1-0.1c0,0,0.7,0,1,0.1c0.3,0.1,0.5,0.1,0.5,0.1c0,0,0.2,0,0.2-0.1
				C24.2,3,24.3,2.9,24.4,2.9L24.4,2.9L24.4,2.9z M22.5,3.5l-0.2-0.2c0,0,0.1,0,0.1,0c0,0,0.2-0.1,0.4-0.1c0.2,0,0.4,0.2,0.4,0.2
				s-0.1,0-0.1,0.1c0,0-0.2,0.1-0.2,0.1c0,0,0,0.2,0.1,0.2c0,0-0.1,0-0.1,0c0,0-0.2-0.1-0.3-0.1C22.6,3.6,22.6,3.6,22.5,3.5
				L22.5,3.5L22.5,3.5z M24.8,2.4L24.8,2.4c0-0.1,0.3,0,0.4,0c0.1,0,0.3,0.1,0.4,0.1c0,0,0,0.1,0,0.1c0,0,0.1,0.1,0.3,0.2
				c0.2,0.1,0.3,0.3,0.3,0.3c0,0,0,0.1-0.1,0.1c0,0-0.3,0-0.4-0.1c-0.1-0.1-0.2-0.2-0.3-0.3c0-0.1,0-0.2-0.1-0.2
				c-0.1-0.1-0.1-0.1-0.2-0.2C24.9,2.5,24.8,2.5,24.8,2.4L24.8,2.4L24.8,2.4z M25.4,3.1l-0.2,0c-0.2,0-0.3,0-0.4,0.1
				c-0.1,0-0.1,0.1-0.2,0.1c-0.1,0-0.3,0-0.3,0l0.4,0.1c0,0,0.1-0.1,0.2-0.1c0.2,0,0.2,0,0.4,0c0.2,0,0.2-0.1,0.2-0.1
				C25.5,3.2,25.5,3.2,25.4,3.1L25.4,3.1L25.4,3.1z M23.2,3.8L23.2,3.8c-0.1-0.1-0.1-0.1,0-0.1c0.1,0,0.2-0.1,0.3-0.1
				c0.2,0,0.2,0.1,0.3,0.2C24,3.8,24,3.9,24,3.9c0,0,0,0.1,0,0.1c0,0-0.2,0.2-0.3,0.1c-0.1,0-0.3-0.1-0.4-0.2
				C23.3,3.9,23.2,3.8,23.2,3.8L23.2,3.8L23.2,3.8z M23.9,3.6L23.9,3.6C23.8,3.5,23.9,3.5,23.9,3.6C24,3.5,24,3.4,24.2,3.5
				c0.2,0,0.4,0.1,0.4,0.1s-0.3,0-0.3,0.1C24.3,3.9,24.4,4,24.4,4s-0.1,0-0.1,0.1c0,0-0.1-0.1-0.1-0.1c0,0-0.1-0.2-0.1-0.3
				C24,3.6,23.9,3.6,23.9,3.6L23.9,3.6L23.9,3.6z M23.1,4l0.1-0.1c0,0,0.1,0.1,0.3,0.2c0.2,0.1,0.5,0,0.5,0s0,0.1,0,0.1
				c0,0,0.2,0.2,0.2,0.2s-0.3-0.1-0.5-0.1c-0.1,0-0.3-0.1-0.3-0.1c0,0-0.1-0.1-0.1-0.1C23.1,4.1,23.1,4,23.1,4L23.1,4L23.1,4z
				 M25,3.5l-0.1,0l0.7,0.3c0,0,0.1-0.1,0.3,0c0.2,0,0.3,0,0.4,0c0.1,0,0.2-0.1,0.1-0.1c0-0.1-0.1-0.2-0.2-0.2c-0.1,0-0.3-0.1-0.4,0
				c-0.2,0-0.3,0.1-0.4,0.1C25.3,3.5,25,3.5,25,3.5L25,3.5L25,3.5z M25.2,3.9l0.1-0.1c0,0,0,0-0.1-0.1c-0.1,0-0.2-0.1-0.3-0.1
				c-0.2,0-0.2,0.1-0.3,0.1c0,0-0.2,0-0.2,0.1c0,0,0.1,0.1,0.1,0.2c0.1,0.1,0.1,0.2,0.1,0.2c0,0,0.4,0.2,0.4,0.2c0,0,0.2,0,0.2,0
				c0,0,0,0-0.1-0.1c0,0-0.1-0.1-0.1-0.2C25.1,4,25.2,3.9,25.2,3.9L25.2,3.9L25.2,3.9z M24.5,4.1L24.5,4.1c0,0,0.1,0.1,0.2,0.2
				C24.7,4.4,25,4.4,25,4.4s-0.2,0-0.2,0.1c0,0,0,0.1,0,0.1s-0.2,0-0.2,0c-0.1,0-0.1,0-0.2-0.1c-0.1,0-0.1-0.1-0.1-0.2
				c-0.1-0.1-0.2-0.1-0.2-0.1c0,0,0.1-0.1,0.2,0C24.3,4.2,24.5,4.1,24.5,4.1L24.5,4.1L24.5,4.1z M26.1,2.8l-0.3-0.1l0,0.1l0,0
				c0,0,0.2,0,0.3,0.1c0.1,0.1,0.2,0.5,0.4,0.6C26.7,3.7,27,3.8,27,3.7c0.1-0.1,0-0.2-0.1-0.3c-0.1-0.1-0.2-0.2-0.3-0.2
				C26.5,3.2,26.5,3,26.5,3C26.4,3,26.3,2.9,26.1,2.8L26.1,2.8L26.1,2.8z M26,4.3l0-0.1c0,0-0.3-0.1-0.3-0.2c0,0-0.1,0-0.2-0.1
				c-0.1,0-0.2,0-0.3,0.1c-0.1,0-0.1,0.1-0.1,0.1c0,0,0,0.1,0.1,0.1c0,0,0.1,0.1,0.1,0.1s0.2,0,0.3,0c0.1,0.1,0.2,0.1,0.2,0.1l0.2,0
				c0,0,0-0.1,0-0.1C26,4.4,26,4.3,26,4.3L26,4.3L26,4.3z M26.7,3.2L26.7,3.2c0-0.1,0.3,0.1,0.4,0.1c0.1,0,0.2,0.1,0.2,0.1
				c0,0,0,0.2,0.1,0.2c0.1,0.1,0.2,0.1,0.3,0.2c0.1,0.1,0.1,0.2,0.1,0.2c0,0-0.2,0-0.2,0c0,0-0.2,0-0.3-0.1
				c-0.1-0.1-0.2-0.2-0.2-0.3c0-0.1,0-0.2,0-0.2c0-0.1-0.1-0.2-0.2-0.2C26.9,3.3,26.8,3.3,26.7,3.2L26.7,3.2L26.7,3.2z M25.9,3.8
				l0.2,0c0.1,0,0.4-0.1,0.5-0.1c0.1,0,0.4,0,0.5,0.1c0.1,0.1,0.2,0.1,0.2,0.2c0,0.1-0.1,0.1-0.2,0.1c-0.1,0-0.2-0.1-0.3,0
				c-0.1,0-0.2,0-0.2,0c0,0-0.3-0.1-0.4-0.1C26,4,25.8,3.9,25.9,3.8C25.8,3.9,25.8,3.9,25.9,3.8C25.8,3.8,25.9,3.8,25.9,3.8
				L25.9,3.8L25.9,3.8z M26.2,4.5l-0.1-0.2c0,0,0.4,0.1,0.6,0.3c0.2,0.1,0.4,0.4,0.4,0.4l-0.1,0l0,0.2L26.8,5c0,0,0-0.2-0.2-0.3
				C26.4,4.6,26.2,4.5,26.2,4.5L26.2,4.5L26.2,4.5z M25.5,4.5l0.1-0.1c0,0-0.2-0.1-0.3-0.1c-0.1,0-0.2,0.1-0.3,0.1
				c-0.1,0-0.2,0-0.2,0.1c0,0,0,0,0,0.1c0,0,0.3,0.2,0.4,0.2c0.1,0,0.4,0,0.4,0s0-0.1,0-0.1C25.7,4.8,25.5,4.7,25.5,4.5L25.5,4.5
				L25.5,4.5z M26.4,4.6c-0.3-0.1-0.5,0-0.7,0c0,0,0.1,0.1,0.1,0.2c0,0.1,0.1,0.3,0.2,0.3c0.1,0,0.4,0,0.5,0c0.1,0,0.2,0,0.2,0
				S26.6,4.7,26.4,4.6L26.4,4.6L26.4,4.6z M26.5,5.6c-0.1-0.1-0.2-0.2-0.3-0.3c0,0,0.3,0,0.4-0.1c0.1,0,0.4,0.1,0.4,0.1
				c0,0,0,0.1,0,0.1c0,0-0.1,0-0.1,0c0,0,0,0.1,0,0.2c0,0.1,0,0.2,0,0.2S26.6,5.6,26.5,5.6L26.5,5.6L26.5,5.6z M27.7,4.3l0.2,0.1
				c0,0,0.2,0.2,0.1,0.3c-0.1,0.1-0.3,0-0.3,0c0,0-0.1-0.1-0.2-0.1c-0.1,0-0.2,0-0.2,0S27,4.5,26.9,4.4c-0.1-0.1-0.3-0.2-0.3-0.2
				c0,0,0-0.1,0-0.1c0,0,0.3,0.1,0.4,0.1c0.1,0,0.4,0,0.5,0C27.5,4.3,27.6,4.3,27.7,4.3L27.7,4.3L27.7,4.3z M27.1,5.3l0-0.3
				c0,0,0.2,0.1,0.3,0.1c0.1,0,0.2,0.1,0.3,0.2c0.1,0.1,0.1,0.1,0.1,0.1s-0.1,0-0.1,0c0,0,0,0.4,0,0.4s-0.1,0-0.2-0.1
				c-0.1,0-0.2-0.2-0.3-0.3C27.1,5.3,27.1,5.3,27.1,5.3L27.1,5.3L27.1,5.3z M27,5.6L27,5.6C27,5.5,27,5.5,27,5.6
				c0.1-0.1,0.2,0.1,0.3,0.1c0.1,0,0.3,0.1,0.3,0.1l0,0c0,0,0,0-0.1,0c0,0-0.1,0-0.1,0.1c0,0,0,0.2,0,0.2c0,0,0,0.1,0,0.1
				c0,0-0.3-0.2-0.3-0.2c0-0.1-0.1-0.1-0.1-0.2C27,5.7,27,5.6,27,5.6L27,5.6L27,5.6z M27.8,5.6l0-0.2c0,0,0.1,0.1,0.2,0.1
				c0.1,0,0.3,0.1,0.3,0.2c0.1,0.2,0.1,0.4,0.1,0.4s-0.1,0-0.1,0c0,0-0.1-0.2-0.2-0.1c-0.1,0-0.1,0.2-0.1,0.2S27.8,6,27.8,5.9
				C27.7,5.9,27.8,5.7,27.8,5.6L27.8,5.6L27.8,5.6z M27.6,6.3l0-0.3c0,0,0.1,0.1,0.2,0.1c0.1,0,0.3,0.3,0.3,0.3s0,0.2,0,0.2
				c0,0,0,0.1,0,0.1s-0.1,0-0.1,0c0,0-0.3-0.2-0.3-0.2C27.6,6.4,27.6,6.4,27.6,6.3L27.6,6.3L27.6,6.3z M27.5,3.6L27.5,3.6
				c0.1,0,0.5,0.2,0.6,0.3c0.1,0.1,0.4,0.3,0.4,0.3l-0.2,0.2c0,0,0.6,0.5,0.8,0.7c0.2,0.2,0.6,0.6,0.6,0.6c0,0,0.2,0.1,0.2,0.2
				c0.1,0.1,0,0.5,0,0.5s-0.1,0-0.1,0c0,0-0.2-0.2-0.2-0.2s0-0.3,0-0.4c0-0.1-0.5-0.5-0.6-0.6c-0.1-0.1-0.6-0.6-0.7-0.6
				c-0.1-0.1-0.3-0.1-0.4-0.4c-0.1-0.3,0-0.2-0.1-0.3c-0.1-0.1-0.1-0.2-0.2-0.2C27.5,3.6,27.5,3.6,27.5,3.6L27.5,3.6L27.5,3.6z
				 M28.1,4.6L28.1,4.6C28.1,4.6,28.1,4.7,28.1,4.6c-0.1,0.1,0.5,0.5,0.5,0.6c0.1,0.1,0.4,0.4,0.4,0.5c0,0,0,0,0,0.1c0,0,0,0,0,0
				c0,0-0.3-0.3-0.5-0.4c-0.1-0.1-0.3-0.2-0.3-0.3c0,0-0.2-0.2-0.2-0.2c0,0,0,0-0.1,0c0,0-0.1,0-0.1,0.1c0,0,0.3,0.3,0.3,0.3
				c0,0,0.4,0.3,0.4,0.4c0,0,0.3,0.3,0.3,0.3c0,0,0.2,0.2,0.3,0.2c0.1,0,0.2,0,0.2-0.1c0,0,0-0.2,0-0.2c0,0-0.4-0.4-0.4-0.4
				c-0.1-0.1-0.2-0.2-0.3-0.3c-0.1-0.1-0.2-0.2-0.3-0.3C28.4,4.8,28.2,4.7,28.1,4.6L28.1,4.6L28.1,4.6z M28.6,4.4L28.6,4.4
				C28.6,4.3,28.5,4.4,28.6,4.4C28.5,4.4,28.5,4.4,28.6,4.4c0,0.1,0.6,0.7,0.7,0.8c0.1,0.1,0.6,0.5,0.6,0.7C30,6,30,6.1,30,6.2
				c0,0.1,0,0.3,0,0.4c0,0.1,0,0.2,0.1,0.3c0.1,0.1,0.2-0.1,0.2-0.1c0,0,0-0.2-0.1-0.3c-0.1-0.1-0.1-0.2-0.1-0.2c0-0.1,0-0.3,0-0.3
				s-0.5-0.6-0.7-0.8C29.3,5,29,4.7,28.9,4.6C28.8,4.5,28.6,4.4,28.6,4.4L28.6,4.4L28.6,4.4z M27.9,5.1L27.9,5.1
				c0.1,0,0.6,0.4,0.8,0.6c0.2,0.2,0.5,0.5,0.5,0.5c0,0,0.2,0,0.3,0.1c0.1,0,0.3,0.1,0.3,0.2c0,0.1,0.1,0.2,0.1,0.2c0,0-0.2,0-0.2,0
				c0,0-0.1-0.2-0.2-0.2c-0.1,0-0.2,0-0.2,0s-0.5-0.5-0.6-0.6C28.5,5.7,27.9,5.2,27.9,5.1C27.9,5.2,27.9,5.1,27.9,5.1L27.9,5.1
				L27.9,5.1z M28.2,6.4l0-0.2c0,0,0.1,0.1,0.1,0.1c0,0,0.2-0.1,0.3,0c0.1,0.1,0.2,0.2,0.2,0.3c0,0.1,0,0.5,0,0.6c0,0.1,0,0.1,0,0.2
				c0,0,0.1,0.1,0.1,0.1s-0.1-0.1-0.1-0.1c0,0,0-0.1-0.1-0.2C28.6,7.1,28.6,7,28.4,7c-0.1-0.1-0.2-0.1-0.2-0.2
				c0-0.1-0.1-0.2-0.1-0.2C28.2,6.6,28.2,6.4,28.2,6.4L28.2,6.4L28.2,6.4z M30.4,6.2l-0.1-0.1c0,0-0.1,0-0.1,0l0,0l0,0.1
				c0,0,0.1,0.1,0.1,0.1c0,0,0.1,0.1,0.1,0.1l0-0.1c0,0,0,0,0-0.1C30.5,6.3,30.5,6.2,30.4,6.2L30.4,6.2L30.4,6.2z M29.4,6.6
				L29.4,6.6c-0.1,0-0.1,0-0.1,0s0.2,0.4,0.3,0.4c0,0,0.2,0,0.2,0c0.1,0,0.2,0.2,0.2,0.3c0.1,0,0.3,0.1,0.3,0.1s0.1-0.1-0.1-0.2
				c-0.1-0.1-0.2-0.2-0.4-0.2c-0.2,0-0.2,0-0.3-0.1C29.6,6.8,29.4,6.6,29.4,6.6L29.4,6.6L29.4,6.6z M28.9,6.8l0-0.2
				C28.9,6.6,29,6.7,28.9,6.8c0.1-0.1,0.3-0.1,0.3,0c0,0,0.1,0.2,0.1,0.2c0,0,0.1,0.1,0.1,0.2c0,0.1,0,0.2,0,0.2s-0.2-0.1-0.3-0.1
				c-0.1,0-0.1,0.1-0.1,0.1s-0.2-0.2-0.2-0.3C28.9,7,28.9,6.9,28.9,6.8L28.9,6.8L28.9,6.8z M28.3,7.2L28,6.8c0,0,0.1,0.1,0.1,0.1
				c0,0,0.3,0.2,0.3,0.3c0,0,0.1,0.2,0.2,0.2c0,0,0,0.1,0,0.1C28.5,7.4,28.4,7.2,28.3,7.2L28.3,7.2L28.3,7.2z M30.7,6.1L30.7,6.1
				c0,0,0.1,0.1,0.1,0.1c0,0,0.1,0.1,0.1,0.1c0,0-0.2,0.2-0.2,0.2c0,0-0.1,0.2,0,0.2c0,0,0.2-0.1,0.2-0.1c0,0,0.2-0.1,0.2-0.1
				c0,0,0.1,0.2,0.1,0.2c0,0,0.1,0.1,0.1,0.1c0,0-0.1,0.1-0.1,0.1c0,0-0.3,0-0.3,0c-0.1,0-0.1,0-0.2,0c0,0-0.1-0.1-0.1-0.2
				c0-0.1,0.1-0.3,0.1-0.3C30.6,6.3,30.7,6.2,30.7,6.1C30.7,6.1,30.7,6.1,30.7,6.1L30.7,6.1L30.7,6.1z M30.5,7.1l0-0.2
				c0,0,0.1,0.1,0.1,0.1c0,0,0.1,0,0.2,0c0,0,0.1,0.2,0.1,0.2c0,0.1,0,0.2,0,0.2c0,0-0.1,0.1-0.2,0c-0.1,0-0.1-0.1-0.2-0.2
				C30.5,7.3,30.5,7.2,30.5,7.1L30.5,7.1L30.5,7.1z M29.8,7.1L29.8,7.1C29.7,7,29.7,7.1,29.8,7.1c-0.1,0,0.2,0.5,0.2,0.5
				c0,0,0.2,0.1,0.3,0.1C30.4,7.9,30.4,8,30.5,8c0,0,0.2,0.1,0.3,0c0.1-0.1,0-0.2-0.1-0.4c-0.1-0.1-0.2-0.2-0.4-0.2
				c-0.2,0-0.2,0-0.3-0.1C29.9,7.2,29.8,7.2,29.8,7.1L29.8,7.1L29.8,7.1z M29.3,7.6l0-0.2c0,0,0.2,0.1,0.2,0.1c0.1,0,0.1,0,0.2,0
				c0,0,0.2,0.2,0.3,0.3C30,7.9,30,8,30,8c0,0-0.2,0-0.2-0.1c-0.1,0-0.1-0.1-0.1,0c0,0-0.1,0.1,0,0.1c0,0,0,0.1,0,0.1
				c0,0-0.1,0-0.1,0s0-0.1,0-0.1c0,0,0-0.2,0-0.2C29.5,7.8,29.3,7.6,29.3,7.6L29.3,7.6L29.3,7.6z M28.7,7.5L28.7,7.5
				c0.1-0.1,0.2,0,0.2,0c0.1,0,0.2,0,0.3,0.1c0.1,0.1,0.2,0.1,0.2,0.3c0.1,0.2,0,0.3,0,0.3c0,0.1-0.3,0-0.3,0c0,0-0.2-0.3-0.3-0.4
				C28.8,7.7,28.7,7.6,28.7,7.5L28.7,7.5L28.7,7.5z M30.9,7.1L30.9,7.1c0-0.1,0.2,0.1,0.2,0.2c0.1,0.1,0.1,0.2,0.1,0.2
				c0,0-0.1,0.2,0,0.4c0.1,0.2,0.1,0.4,0.1,0.5c0,0-0.2,0-0.3-0.2c-0.1-0.2-0.1-0.4-0.1-0.5c0-0.1,0.1-0.3,0.1-0.4
				C31,7.3,30.9,7.1,30.9,7.1L30.9,7.1L30.9,7.1z M29.7,8.3L29.7,8c0,0,0.2,0.1,0.3,0.1c0.1,0,0.2,0,0.2,0.1c0,0,0.2,0.2,0.2,0.3
				c0,0.1,0.1,0.2,0,0.2c0,0-0.1,0-0.1-0.1c0,0-0.1-0.1-0.1-0.1c0,0,0,0.1-0.1,0.1c0,0-0.1-0.1-0.1-0.1C29.9,8.5,29.8,8.4,29.7,8.3
				L29.7,8.3L29.7,8.3z M30.5,8.5l-0.3-0.6c0,0,0.2,0.2,0.2,0.2c0,0,0.3,0.1,0.5,0.2c0.2,0.2,0.3,0.3,0.3,0.4c0,0.1,0,0.2-0.1,0.2
				c-0.1,0-0.3-0.1-0.4-0.3C30.6,8.5,30.5,8.5,30.5,8.5L30.5,8.5L30.5,8.5z M31.4,7.9L31.4,7.9C31.3,7.9,31.3,7.9,31.4,7.9
				c-0.1,0,0.1,0.3,0.1,0.4c0,0.1-0.2,0.4-0.1,0.5c0,0.2,0.2,0.4,0.2,0.4c0.1,0,0.2-0.1,0.2-0.2c0-0.1-0.1-0.3-0.1-0.4
				c0-0.1,0.1-0.3,0.1-0.3C31.6,8.4,31.4,7.9,31.4,7.9L31.4,7.9L31.4,7.9z M29.2,8.4L29.2,8.4c0-0.1,0.2,0,0.2,0c0,0,0.1,0,0.2,0
				c0.1,0,0.2,0.3,0.2,0.3c0,0-0.2-0.1-0.2,0c0,0.1,0,0.2,0,0.3c0,0.1,0,0.2,0,0.2c0,0-0.1-0.1-0.1-0.1c-0.1,0-0.2-0.3-0.2-0.3
				C29.3,8.6,29.2,8.4,29.2,8.4L29.2,8.4L29.2,8.4z M31.8,8.6L31.8,8.6L31.8,8.6c-0.1,0,0.1,0.3,0,0.4c0,0.1-0.1,0.3-0.1,0.3
				c0,0,0,0.3,0,0.3l0.4,0c0,0-0.1-0.5-0.2-0.6C31.9,9,31.8,8.6,31.8,8.6L31.8,8.6L31.8,8.6z M30.7,8.7L30.7,8.7l-0.1-0.1
				c0,0,0.3,0.8,0.3,0.8c0,0,0.2,0.1,0.2,0.1c0,0,0.2,0.4,0.3,0.3c0.1,0,0.2-0.3,0.1-0.5c-0.1-0.2-0.4-0.3-0.5-0.4
				C30.8,8.9,30.7,8.7,30.7,8.7L30.7,8.7L30.7,8.7z M30.1,8.7L30.1,8.7c0,0,0.1,0,0.1,0.1c0.1,0,0.2,0,0.3,0.3c0.1,0.3,0,0.6,0,0.6
				s-0.1-0.2-0.1-0.4c0-0.2-0.1-0.2-0.2-0.3c-0.1-0.1-0.1-0.2-0.2-0.2C30.2,8.8,30.1,8.8,30.1,8.7L30.1,8.7L30.1,8.7z M29.7,8.9
				l0-0.2c0,0,0.1,0.1,0.1,0.1c0,0,0.1,0,0.2,0c0.1,0,0.3,0.2,0.3,0.4c0.1,0.2,0.1,0.4,0.1,0.4c0,0,0.2,0.2,0.2,0.2l0,0.1l0-0.1
				c0,0-0.1-0.1-0.1-0.1c0,0-0.1-0.1-0.1-0.1c-0.1,0-0.2,0-0.2-0.1c-0.1,0-0.3-0.2-0.3-0.3C29.7,9.1,29.7,9,29.7,8.9L29.7,8.9
				L29.7,8.9z M29.9,10l0.1-0.4c0,0,0.1,0.2,0.2,0.2c0.1,0,0.1,0.1,0.1,0.2c0,0.1,0,0.2,0,0.2s-0.1-0.1-0.2-0.1
				c-0.1,0-0.1,0.1-0.1,0.1c0,0,0,0.1,0,0.1c0,0,0,0.2,0,0.2s0-0.2-0.1-0.2C29.9,10.2,29.9,10.1,29.9,10L29.9,10L29.9,10z M30.8,9.9
				L30.8,9.9L30.8,9.9C30.7,9.9,30.7,9.9,30.8,9.9c-0.1,0-0.2,0.1-0.2,0.2c0,0.1,0,0.3,0,0.4c0,0.1,0.1,0.3,0.1,0.3s0.1-0.1,0.1-0.1
				c0,0,0,0,0.1,0c0,0,0.1-0.2,0.1-0.2c0.1,0,0.1,0.1,0.1,0.1s0-0.3-0.1-0.4C30.9,10.1,30.8,10,30.8,9.9L30.8,9.9L30.8,9.9z
				 M30.4,10.4l-0.2-0.2c0,0-0.1,0.3-0.1,0.5c0.1,0.2,0.4,0.5,0.4,0.5c0,0,0-0.2,0-0.2s-0.1-0.1-0.1-0.2
				C30.4,10.7,30.4,10.5,30.4,10.4L30.4,10.4L30.4,10.4z M30.8,10.7l0.1-0.2l0,0c0,0,0,0.1,0.1,0.2c0,0,0.1,0.1,0.1,0.2
				c0,0,0,0.4,0,0.4s-0.1-0.1-0.1,0c0,0-0.1,0.2-0.1,0.2l-0.3-0.3c0,0,0-0.3,0.1-0.3c0,0,0,0,0,0C30.8,10.8,30.8,10.8,30.8,10.7
				L30.8,10.7L30.8,10.7z M31.1,11.5L31.1,11.5c0-0.1-0.1,0-0.1,0c0,0,0.2,0.2,0.2,0.2s0-0.1,0-0.1C31.2,11.6,31.1,11.5,31.1,11.5
				L31.1,11.5L31.1,11.5z M31.8,10L31.8,10L31.8,10l-0.1,0c0,0,0,0.1,0,0.1c0,0,0.1,0.5,0.2,0.8c0,0.2,0.1,0.7,0.1,0.7l0,0l-0.1,0
				c0,0-0.1-0.7-0.1-0.8c0-0.1-0.1-0.4-0.1-0.4c0,0,0-0.2-0.1-0.2c0,0,0,0-0.1,0c0,0-0.1,0-0.1,0c0,0,0,0,0,0.1c0,0,0.1,0.4,0.1,0.5
				c0,0.1,0.1,0.7,0.1,0.8c0,0.1,0,0.2,0.1,0.3c0,0.1,0.1,0.1,0.1,0.1c0,0,0.2-0.1,0.2-0.1c0,0,0-0.1,0-0.2c0,0,0,0,0-0.1
				c0,0-0.1-0.6-0.1-0.6c0-0.1-0.1-0.4-0.1-0.4c0-0.1,0-0.3-0.1-0.3C31.8,10.1,31.8,10,31.8,10L31.8,10L31.8,10z M32,10L32,10L32,10
				L32,10l-0.1,0c0,0,0.1,0.6,0.2,0.8c0,0.2,0.1,0.9,0.1,1c0,0.1,0,0.2-0.1,0.2c0,0-0.2,0.2-0.2,0.2l0,0.3c0,0,0,0.1,0,0.1
				c0,0,0.3-0.2,0.3-0.4c0-0.2,0-0.3,0-0.3c0-0.1-0.1-0.8-0.1-0.9c0-0.1-0.1-0.6-0.1-0.6C32.1,10.2,32,10,32,10L32,10L32,10z
				 M31.3,10.3L31.3,10.3C31.3,10.3,31.3,10.3,31.3,10.3c-0.1,0,0,0.6,0.1,0.8c0,0.2,0.1,0.9,0.1,0.9c0,0,0.4,0.5,0.4,0.5
				c0,0,0,0,0-0.1c0-0.1,0-0.2-0.1-0.3c-0.1-0.1-0.2-0.2-0.2-0.3c0,0-0.1-0.7-0.1-0.8C31.5,11,31.4,10.4,31.3,10.3
				C31.3,10.3,31.3,10.3,31.3,10.3L31.3,10.3L31.3,10.3z M32.3,10.1L32.3,10.1C32.3,10.1,32.2,10.1,32.3,10.1c-0.1,0,0,0.4,0,0.6
				c0,0.3,0.1,0.8,0.1,0.9c0,0.1,0.1,0.4,0,0.5c-0.1,0.2-0.2,0.3-0.2,0.3c0,0-0.1,0.1-0.1,0.1c0,0,0,0,0,0.1c0,0,0.2,0.3,0.2,0.3
				s0.1-0.2,0.1-0.3c0-0.1,0-0.2,0-0.3c0-0.1,0.1-0.1,0.1-0.2c0-0.1-0.1-0.9-0.1-1c0-0.2-0.1-0.5-0.1-0.6
				C32.4,10.5,32.3,10.2,32.3,10.1L32.3,10.1L32.3,10.1z M32.6,12.6L32.6,12.6L32.6,12.6L32.6,12.6L32.6,12.6
				c-0.1,0-0.1,0.2-0.1,0.3c0,0.1-0.1,0.2-0.1,0.2s0,0,0,0c0,0,0.1,0.1,0.1,0.1l0.1,0c0,0,0-0.3,0-0.4
				C32.6,12.8,32.6,12.6,32.6,12.6L32.6,12.6L32.6,12.6z M30.4,12.7L30.4,12.7c0-0.1-0.1,0.2-0.2,0.3c0,0.2,0,0.2,0,0.4
				c0,0.1,0,0.2,0,0.3c0,0.1,0,0.1,0,0.1s0.1-0.1,0.1-0.1c0,0,0.1-0.1,0.1-0.1l0.1,0.1c0,0,0-0.1,0-0.1c0,0-0.1-0.1-0.1-0.1
				c0,0,0-0.1,0-0.2c0-0.1,0.1-0.2,0.1-0.3C30.5,12.9,30.4,12.7,30.4,12.7L30.4,12.7L30.4,12.7z M30.6,12.9l0.1-0.1l0.3,0.3
				c0,0,0,0.3-0.1,0.4c-0.1,0.1-0.3,0.2-0.3,0.2s-0.1-0.1-0.1-0.3c0-0.2,0-0.2,0-0.2C30.5,13.1,30.5,12.9,30.6,12.9L30.6,12.9
				L30.6,12.9z M30.9,13.5l0.1-0.2c0,0,0,0.1,0,0.2c0,0,0.1,0.1,0.1,0.3c0,0.1-0.1,0.5-0.1,0.5c0,0-0.1-0.3-0.2-0.3
				c-0.1,0-0.2,0.1-0.2,0.1l-0.1-0.2c0,0,0.1-0.1,0.1-0.1C30.8,13.7,30.9,13.6,30.9,13.5L30.9,13.5L30.9,13.5z M30.4,13.8l0-0.1l0,0
				c0,0-0.1,0.1-0.1,0.2c-0.1,0.1-0.1,0.1-0.2,0.2c0,0.1,0,0.4,0,0.4s0.1,0,0.1,0c0.1,0,0.1,0.2,0.1,0.2s0-0.2,0.1-0.3
				c0.1-0.1,0.2-0.2,0.2-0.2s0-0.1,0-0.1C30.5,13.9,30.4,13.9,30.4,13.8L30.4,13.8L30.4,13.8z M31.9,14.2L31.9,14.2l-0.5-0.6l0,0.1
				c0,0,0.1,0.1,0.1,0.1c0,0.1,0,0.4,0.1,0.5c0.1,0.1,0.2,0.1,0.2,0.1C31.9,14.3,31.9,14.2,31.9,14.2L31.9,14.2L31.9,14.2z
				 M31.9,14.3L31.9,14.3l0.3,0.2c0,0-0.1,0.3-0.1,0.4c0,0.1-0.1,0.2-0.2,0.1c-0.1,0-0.1-0.1-0.1-0.3C31.8,14.4,31.9,14.4,31.9,14.3
				L31.9,14.3L31.9,14.3z M31.5,13.9L31.5,13.9C31.4,13.9,31.4,13.8,31.5,13.9C31.4,13.8,31.4,13.9,31.5,13.9l-0.2,0.4
				c0,0,0,0.2,0,0.2c0,0.1,0.1,0.2,0.1,0.3c0,0.1,0,0.3,0,0.4c0,0.1,0.1,0.1,0.1,0.1s0.2,0,0.2-0.2c0-0.1,0-0.3,0-0.5
				c-0.1-0.2-0.2-0.3-0.2-0.4C31.5,14.1,31.5,13.9,31.5,13.9L31.5,13.9L31.5,13.9z M30.7,14.1l0.1-0.1l0,0l0,0.1
				c0,0,0.1,0.2,0.1,0.3c0,0.1-0.1,0.3-0.1,0.3c0,0-0.1,0.2-0.1,0.2s-0.1-0.2-0.2-0.2c-0.1,0-0.2,0.2-0.2,0.2s-0.1,0-0.1-0.1
				c0-0.1,0.1-0.3,0.1-0.4C30.6,14.2,30.7,14.1,30.7,14.1L30.7,14.1L30.7,14.1z M30,14.6L30,14.6c0.1,0,0.1,0,0.1,0.1
				c0,0,0,0.1,0.1,0.1c0,0,0.1,0.1,0.1,0.2c0,0.1,0,0.3,0,0.3c0,0-0.1-0.1-0.2-0.1c-0.1,0-0.2,0.2-0.2,0.2c0,0,0,0-0.1,0
				c0,0-0.1,0-0.1-0.2c0-0.2,0.1-0.4,0.1-0.4C30,14.6,30,14.6,30,14.6L30,14.6L30,14.6z M32.3,14.6L32.3,14.6
				C32.3,14.6,32.3,14.6,32.3,14.6C32.3,14.6,32.3,14.6,32.3,14.6c0.1,0.1,0,0.5,0,0.5c0,0,0,0.1-0.1,0.1c0,0-0.1,0.1-0.2,0.1
				c0,0.1,0,0.1,0,0.2c0,0.1,0,0.2-0.1,0.2c-0.1,0-0.1,0.1-0.2,0.1c0,0-0.3,0.6-0.3,0.7c0,0.1-0.4,0.7-0.4,0.8
				c0,0.1-0.1,0.3-0.1,0.4c0,0.1-0.2,0.2-0.2,0.2c-0.1,0-0.2,0.1-0.3,0.1c0,0-0.1,0-0.1-0.1c0,0,0.1-0.2,0.1-0.3
				c0,0,0.3-0.1,0.3-0.1c0-0.1,0.1-0.2,0.2-0.3c0-0.1,0.3-0.7,0.4-0.8c0-0.1,0.2-0.5,0.2-0.6c0-0.1,0-0.3,0-0.4
				c0-0.1,0.2-0.3,0.3-0.4c0.2-0.1,0.2-0.1,0.2-0.1c0-0.1,0.1-0.2,0.1-0.2C32.3,14.7,32.3,14.6,32.3,14.6L32.3,14.6L32.3,14.6z
				 M31.2,14.7L31.2,14.7C31.3,14.7,31.3,14.7,31.2,14.7c0.1,0,0,0.4,0.1,0.5c0,0.1,0.2,0.3,0.2,0.5c0,0.2,0,0.2-0.1,0.3
				c0,0-0.1,0.1-0.2,0.3c-0.1,0.3-0.2,0.4-0.2,0.5c-0.1,0.1-0.1,0.2-0.2,0.3c0,0.1,0,0.1,0,0.2c0,0-0.1,0.1-0.1,0.1
				c-0.1,0-0.2,0.1-0.2,0.1c0,0-0.1-0.1,0-0.3c0.1-0.2,0.3-0.5,0.4-0.8c0.1-0.2,0.3-0.5,0.2-0.6c0-0.2,0-0.2,0-0.3
				c0-0.1,0-0.1,0-0.1c0,0,0.1-0.4,0.1-0.5C31.2,14.9,31.2,14.7,31.2,14.7L31.2,14.7L31.2,14.7z M31.2,16.1L31.2,16.1
				c0,0-0.1,0-0.2,0.3c-0.1,0.3-0.2,0.4-0.2,0.5c0,0.1-0.1,0.1,0,0.2c0,0,0.1,0,0,0c0,0,0.1-0.2,0.2-0.4c0.1-0.2,0.1-0.3,0.2-0.4
				C31.2,16.2,31.2,16.2,31.2,16.1L31.2,16.1L31.2,16.1z M30.7,14.9l0-0.1c0,0,0,0-0.1,0c0,0-0.2,0.1-0.2,0.1s0,0.2,0,0.3
				c0,0.1-0.1,0.2-0.1,0.3c0,0,0,0.1,0,0.1c0,0,0,0.2,0,0.2s0.1-0.1,0.2-0.1c0,0,0.1,0,0.1,0c0,0,0.2-0.4,0.1-0.5
				C30.8,15,30.8,14.9,30.7,14.9L30.7,14.9L30.7,14.9z M30.2,15.3L30.2,15.3c0,0,0.1,0.3,0.1,0.5c0,0.2-0.1,0.4-0.2,0.5
				c-0.1,0.1-0.2,0.1-0.2,0.1c0,0,0-0.1,0-0.2c0-0.1-0.1-0.2-0.1-0.3c0-0.1,0-0.2,0.1-0.3c0.1-0.1,0.2-0.1,0.2-0.2
				C30.1,15.4,30.2,15.3,30.2,15.3L30.2,15.3L30.2,15.3z M30.6,15.9l0-0.2l-0.2,0.2c0,0,0,0.2-0.1,0.4c-0.1,0.2-0.4,0.3-0.4,0.3
				l-0.1,0.2c0,0,0.2-0.1,0.2,0c0,0,0,0.2,0,0.2c0,0,0.3-0.3,0.4-0.5C30.6,16,30.6,15.9,30.6,15.9L30.6,15.9L30.6,15.9z M29.7,16
				L29.7,16L29.7,16l-0.2,0.2l0.2,0.5l0,0c0,0,0.1-0.1,0.1-0.3c0-0.1,0-0.2,0-0.2c0,0-0.1-0.1-0.1-0.1C29.7,16.1,29.7,16,29.7,16
				L29.7,16L29.7,16z M30,16.9l0-0.1c0,0-0.1,0-0.2,0c0,0-0.1,0-0.1,0c0,0,0,0,0,0.1c0,0,0.2,0.5,0.2,0.5s0.1-0.2,0.2-0.3
				C30.1,17,30,17,30,16.9L30,16.9L30,16.9z M30.1,17.6L30.1,17.6l0-0.1l0,0L30,17.6c0,0,0,0.1,0,0.1C30,17.7,30.1,17.6,30.1,17.6
				L30.1,17.6L30.1,17.6z M30.9,15.7L30.9,15.7L30.9,15.7L30.9,15.7c0.1,0.1-0.1,0.6-0.2,0.7c-0.1,0.1-0.3,0.6-0.3,0.6
				c0,0.1-0.1,0.1-0.1,0.2c0,0,0,0.3,0,0.4c0,0.2-0.2,0.4-0.2,0.4l-0.1-0.2c0,0,0.1-0.1,0.1-0.3c0-0.1-0.1-0.2,0-0.3
				c0-0.1,0.3-0.7,0.4-0.9c0.1-0.2,0.2-0.5,0.2-0.6C30.8,15.8,30.9,15.7,30.9,15.7L30.9,15.7L30.9,15.7z M31.8,16.1L31.8,16.1
				L31.8,16.1c0.1,0-0.2,0.7-0.3,0.9c-0.1,0.2-0.5,1-0.5,1c0,0-0.1,0.1-0.1,0.1c0,0-0.1,0-0.1,0.1c0,0-0.2,0.2-0.3,0.3
				c-0.1,0.1-0.1,0.1-0.1,0.1s-0.1-0.3-0.1-0.3c0,0,0.3-0.1,0.4-0.1c0.1,0,0.3-0.1,0.3-0.2c0,0,0.3-0.4,0.5-0.9
				C31.6,16.5,31.7,16.2,31.8,16.1C31.8,16.1,31.8,16.1,31.8,16.1L31.8,16.1L31.8,16.1z M30.8,18.3L30.8,18.3L30.8,18.3
				c0.1,0.1-0.1,0.3-0.2,0.4c-0.1,0.1-0.2,0.2-0.2,0.2l-0.1-0.2l0,0c0,0,0.2-0.1,0.2-0.1C30.7,18.4,30.7,18.3,30.8,18.3L30.8,18.3
				L30.8,18.3z M29,16.6l1.2,3c0,0,0.2-0.2,0.2-0.3c0,0,0-0.2,0-0.3c0-0.1-1.1-3-1.1-3l-0.6,1l1.1,3l0.3-0.3l-1.1-3L29,16.6L29,16.6
				L29,16.6z M28.5,17.8l0.1-0.2l0.2,0.4c0,0-0.1,0-0.2,0c0,0-0.1,0.1-0.1,0.1C28.5,18,28.5,17.9,28.5,17.8L28.5,17.8L28.5,17.8z
				 M28.6,18.1l0.2,0l0.1,0.1c0,0,0,0.3,0,0.3c0,0-0.2,0.3-0.3,0.3c-0.1,0-0.4,0-0.5,0c-0.1,0-0.2,0-0.2,0.1c0,0,0,0.1,0,0.1
				s0-0.1,0.1-0.1c0.1-0.1,0.1,0,0.2-0.1c0.1-0.1,0.1-0.3,0.1-0.3C28.3,18.3,28.6,18.1,28.6,18.1L28.6,18.1L28.6,18.1z M27.5,18.9
				l0.3-0.2c0,0-0.1,0.1-0.1,0.3c0,0.1,0,0.3,0,0.3c0,0.1-0.2,0.3-0.3,0.3c-0.1,0-0.3,0-0.3,0s0-0.2,0-0.3c0,0,0-0.1,0-0.1
				S27.4,18.9,27.5,18.9L27.5,18.9L27.5,18.9z M28.5,18.9l0.2-0.1c0,0-0.1,0.1-0.1,0.2c0,0.1,0,0.2-0.1,0.2c0,0-0.3,0.3-0.3,0.3
				c-0.1,0-0.2,0.1-0.2,0.1s0.1-0.2,0.1-0.2c0-0.1,0-0.1,0-0.1c0,0-0.1,0-0.1,0s0-0.1,0.2-0.2C28.3,18.8,28.4,18.9,28.5,18.9
				L28.5,18.9L28.5,18.9z M27.9,19.5l0.1-0.2c0,0-0.2,0-0.2,0.1c0,0-0.3,0.3-0.3,0.3c-0.1,0-0.2,0-0.2,0l-0.1,0l-0.1,0.1
				c0,0,0.1,0,0.1,0c0,0,0.1,0,0.2,0c0,0,0,0.1,0,0.1c0,0-0.1,0.3-0.1,0.3c0,0,0.1,0,0.2,0c0,0,0.3-0.2,0.3-0.3
				C27.9,19.6,27.9,19.6,27.9,19.5L27.9,19.5L27.9,19.5z M27,19.5l0-0.1C27,19.3,27,19.4,27,19.5c-0.2-0.1-0.4,0.1-0.4,0.1l-0.1,0.4
				c0,0,0.2-0.1,0.2,0c0,0,0,0.2,0,0.2s0.2-0.1,0.2-0.2c0-0.1,0-0.1,0-0.2C27,19.6,27,19.5,27,19.5L27,19.5L27,19.5z M29.1,18.8
				L29.1,18.8l-0.5,0.5l-0.1,0l-0.5,0.5l-0.1,0l-0.5,0.4l-0.2,0l-0.1,0c0,0,0-0.1,0-0.2c0-0.1,0-0.1,0-0.1c0,0,0.1-0.1,0.1-0.1
				c0,0,0,0-0.1,0c0,0-0.1,0.1-0.1,0.1c0,0-0.1,0-0.1,0c0,0-0.1,0.2-0.1,0.2c-0.1,0-0.2,0.2-0.2,0.2s0.1,0,0.1,0c0,0,0.1,0,0.1,0.1
				c0,0,0,0.1-0.1,0.1c0,0,0,0.1,0,0.1c0,0,0,0.1-0.1,0.1c0,0-0.1,0-0.1,0c0,0,0-0.1,0-0.2c0,0,0.1-0.1,0.1-0.1c0,0,0.1-0.1,0-0.1
				c-0.1,0-0.1,0-0.1,0c0,0-0.2,0.2-0.2,0.3c0,0-0.1,0.1-0.1,0.1s0,0.1,0,0.1c0,0-0.1,0.1-0.1,0.1c0,0-0.1,0.1-0.1,0.1
				s0.7-0.4,0.7-0.5c0,0,0.5-0.4,0.5-0.4c0,0,0.2,0,0.2,0l0.5-0.4l0.1,0l0.5-0.5l0.1,0L29.1,18.8L29.1,18.8L29.1,18.8z M26.6,20.1
				l0.1-0.1l-0.2,0l-0.1,0.6c0,0,0.2-0.2,0.3-0.3C26.6,20.2,26.6,20.1,26.6,20.1L26.6,20.1L26.6,20.1z M24.7,20.3l0.6-0.2l0,0.2
				c0,0-0.4,0.1-0.5,0.2c-0.1,0-0.5,0.2-0.5,0.2l-0.1-0.2C24.2,20.4,24.6,20.3,24.7,20.3L24.7,20.3L24.7,20.3z M24.8,20.6l0.5-0.2
				l0,0.2c0,0-0.3,0.1-0.4,0.2c-0.1,0-0.5,0.2-0.5,0.1l0-0.2C24.3,20.7,24.6,20.6,24.8,20.6L24.8,20.6L24.8,20.6z M24.4,20.9
				l0.8-0.3l0,0.1l-0.9,0.3l0,0L24.4,20.9L24.4,20.9L24.4,20.9L24.4,20.9z M24.6,21.1l0.6-0.2l0,0.2c0,0-0.3,0.1-0.5,0.2
				c-0.1,0-0.4,0.1-0.4,0.1l0-0.2C24.2,21.2,24.5,21.1,24.6,21.1L24.6,21.1L24.6,21.1z M25,21.6L25,21.6l0.1,0.1
				c0,0-0.6,0.4-0.8,0.4c-0.2,0-0.6,0-0.7,0c-0.1,0-0.8,0-0.8-0.1c0,0-0.2,0-0.2-0.1c0,0-0.1-0.1-0.1-0.1c0,0,0-0.1,0-0.1
				c0,0,0.1,0,0.1,0c0,0,0.1,0.1,0.1,0.1c0,0,0.5,0.1,0.8,0.1c0.2,0,0.6,0,0.7,0c0.1,0,0.4-0.1,0.5-0.2C24.8,21.7,25,21.6,25,21.6
				L25,21.6L25,21.6z M25,24.7l0-0.4l-0.7-0.3l0,0.9L25,24.7L25,24.7L25,24.7z M27.6,24.1l0-2l-0.4,0.2l0,2.1l1.2-0.1l0-0.3
				L27.6,24.1L27.6,24.1L27.6,24.1z M28.4,23.5l-0.1-1.8c0,0-0.2,0.2-0.3,0.2c0,0,0,0,0,0L27.7,22l0,1.9l1.4-0.1l0-0.4L28.4,23.5
				L28.4,23.5L28.4,23.5z M26.7,23.5l0.1-0.2l-0.9-0.4L25.6,23L26.7,23.5L26.7,23.5L26.7,23.5z M26.6,23.8l0.1-0.2L25.3,23l-0.4,0
				L26.6,23.8L26.6,23.8L26.6,23.8z M26.4,24l0.1-0.2L24.6,23l-0.4,0L26.4,24L26.4,24L26.4,24z M24.2,23.2l2.2,1l-0.1,0.1l-2.4-1.1
				L24.2,23.2L24.2,23.2L24.2,23.2z M26.1,24.5l0.1-0.1l-2.5-1.1l0.1,0.3L26.1,24.5L26.1,24.5L26.1,24.5z M21.7,21.5L21.7,21.5
				c0,0.1-0.2,0.1-0.2,0.3c0,0.2,0.2,0.3,0.2,0.3l0,0.1c0,0-0.3-0.1-0.3-0.3C21.4,21.5,21.7,21.5,21.7,21.5L21.7,21.5L21.7,21.5z
				 M22.3,21.6l0,0.5l-0.1,0.1c0,0-0.2,0.1-0.3,0.1c-0.1,0-0.4,0-0.5,0c-0.1,0-0.2-0.1-0.2-0.1c0,0,0,0,0,0l0-0.6c0,0,0,0,0,0
				c0,0,0,0,0,0l0,0c0,0,0,0,0,0c0,0,0,0,0,0c0,0,0.2-0.2,0.4-0.2c0.2,0,0.3,0,0.4,0.1c0.1,0,0.2,0.1,0.2,0.2
				C22.3,21.6,22.3,21.6,22.3,21.6L22.3,21.6L22.3,21.6z M20.5,2l1.2-0.1l0.1,0l0,0.1l0,0l-1.2,0.1l-0.8,0.1c0,0-0.2,0.1-0.3,0.1
				c0,0-0.2,0.2-0.2,0.3c0,0.1-0.2,0.2-0.3,0.2c-0.1,0-0.3-0.1-0.2-0.2c0-0.1,0.2-0.2,0.3-0.2c0.1,0,0.3-0.1,0.3-0.1
				c0.1,0,0.2-0.2,0.2-0.2C19.5,2.1,20.2,2,20.5,2L20.5,2L20.5,2z M19.4,23L19.4,23c0-0.1,0.2-0.1,0.3-0.1c0.1,0,0.5-0.1,0.5-0.1
				l0,0c0.3,0.5,0.9,0.8,1.6,0.8c0.6,0,1.2-0.3,1.5-0.8l0,0l0.4,0.1l0.2,0l0.2,0l0,0h-0.3l-0.2,0.2l0.1,0.3l-0.3,0.3l-0.2-0.2
				l-0.3,0.2l0.1,0.3l-0.4,0.2l-0.2-0.2L22,24.1l0,0.3l-0.5,0l0-0.3L21.1,24l-0.2,0.2l-0.4-0.2l0-0.3l-0.2-0.2L20,23.8l-0.3-0.3
				l0.1-0.3L19.7,23L19.4,23L19.4,23L19.4,23z M20.4,22.7l0.4-0.2l0,0c0.2,0.3,0.6,0.5,1,0.5c0.4,0,0.7-0.2,0.9-0.4l0,0l0.3,0.2l0,0
				c-0.3,0.4-0.8,0.6-1.3,0.6C21.2,23.4,20.7,23.1,20.4,22.7L20.4,22.7L20.4,22.7z M19.7,2.8l-0.3-0.1c0,0,0-0.2,0.1-0.2
				c0.1-0.1,0.5-0.1,0.6-0.1c0.2,0,0.6-0.1,0.8-0.1c0.2,0,0.8,0,0.8,0l0,0l0,0.1l0,0c0,0-0.7,0-0.8,0c-0.2,0-0.6,0.1-0.8,0.1
				c-0.1,0-0.3,0.1-0.4,0.2C19.7,2.7,19.7,2.8,19.7,2.8L19.7,2.8L19.7,2.8z M21.3,2.4l0.4,0l0.1,0l0,0.1c0,0-0.8,0-0.9,0.1
				c-0.2,0-0.7,0.1-0.7,0.1c-0.1,0,0,0.1,0,0.1c0,0,0.6-0.1,0.8-0.1c0.2,0,0.7,0,0.7,0s0.1,0,0.1,0v0l0,0c0,0-0.7,0-0.9,0
				c-0.2,0-0.6,0.1-0.6,0.1c-0.1,0-0.2,0-0.3,0c0,0-0.1-0.1,0-0.1c0-0.1,0-0.1,0.1-0.1c0.1,0,0.1-0.1,0.3-0.1c0.2,0,0.6-0.1,0.7-0.1
				C20.9,2.4,21.1,2.4,21.3,2.4L21.3,2.4L21.3,2.4z M19.4,2.8c-0.1,0-0.1,0-0.2,0c0,0-0.1,0-0.1,0.1c0,0.1,0.1,0.2,0.2,0.2
				c0.1,0,0.3,0,0.3,0c0.1,0,0.3,0,0.3,0c0,0,0.2,0,0.4-0.1c0.2,0,0.4,0,0.5-0.1c0.1,0,0.5,0,0.5,0c0,0,0.1,0,0.1-0.1
				c0,0,0-0.1-0.1-0.1c0,0-0.7,0-1,0.1C20.1,3,19.9,3,19.9,3c0,0-0.2,0-0.2-0.1C19.6,2.9,19.5,2.9,19.4,2.8L19.4,2.8L19.4,2.8z
				 M21.3,3.4l0.2-0.2c0,0-0.1,0-0.1,0c0,0-0.2-0.1-0.4-0.1c-0.2,0-0.4,0.2-0.4,0.2s0.1,0.1,0.1,0.1c0,0,0.2,0.1,0.2,0.1
				c0,0,0,0.2-0.1,0.2c0,0,0.1,0,0.1,0c0,0,0.2-0.1,0.3-0.1C21.2,3.6,21.2,3.5,21.3,3.4L21.3,3.4L21.3,3.4z M19.1,2.3L19.1,2.3
				c0-0.1-0.3,0-0.4,0c-0.1,0-0.3,0.1-0.4,0.1c0,0,0,0.1,0,0.1c0,0-0.1,0.1-0.3,0.2c-0.2,0.1-0.3,0.3-0.3,0.3c0,0,0,0.1,0.1,0.1
				c0,0,0.3,0,0.4-0.1c0.1-0.1,0.2-0.2,0.3-0.2c0-0.1,0-0.1,0.1-0.2c0.1-0.1,0.1-0.1,0.2-0.2C18.9,2.4,19,2.4,19.1,2.3L19.1,2.3
				L19.1,2.3z M18.4,3l0.2,0C18.8,3,19,3,19,3c0.1,0,0.1,0.1,0.2,0.1c0.1,0,0.3,0,0.3,0l-0.4,0.1c0,0,0-0.1-0.2-0.1
				c-0.2,0-0.2,0-0.4,0c-0.1,0-0.2-0.1-0.2-0.1C18.3,3.1,18.3,3,18.4,3L18.4,3L18.4,3z M20.6,3.7L20.6,3.7c0.1-0.1,0.1-0.1,0-0.1
				c-0.1,0-0.2-0.1-0.3-0.1c-0.2,0-0.2,0.1-0.3,0.1c-0.1,0.1-0.1,0.2-0.1,0.2c0,0,0,0.1,0,0.1c0,0,0.2,0.2,0.3,0.1
				c0.1,0,0.3-0.1,0.4-0.1C20.5,3.8,20.6,3.7,20.6,3.7L20.6,3.7L20.6,3.7z M19.9,3.5L19.9,3.5C20,3.4,19.9,3.4,19.9,3.5
				c-0.1-0.1-0.1-0.1-0.3-0.1c-0.2,0-0.4,0.1-0.4,0.1s0.2,0,0.3,0.1c0,0.1-0.1,0.3-0.1,0.3s0.1,0,0.1,0.1c0,0,0.1,0,0.1-0.1
				c0,0,0.1-0.2,0.1-0.3C19.8,3.6,19.9,3.5,19.9,3.5L19.9,3.5L19.9,3.5z M20.7,4l-0.1-0.1c0,0-0.1,0.1-0.3,0.2c-0.2,0.1-0.5,0-0.5,0
				s0,0.1,0,0.1c0,0-0.2,0.2-0.2,0.2s0.3-0.1,0.5-0.1c0.1,0,0.3,0,0.3-0.1c0,0,0.1-0.1,0.1-0.1C20.7,4,20.7,4,20.7,4L20.7,4L20.7,4z
				 M18.8,3.4L18.8,3.4l-0.6,0.3c0,0-0.1-0.1-0.3,0c-0.2,0-0.3,0-0.4,0c-0.1,0-0.2-0.1-0.1-0.1c0-0.1,0.1-0.2,0.2-0.2
				c0.1,0,0.3,0,0.4,0c0.2,0,0.3,0.1,0.4,0.1C18.5,3.4,18.8,3.4,18.8,3.4L18.8,3.4L18.8,3.4z M18.6,3.8L18.6,3.8
				c-0.1-0.1-0.1-0.1,0-0.1c0.1,0,0.2-0.1,0.3-0.1c0.2,0,0.2,0.1,0.3,0.1c0,0,0.2,0,0.2,0.1c0,0-0.1,0.1-0.1,0.2
				c-0.1,0.1-0.1,0.2-0.1,0.2c0,0-0.4,0.2-0.4,0.2c0,0-0.2,0-0.2,0c0,0,0,0,0.1-0.1c0,0,0.1-0.1,0.1-0.2C18.7,3.9,18.6,3.8,18.6,3.8
				L18.6,3.8L18.6,3.8z M19.3,4L19.3,4c0,0-0.1,0.1-0.2,0.2c-0.1,0.1-0.4,0.1-0.4,0.1s0.2,0,0.2,0.1c0,0,0,0.1,0,0.1s0.2,0,0.2,0
				c0.1,0,0.1,0,0.2-0.1c0.1,0,0.1-0.1,0.1-0.2c0.1-0.1,0.2-0.1,0.2-0.1c0,0-0.1-0.1-0.2,0C19.5,4.1,19.3,4,19.3,4L19.3,4L19.3,4z
				 M17.7,2.7l0.3-0.1l0,0.1l0,0c0,0-0.2,0-0.3,0.1c-0.1,0.1-0.2,0.5-0.4,0.6c-0.2,0.1-0.5,0.2-0.5,0.1c-0.1-0.1,0-0.2,0.1-0.3
				c0.1-0.1,0.2-0.1,0.3-0.2c0.1,0,0.1-0.2,0.1-0.2C17.4,2.8,17.6,2.7,17.7,2.7L17.7,2.7L17.7,2.7z M17.8,4.2l0-0.1
				c0,0,0.3-0.1,0.3-0.1c0,0,0.1,0,0.2,0c0.1,0,0.2,0,0.2,0.1c0,0,0.1,0.1,0.1,0.1c0,0,0,0.1-0.1,0.1c0,0-0.1,0.1-0.1,0.1
				s-0.2,0-0.3,0c-0.1,0.1-0.2,0.1-0.2,0.1l-0.2,0C17.7,4.4,17.7,4.3,17.8,4.2C17.7,4.2,17.8,4.2,17.8,4.2L17.8,4.2L17.8,4.2z
				 M17.1,3.1L17.1,3.1c0-0.1-0.3,0.1-0.4,0.1c-0.1,0-0.2,0.1-0.2,0.1c0,0,0,0.2-0.1,0.2c-0.1,0.1-0.2,0.1-0.3,0.2C16,3.9,16,4,16,4
				c0,0,0.2,0,0.2,0c0,0,0.2,0,0.3-0.1c0.1-0.1,0.2-0.2,0.2-0.3c0-0.1,0-0.2,0-0.2c0-0.1,0.1-0.2,0.2-0.2C16.9,3.2,17,3.1,17.1,3.1
				L17.1,3.1L17.1,3.1z M17.9,3.7l-0.2,0c-0.1,0-0.4-0.1-0.5-0.1c-0.1,0-0.4,0-0.5,0.1c-0.1,0.1-0.2,0.1-0.2,0.2
				c0,0.1,0.1,0.1,0.2,0.1c0.1,0,0.2,0,0.3,0c0.1,0,0.2,0,0.2,0c0,0,0.3-0.1,0.4-0.1C17.8,3.9,18,3.8,17.9,3.7
				C18,3.8,18,3.8,17.9,3.7C18,3.7,17.9,3.7,17.9,3.7L17.9,3.7L17.9,3.7z M17.6,4.4l0.1-0.2c0,0-0.4,0.1-0.6,0.2
				c-0.2,0.1-0.4,0.3-0.4,0.3l0.1,0l0,0.2L17,4.9c0,0,0-0.2,0.2-0.3C17.3,4.4,17.6,4.4,17.6,4.4L17.6,4.4L17.6,4.4z M18.2,4.4
				l-0.1-0.1c0,0,0.2-0.1,0.3-0.1c0.1,0,0.2,0.1,0.3,0.1c0.1,0,0.2,0,0.2,0.1c0,0,0,0,0,0.1c0,0-0.3,0.2-0.4,0.2c-0.1,0-0.4,0-0.4,0
				s0-0.1,0-0.1C18.1,4.7,18.3,4.6,18.2,4.4L18.2,4.4L18.2,4.4z M17.4,4.5c0.3-0.1,0.5,0,0.7,0c0,0-0.1,0.1-0.1,0.2
				c0,0.1-0.1,0.3-0.2,0.3c-0.1,0-0.4,0-0.5,0c-0.1,0-0.2,0-0.2,0S17.2,4.6,17.4,4.5L17.4,4.5L17.4,4.5z M17.3,5.4
				c0.1-0.1,0.2-0.2,0.3-0.3c0,0-0.3,0-0.4-0.1c-0.1,0-0.4,0.1-0.4,0.1c0,0,0,0.1,0,0.1c0,0,0,0,0.1,0c0,0,0,0.1,0,0.2
				c0,0.1,0,0.2,0,0.2S17.2,5.5,17.3,5.4L17.3,5.4L17.3,5.4z M16.1,4.1l-0.2,0.1c0,0-0.2,0.2-0.1,0.3c0.1,0.1,0.3,0,0.3,0
				c0,0,0.1-0.1,0.2-0.1c0.1,0,0.2,0,0.2,0s0.3-0.2,0.4-0.2c0.1,0,0.3-0.2,0.3-0.2c0,0,0-0.1,0-0.1c0,0-0.3,0.1-0.4,0.1
				c-0.1,0-0.4,0-0.5-0.1C16.3,4.1,16.2,4.1,16.1,4.1L16.1,4.1L16.1,4.1z M16.7,5.1l0-0.3c0,0-0.2,0.1-0.3,0.1
				c-0.1,0-0.2,0.1-0.3,0.2C16,5.2,16,5.2,16,5.2s0.1,0,0.1,0c0,0,0,0.4,0,0.4s0.1,0,0.2-0.1c0.1,0,0.2-0.2,0.3-0.3
				C16.7,5.2,16.7,5.2,16.7,5.1L16.7,5.1L16.7,5.1z M16.8,5.4L16.8,5.4C16.8,5.3,16.7,5.3,16.8,5.4c-0.1-0.1-0.2,0.1-0.3,0.1
				c-0.1,0-0.3,0.1-0.3,0.1l0,0c0,0,0,0,0.1,0c0,0,0.1,0,0.1,0.1c0,0,0,0.2,0,0.2c0,0,0,0.1,0,0.1c0,0,0.3-0.2,0.3-0.2
				c0-0.1,0.1-0.1,0.1-0.2C16.8,5.6,16.8,5.5,16.8,5.4L16.8,5.4L16.8,5.4z M16,5.5V5.3c0,0-0.1,0.1-0.2,0.1c-0.1,0-0.3,0.1-0.3,0.2
				c-0.1,0.1-0.1,0.4-0.1,0.4s0.1,0,0.1,0c0,0,0.1-0.2,0.2-0.1c0.1,0,0,0.2,0,0.2S16,5.8,16,5.8C16,5.7,16,5.6,16,5.5L16,5.5L16,5.5
				z M16.2,6.2l0-0.3c0,0-0.1,0-0.2,0.1c-0.1,0-0.3,0.3-0.3,0.3s0,0.2,0,0.2c0,0,0,0.1,0,0.1s0.1,0,0.1,0c0,0,0.3-0.2,0.3-0.2
				C16.2,6.3,16.2,6.2,16.2,6.2L16.2,6.2L16.2,6.2z M16.3,3.4L16.3,3.4c-0.1,0-0.5,0.2-0.6,0.3c-0.1,0.1-0.4,0.3-0.4,0.3l0.2,0.2
				c0,0-0.6,0.5-0.8,0.7c-0.2,0.2-0.6,0.6-0.6,0.6c0,0-0.2,0.1-0.2,0.2c-0.1,0.1,0,0.5,0,0.5s0.1,0,0.1,0c0,0,0.2-0.2,0.2-0.2
				s0-0.3,0-0.4c0-0.1,0.5-0.5,0.6-0.6c0.1-0.1,0.7-0.6,0.7-0.6c0.1-0.1,0.3-0.1,0.4-0.4c0.1-0.3,0-0.2,0.1-0.3
				C16,3.7,16,3.6,16.2,3.5C16.3,3.5,16.3,3.4,16.3,3.4L16.3,3.4L16.3,3.4z M15.6,4.5L15.6,4.5C15.7,4.5,15.7,4.5,15.6,4.5
				c0.1,0.1-0.5,0.5-0.5,0.6c-0.1,0.1-0.4,0.4-0.4,0.4c0,0,0,0,0,0.1c0,0,0,0,0,0c0,0,0.4-0.3,0.5-0.4c0.1-0.1,0.3-0.2,0.3-0.3
				c0,0,0.2-0.1,0.2-0.2c0,0,0.1,0,0.1,0c0,0,0.1,0,0.1,0.1c0,0-0.3,0.3-0.3,0.3c0,0-0.4,0.3-0.4,0.4c-0.1,0-0.3,0.3-0.3,0.3
				c0,0-0.2,0.2-0.3,0.2c-0.1,0-0.2,0-0.2-0.1c0,0,0-0.2,0-0.2c0,0,0.4-0.4,0.5-0.4C14.8,5.2,15,5.1,15,5c0.1-0.1,0.2-0.2,0.3-0.3
				C15.4,4.7,15.6,4.5,15.6,4.5L15.6,4.5L15.6,4.5z M15.1,4.2L15.1,4.2C15.2,4.2,15.2,4.2,15.1,4.2C15.2,4.2,15.2,4.3,15.1,4.2
				c0,0.1-0.6,0.7-0.7,0.8c-0.1,0.1-0.6,0.5-0.6,0.7c-0.1,0.1-0.1,0.2-0.1,0.3c0,0.1,0,0.3,0,0.4c0,0.1,0,0.2-0.1,0.3
				c-0.1,0.1-0.2-0.1-0.2-0.1c0,0,0-0.2,0.1-0.3C13.5,6.1,13.6,6,13.6,6c0-0.1,0-0.3,0-0.3s0.5-0.6,0.7-0.8c0.2-0.1,0.5-0.4,0.6-0.5
				C15,4.3,15.1,4.2,15.1,4.2L15.1,4.2L15.1,4.2z M15.9,5L15.9,5c-0.1,0-0.6,0.4-0.8,0.6C15,5.7,14.6,6,14.6,6c0,0-0.2,0-0.3,0.1
				c-0.1,0-0.3,0.1-0.3,0.2c0,0.1-0.1,0.2-0.1,0.2c0,0,0.2,0,0.2,0c0,0,0.1-0.2,0.2-0.2c0.1,0,0.2,0,0.2,0s0.5-0.5,0.6-0.6
				C15.3,5.6,15.9,5,15.9,5C15.9,5,15.9,5,15.9,5L15.9,5L15.9,5z M15.6,6.2l0-0.2c0,0-0.1,0.1-0.1,0.1c0,0-0.2-0.1-0.3,0
				c-0.1,0.1-0.2,0.2-0.2,0.3c0,0.1,0,0.5,0,0.6c0,0.1,0,0.1,0,0.2c0,0-0.1,0.1-0.1,0.1s0.1,0,0.1-0.1c0,0,0-0.1,0.1-0.2
				c0.1-0.1,0.1-0.2,0.3-0.2c0.1,0,0.2-0.1,0.2-0.2c0-0.1,0.1-0.2,0.1-0.2C15.6,6.4,15.6,6.3,15.6,6.2L15.6,6.2L15.6,6.2z M13.3,6
				L13.3,6c0.1-0.1,0.1-0.1,0.1-0.1l0,0l0,0.1c0,0-0.1,0.1-0.1,0.1c0,0-0.1,0.1-0.1,0.1l0-0.1c0,0,0,0,0-0.1
				C13.3,6.1,13.3,6.1,13.3,6L13.3,6L13.3,6z M14.4,6.4L14.4,6.4c0.1,0,0.1,0,0.1,0s-0.3,0.4-0.3,0.4c0,0-0.2,0-0.2,0
				c-0.1,0-0.2,0.2-0.2,0.3c-0.1,0-0.3,0.1-0.3,0.1s-0.1-0.1,0.1-0.2c0.1-0.1,0.2-0.2,0.4-0.2c0.2,0,0.2,0,0.3,0
				C14.2,6.6,14.4,6.4,14.4,6.4L14.4,6.4L14.4,6.4z M14.8,6.6l0-0.2C14.8,6.5,14.8,6.5,14.8,6.6c-0.1-0.1-0.3-0.1-0.3,0
				c0,0-0.1,0.2-0.1,0.2c0,0-0.1,0.1-0.1,0.2c0,0.1,0,0.2,0,0.2s0.2-0.1,0.3-0.1c0.1,0,0.1,0.1,0.1,0.1s0.2-0.2,0.3-0.3
				C14.9,6.8,14.8,6.7,14.8,6.6L14.8,6.6L14.8,6.6z M15.4,7l0.3-0.4c0,0-0.1,0.1-0.1,0.1c0,0-0.3,0.2-0.3,0.3c0,0-0.2,0.2-0.2,0.2
				c0,0,0,0.1,0,0.1C15.2,7.3,15.4,7.1,15.4,7L15.4,7L15.4,7z M13,5.9L13,5.9c0,0-0.1,0.1-0.1,0.1c0,0-0.1,0.1-0.1,0.1
				c0,0,0.2,0.2,0.2,0.2c0,0,0.1,0.2,0,0.2c0,0-0.2-0.1-0.2-0.1c0,0-0.2-0.1-0.2-0.1c0,0-0.1,0.2-0.1,0.2c0,0-0.1,0.1-0.1,0.1
				c0,0,0.1,0.1,0.1,0.1c0,0,0.3,0,0.3,0c0.1,0,0.1,0,0.2,0c0,0,0.1-0.1,0.1-0.2c0-0.1,0-0.3-0.1-0.3C13.1,6.1,13.1,6,13,5.9
				C13.1,5.9,13,5.9,13,5.9L13,5.9L13,5.9z M13.3,6.9l0-0.2c0,0-0.1,0.1-0.1,0.1c0,0-0.1,0-0.2,0c0,0-0.1,0.2-0.1,0.2
				c0,0.1,0,0.2,0,0.2c0,0,0.1,0.1,0.2,0c0.1,0,0.1-0.1,0.2-0.2C13.2,7.1,13.3,7,13.3,6.9L13.3,6.9L13.3,6.9z M13.9,6.9L13.9,6.9
				C14,6.9,14,6.9,13.9,6.9c0.1,0-0.2,0.5-0.2,0.5c0,0-0.2,0.1-0.3,0.1c-0.1,0.1-0.2,0.2-0.2,0.2c0,0-0.2,0.1-0.3,0
				c-0.1-0.1,0-0.2,0.1-0.4c0.1-0.1,0.2-0.2,0.4-0.2c0.2,0,0.2,0,0.3-0.1C13.8,7.1,13.9,7,13.9,6.9L13.9,6.9L13.9,6.9z M14.4,7.4
				l0-0.2c0,0-0.2,0.1-0.2,0.1c-0.1,0-0.1,0-0.2,0c0,0-0.2,0.2-0.3,0.3c0,0.1,0,0.2,0,0.2c0,0,0.2,0,0.2-0.1c0.1,0,0.1-0.1,0.1,0
				c0,0,0.1,0.1,0,0.1c0,0,0,0.1,0,0.1c0,0,0.1,0,0.1,0s0-0.1,0-0.1c0,0,0-0.2,0-0.2C14.2,7.6,14.4,7.4,14.4,7.4L14.4,7.4L14.4,7.4z
				 M15.1,7.4L15.1,7.4c-0.1-0.1-0.2,0-0.2,0c-0.1,0-0.2,0-0.3,0.1c-0.1,0.1-0.2,0.1-0.2,0.3c-0.1,0.2,0,0.3,0,0.3
				c0,0.1,0.3,0,0.3,0c0,0,0.3-0.3,0.3-0.4C15,7.5,15.1,7.4,15.1,7.4L15.1,7.4L15.1,7.4z M12.8,6.9L12.8,6.9c0-0.1-0.2,0.1-0.2,0.2
				c-0.1,0.1-0.1,0.2-0.1,0.2c0,0,0.1,0.2,0,0.4c-0.1,0.2-0.1,0.4-0.1,0.5c0,0,0.2,0,0.3-0.2c0.1-0.2,0.1-0.4,0.1-0.5
				c0-0.1-0.1-0.3-0.1-0.4C12.8,7.1,12.8,6.9,12.8,6.9L12.8,6.9L12.8,6.9z M14,8.1L14,7.8c0,0-0.2,0.1-0.3,0.1c-0.1,0-0.2,0-0.2,0.1
				c0,0-0.2,0.2-0.2,0.3c0,0.1-0.1,0.2,0,0.2c0,0,0.1,0,0.1-0.1c0,0,0.1-0.1,0.1-0.1c0,0,0,0.1,0.1,0.1c0,0,0.1-0.1,0.1-0.1
				C13.8,8.3,14,8.2,14,8.1L14,8.1L14,8.1z M13.2,8.3l0.3-0.6c0,0-0.2,0.2-0.2,0.2c0,0-0.3,0.1-0.5,0.2c-0.2,0.2-0.3,0.3-0.3,0.4
				c0,0.1,0,0.2,0.1,0.2c0.1,0,0.3-0.1,0.4-0.3C13.1,8.3,13.2,8.3,13.2,8.3L13.2,8.3L13.2,8.3z M12.3,7.7L12.3,7.7
				C12.4,7.7,12.4,7.7,12.3,7.7c0.1,0-0.1,0.3-0.1,0.4c0,0.1,0.1,0.4,0.1,0.5c0,0.2-0.2,0.4-0.2,0.4C12.1,9.1,12,9,12,8.9
				c0-0.1,0.1-0.3,0.1-0.4c0-0.1-0.1-0.3-0.1-0.3C12.1,8.2,12.3,7.7,12.3,7.7L12.3,7.7L12.3,7.7z M14.5,8.2L14.5,8.2
				c0-0.1-0.2,0-0.2,0c0,0-0.1,0-0.2,0c-0.1,0-0.2,0.3-0.2,0.3c0,0,0.2-0.1,0.2,0c0,0.1,0,0.2,0,0.3c0,0.1,0,0.2,0,0.2
				s0.1-0.1,0.1-0.1c0.1,0,0.2-0.3,0.2-0.3C14.4,8.4,14.5,8.2,14.5,8.2L14.5,8.2L14.5,8.2z M11.9,8.4L11.9,8.4L11.9,8.4
				c0.1,0-0.1,0.3-0.1,0.4C11.9,9,12,9.2,12,9.2c0,0,0,0.3,0,0.3l-0.4,0c0,0,0.1-0.5,0.2-0.6C11.8,8.7,11.9,8.4,11.9,8.4L11.9,8.4
				L11.9,8.4z M13,8.5L13,8.5l0.1-0.1c0,0-0.3,0.7-0.3,0.8c0,0-0.2,0.1-0.2,0.1c0,0-0.2,0.4-0.3,0.3c-0.1,0-0.2-0.3-0.1-0.5
				c0.1-0.2,0.4-0.3,0.5-0.3C12.9,8.7,13,8.5,13,8.5L13,8.5L13,8.5z M13.6,8.5L13.6,8.5c0,0-0.1,0-0.1,0.1c-0.1,0-0.2,0-0.3,0.3
				c-0.1,0.3-0.1,0.6-0.1,0.6s0.1-0.2,0.1-0.4c0-0.2,0.1-0.2,0.2-0.3c0.1-0.1,0.1-0.2,0.2-0.2C13.5,8.6,13.6,8.6,13.6,8.5L13.6,8.5
				L13.6,8.5z M14,8.8l0-0.2c0,0-0.1,0.1-0.1,0.1c0,0-0.1,0-0.2,0c-0.1,0-0.3,0.2-0.3,0.4c-0.1,0.2-0.1,0.4-0.1,0.4
				c0,0-0.2,0.2-0.2,0.2l0,0.1l0-0.1c0,0,0.1-0.1,0.1-0.1c0,0,0.1-0.1,0.1-0.1c0.1,0,0.2,0,0.2,0c0.1,0,0.3-0.2,0.3-0.3
				C14,9,14,8.8,14,8.8L14,8.8L14,8.8z M13.8,9.8l0-0.4c0,0-0.2,0.2-0.2,0.2c-0.1,0-0.1,0.1-0.2,0.2c0,0.1,0,0.2,0,0.2
				s0.1-0.1,0.2-0.1c0.1,0,0.1,0.1,0.1,0.1c0,0,0,0.1,0,0.1s0,0.2,0,0.2s0-0.2,0.1-0.2C13.8,10,13.8,9.9,13.8,9.8L13.8,9.8L13.8,9.8
				z M12.9,9.7L12.9,9.7L12.9,9.7C13,9.7,13,9.7,12.9,9.7c0.1,0,0.2,0.2,0.2,0.3c0,0.1,0,0.3,0,0.4c0,0.1-0.1,0.3-0.1,0.3
				S13,10.6,13,10.5c0,0,0,0-0.1,0c0,0-0.1-0.2-0.1-0.2c-0.1,0-0.2,0.1-0.2,0.1s0-0.3,0.1-0.4C12.8,9.9,12.9,9.8,12.9,9.7L12.9,9.7
				L12.9,9.7z M13.3,10.2l0.2-0.2c0,0,0.1,0.3,0.1,0.5c-0.1,0.2-0.4,0.5-0.4,0.5c0,0,0-0.2,0-0.2s0.1-0.1,0.1-0.2
				C13.2,10.5,13.3,10.3,13.3,10.2L13.3,10.2L13.3,10.2z M12.8,10.5l-0.1-0.2l0,0c0,0,0,0.1-0.1,0.2c0,0-0.1,0.1-0.1,0.2
				c0,0,0,0.4,0,0.4s0.1-0.1,0.1,0c0,0,0.1,0.2,0.1,0.2L13,11c0,0,0-0.3,0-0.3c0,0,0,0,0,0C12.9,10.6,12.9,10.6,12.8,10.5L12.8,10.5
				L12.8,10.5z M12.6,11.3L12.6,11.3c0-0.1,0.1,0,0.1,0c0,0-0.2,0.2-0.2,0.2S12.5,11.4,12.6,11.3C12.5,11.4,12.6,11.3,12.6,11.3
				L12.6,11.3L12.6,11.3z M11.9,9.8L11.9,9.8L11.9,9.8l0.1,0c0,0,0,0.1,0,0.1c0,0-0.1,0.5-0.2,0.8c0,0.2-0.1,0.7-0.1,0.7l0,0l0.1,0
				c0,0,0.1-0.7,0.1-0.8c0-0.1,0.1-0.4,0.1-0.4c0,0,0-0.2,0.1-0.2c0,0,0,0,0.1,0c0,0,0,0,0,0c0,0,0,0,0,0.1c0,0-0.1,0.4-0.1,0.5
				c0,0.1-0.1,0.7-0.1,0.8c0,0.1,0,0.2-0.1,0.3c0,0.1-0.1,0.1-0.1,0.1c0,0-0.2-0.1-0.2-0.2c0,0,0-0.1,0-0.2c0,0,0,0,0-0.1
				c0,0,0.1-0.6,0.1-0.6c0-0.1,0.1-0.4,0.1-0.4c0-0.1,0-0.3,0.1-0.3C11.9,9.9,11.9,9.8,11.9,9.8L11.9,9.8L11.9,9.8z M11.7,9.7
				L11.7,9.7L11.7,9.7L11.7,9.7l0.1,0c0,0-0.1,0.6-0.2,0.8c0,0.2-0.1,0.9-0.1,1c0,0.1,0,0.2,0.1,0.2c0,0,0.2,0.2,0.2,0.2l0,0.3
				c0,0,0,0.1,0,0.1c0,0-0.3-0.2-0.3-0.4c0-0.2,0-0.3,0-0.3c0-0.1,0.1-0.8,0.1-0.9c0-0.1,0.1-0.6,0.1-0.6C11.6,10,11.7,9.7,11.7,9.7
				L11.7,9.7L11.7,9.7z M12.4,10.1L12.4,10.1C12.4,10,12.4,10,12.4,10.1c0.1,0,0,0.6-0.1,0.8c0,0.2-0.1,0.9-0.1,0.9
				c0,0-0.4,0.5-0.4,0.5c0,0,0,0,0-0.1c0-0.1,0-0.2,0.1-0.3c0.1-0.1,0.2-0.2,0.2-0.3c0,0,0.1-0.7,0.1-0.8
				C12.2,10.8,12.3,10.2,12.4,10.1C12.3,10.1,12.3,10.1,12.4,10.1L12.4,10.1L12.4,10.1z M11.4,9.9L11.4,9.9
				C11.4,9.8,11.5,9.8,11.4,9.9c0.1,0,0,0.4,0,0.6c0,0.3-0.1,0.8-0.1,0.9c0,0.1-0.1,0.4,0,0.5c0.1,0.2,0.2,0.3,0.2,0.3
				c0,0,0.1,0.1,0.1,0.1c0,0,0,0,0,0.1c0,0-0.2,0.3-0.2,0.3s-0.1-0.2-0.1-0.3c0-0.1,0-0.2,0-0.3c0-0.1-0.1-0.1-0.1-0.2
				c0-0.1,0.1-0.9,0.1-1c0-0.2,0.1-0.5,0.1-0.6C11.3,10.2,11.4,9.9,11.4,9.9L11.4,9.9L11.4,9.9z M11,12.3L11,12.3L11,12.3L11,12.3
				L11,12.3c0.1,0,0.1,0.2,0.1,0.3c0,0.1,0.1,0.2,0.1,0.2s0,0,0,0c0,0-0.1,0.1-0.1,0.1l-0.1,0c0,0,0-0.3,0-0.4
				C11,12.6,11,12.3,11,12.3L11,12.3L11,12.3z M13.2,12.5L13.2,12.5c0-0.1,0.1,0.2,0.2,0.3c0,0.2,0,0.2,0,0.4c0,0.1,0,0.2,0,0.3
				c0,0.1,0,0.1,0,0.1s0-0.1-0.1-0.1c0,0-0.1-0.1-0.1-0.1l-0.1,0.1c0,0,0-0.1,0-0.1c0,0,0.1-0.1,0.1-0.1c0,0,0-0.1,0-0.2
				c0-0.1-0.1-0.2-0.1-0.3C13.2,12.7,13.2,12.5,13.2,12.5L13.2,12.5L13.2,12.5z M13.1,12.7l-0.1-0.1l-0.3,0.3c0,0,0,0.3,0.1,0.4
				c0.1,0.1,0.3,0.2,0.3,0.2s0.1-0.1,0.1-0.3c0-0.2,0-0.2,0-0.2C13.1,12.9,13.1,12.7,13.1,12.7L13.1,12.7L13.1,12.7z M12.7,13.3
				l-0.1-0.2c0,0,0,0.1,0,0.2c0,0-0.1,0.1-0.1,0.3c0,0.1,0.1,0.5,0.1,0.5c0,0,0.1-0.3,0.2-0.3c0.1,0,0.2,0.1,0.2,0.1l0.1-0.2
				c0,0-0.1-0.1-0.1-0.1C12.9,13.4,12.7,13.4,12.7,13.3L12.7,13.3L12.7,13.3z M13.2,13.6l0-0.1l0,0c0,0,0.1,0.1,0.1,0.2
				c0.1,0.1,0.1,0.1,0.2,0.2c0,0.1,0,0.4,0,0.4s-0.1,0-0.1,0c-0.1,0-0.1,0.2-0.1,0.2s0-0.2-0.1-0.3c-0.1-0.1-0.2-0.2-0.2-0.2
				s0-0.1,0.1-0.1C13.1,13.7,13.2,13.7,13.2,13.6L13.2,13.6L13.2,13.6z M11.7,14L11.7,14l0.5-0.6v0.1c0,0-0.1,0.1-0.1,0.1
				c0,0.1,0,0.4-0.1,0.5c-0.1,0.1-0.2,0.1-0.2,0.1C11.7,14.1,11.7,14,11.7,14L11.7,14L11.7,14z M11.7,14.1L11.7,14.1l-0.3,0.1
				c0,0,0.1,0.3,0.1,0.4c0,0.1,0.1,0.2,0.2,0.1c0.1,0,0.1-0.1,0.1-0.3C11.8,14.2,11.7,14.1,11.7,14.1L11.7,14.1L11.7,14.1z
				 M12.2,13.7L12.2,13.7C12.2,13.7,12.2,13.6,12.2,13.7C12.2,13.6,12.2,13.7,12.2,13.7l0.1,0.4c0,0,0,0.2,0,0.2
				c0,0.1-0.1,0.2-0.1,0.2c0,0.1,0,0.3,0,0.4c0,0.1-0.1,0.1-0.1,0.1c0,0-0.2,0-0.2-0.2c0-0.1,0-0.3,0.1-0.5c0.1-0.2,0.2-0.3,0.2-0.3
				C12.1,13.9,12.2,13.7,12.2,13.7L12.2,13.7L12.2,13.7z M12.9,13.9l-0.1-0.1l0,0l0,0.1c0,0-0.1,0.2-0.1,0.3c0,0.1,0.1,0.3,0.1,0.3
				c0,0,0.1,0.2,0.1,0.2s0.1-0.2,0.2-0.2c0.1,0,0.2,0.2,0.2,0.2s0.1,0,0.1-0.1c0-0.1-0.1-0.3-0.1-0.4C13,14,12.9,13.9,12.9,13.9
				L12.9,13.9L12.9,13.9z M13.6,14.4L13.6,14.4c-0.1,0-0.2,0-0.2,0.1c0,0,0,0.1-0.1,0.1c0,0-0.1,0.1-0.1,0.2c0,0.1,0,0.3,0,0.3
				c0,0,0.1-0.1,0.2-0.1c0.1,0,0.2,0.2,0.2,0.2c0,0,0,0,0.1,0c0,0,0.1,0,0.1-0.2c0-0.2-0.1-0.4-0.1-0.4
				C13.6,14.5,13.6,14.4,13.6,14.4L13.6,14.4L13.6,14.4z M11.3,14.4L11.3,14.4C11.3,14.3,11.3,14.4,11.3,14.4
				C11.3,14.4,11.3,14.4,11.3,14.4c-0.1,0.1,0,0.5,0,0.5c0,0,0,0.1,0.1,0.1c0,0,0.1,0.1,0.2,0.1c0,0.1,0,0.1,0,0.2
				c0,0.1,0,0.2,0.1,0.2c0.1,0,0.1,0.1,0.2,0.1c0,0,0.2,0.6,0.3,0.7c0,0.1,0.3,0.7,0.4,0.8c0,0.1,0.1,0.3,0.1,0.4
				c0,0.1,0.2,0.2,0.2,0.2c0.1,0,0.2,0.1,0.3,0.1c0,0,0.1,0,0.1-0.1c0,0-0.1-0.2-0.1-0.3c0,0-0.3-0.1-0.3-0.2c0-0.1-0.1-0.2-0.2-0.3
				c0-0.1-0.3-0.7-0.3-0.8c0-0.1-0.2-0.5-0.2-0.6c0-0.1,0-0.3,0-0.4c0-0.1-0.2-0.3-0.3-0.4c-0.2-0.1-0.2-0.1-0.2-0.1
				c0-0.1-0.1-0.2-0.1-0.2C11.3,14.5,11.3,14.4,11.3,14.4L11.3,14.4L11.3,14.4z M12.4,14.5L12.4,14.5C12.3,14.5,12.3,14.5,12.4,14.5
				c-0.1,0,0,0.4-0.1,0.5c0,0.1-0.2,0.3-0.2,0.5c0,0.2,0,0.2,0.1,0.3c0,0,0.1,0.1,0.2,0.3c0.1,0.3,0.2,0.4,0.2,0.5
				c0.1,0.1,0.1,0.2,0.2,0.3c0,0.1,0,0.1,0,0.2c0,0,0.1,0.1,0.1,0.2c0.1,0,0.2,0.1,0.2,0.1c0,0,0.1-0.1,0-0.3
				c-0.1-0.2-0.3-0.5-0.3-0.8c-0.1-0.2-0.2-0.5-0.2-0.7c0-0.2,0-0.2,0-0.3c0-0.1,0-0.1,0-0.1c0,0-0.1-0.4-0.1-0.5
				C12.4,14.7,12.4,14.5,12.4,14.5L12.4,14.5L12.4,14.5z M12.8,14.7l0-0.1c0,0,0,0,0.1,0c0,0,0.2,0.1,0.2,0.1s0,0.2,0,0.3
				c0,0.1,0.1,0.2,0.1,0.3c0,0,0,0.1,0,0.1c0,0,0,0.2,0,0.2s-0.1-0.1-0.2-0.1c0,0-0.1,0-0.1,0c0,0-0.2-0.4-0.1-0.5
				C12.8,14.8,12.8,14.7,12.8,14.7L12.8,14.7L12.8,14.7z M13.4,15.1L13.4,15.1c0,0-0.1,0.3-0.1,0.5c0,0.2,0.1,0.4,0.2,0.5
				c0.1,0.1,0.2,0.2,0.2,0.1c0,0,0-0.1,0-0.2c0-0.1,0.1-0.2,0.1-0.3c0-0.1,0-0.2-0.1-0.3c-0.1-0.1-0.2-0.1-0.2-0.2
				C13.5,15.2,13.4,15.1,13.4,15.1L13.4,15.1L13.4,15.1z M13,15.7l0-0.2l0.2,0.2c0,0,0,0.2,0.1,0.4s0.4,0.3,0.4,0.3l0.1,0.2
				c0,0-0.2-0.1-0.2,0c0,0,0,0.2,0,0.2c0,0-0.3-0.3-0.4-0.6C13,15.8,13,15.7,13,15.7L13,15.7L13,15.7z M13.9,15.8L13.9,15.8
				L13.9,15.8l0.2,0.2l-0.2,0.5l0,0c0,0-0.1-0.1-0.1-0.3c0-0.1,0-0.2,0-0.2c0,0,0.1-0.1,0.1-0.1C13.9,15.9,13.9,15.8,13.9,15.8
				L13.9,15.8L13.9,15.8z M13.5,16.7l0-0.1c0,0,0.1,0,0.2,0c0,0,0.1,0,0.1,0c0,0,0,0,0,0.1c0,0-0.2,0.5-0.2,0.5s-0.1-0.2-0.2-0.3
				C13.5,16.8,13.5,16.8,13.5,16.7L13.5,16.7L13.5,16.7z M13.5,17.4l0-0.1l0,0l0,0l0.1,0.1c0,0-0.1,0.1-0.1,0.1
				C13.5,17.5,13.5,17.4,13.5,17.4L13.5,17.4L13.5,17.4z M12.7,15.5L12.7,15.5L12.7,15.5L12.7,15.5c-0.1,0.1,0.1,0.6,0.1,0.7
				c0.1,0.1,0.3,0.6,0.3,0.6c0,0.1,0.1,0.1,0.1,0.2c0,0-0.1,0.3,0,0.4c0,0.2,0.2,0.4,0.2,0.4l0.1-0.2c0,0-0.1-0.1-0.1-0.3
				c0-0.1,0.1-0.2,0-0.3c0-0.1-0.3-0.7-0.4-0.9c-0.1-0.2-0.2-0.5-0.2-0.6C12.8,15.6,12.7,15.5,12.7,15.5L12.7,15.5L12.7,15.5z
				 M11.7,15.9L11.7,15.9L11.7,15.9c-0.1,0,0.2,0.7,0.3,0.9c0.1,0.2,0.5,1,0.5,1c0,0,0.1,0.1,0.1,0.1c0,0,0.1,0,0.1,0.1
				c0,0,0.2,0.2,0.3,0.3c0.1,0.1,0.1,0.1,0.1,0.1s0.1-0.3,0.1-0.3c0,0-0.3-0.1-0.4-0.1c-0.1,0-0.3-0.1-0.3-0.2c0,0-0.3-0.4-0.5-0.9
				C12,16.3,11.8,16,11.7,15.9C11.8,15.9,11.7,15.9,11.7,15.9L11.7,15.9L11.7,15.9z M12.8,18.1L12.8,18.1L12.8,18.1
				c-0.1,0.1,0.1,0.3,0.2,0.4c0.1,0.1,0.2,0.2,0.2,0.2l0.1-0.2l0,0c0,0-0.2-0.1-0.2-0.1C12.9,18.2,12.8,18.1,12.8,18.1L12.8,18.1
				L12.8,18.1z M14.6,16.5l-1.2,3c0,0-0.2-0.2-0.2-0.3c0,0,0-0.2,0-0.3c0-0.1,1.2-3,1.2-3l0.5,1l-1.1,3l-0.2-0.3l1.2-2.9L14.6,16.5
				L14.6,16.5L14.6,16.5z M15,17.6l-0.1-0.2l-0.2,0.4c0,0,0.1,0,0.2,0c0,0,0.1,0.1,0.1,0.1C15,17.8,15.1,17.7,15,17.6L15,17.6
				L15,17.6z M14.9,17.9l-0.2,0L14.6,18c0,0,0,0.3,0,0.3c0,0,0.2,0.3,0.3,0.3c0.1,0,0.4,0,0.5,0c0.1,0,0.2,0.1,0.2,0.1
				c0,0,0,0.1,0,0.1s0-0.1-0.1-0.1c-0.1-0.1-0.1,0-0.2-0.1c-0.1-0.1-0.1-0.3-0.1-0.3C15.2,18.1,15,17.9,14.9,17.9L14.9,17.9
				L14.9,17.9z M16,18.7l-0.3-0.2c0,0,0.1,0.1,0,0.3c0,0.1,0,0.3,0,0.3c0,0.1,0.2,0.3,0.3,0.3c0.1,0,0.3,0,0.3,0s0-0.2,0-0.3
				c0,0,0-0.1,0-0.1S16.1,18.8,16,18.7L16,18.7L16,18.7z M15.1,18.7l-0.2-0.1c0,0,0.1,0.1,0.1,0.2c0,0.1,0,0.2,0.1,0.2
				c0,0,0.2,0.3,0.3,0.3c0.1,0,0.2,0.1,0.2,0.1s-0.1-0.2-0.1-0.2c0-0.1,0-0.1,0-0.1c0,0,0.1,0,0.1,0s0-0.1-0.2-0.2
				C15.2,18.7,15.1,18.7,15.1,18.7L15.1,18.7L15.1,18.7z M15.6,19.3l-0.1-0.2c0,0,0.2,0,0.2,0.1c0,0,0.3,0.3,0.3,0.3
				c0.1,0,0.2,0,0.2,0l0.1,0l0.1,0.1c0,0-0.1,0-0.1,0c0,0-0.1,0-0.2,0c0,0,0,0.1,0,0.1c0,0,0.1,0.3,0.1,0.3c0,0-0.1,0-0.2,0
				c0,0-0.3-0.2-0.3-0.3C15.6,19.5,15.7,19.4,15.6,19.3L15.6,19.3L15.6,19.3z M16.5,19.3l0-0.1C16.5,19.2,16.5,19.2,16.5,19.3
				c0.2-0.1,0.4,0.1,0.4,0.1l0.1,0.4c0,0-0.2-0.1-0.2,0c0,0,0,0.2,0,0.2s-0.2-0.2-0.2-0.2c0-0.1,0-0.1,0-0.2
				C16.5,19.4,16.5,19.4,16.5,19.3L16.5,19.3L16.5,19.3z M16.9,19.9l-0.1-0.1l0.2,0l0.1,0.6c0,0-0.2-0.2-0.2-0.3
				C16.9,20.1,16.9,20,16.9,19.9L16.9,19.9L16.9,19.9z M18.8,20.2L18.2,20l0,0.2c0,0,0.3,0.1,0.5,0.2c0.1,0,0.5,0.2,0.5,0.2l0.1-0.1
				C19.3,20.4,18.9,20.3,18.8,20.2L18.8,20.2L18.8,20.2z M18.7,20.5l-0.5-0.2l0,0.2c0,0,0.3,0.1,0.4,0.2c0.1,0,0.5,0.2,0.5,0.2
				l0-0.1C19.2,20.6,18.9,20.5,18.7,20.5L18.7,20.5L18.7,20.5z M19.1,20.9l-0.8-0.3l0,0.1l0.9,0.3v0L19.1,20.9L19.1,20.9L19.1,20.9
				L19.1,20.9z M18.9,21l-0.5-0.2l0,0.2c0,0,0.3,0.1,0.5,0.2c0.1,0.1,0.5,0.2,0.5,0.2l0-0.1C19.3,21.2,19,21.1,18.9,21L18.9,21
				L18.9,21z M18.4,21.5L18.4,21.5l-0.1,0c0,0,0.6,0.4,0.8,0.4c0.2,0,0.6,0,0.7,0c0.1,0,0.8,0,0.8,0c0,0,0.2,0,0.2,0
				c0,0,0.1-0.1,0.1-0.1c0,0,0-0.1,0-0.1c0,0-0.1,0-0.1,0c0,0-0.1,0.1-0.1,0.1c0,0-0.6,0.1-0.8,0.1c-0.2,0-0.6,0-0.7,0
				c-0.1,0-0.3-0.1-0.5-0.2C18.6,21.6,18.4,21.5,18.4,21.5L18.4,21.5L18.4,21.5z M15.3,20.3v-0.4l0.1,0c0,0,0,0.7,0.2,1.1
				c0.2,0.4,0.4,0.7,0.5,0.8c0.2,0.2,0.3,0.3,0.5,0.4c0.2,0.1,0.6,0.3,0.7,0.4c0.1,0,0.2,0.1,0.2,0.1l-0.1,0.1c0,0-0.6-0.2-0.7-0.3
				c-0.1-0.1-0.3-0.2-0.3-0.2l0,2.2l-0.6,0v0.2l1,0.1l-0.1-0.7l-0.3-0.8l0,0l0.4,0.8l0.3,0.4l2.5-1.1l0,0l-0.5,0.2l-0.1,1l0.1,0
				l0,0.2l-0.4,0l0-0.1l-0.6-0.1l0-0.5L18,24.4l-0.8,0.3L17,24.4l0,0.5l-1.3-0.1v-0.3L15,24.4l0-0.5l-0.8-0.1l0-0.5l-0.6-0.1
				l0.4-2.9l0.6,0.5c0,0-0.2-0.5-0.3-0.8c-0.1-0.3-0.1-0.7-0.1-0.7l0.1-0.3c0,0-0.1,0.6,0.1,0.9c0.1,0.4,0.3,0.6,0.4,0.8
				c0.1,0.2,0.5,0.5,0.5,0.5c0,0-0.3-0.5-0.4-0.9c-0.1-0.4-0.1-0.9-0.1-1c0,0,0-0.2,0-0.2l0.1,0c0,0,0,0.9,0.1,1.1
				c0.1,0.2,0.1,0.4,0.2,0.6c0.1,0.2,0.2,0.5,0.3,0.6c0.1,0.1,0.4,0.3,0.4,0.3s-0.4-0.5-0.5-0.8C15.4,20.7,15.3,20.5,15.3,20.3
				L15.3,20.3L15.3,20.3z M13.8,23.1l0.3-2.4l0.9,0.8l-0.1,1.8L13.8,23.1L13.8,23.1L13.8,23.1z M16.8,23.4l-0.1-0.2l0.9-0.4l0.3,0.1
				L16.8,23.4L16.8,23.4L16.8,23.4z M16.9,23.6l0-0.2l1.3-0.6l0.4,0L16.9,23.6L16.9,23.6L16.9,23.6z M17,23.9l-0.1-0.2l1.9-0.8
				l0.4,0L17,23.9L17,23.9L17,23.9z M19.2,23.1L17.1,24l0.1,0.1l2.5-1.1L19.2,23.1L19.2,23.1L19.2,23.1z M17.3,24.4l-0.1-0.1
				l2.5-1.1l-0.1,0.3L17.3,24.4L17.3,24.4L17.3,24.4z M20.2,24.9l0-0.8l0.2,0l0,0.7l1.1,0.1l0-0.4h0.2l0,0.6l-1-0.1l0,0.1L19.8,25
				l0-0.2L20.2,24.9L20.2,24.9L20.2,24.9z M22.8,21.5c-0.1-0.5-0.5-0.8-1-0.8c-0.5,0-0.9,0.3-1,0.8l-0.2,0c0.1-0.6,0.6-1,1.2-1
				c0.6,0,1.2,0.5,1.3,1.1L22.8,21.5L22.8,21.5L22.8,21.5z M23.4,21.6c-0.1-0.9-0.8-1.5-1.7-1.5c-0.9,0-1.6,0.6-1.7,1.5l-0.2,0
				c0.1-1,0.9-1.7,1.9-1.7c1,0,1.8,0.8,1.9,1.8L23.4,21.6L23.4,21.6L23.4,21.6z M18.4,24.6l0-0.4l0.7-0.3L19,24.7L18.4,24.6
				L18.4,24.6L18.4,24.6z M15.8,24l0-2l0.4,0.2l0,2.1l-1.2-0.1l0-0.3L15.8,24L15.8,24L15.8,24z M15.1,23.4l0.1-1.8
				c0,0,0.2,0.2,0.3,0.2c0,0,0,0,0,0l0.2,0.2l0,1.9l-1.4-0.2l0-0.4L15.1,23.4L15.1,23.4L15.1,23.4z M27.2,18.5
				C27.1,18.6,27.1,18.6,27.2,18.5l-10.8-0.1c0,0,0,0-0.1-0.1L27.2,18.5L27.2,18.5L27.2,18.5z M21.8,4.3c4.5,0,8.1,3.6,8.1,8.1
				c0,1.9-0.6,3.6-1.7,5l0-0.2l-4.1-0.1l0,0.2l0,0l0.1-0.1l0.1,0.1v0.1l0,0.1l-0.1,0.1l-0.1,0h-0.1l0,0.6h0.1v0.2l0,0l0-0.1l0,0l0,0
				l0,0l0.1,0v-0.3c0,0,0.1-0.1,0.2-0.1c0.2,0,0.2,0.1,0.2,0.1l0,0.3l0.1,0l0,0l0,0c0,0,0,0.1,0,0.1c0,0,0,0,0,0c0,0,0,0.1,0,0.1
				l1.7,0l0-0.2l0.1,0v0l0.7,0c0,0-0.1,0.1-0.1,0.1l-0.6,0l0,0.1l0.6,0c0,0,0,0-0.1,0.1l-11-0.1c0,0,0,0-0.1-0.1l0.6,0v-0.1l-0.7,0
				c0,0-0.1-0.1-0.1-0.1l0,0l0.8,0l0,0l0.1,0v0.2l1.7,0l0.1-0.1l0,0l0-0.1h0l0,0l0,0l0-0.3c0,0,0-0.2,0.2-0.2c0.2,0,0.2,0.2,0.2,0.2
				l0,0.3l0,0l0,0l0,0c0,0,0,0,0,0c0,0,0.1,0.1,0.1,0.1c0,0,0,0,0,0c0,0,0-0.1,0-0.1c0,0,0,0,0,0c0,0,0,0,0,0h0.1l0-0.6
				c0,0-0.1,0-0.1,0c0,0-0.1-0.1-0.1-0.2c0-0.1,0.1-0.1,0.1-0.1l0,0l0,0l0,0l0,0v0l0,0l0,0l0-0.1l-4.1,0c0,0,0,0.2,0,0.3
				c-1-1.4-1.6-3-1.6-4.8C13.7,8,17.4,4.3,21.8,4.3L21.8,4.3L21.8,4.3z M12.4,15.9L12.4,15.9c0,0,0.1,0,0.2,0.3
				c0.1,0.3,0.2,0.4,0.2,0.5c0,0.1,0,0.1,0,0.2c0,0-0.1,0,0,0c0,0-0.1-0.2-0.2-0.4c-0.1-0.2-0.1-0.3-0.2-0.4
				C12.4,16,12.4,15.9,12.4,15.9L12.4,15.9L12.4,15.9z M21.8,4.4l0.6,1.8l1.9,0l-1.5,1.1l0.6,1.8L21.8,8l-1.5,1.1l0.6-1.8l-1.5-1.1
				l1.9,0L21.8,4.4L21.8,4.4L21.8,4.4z"/>
		</g>
	</g>
</g>
</svg>
