<?xml version="1.0" encoding="utf-8"?>
<!-- Generator: Adobe Illustrator 21.0.0, SVG Export Plug-In . SVG Version: 6.00 Build 0)  -->
<svg version="1.1" id="图层_1" xmlns="http://www.w3.org/2000/svg" xmlns:xlink="http://www.w3.org/1999/xlink" x="0px" y="0px"
	 viewBox="0 0 173.3 120" style="enable-background:new 0 0 173.3 120;" xml:space="preserve">
<style type="text/css">
	.st0{fill:#FFFFFF;}
	.st1{fill-rule:evenodd;clip-rule:evenodd;fill:url(#SVGID_1_);}
	.st2{fill-rule:evenodd;clip-rule:evenodd;fill:url(#SVGID_2_);}
</style>
<g>
	<path class="st0" d="M2.6,101.2v-2.4c2.7-0.3,5.5-0.8,7.9-1v2.4c-0.6,0.1-1.4,0.2-2.3,0.4v2.7h2.2v2.2H8.3c0.5,1.7,1.3,3.2,2.3,4.7
		v3.1c-0.8-0.8-1.6-1.8-2.4-3v8.5H5v-7.3c-0.7,1.2-1.7,2.5-2.9,3.8v-3.2c1.2-2.2,2.2-4.4,2.8-6.6H2.4v-2.2H5v-2.4L2.6,101.2z
		 M11.1,109.7v-10h1.6c-0.3-0.7-0.5-1.4-0.6-2.2h3.2c0.1,0.7,0.3,1.4,0.6,2.2h3c0-0.1,0-0.3,0.1-0.5c0.2-0.7,0.3-1.2,0.4-1.7h3.2
		c-0.1,0.8-0.3,1.5-0.6,2.1h1.7v6.6c0.1,2.2-0.9,3.3-3,3.3v5.9c0,0.6,0.3,0.9,0.9,0.9h0.3c0.6,0,0.9-0.3,0.9-1v-0.7h2.1v1.3
		c0.1,1.7-0.8,2.6-2.7,2.5h-1.9c-1.9,0-2.8-0.9-2.8-2.8v-6h-1.2c0.3,4.7-2,7.8-6.9,9.3v-2.1c2.6-1.5,3.8-3.9,3.6-7.2L11.1,109.7
		L11.1,109.7z M14.4,107.5h4.7c0.9,0.1,1.3-0.4,1.3-1.3V102h-6C14.4,102,14.4,107.5,14.4,107.5z"/>
	<path class="st0" d="M27.8,112.7V97.5h3.1v14.2h1.6V97.5h3.2v21.3h-3.2v-4.1h-2.7C28.7,114.7,27.8,113.8,27.8,112.7z M36.2,105.8
		v-2c1.6-1.4,2.5-3.4,2.8-6.2h3.4c-0.1,0.8-0.3,1.6-0.5,2.2h7.5v2.2h-1.7c-0.1,5-1.1,8.8-3,11.3c1.2,1.3,2.7,2.4,4.5,3.3v2.2
		c-2.6-1.1-4.7-2.3-6.4-3.6c-1.3,1.1-3.4,2.3-6.3,3.7v-2.3c1.8-1.1,3.3-2.2,4.5-3.4c-1.5-1.9-2.7-4.5-3.5-8
		C37.2,105.4,36.8,105.6,36.2,105.8z M40.7,104.2c0.5,2.6,1.2,4.7,2.1,6.4c1-2,1.6-4.9,1.6-8.6H41c-0.4,0.8-1,1.6-1.8,2.2H40.7z"/>
	<path class="st0" d="M52.3,103.8v-2.6h8.6v-3.6h4.3v3.6h8.6v2.6h-8.6c0.5,5.9,3.5,10.2,9,12.7v2.3c-5.6-1.9-9.2-4.8-11-8.5
		c-2.1,3.9-5.8,6.7-11.2,8.5v-2.3c5.5-2.6,8.5-6.8,9-12.7H52.3z"/>
	<path class="st0" d="M76.7,111.5v-2.4h1.4v-1.4H81v1.4h4v-1.4h3v1.4h1.2v2.4h-1.4c-0.2,2-0.9,3.5-2.2,4.5c0.3,0.1,0.8,0.3,1.5,0.4
		c0.5,0.1,0.9,0.1,1.3,0.2v2.1c-2.2-0.4-4-0.9-5.3-1.5c-1.6,0.6-3.7,1.1-6.3,1.5v-2.1c0.3-0.1,0.8-0.1,1.4-0.2
		c0.5-0.1,1.3-0.2,2.2-0.5c-1.2-1-1.8-2.5-2-4.5L76.7,111.5L76.7,111.5z M89,108c-2.5-0.9-4-2.4-4.5-4.5v4h-3v-4h-0.1
		c-0.6,2-2.1,3.5-4.5,4.5v-1.8c1-0.8,1.7-1.6,2-2.6H77v-2.3h4.5v-3.5h3v3.5h4.3v1.5c1.2-1.3,2-2.3,2.3-5.1h3.2
		c-0.2,1-0.4,0.9-0.6,1.7h5.5v2.4h-1.3c-0.1,5-0.9,8.8-2.5,11.3c0.9,1.2,2.1,2.3,3.5,3.4v2.4c-2.1-1.2-3.9-2.5-5.2-3.8
		c-1,1-2.6,2.3-5,3.8v-2.4c1.4-1.2,2.5-2.3,3.4-3.5c-1.3-2.1-2.2-4.8-2.6-8.3l-0.8,0.4v-1.5H87c0.4,1,1.1,1.8,2,2.6V108z
		 M78.1,100.6c-0.5-1.2-0.8-1.8-1-3h2.6c0.1,0.8,0.3,1.3,0.7,2.6c0.1,0.1,0.1,0.3,0.1,0.4H78.1z M82.8,114.7c1.2-0.7,1.8-1.8,2-3.2
		H81C81.2,113,81.8,114,82.8,114.7z M85.3,100.5c0.5-1,0.7-1.6,0.8-2.9h2.6c-0.2,1.4-0.5,2-0.9,2.9H85.3z M93.6,110
		c0.7-1.7,1.2-4.4,1.4-8.2h-2.3c-0.3,0.6-0.8,1.1-1.4,1.6h1C92.5,106.1,93,108.3,93.6,110z"/>
	<path class="st0" d="M108.1,102v-2.2h-1.5v-2.2h-3.2v2.2h-1.7v2.2h1.7v5.4l-2,0.2v2.8l2-0.4v5.4c0,0.7-0.3,1.1-1,1.1h-0.7v2.1h1.8
		c2,0,3-1,3-2.9v-6.6l1.5-0.7v-2.2l-1.5,0.5V102H108.1z"/>
	<path class="st0" d="M111.8,108.7v-9h8.5v1.2c0.1,0.7-0.3,1-1,1h-7.1v2.1h8.1c1.9,0.1,2.9-0.9,2.8-2.8v-3.7h-14.5v11.9
		c0.1,3-0.5,5.3-1.7,7.1v2.4C110.3,116.8,111.9,113.4,111.8,108.7C111.8,108.8,111.8,108.8,111.8,108.7z"/>
	<g>
		<path class="st0" d="M119.5,110.5v-2.2h4V106h-4v-1.8h-3.1v1.8h-3.9v2.2h3.9v2.2h-3.9v7.7h7.8c2.2,0.1,3.2-0.9,3.2-3v-4.7h-4
			V110.5z M120.5,115c0,0.9-0.4,1.3-1.2,1.3h-3.9v-3.7h5L120.5,115L120.5,115z"/>
	</g>
	<path class="st0" d="M127.3,100v-2.4h20.2v2.4h-8.2v9h9.2v2.5h-9.2v7.4h-3.9v-7.4h-9.3V109h9.3v-9H127.3z M130,107.2
		c-0.8-1.6-1.5-3.4-1.8-5.3h3.7c0.3,1.9,0.7,3.7,1.5,5.3H130z M141.4,107.2c0.8-1.9,1.3-3.7,1.5-5.3h3.7c-0.4,2-1,3.8-1.9,5.3H141.4
		z"/>
	<path class="st0" d="M111.8,108.8L111.8,108.8L111.8,108.8C111.8,108.8,111.8,108.8,111.8,108.8z"/>
	<g>
		<path class="st0" d="M152.4,118.2h14.4c2.5,0.1,3.6-1.1,3.6-3.5v-6.6h-18V118.2z M155.9,110.7h10.7v3.8c0.1,1-0.4,1.5-1.4,1.4
			h-9.4L155.9,110.7L155.9,110.7z"/>
		<path class="st0" d="M171.1,104.1c-0.1-0.2-0.2-0.4-0.2-0.6c-0.5-1.3-1.2-2.5-1.9-3.7h-3.6c0.6,0.9,1.7,3.3,1.9,3.7H156
			c2.4-2.1,3.3-3.6,4.9-6h-4.1c-1.3,2.1-2.5,3.5-4.7,5.3c-0.5,0.4-0.7,1-0.7,1.6v0.7c0,0.6,0.5,1.2,1.2,1.2h15.8h1.3
			C170.8,106.3,171.6,105.2,171.1,104.1z"/>
	</g>
</g>
<g>
	<g>
		<path class="st0" d="M86.8,89.7c-1.5,0-2.9-0.6-4.2-1.3c-1.4-0.7-2.9-1.4-4.3-2c-1.3-0.5-2.5-1.2-3.7-1.8c-1.3-0.6-2.6-1.3-4-1.8
			c-2.2-0.9-4.3-1.8-6.6-2.5c-1.5-0.5-3-0.9-4.5-1.3c-1.8-0.5-3.5-1.3-5.1-2.3c-0.3-0.2-0.6-0.4-0.8-0.6c-0.6-0.4-0.6-0.7-0.4-1.4
			c0.5-1.4,0.9-2.8,1.4-4.2c0.1-0.2,0.1-0.4,0.3-0.1c0.9,0.9,2.2,1.5,3.3,2c1.4,0.6,2.8,1.2,4.2,1.7c1.5,0.5,2.9,1.1,4.4,1.5
			c1.7,0.5,3.4,1.1,5,1.8c1.5,0.6,3,1.3,4.5,1.9c1.9,0.8,3.8,1.6,5.6,2.5c1.8,0.9,3.6,1.4,5.6,1.5c1.6,0.1,3.1-0.3,4.6-1
			c2.4-1,4.7-2.2,7.1-3.3c3.4-1.6,6.9-3.2,10.5-4.3c2.1-0.7,4.2-1.4,6.2-2.3c1.3-0.6,2.7-1.3,3.8-2.2c0.4-0.3,0.4,0,0.5,0.2
			c0.3,1.2,0.4,2.4,0.7,3.6c0.3,1.2-0.4,1.7-1.2,2.2c-0.9,0.7-2,1.1-3,1.6c-2.3,1-4.8,1.6-7.1,2.5c-1.7,0.7-3.4,1.4-5.1,2.2
			c-1.8,0.8-3.6,1.6-5.4,2.5c-1.8,0.9-3.6,1.8-5.4,2.7c-1.7,0.8-3.4,1.5-5.3,1.9C88,89.8,87.4,89.7,86.8,89.7z"/>
		<path class="st0" d="M78.6,61.7c1.1,0.1,2.1,0.5,2.9,1.2c1.1,0.9,2.2,1.7,3.4,2.3c1.2,0.6,2.5,0.9,3.9,0.6
			c1.3-0.2,2.6-0.5,3.7-1.2c1-0.5,1.8-1.3,2.6-2c0.8-0.7,1.8-1.1,2.9-1c1,0.1,2.1,1.5,1.6,2.2c-0.3,0.5-0.8,1-1.3,1.4
			c-1.1,0.8-2.2,1.4-3.6,1.7c-0.8,0.2-1.5,0.3-2.3,0.5c-0.6,0.2-0.8,0.7-0.9,1.2c-0.3,1.5-0.4,2.9,0.2,4.3c0.1,0.3,0.3,0.7,0.2,1
			c-0.2,0.3-0.6,0-0.9,0c-1.6-0.1-3.1-0.1-4.7-0.1c-0.7,0-1.4,0.1-2.1,0.3c-0.5,0.2-0.5,0-0.4-0.4c0.2-0.9,0.5-1.8,0.7-2.8
			c0.2-1.2,0.1-2.4-0.6-3.5c-0.1-0.1-0.1-0.2-0.3-0.2c-2,0.2-3.7-0.6-5.3-1.5c-0.7-0.4-1.3-0.8-1.8-1.5c-0.5-0.9-0.2-2,0.8-2.3
			C77.9,61.8,78.3,61.8,78.6,61.7z"/>
		<path class="st0" d="M44,68.4c1.7-0.5,3.2-1,4.8-1.4c0.5-0.1,0.5-0.3,0.3-0.7c-0.7-1.3-1.4-2.6-2.2-4c0.9,0.1,1.7,0.5,2.5,0.7
			c2.8,0.8,5.6,1.7,8.5,2.6c1.2,0.4,2.4,0.9,3.2,2c-0.3,0.1-0.6-0.1-0.9-0.1c-1.7,0-3.3-0.1-5,0.1c-0.4,0.1-0.7,0.3-0.8,0.7
			c-0.3,1-0.6,2-0.9,3c-0.1,0.5-0.4,0.6-0.8,0.4c-1.9-0.6-3.8-1.3-5.7-2.1C46,69.3,45.1,68.9,44,68.4z"/>
		<path class="st0" d="M87.7,82.8c-1.6,0.1-3.1-0.5-4.7-1.2c-3-1.4-6-2.8-9.1-4.1c-2-0.8-3.9-1.6-5.9-2.3c-1.8-0.6-3.6-1-5.4-1.6
			c-2.4-0.9-4.9-1.8-7.1-3.2c-0.7-0.5-0.9-0.8-0.6-1.3c0.1-0.1,0.2-0.3,0.3-0.1c0.8,1,2,1.4,3.1,1.9c1.6,0.8,3.3,1.3,4.9,1.9
			c2.1,0.7,4.2,1.2,6.2,1.9c2.5,0.9,5,1.9,7.4,3c2.2,1,4.3,2.1,6.5,3.1c1.2,0.5,2.4,0.7,3.6,0.9c1.8,0.4,3.5-0.2,5.1-0.9
			c3.5-1.7,7.1-3.3,10.6-4.9c2-0.9,4.2-1.5,6.2-2.3c2.5-1,4.9-1.9,7.3-3c1-0.5,2.1-0.9,2.9-1.8c0.1-0.1,0.2-0.3,0.3,0
			c0.1,0.2,0.4,0.5,0.1,0.8c-0.4,0.3-0.9,0.5-1.3,0.8c-3.3,1.8-6.9,3.3-10.4,4.6c-2.8,1-5.5,2.2-8.2,3.4c-2.6,1.1-5.2,2.3-7.8,3.5
			C90.7,82.4,89.3,82.9,87.7,82.8z"/>
		<path class="st0" d="M115.1,67.1c0.1-0.7,0.4-1,1.1-1.3c2.9-1,5.7-2,8.6-3c0.8-0.3,1.6-0.5,2.6-0.8c-0.7,1.3-1.3,2.4-1.9,3.6
			c-0.5,0.8-0.5,0.9,0.4,1.2c1.1,0.4,2.2,0.7,3.3,1.1c0.1,0,0.2,0,0.2,0.2c-0.9,0.5-1.8,1.1-2.7,1.5c-1.4,0.6-2.9,1.2-4.5,1.6
			c-0.4,0.1-0.7,0.1-0.7-0.5c0-0.9-0.2-1.7-0.5-2.6c-0.2-0.8-0.6-1.1-1.4-1.1C118.1,66.9,116.6,67,115.1,67.1z"/>
		<path class="st0" d="M61.2,56.7c0,1.2,0.6,2.1,1.3,2.9c0.3,0.4,0.7,0.7,0.7,1.3c0,0.6,0.4,1.2,0.6,1.8c-0.9-0.6-1.6-1.3-2.4-2.1
			c-1.1-1.1-2-2.3-2.6-3.8c-0.4-1.2-0.7-2.4-0.9-3.7c-0.1-0.7-0.2-1.5-0.2-2.2c0-0.3,0-0.5,0.4-0.3c1.3,0.6,2.5,1.5,3.6,2.3
			c1,0.8,1.9,1.7,2.7,2.6c1.2,1.3,2.1,2.7,2.6,4.4c0.1,0.4,0.1,0.4-0.3,0.4c-1-0.2-2-0.3-3-0.4c-0.3,0-0.4-0.1-0.5-0.4
			c-0.5-1-1.1-2-1.9-2.8C61.3,56.8,61.3,56.8,61.2,56.7z"/>
		<path class="st0" d="M88.1,91c-2.4,0-4.4-0.7-6.2-1.6c-2-1-4-1.9-6-2.9c-3.4-1.8-7.1-3.2-10.7-4.6c-2.2-0.9-4.5-1.7-6.9-2.3
			c-1.7-0.5-3.4-0.9-4.9-1.9c-0.3-0.2-0.6-0.5-0.8-0.8c-0.2-0.2,0-0.4,0.1-0.5c0.1-0.1,0.2,0,0.3,0.1c0.8,0.9,1.8,1.4,2.8,1.8
			c3,1.3,6.3,2.1,9.5,3.1c1.9,0.6,3.7,1.3,5.5,2c1.3,0.5,2.6,1.1,3.8,1.7c1.4,0.8,3,1.4,4.4,2.1c0.9,0.5,1.9,0.9,2.8,1.3
			c0.7,0.4,1.5,0.7,2.2,1.1c2.4,0.9,4.7,0.9,7.1-0.1c2.2-1,4.3-2.1,6.5-3.1c2.7-1.4,5.5-2.7,8.3-3.9c2.2-0.9,4.3-1.8,6.5-2.5
			c1.3-0.4,2.7-0.8,4-1.3c1.7-0.7,3.3-1.4,4.6-2.8c0.1-0.1,0.1-0.2,0.3-0.1c0.2,0.1,0.1,0.3,0,0.5c-0.4,0.6-0.9,1-1.5,1.4
			c-1.7,1.1-3.6,1.5-5.5,2.1c-2.9,1-5.7,2.2-8.5,3.3c-1.2,0.5-2.4,1-3.5,1.5c-1.7,0.9-3.4,1.9-5.1,2.7c-1.3,0.7-2.7,1.4-4,2
			c-0.9,0.4-1.8,0.9-2.8,1.3C89.6,90.8,88.7,91,88.1,91z"/>
		<path class="st0" d="M59.5,50.9c-0.7-0.4-1.4-0.8-1.8-1.7c-0.4-0.9-0.9-1.8-1.6-2.5c-0.2-0.2-0.3-0.3-0.6-0.6
			c-0.1,1.1,0.3,1.9,0.7,2.7c0.2,0.3,0.4,0.7,0.7,1c0.4,0.3,0.3,0.8,0.3,1.2c0.1,0.6,0.1,1.3,0.2,2c-0.9-0.5-1.5-1.3-2-2.1
			c-1.3-2-1.9-4.3-2.2-6.6c-0.2-1.8-0.1-3.6-0.1-5.5c1.1,1.2,2.1,2.2,3.1,3.3c1.2,1.3,2.1,2.8,3,4.3c0.1,0.2,0.2,0.5,0.1,0.7
			C59.4,48.4,59.6,49.6,59.5,50.9z"/>
		<path class="st0" d="M44,60.1c5.3,1.5,10.6,3.1,15.9,4.6c-0.2,0.1-0.3,0.2-0.4,0.2c-0.7,0-0.6,0.3-0.2,0.8
			c-0.8-0.1-1.5-0.4-2.2-0.6c-2.7-0.8-5.4-1.6-8.1-2.5c-0.8-0.2-1.6-0.4-2.4-0.7c-0.1,0-0.2-0.1-0.3,0c-0.1,0.1,0,0.2,0.1,0.4
			c0.7,1.3,1.5,2.7,2.2,4c0.2,0.4,0.1,0.5-0.3,0.6c-1.6,0.4-3.2,0.8-4.8,1.2c-0.1,0-0.3,0.1-0.4,0.2c0.7,0.6,1.5,0.9,2.3,1.2
			c2.4,1,4.8,1.9,7.3,2.6c0.2,0.1,0.3,0.2,0.2,0.3c-0.1,0.2-0.1,0.7-0.5,0.5c-1-0.3-2-0.6-3-1c-1.3-0.5-2.5-1-3.7-1.5
			c-1.5-0.7-3.1-1.4-4.4-2.5c-0.1-0.1-0.3-0.2-0.3-0.4c0-0.2,0.3-0.2,0.4-0.2c1.6-0.6,3.3-1.1,4.9-1.7c0.4-0.1,0.6-0.3,0.3-0.8
			c-1.1-1.5-1.9-3.1-2.7-4.7C43.9,60.2,43.9,60.2,44,60.1z"/>
		<path class="st0" d="M78.7,71.3c-0.9,0-1.6,0.2-2.3,0.1c-0.3,0-0.6,0-1,0.1c-0.1,0-0.3,0-0.3,0.2c0,0.2,0.2,0.2,0.3,0.3
			c1,0.2,1.9,0.5,2.9,0.3c0,0,0.1,0,0.2,0c-0.8,0.6-1.6,0.9-2.4,1.3c-1.2,0.6-2.4,0.4-3.6-0.1c-1.4-0.6-2.8-1.1-4.2-1.8
			c-0.4-0.2-0.8-0.5-1.2-0.6c-0.4-0.2-0.3-0.3,0-0.5c1-0.5,2-1,3.1-1.3c1.6-0.4,3.1-0.6,4.7-0.7c0.8-0.1,1.3,0.4,1.7,1
			C77.3,70.3,78,70.7,78.7,71.3z"/>
		<path class="st0" d="M111.8,62.7c0.4-0.6,0.6-1.3,0.7-2c0.1-0.5,0.5-0.8,0.8-1.3c0.6-0.8,1.1-1.6,1.1-2.6
			c-0.6,0.3-0.9,0.8-1.2,1.2c-0.3,0.5-0.7,0.9-0.9,1.5c-0.1,0.3-0.3,0.5-0.7,0.5c-0.6,0.1-1.2,0.2-1.9,0.4c0.4-0.6,0.8-1,1.1-1.5
			c0.8-1.1,1.5-2.2,1.5-3.7c0-0.6,0.5-0.9,0.8-1.3c0.7-0.8,1.4-1.6,2.3-2.2c0.6-0.4,1.2-0.7,1.9-0.9c0.3-0.1,0.4,0,0.4,0.3
			c0,0.9-0.1,1.8-0.3,2.7c-0.2,1.3-0.6,2.5-1,3.7c-0.4,1.2-1.3,2.1-2.1,3c-0.6,0.7-1.3,1.4-2.1,2C112.1,62.5,112,62.7,111.8,62.7z"
			/>
		<path class="st0" d="M122.3,40.1c0.3,2,0.1,3.8-0.2,5.6c-0.2,1.5-0.7,3-1.4,4.4c-0.6,1.1-1.3,2.1-2.2,2.9
			c-0.1,0.1-0.2,0.3-0.3,0.2c-0.1-0.1,0-0.2,0-0.4c0-1,0.5-1.8,0.9-2.7c0.5-0.9,0.8-1.9,1-2.9c0-0.2,0-0.4,0-0.7
			c-0.8,0.5-1.2,1.3-1.5,2.1c-0.2,0.4-0.2,0.8-0.4,1.2c-0.1,0.2-0.1,0.4-0.3,0.5c-0.6,0.3-1.1,0.6-1.7,0.9c0-1,0.3-1.8,0.4-2.7
			c0.2-2.3,1.6-3.9,3-5.4C120.4,42,121.3,41.1,122.3,40.1z"/>
		<path class="st0" d="M97.2,72.2c1.1,0,2.1,0.1,3-0.3c0.2-0.1,0.4,0,0.4-0.3c0-0.2-0.2-0.2-0.4-0.2c-1-0.2-2,0-3.1-0.1
			c0.1-0.3,0.4-0.4,0.6-0.5c0.7-0.5,1.2-1.1,1.8-1.8c0.2-0.3,0.5-0.4,0.9-0.4c1.7-0.1,3.3,0.3,5,0.6c1.1,0.2,2.1,0.5,3.1,1
			c0.1,0.1,0.4,0.1,0.4,0.3c0,0.2-0.2,0.2-0.4,0.3c-2.1,1.3-4.5,2.2-6.8,3.2c-0.4,0.1-0.8,0.1-1.2-0.1
			C99.4,73.4,98.2,73.1,97.2,72.2z"/>
		<path class="st0" d="M130.5,59.7c-0.7,1.3-1.5,2.5-2.2,3.7c-0.3,0.5-0.7,1.1-1,1.6c-0.2,0.4-0.2,0.6,0.3,0.7
			c1.3,0.4,2.5,0.8,3.7,1.2c0.3,0.1,0.6,0.2,1,0.2c-0.4,0.7-1,1.1-1.6,1.5c-1.7,1.2-3.6,2-5.6,2.7c-1.1,0.4-2.2,0.7-3.3,1.1
			c-0.2,0.1-0.4,0.2-0.4-0.1c0-0.2-0.3-0.5,0.2-0.6c0.8-0.2,1.6-0.5,2.5-0.8c2.1-0.7,4.1-1.7,6-2.8c0.1-0.1,0.2-0.1,0.2-0.2
			c0-0.1-0.1-0.1-0.2-0.1c-1.3-0.4-2.7-0.9-4-1.3c-0.4-0.1-0.4-0.2-0.3-0.6c0.5-1.2,1.2-2.2,1.8-3.4c0.1-0.3,0.3-0.5,0.4-0.9
			c-4,0.6-7.6,2.2-11.3,3.5c0.2-0.6-0.1-0.7-0.5-0.8C120.8,62.6,125.5,60.8,130.5,59.7z"/>
		<path class="st0" d="M52.8,38.6c-0.3-0.8-0.5-1.6-1.2-2.4c0,1.2,0.2,2.2,0.7,3.2c-1.2-0.8-2-1.8-2.8-2.8c-0.2-0.3-0.2-0.7-0.2-1
			c-0.2-1.8-0.2-3.5,0.1-5.3c0.3-1.5,0.8-3,1.5-4.4c0.1-0.1,0.1-0.2,0.3-0.4c0.2,1.8,0.8,3.3,1.5,4.9c0.1,0.2,0.1,0.4,0.3,0.5
			c0.6,0.6,0.5,1.3,0.2,2c-0.6,1.6-0.5,3.2-0.3,4.8C52.8,37.9,52.8,38.3,52.8,38.6z"/>
		<path class="st0" d="M56.2,19.1c-0.1,1.3-0.1,2.5,0.1,3.7c0.2,0.9,0.3,1.8-0.1,2.7c-0.4,0.9-0.4,1.9-0.6,2.9
			c-0.2,0.9-0.9,1.4-1.4,2.1c-0.1-1.1,0-2.2-0.4-3.2c-0.6,1.2-0.3,2.4-0.3,3.7c-0.3-0.6-0.5-1.3-0.8-1.9c-0.4-1-0.7-2-1-3.1
			c0-0.1-0.1-0.3,0-0.4c0.5-1.5,1.1-2.9,2.1-4.2c0.6-0.8,1.2-1.5,2.1-2C55.9,19.3,56,19.2,56.2,19.1z"/>
		<path class="st0" d="M63.1,53.5c-0.2-0.1-0.3-0.2-0.5-0.4c-0.5-0.5-0.9-0.8-0.8-1.7c0.2-0.8,0.2-1.7-0.3-2.6
			c-0.3,0.6-0.4,1.2-0.4,1.9c0,0.4,0.1,0.8-0.1,1.2c-0.3-0.2-0.6-0.4-0.9-0.6C60,51.2,60,51.1,60,50.9c-0.1-1.2,0-2.3-0.1-3.5
			c-0.2-1.7,0.6-2.9,1.6-4.1c0.3-0.4,0.5-0.3,0.7,0c1.3,1.6,2.1,3.3,2.4,5.3c0.1,0.3,0.1,0.7,0.1,1c0.1,0.7-0.1,1.3-0.7,1.8
			C63.3,51.9,63.4,52.7,63.1,53.5z"/>
		<path class="st0" d="M73.2,65c0.3,1.2,1,2.1,1.6,3.2c-0.9,0.2-1.2-0.5-1.5-1c-1.3-1.6-2.4-3.3-3.7-5c-0.8-1-0.9-2-0.7-3.2
			c0.1-0.8,0-1.5,0.1-2.3c0-0.1,0-0.3,0.1-0.4c2.5,1.8,4.2,4.2,5.7,6.9c-0.7-0.1-0.7,0.3-0.7,0.8c0,1,0.2,1.8,0.5,2.8
			c-0.4-0.6-0.8-1.2-1.2-1.8C73.3,64.9,73.3,65,73.2,65z"/>
		<path class="st0" d="M54.7,39.8c-0.6-0.5-1.1-1.1-1.6-1.7c-0.1-0.1-0.1-0.2-0.1-0.3c-0.1-1.8,0-3.6,0.6-5.3c0.4-1,0.9-1.9,1.7-2.7
			c0.2-0.3,0.5-0.1,0.6,0.1c0.6,0.8,1.1,1.6,1,2.8c-0.2,1.7-0.1,3.5,0.7,5.2c0.3,0.7,0,1.3-0.2,1.9c-0.2,0.6-0.4,1.1-0.6,1.6
			c-0.1,0.3-0.2,0.2-0.4,0.1c-0.3-0.3-0.6-0.6-0.8-0.9c-0.2-0.3,0-0.6,0.1-0.9c0.2-1.1-0.1-2.1-0.4-3c0-0.1,0-0.2-0.1-0.1
			c-0.1,0-0.2,0.1-0.2,0.2c-0.4,1-0.5,1.9-0.2,2.9C54.7,39.7,54.7,39.7,54.7,39.8z"/>
		<path class="st0" d="M73.5,68c-0.5,0.2-0.9,0.1-1.3-0.3c-0.9-0.9-1.9-1.7-2.9-2.4c-0.2-0.1-0.4-0.3-0.5-0.2
			c-0.2,0.2,0.1,0.3,0.2,0.5c0.7,1,1.8,1.6,2.7,2.3c-1.1,0.2-1.6,0.1-2.6-0.7c-1.2-0.9-2.4-1.7-3.5-2.8c-1.1-1.1-1.7-2.4-2-3.8
			c-0.1-0.3,0.1-0.3,0.3-0.3c1.3,0.2,2.7,0.4,4,0.7c0.7,0.2,1.1,0.8,1.4,1.4c1.2,1.9,2.6,3.6,4,5.3C73.3,67.8,73.5,67.8,73.5,68z"/>
		<path class="st0" d="M100.9,68.1c0.6-1.1,1.3-2.1,1.6-3.2c-0.6,0.5-0.9,1.3-1.5,2c0.2-0.5,0.2-1,0.4-1.4c0.2-0.5,0.2-1.1,0.2-1.6
			c0-0.4,0.1-0.9-0.7-0.6c1.4-2.8,3.2-5,5.6-6.9c0.3,0.8,0.2,1.6,0.3,2.4c0.1,0.6-0.1,1.2,0.1,1.8c0.1,0.3-0.2,0.5-0.3,0.8
			c-1.2,1.7-2.4,3.4-3.7,5c-0.3,0.4-0.6,0.8-0.9,1.2C101.8,68,101.5,68.2,100.9,68.1z"/>
		<path class="st0" d="M104.1,68c0.5-0.5,1.1-0.8,1.7-1.3c0.5-0.4,0.8-0.8,1.1-1.2c0.1-0.1,0.2-0.2,0.1-0.3c-0.1-0.1-0.2,0-0.3,0
			c-1.2,0.7-2.2,1.5-3.1,2.5c-0.4,0.4-0.8,0.4-1.4,0.4c0.5-0.5,0.9-1,1.3-1.5c1.3-1.5,2.3-3.1,3.5-4.7c0.3-0.4,0.7-0.7,1.1-0.8
			c1.2-0.3,2.4-0.4,3.7-0.6c0.7-0.1,0.4,0.4,0.3,0.6c-0.4,1.6-1.2,2.9-2.5,4c-1.2,1-2.4,1.8-3.6,2.7C105.3,68.2,104.7,68.1,104.1,68
			z"/>
		<path class="st0" d="M53.7,56.5c1.2,0.5,2.3,1.1,3.4,1.3c0.6,0.1,1.1,0.2,1.7,0.3c0.2,0,0.3,0.1,0.4,0.3c1.1,1.9,2.7,3.5,4.4,4.9
			c0.3,0.3,0.7,0.6,1,0.9c-1.2-0.6-2.3-1.5-3.7-1.7c0.6,0.9,1.4,1.3,2.2,1.8c-0.9,0-1.9,0.3-2.8-0.1c-1.3-0.5-2.6-1.2-3.5-2.3
			c-0.7-0.8-1.2-1.8-1.7-2.7C54.6,58.4,54.2,57.5,53.7,56.5z"/>
		<path class="st0" d="M58.1,55.7c-1-0.5-1.7-1.1-2.7-1.2c0.7,1,1.6,1.7,2.6,2.1c0.5,0.2,0.7,0.5,0.8,0.9c-0.4,0.1-0.7-0.1-1.1-0.1
			c-0.6-0.1-1.2-0.3-1.9-0.5c-1-0.2-1.7-0.9-2.3-1.7c-1.3-1.8-2.2-3.7-2.3-5.9c0,0,0,0,0-0.1c-0.1-0.4-0.3-0.9,0-1.1
			c0.3-0.2,0.7,0.3,1.1,0.4c0.1,0,0.1,0.1,0.1,0.1c1.1,0.4,1.9,1.1,2.5,2.1c0.6,1,1.3,2,2.3,2.6c0.3,0.2,0.5,0.5,0.5,0.8
			C57.8,54.8,57.9,55.2,58.1,55.7z"/>
		<path class="st0" d="M111.3,50.4c0.2-1.8,0.7-3.4,1.6-5c0.4-0.6,0.8-1.2,1.2-1.7c0.1-0.2,0.3-0.4,0.5-0.1c0.6,0.9,1.4,1.8,1.6,3
			c0.1,0.5,0,1.1-0.1,1.6c-0.1,0.9-0.3,1.8-0.4,2.7c-0.1,0.4-0.9,1.2-1.2,1.2c-0.3,0-0.2-0.2-0.2-0.3c0-0.8,0-1.5-0.2-2.2
			c0-0.1,0-0.3-0.2-0.3c-0.1,0-0.1,0.2-0.2,0.3c-0.2,0.9-0.3,1.8,0,2.7c0,0.1,0,0.3-0.1,0.4c-0.3,0.3-0.6,0.7-1,1
			c-0.2,0.2-0.4,0.2-0.4-0.2c-0.1-0.8-0.3-1.5-0.8-2.1C111.3,51,111.3,50.7,111.3,50.4z"/>
		<path class="st0" d="M74.7,63.6c0.5,0.2,1,0.5,1.4,0.9c0.4,0.4,0.8,0.8,1.2,1.2c0.7,0.7,1.7,1,2.6,1.3c1.4,0.5,2.7,1.2,3.8,2.4
			c0.2,0.2,0.3,0.5,0.5,0.8c0.1,0.3,0,0.6-0.2,0.8c-0.3,0.2-0.8,0-1-0.2c-0.7-0.8-1.7-1.2-2.6-1.6c-0.1-0.1-0.3-0.3-0.5,0
			c-0.1,0.2,0.1,0.3,0.2,0.5c0.7,0.7,1.5,1.2,2.4,1.7c-0.9,0.6-1.8,0.6-2.6,0.1c-1.9-0.9-3.4-2.3-4.5-4.2
			C74.7,66.1,74.6,64.8,74.7,63.6z"/>
		<path class="st0" d="M125.2,28c0.5,0.9,0.8,1.8,1,2.8c0.3,0.9,0.3,1.9,0.3,2.8c0,1.3-0.1,2.6-0.4,3.9c-0.1,0.5-0.5,0.7-0.8,1.1
			c-0.6,0.7-1.2,1.4-1.9,2.1c0.6-1.3,1.2-2.7,1.1-4.2c-0.7,1-1.3,2-1.7,3.2c-0.3-0.5-0.1-1-0.1-1.5c0.2-1.6,0.2-3.2-0.4-4.7
			c-0.1-0.2-0.1-0.4,0-0.6c1-1.4,2-2.8,2.5-4.4C125,28.3,125.1,28.2,125.2,28z"/>
		<path class="st0" d="M96.1,68.9c-1.2,0.3-2.2,0.8-3,1.6c-0.2,0.2-0.4,0.5-0.7,0.4c-0.2,0-0.5,0.1-0.6-0.2c-0.1-0.3-0.1-0.5,0-0.8
			c0.7-1.1,1.7-1.8,2.8-2.3c0.8-0.4,1.7-0.7,2.5-1c0.9-0.4,1.7-1.1,2.4-1.9c0.4-0.4,0.7-0.7,1.2-1c0.2-0.1,0.3-0.1,0.3,0.2
			c0.1,1.8-0.4,3.4-1.7,4.8c-0.9,0.9-1.9,1.8-3,2.5c-0.9,0.5-1.7,0.6-2.6,0.2c-0.1,0-0.2-0.1-0.2-0.2c0-0.1,0.1-0.1,0.2-0.1
			C94.6,70.4,95.5,70,96.1,68.9z"/>
		<path class="st0" d="M121.5,57.3c-1.1,1.8-1.8,3.6-3.2,5c-1,0.9-2.1,1.6-3.4,1.9c-0.8,0.2-1.6,0-2.5,0c0.7-0.5,1.5-0.8,2-1.4
			c0.1-0.1,0.3-0.1,0.2-0.3c-0.1-0.2-0.3,0-0.4,0c-0.9,0.3-1.6,0.6-2.4,1.2c-0.3,0.2-0.5,0.3-1,0.4c0.6-0.5,1.1-0.9,1.5-1.2
			c1.5-1.2,2.8-2.6,3.8-4.2c0.4-0.7,1.1-0.8,1.7-0.8c1.1-0.1,2.1-0.4,3.2-0.7C121.1,57.3,121.2,57.3,121.5,57.3z"/>
		<path class="st0" d="M113.2,15.8c1.3,0.5,2.4,1.2,3.5,2c1.2,0.8,2.3,1.9,3.3,3c0.5,0.6,0.6,1.3,0.5,2.1c-0.1,1-0.2,2-0.4,3.1
			c0,0.1,0,0.3-0.2,0.4c-0.6-1.5-0.9-3.2-2.2-4.5c-0.1,1.2,0.3,2,0.7,3.1c-0.6-0.6-1.1-1.2-1.7-1.5c-1.1-0.5-1.4-1.3-1.6-2.4
			C114.8,19.1,114,17.5,113.2,15.8z"/>
		<path class="st0" d="M54.1,49c-1-0.5-1.9-1-2.8-1.4c-0.5-0.2-0.6-0.7-0.8-1.1c-0.8-1.5-1.3-3.2-1.5-4.9c-0.1-1.3-0.1-2.6,0-3.9
			c0-0.2,0.1-0.4,0.2-0.6c1,1.3,2.2,2.4,3.4,3.4c0.2,0.2,0.2,0.4,0.2,0.6c0,1.4,0,2.7,0.2,4.1c0,0.2,0.1,0.4,0.1,0.7
			c-0.5-0.5-0.9-1-1.3-1.4c-0.1-0.1-0.2-0.4-0.4-0.2c-0.1,0.1-0.1,0.3,0,0.5c0.4,1.2,1.2,2.1,2,3C53.9,48,53.9,48,54.1,49z"/>
		<path class="st0" d="M120.2,54.7c-1.1,0.2-1.8,0.8-2.8,1.2c0.5-0.9,0.3-1.8,1.2-2.4c0.9-0.7,1.7-1.7,2.2-2.7
			c0.4-0.8,1-1.3,1.8-1.5c0.1,0,0.3-0.1,0.4-0.1c1.2-0.4,1.2-0.4,1.1,0.9c-0.3,2.6-1.2,4.9-3.2,6.6c-0.3,0.2-0.6,0.4-0.9,0.4
			c-0.9,0.3-1.8,0.5-2.8,0.7c-0.1,0-0.3,0.1-0.4,0c-0.1-0.1,0-0.2,0-0.3c0.1-0.3,0.3-0.4,0.6-0.6C118.5,56.4,119.4,55.7,120.2,54.7z
			"/>
		<path class="st0" d="M69.1,68c-1-0.1-1.9-0.4-2.9,0c1.1,0.5,2.2,0.7,3.4,1c-0.5,0.3-1.1,0.4-1.6,0.6c-1.5,0.7-2.8-0.1-4-0.7
			c-1.5-0.7-2.9-1.6-4-2.8c-0.2-0.3-0.4-0.6-0.7-0.9c0.9-0.1,1.7-0.3,2.5-0.4c0.8-0.1,1.6-0.1,2.4-0.1c0.5,0,0.8,0.1,1.2,0.4
			c1.1,0.9,2.2,1.9,3.4,2.6C68.9,67.8,68.9,67.9,69.1,68z"/>
		<path class="st0" d="M121.4,40.5c0.1-1.2,0.1-2.4-0.3-3.7c-0.4,0.5-0.5,1.1-0.6,1.6c-0.1,0.7-0.2,1.5-0.1,2.3
			c0,0.4-0.8,1.3-1.2,1.4c-0.2,0.1-0.3-0.1-0.3-0.2c-0.1-0.3-0.2-0.6-0.2-0.9c-0.3-1.5-0.2-3,0.2-4.5c0.2-0.8,0.3-1.6,0.4-2.5
			c0-1.1,0.6-2,1.2-2.9c0.2-0.3,0.3-0.1,0.4,0.1c0.7,1,1.1,2.1,1.3,3.3c0.3,1.3,0.2,2.7,0.2,4.1c0,0.5-0.2,1-0.5,1.3
			C121.8,40,121.7,40.3,121.4,40.5z"/>
		<path class="st0" d="M122.5,32.2c0.2-1.1,0.4-2.1,0.5-3.1c0-0.3-0.1-0.6-0.1-0.9c0-0.1,0-0.2-0.1-0.3c-0.2,0-0.2,0.1-0.2,0.3
			c-0.3,1.1-0.6,2.1-0.6,3.4c-0.5-0.7-1.2-1.2-1.1-2c0-0.9,0-1.7-0.4-2.6c-0.2-0.4,0-1,0.1-1.4c0.3-1.3,0.4-2.5,0.4-3.8
			c0-0.2,0-0.4-0.1-0.7c0.7,0.6,1.3,1.2,1.8,1.9c0.9,1.4,1.6,2.9,2.1,4.5c0.1,0.4-0.1,0.6-0.2,0.9c-0.4,1.3-0.8,2.6-1.8,3.6
			C122.7,32.1,122.6,32.1,122.5,32.2z"/>
		<path class="st0" d="M63.3,14.9c-1.2,2.2-1.9,4.3-2.2,6.6c0,0.3-0.2,0.6-0.5,0.8c-0.7,0.4-1.4,0.9-2.1,1.3
			c0.4-0.7,0.5-1.4,0.6-2.1c0-0.2,0.1-0.4-0.1-0.6c-0.2-0.1-0.3,0.1-0.5,0.3c-0.5,0.6-0.9,1.4-1.1,2.2c-0.1,0.2-0.1,0.3-0.2,0.6
			c-0.2-1.4-0.4-2.6-0.4-3.8c0-0.2,0-0.3,0.1-0.5C58.3,17.3,60.5,15.8,63.3,14.9z"/>
		<path class="st0" d="M109.8,59.8c0.2-0.8,0.4-1.6,0.3-2.4c-0.6,0.9-1.1,1.9-1.5,2.9c-0.1,0.2-0.2,0.4-0.5,0.5
			c-0.5,0.2-0.7,0.1-0.7-0.4c0-1.3,0-2.7,0-4c0-0.7,0.2-0.9,0.9-1c0.5-0.1,1.1-0.9,1-1.5c-0.2-1.1,0.3-2,1.3-2.4
			c0.2-0.1,0.3,0.1,0.4,0.2c0.5,0.6,0.8,1.3,1,2.1c0.3,2.1-0.5,3.8-1.6,5.4C110.2,59.3,110.1,59.7,109.8,59.8z"/>
		<path class="st0" d="M73.1,75c3.8-1,7.3-3,11.3-3.7c-0.3,0.8-0.5,1.5-0.7,2.2c-0.1,0.4-0.3,0.6-0.8,0.8c-1.6,0.6-3.2,1.2-4.8,2.1
			c-0.8,0.4-1.4,0-2-0.2C75.1,75.7,74.1,75.4,73.1,75z"/>
		<path class="st0" d="M59.3,45.9c-0.3-0.5-0.6-0.9-0.7-1.4c-0.1-0.4,0.1-0.8,0.2-1.2c0.1-0.5,0-0.9,0.1-1.4c0-0.1,0-0.2-0.2-0.3
			c-0.2-0.1-0.2,0.2-0.2,0.2c-0.4,0.6-0.3,1.3-0.3,2c-0.9-0.8-1.1-1.5-0.8-3.1c0.4-1.6,1.1-3,2.3-4.1c0.1-0.1,0.2-0.2,0.3-0.2
			c0.5-0.4,0.5-0.4,0.7,0.3c0.3,1.3,0.9,2.5,1.1,3.8c0.1,0.5,0,0.9,0,1.4c0,0.2-0.1,0.3-0.3,0.4C60.4,43.2,59.7,44.4,59.3,45.9z"/>
		<path class="st0" d="M106.1,69c1-0.3,2.1-0.5,3.2-1c-1-0.5-1.9-0.1-2.7-0.1c0.6-0.4,1.2-0.9,1.8-1.3c0.7-0.5,1.3-1.1,1.9-1.6
			c0.2-0.1,0.3-0.3,0.5-0.3c0.9,0,1.8-0.1,2.7,0.1c0.8,0.1,1.6,0,2.4,0.2c-0.4,0.7-0.9,1.3-1.6,1.8c-1.6,1.3-3.3,2.2-5.3,2.7
			c-0.8,0.2-1.5-0.1-2.1-0.3C106.8,69.2,106.4,69.2,106.1,69z"/>
		<path class="st0" d="M124.1,44.2c-0.7,0.6-1.2,1.1-1.7,1.7c0.4-1.2,0.3-2.5,0.3-3.7c0-0.2,0.1-0.3,0.3-0.4
			c1.1-0.8,1.8-1.9,2.7-2.8c0.1-0.1,0.2-0.2,0.3-0.4c0.3,0.7,0.4,1.3,0.4,2c0.1,2.5-0.6,4.9-1.9,7c-0.1,0.1-0.2,0.3-0.3,0.3
			c-0.8,0.4-1.6,0.8-2.4,1.2c-0.1,0-0.2,0.2-0.3,0c-0.1-0.1,0-0.2,0-0.4c0.3-0.6,0.8-1.1,1.2-1.6C123.4,46.2,123.9,45.4,124.1,44.2z
			"/>
		<path class="st0" d="M102.6,74.6c-1.4,0.7-2.9,1.1-4.4,1.5c-0.2,0.1-0.4,0-0.6-0.1c-1.6-0.8-3.2-1.5-4.9-2
			c-0.4-0.1-0.4-0.5-0.6-0.8c-0.2-0.5-0.2-1.1-0.3-1.6c-0.1-0.4,0.2-0.6,0.6-0.5c1.8,0.5,3.6,0.9,5.2,1.7c0.9,0.5,1.9,1,2.9,1.2
			C101.2,74.3,101.9,74.5,102.6,74.6z"/>
		<path class="st0" d="M116.6,46.4c-0.3-1.3-0.8-2.4-1.9-3.1c-0.6-0.4-0.4-1.1-0.4-1.7c0.2-1.5,0.8-2.9,1.2-4.3
			c0.1-0.3,0.1-0.3,0.4-0.1c1.7,1.4,2.4,3.3,2.6,5.5c0.1,0.9-0.5,1.3-1,2c-0.1-0.6-0.2-1.3-0.3-1.9c0-0.1,0-0.1,0-0.2
			c-0.1-0.2-0.1-0.7-0.4-0.6c-0.3,0-0.1,0.4-0.1,0.7c-0.1,0.7,0.1,1.4,0.3,2.1C117.2,45.3,116.8,45.8,116.6,46.4z"/>
		<path class="st0" d="M63.6,53.6c0.1-0.8,0.5-1.6,1.1-2.2c0.1-0.1,0.3-0.2,0.5-0.1c0.4,0.2,0.8,0.4,1.2,0.7
			c0.2,0.2,0.4,0.3,0.3,0.7c-0.1,0.5,0,1,0,1.5c0,0.5,0.4,0.4,0.7,0.5c0.8,0.2,1.3,0.7,1.2,1.4c-0.1,0.6,0,1.2-0.1,1.8
			c-0.1,0.8-0.1,1.6-0.1,2.4c0,0.2,0,0.5-0.3,0.5c-0.3,0-0.4-0.1-0.5-0.4c-0.3-1.7-1.1-3.2-2.2-4.5c-0.5-0.6-1-1.2-1.5-1.8
			C63.7,53.9,63.6,53.8,63.6,53.6z"/>
		<path class="st0" d="M56.5,29.9c-0.5-0.9-0.4-1.8-0.2-2.7c0.4-1.6,1.5-2.6,2.7-3.6c0.5-0.4,1-0.8,1.7-1c-0.1,0.4-0.2,0.8-0.3,1.1
			c-0.1,1.2-0.4,2.4-0.2,3.6c0.1,0.6-0.3,1.3-0.7,1.7c-0.6,0.7-1.3,1.4-2.1,2c-0.2,0.2-0.3,0.1-0.4-0.1c-0.1-0.3-0.3-0.7,0.1-1
			c0.4-0.4,0.6-1,0.7-1.6c0-0.2,0.1-0.4-0.1-0.5c-0.2-0.1-0.3,0.1-0.4,0.2C56.8,28.5,56.7,29.2,56.5,29.9z"/>
		<path class="st0" d="M116.2,29.9c0.7,1,1.6,1.8,2.5,2.6c0.2,0.1,0.2,0.3,0.2,0.5c0,0.9,0.1,1.8-0.2,2.8c-0.3-0.8-0.3-1.6-1-2.2
			c-0.2,0.6-0.1,1.2,0,1.7c0.1,0.3,0.1,0.7,0.3,0.9c0.6,0.7,0,1.4,0.1,2c0,0.1-0.1,0.2-0.2,0.1c-0.8-0.7-1.7-1.3-2.4-2.1
			c-0.4-0.4-0.4-0.9-0.2-1.4c0.6-1.5,0.9-3.1,0.8-4.7C116.1,30.1,116.1,30.1,116.2,29.9z"/>
		<path class="st0" d="M115.7,23.4c2.6,1.3,4.7,4.7,3.4,7.1c-0.1-0.6-0.2-1.2-0.5-1.6c-0.2-0.2-0.3-0.6-0.6-0.5
			c-0.4,0.1-0.1,0.5,0,0.8c0.1,0.5,0.4,1,0.7,1.4c0.1,0.1,0.2,0.3,0.1,0.5c-0.1,0.2,0,0.6-0.3,0.6c-0.2,0.1-0.4-0.2-0.5-0.4
			c-0.5-0.5-1-1.1-1.5-1.6c-0.8-1-0.6-2.2-0.5-3.3c0.1-0.9-0.1-1.7-0.3-2.5C115.7,23.7,115.6,23.6,115.7,23.4z"/>
		<path class="st0" d="M60.2,28.9c-0.1,0.6-0.2,1.3-0.3,1.9c-0.1,1.3,0.3,2.6,0.5,3.9c0.1,0.4,0,0.7-0.2,1c-0.6,0.8-1.3,1.3-2.1,1.9
			c-0.3-0.6-0.5-1.1,0-1.7c0.5-0.8,0.8-1.7,0.8-2.7c-0.8,0.5-1.1,1.3-1.6,2c-0.1-0.5-0.2-1-0.1-1.5c0-0.6,0.1-1.2,0.2-1.8
			c0.1-0.4,0.4-0.5,0.7-0.7c0.7-0.6,1.4-1.4,2-2.2c0-0.1,0.1-0.1,0.1-0.2C60.1,28.8,60.2,28.9,60.2,28.9z"/>
		<path class="st0" d="M55.5,68.4c0.3-0.3,0.7-0.3,0.9-0.3c0.9,0,1.8-0.1,2.7,0c0.6,0.1,1.2,0.1,1.8,0c0.8-0.3,1.4,0.2,2,0.6
			c0.1,0.1,0.1,0.2,0,0.3c-0.1,0.6-0.2,1.3-0.4,1.9c-0.1,0.5-0.5,0.3-0.8,0.3c-0.7-0.1-1.3-0.3-1.9-0.5c-0.8-0.3-1.5-0.5-2.2-1
			C56.8,69.4,56.1,69.1,55.5,68.4z"/>
		<path class="st0" d="M119.2,68.2c-1.3,1-2.7,1.8-4.1,2.5c-0.3,0.1-0.6,0.2-0.8,0.3c-0.8,0.3-1,0.2-1.3-0.6
			c-0.1-0.4-0.3-0.8-0.5-1.3c-0.3-0.6-0.1-0.9,0.6-0.9c0.3,0,0.6,0,1,0c1.5,0.1,2.9-0.3,4.3-0.2C118.7,68,118.9,68,119.2,68.2z"/>
	</g>
	<g>
		
			<radialGradient id="SVGID_1_" cx="-359.2012" cy="159.9304" r="16.2501" gradientTransform="matrix(2.7216 0 0 2.7187 1053.2074 -419.8439)" gradientUnits="userSpaceOnUse">
			<stop  offset="2.000000e-02" style="stop-color:#E60012"/>
			<stop  offset="0.1352" style="stop-color:#E60012"/>
			<stop  offset="0.98" style="stop-color:#B60005"/>
		</radialGradient>
		<path class="st1" d="M60.9,29.8L60.9,29.8l0,1.1c0,0,0,0.9,0,0.9c0,0,0.2,1.4,0.2,1.4l0.2,0.4l0.4,0.1c0.8,3.7,2.4,7.2,4.5,10.2
			l0,0.5l0,0.1l0.2,0.3l2,2.3l0.1,0c0,0,0.2-0.1,0.2-0.1c0,0,0.1,0.1,0.1,0.1l-1.4,7.7l1.9,0.3l0,0.8l1.9,0.5l0,1l1.7,0.6L73,58
			l4.1,0.6l-0.1-1.4l2.2-0.9l-0.4,0.6l-0.1,1l1.4,0.3l0.1,0.2l2.5,0.4l0.3-0.2c0,0,0.4,0.2,0.4,0.2c0,0,2.9,0.3,2.9,0.3
			c0,0,0.2-0.3,0.2-0.3l3,0.1l0.2,0.3l2.5-0.1l0.4,0l0.3-0.2l0.1,0l0.3,0.2l2.4-0.4l0.1-0.3l1.3-0.2l0-1l-0.5-0.6l2.1,0.9l0,0.3
			l-0.1,1.2l4.1-0.5l0-0.4l0.1-0.1l1.7-0.5l0-0.9l0.1-0.1l1.9-0.4l0-0.7l0.1-0.1l1.8-0.3l-1.2-7.7l0.4,0.1l1.8-1.9l0.4-0.6l-0.1-0.7
			c2.2-2.9,3.8-6.3,4.7-9.9l0.2,0l0.2,0l0.2-0.1l0.1-0.4l0.4-3.2l-0.1-0.2l-0.2-0.1l-0.2-0.1l-0.1-0.1c0-0.7,0.1-1.3,0.1-2
			c0-4.9-1.3-9.6-3.7-13.6c0-0.1,0-0.2,0-0.2c0,0,0.1-0.3,0.1-0.3l0-0.2l-0.6-1l-0.2-0.3l-0.6-0.6h-0.2l-0.1,0
			C104.7,5.3,96.8,1,88,1c-8.6,0-16.2,4.1-21.1,10.3l-0.1,0l-0.2-0.1l-0.3,0.2l-1.2,1.7L65,13.4l0.2,0.3c-2.7,4.2-4.1,8.8-4.1,14.1
			c0,0.5,0,1.1,0,1.6l-0.2,0L60.9,29.8L60.9,29.8z"/>
		
			<radialGradient id="SVGID_2_" cx="33.9333" cy="13.1914" r="45.4011" gradientTransform="matrix(1.0011 0 0 1 43.5476 0)" gradientUnits="userSpaceOnUse">
			<stop  offset="5.000000e-02" style="stop-color:#FFFFFF"/>
			<stop  offset="0.113" style="stop-color:#FFFFFF"/>
			<stop  offset="0.554" style="stop-color:#FFF100"/>
			<stop  offset="0.941" style="stop-color:#F7AD00"/>
			<stop  offset="0.95" style="stop-color:#F7AD00"/>
		</radialGradient>
		<path class="st2" d="M98.6,15.6l0.5,2.2l2.3,0.2l-2,1.2l0.5,2.2l-1.7-1.5l-2,1.2l0.9-2.1l-1.7-1.5l2.3,0.2L98.6,15.6L98.6,15.6
			L98.6,15.6z M90.6,58.6L90.6,58.6l1.9-0.1l0-0.4l-0.9,0.1l0,0l-0.1-1.9l-0.4,0l0,1.7l-2.6,0.1l0-0.9l-0.4,0l0,1.3l2.5-0.1
			L90.6,58.6L90.6,58.6z M61.7,29.9L61.7,29.9l0.1,0.8c0,0,2.6-2.8,3-3.3c0.4-0.4,3.1-3.1,3.7-3.7c-0.1,0.3-0.1,0.5-0.1,0.8
			c-0.2,0.2-0.7,0.6-0.8,0.7c-0.1,0.1-2.2,2.2-2.6,2.6c-0.4,0.4-3.2,3.4-3.2,3.4l0.1,1c0,0,2.4-2.6,2.9-3.1c0.4-0.5,2.8-2.8,3.5-3.5
			c-0.1,0.7-0.1,1.3-0.1,2c0,6.5,3.2,12.4,8,16l1,4.8l-0.1,0c0,0-0.1-0.2-0.2-0.2c0,0-0.2-0.3-0.2-0.3c0-0.1,0-0.3,0-0.3
			s-0.2-0.2-0.3-0.3c-0.1-0.1-0.6-0.6-0.6-0.7c0,0-0.1-0.1-0.2-0.1c-0.1,0,0,0.1,0,0.1c0,0.1,0.2,0.2,0.2,0.2c0.1,0.1,0,0.3,0.1,0.4
			c0.1,0.1,0,0.1-0.1,0c-0.1,0-0.1-0.2-0.2-0.3c0-0.1,0-0.2-0.1-0.3s-0.1-0.2-0.1-0.3c0-0.1,0.1-0.2,0.1-0.2c0,0,0.3-0.1,0.3-0.1
			s-0.4-0.4-0.6-0.4c-0.1-0.1-0.3-0.5-0.3-0.5c0,0-0.1,0-0.2,0c0,0-0.2-0.1-0.3-0.1c-0.1,0-0.1,0-0.1,0c0,0,0.1,0.2,0.1,0.3
			c0,0.1,0,0.2,0.1,0.4c0,0.2,0,0.4,0,0.4l-0.2-0.1l-0.4,0l-1.1-1h-0.2l-1.1-1.3l-0.1,0l-1.1-1.3L70,42.6l1.1,1.3l0.2,0l1.2,1.3h0.2
			l1.1,1c0,0,0.5,0,0.5,0c0,0,1.1,0.9,1.2,0.9c0,0,0.9,0.6,1.4,0.9c0,0.1,0.3,1.2,1,1.8c0.8,0.6,1.6,1.3,2.8,1.6
			c1.2,0.3,2,0.2,2.4,0.2c0.4,0,1.3-0.1,1.8-0.2c0.5-0.2,0.8-0.2,1-0.3c0.2-0.1,0.5-0.3,0.5-0.3l0.1,0c0,0.2,0,0.3,0,0.3
			c0,0.1-0.2,0.2-0.8,0.5c-0.6,0.3-1.5,0.6-2.3,0.8c-0.8,0.2-1.6,0.3-3.2,0.1c-1.7-0.2-2.8-1.3-2.8-1.3l-0.1,0c0,0-0.4-0.3-0.6-0.6
			c-0.3-0.2-0.7-0.7-0.7-0.7l-0.1,0.1c0,0-0.6-0.9-1-1.8c-0.4-0.9-0.5-2-0.5-2l-0.3,0l0,0.2c0,0,0.1,0.8,0.3,1.4
			c0.2,0.6,0.4,1.2,1.5,2.6c1.1,1.4,2.6,1.9,2.6,1.9l0.2-0.2c0,0,0.1,0.1,0.7,0.2c0.5,0.1,2.3,0.2,2.7,0.2c0.4,0,1.8-0.2,2.7-0.4
			c0.7-0.2,1.6-0.8,1.9-1.1l0.1,0.2l-0.4,0.3L86,52c0.5,0.5,1.2,0.8,1.9,0.8c0.7,0,1.4-0.3,1.9-0.8l-0.1,0l-0.6-0.4l0.1-0.1
			c0.3,0.2,1.2,0.9,2,1.2c0.9,0.3,2.4,0.5,2.7,0.5c0.4,0,2.1-0.1,2.7-0.1c0.5-0.1,0.7-0.2,0.7-0.2l0.2,0.2c0,0,1.4-0.5,2.6-1.9
			c1.2-1.3,1.4-2,1.6-2.6c0.2-0.6,0.4-1.4,0.4-1.4l0.1-0.2l-0.3,0c0,0-0.1,1.2-0.6,2c-0.4,0.9-1,1.8-1,1.8l-0.1-0.1
			c0,0-0.4,0.5-0.7,0.7c-0.3,0.2-0.6,0.6-0.6,0.6l-0.1,0c0,0-1.2,1.1-2.9,1.2c-1.7,0.1-2.4,0-3.2-0.2c-0.8-0.2-1.7-0.5-2.3-0.8
			c-0.6-0.3-0.7-0.4-0.8-0.5c0,0,0-0.2,0-0.3l0.1,0c0,0,0.4,0.2,0.5,0.3c0.2,0.1,0.5,0.2,1,0.3c0.5,0.2,1.4,0.2,1.8,0.3
			c0.4,0,1.2,0.1,2.4-0.1c1.2-0.3,2-0.9,2.8-1.5c0.8-0.6,1-1.8,1-1.8l-0.4,0.3c0,0,0,0.2-0.2,0.7c-0.2,0.4-0.3,0.5-1.2,1.2
			c-0.9,0.6-1.9,1-2.5,1.1c-0.6,0.1-1.9,0.1-3-0.1c-1.1-0.2-2-0.9-2.1-0.9c0-0.3,0-0.6,0-0.6c0,0,0,0,0,0c0-0.1,0-0.1,0.1-0.2
			c0.2-0.1,0.3-0.1,0.5-0.1c0.1,0,0.2,0,0.3,0.1l0,0l0.7,0.1c0,0,0,0,0,0c0.2,0,0.4,0.1,0.6,0.1c0.1,0,0.3,0,0.4,0c0,0,0,0,0,0
			l0.7,0.1l0,0c0.3,0,0.6,0.1,0.8,0.1c0.4,0,0.8,0,0.8,0l0.2,0l0,0c0.2,0,0.4-0.1,0.6-0.1c0.4-0.1,1-0.3,1-0.3l-0.1-0.1l0.1-0.7
			l-1.7,0.5l-0.1,0.1l0.2,0.1l0,0.3l-0.1,0l-0.1-0.2l-0.5-0.2l-0.2-0.7l0.5-0.4l-0.4-1.2l-0.6,0.1l-0.5-0.8L93,46l-0.8-0.7l-0.6,0.3
			l-0.8-0.5l0.1-0.6l-1-0.5l-0.4,0.5l-0.9-0.2l-0.2-0.7h-1l-0.2,0.7l-1,0.2L85.8,44l-0.9,0.4l0,0.8l-0.7,0.5l-0.6-0.3L82.9,46
			l0.3,0.6l-0.5,0.8l-0.7,0l-0.4,0.9l0.5,0.4l0,0.8l-0.7,0l0,0.2l-0.2,0l0-0.3l0.2-0.1l0,0l-1.7-0.6l0.1,0.7l-0.1,0.1
			c0,0,0.6,0.2,1,0.3c0.4,0.1,1,0.2,1,0.2l0,0c0.3,0,1.1,0,1.8,0c0,0,0,0,0,0l0.5,0c0,0,0,0,0,0c0.2,0,0.3,0,0.4,0
			c0.2,0,0.4,0,0.6-0.1l0,0l0.8-0.1l0,0c0.2,0,0.3-0.1,0.4-0.1c0.1,0,0.3,0.1,0.3,0.2c0,0,0,0,0,0c0,0,0,0.3,0,0.6
			c0,0-1,0.7-2.1,0.9c-1.1,0.2-2.4,0.2-3,0.1c-0.6-0.1-1.6-0.5-2.5-1.1c-0.9-0.7-1-0.8-1.2-1.2c-0.2-0.4-0.2-0.7-0.2-0.7l-0.1-0.1
			l1,0.5l-1-4.5c0.1,0.1,0.3,0.2,0.4,0.2l0.9,4.4l0.9,0.3l-0.8-4.2c1.3,0.7,2.7,1.2,4.1,1.6l0.1-0.2c-1.5-0.4-2.9-1-4.2-1.7l0-0.1
			l-1.1-0.6l0,0c-0.1-0.1-0.3-0.2-0.4-0.3l-1.1-0.8l0,0.1c-0.4-0.3-0.7-0.6-1.1-0.9l25.6,0.3l0,0c-2.2,1.8-4.8,3.2-7.6,4l0.1,0.2
			c1.4-0.4,2.7-0.9,4-1.5l-0.9,4.3l0.9-0.3l1-4.5c0.1-0.1,0.3-0.2,0.4-0.2l-1.1,4.6l1.1-0.5l1.1-4.9c5-3.6,8.3-9.5,8.3-16.2
			c0-0.5,0-1.1-0.1-1.6c0.6,0.6,3,3.1,3.4,3.6c0.4,0.5,2.8,3.2,2.8,3.2l0.1-1c0,0-2.8-3-3.1-3.4c-0.3-0.4-2.4-2.5-2.5-2.6
			c-0.1-0.1-0.6-0.5-0.8-0.7c0-0.3-0.1-0.5-0.1-0.8c0.6,0.6,3.3,3.3,3.7,3.7c0.4,0.5,2.9,3.3,2.9,3.3l0.1-0.8c0,0-2.6-2.9-3.2-3.5
			c-0.5-0.6-3-3.1-3.7-3.7c-2-8.9-10-15.5-19.4-15.5c-9.3,0-17.2,6.4-19.3,15.1c-0.7,0.6-3.2,3.1-3.7,3.6
			C64.4,27.1,61.7,29.9,61.7,29.9L61.7,29.9z M91,21.7l1.5,1.7l2.1-0.9l-1.2,2l1.5,1.7l-2.2-0.5l-1.2,2l-0.2-2.3l-2.2-0.5l2.1-0.9
			L91,21.7L91,21.7L91,21.7z M85.2,21.7L85,24l2.1,0.9l-2.2,0.5l-0.2,2.3l-1.2-2l-2.2,0.5l1.5-1.7l-1.2-2l2.1,0.9L85.2,21.7
			L85.2,21.7L85.2,21.7z M77.5,15.4l0.9,2.1l2.3-0.2l-1.7,1.5l0.9,2.1l-2-1.2l-1.7,1.5l0.5-2.2l-2-1.2l2.3-0.2L77.5,15.4L77.5,15.4
			L77.5,15.4z M81.6,32.4l0.1-0.1l0-0.2l0.1,0c0,0,0.2,0.1,0.2,0.2l-0.1,0.2l0,0.1l12.5,0.2v-0.1l-0.2-0.2l0.1-0.1l0.1-0.1l0.1,0
			l0,0.2c0,0,0.3,0.2,0.3,0.2c0,0.1,0,0.2,0,0.2l0,1.5l-0.1,0l0-1.4l-0.1,0l0,1.6l-0.1,0l0-1.5l-12.8-0.2l0,1.5l-0.1,0l0-0.1l0-1.5
			l-0.1,0l0,1.4l-0.1,0l0-1.5c0,0,0-0.2,0.1-0.2C81.4,32.4,81.6,32.4,81.6,32.4L81.6,32.4L81.6,32.4z M81.7,34.5l0-1.4l0.1-0.1
			l12.5,0.2l0,1.5l0,0v0l0,0l0.1,0l0,0.1l0.1,0l0-0.1l0-0.2l0.1-0.1l0.1,0l0.1,0l0,0.1l0.1,0l0.1,0l0-0.1l0-0.1l0-0.1l0.1,0l0.1,0.1
			l0.1,0.1l-0.1,0.1l0,0.1l0,0.1l0.1,0l0,0.1h0l0.2,0l0.1,0l0,0.1l-0.2,0.1h-1.2v0l-13.9-0.2l-0.2-0.1l0-0.1l0.1,0h0.2h0l0-0.1
			l0.1,0l0-0.1l0-0.1l-0.1-0.1l0.1-0.1l0.1-0.1l0.1,0l0,0.1l0,0.1v0.1l0.1,0l0.1,0l0-0.1l0.1,0l0.1,0l0.1,0.1l0,0.2l0,0.1h0.1l0-0.1
			l0.1,0L81.7,34.5L81.7,34.5L81.7,34.5z M80.7,35.2l14.7,0.2l-0.1,0.2l-14.5-0.2L80.7,35.2L80.7,35.2L80.7,35.2z M80.3,35.7
			l0.3-0.2l14.7,0.2l0.4,0.2l0.1-0.1l0-0.1l0.1-0.1l0.1,0.1l0.1,0.1l0,0.1l0,0l0.2,0.1h0.2l0.1,0l-0.1,0.2l-16.5-0.2L79.7,36
			l-0.1-0.1h0.2l0.2-0.1l0-0.1l0-0.1v-0.1l0.1-0.1l0.1,0l0.1,0.1L80.3,35.7L80.3,35.7L80.3,35.7z M80.3,36.5l-0.2-0.2L96,36.6
			l-0.3,0.2L80.3,36.5L80.3,36.5L80.3,36.5z M87.1,36.9L87.1,36.9l1.7-0.1l0,0.1L89,37c0,0,0.1,0.1,0.1,0.1c0,0,0,0.1,0,0.1l0,0.7
			l-0.1,0c0,0-0.2,0-0.2,0c0,0-0.1,0.1-0.1,0.1l0,0.1l0,0.1l-1.4,0c0,0,0-0.2,0-0.2c0,0-0.1-0.1-0.1-0.1l-0.3,0l-0.1,0l0-0.7
			l0.1-0.1L87.1,36.9L87.1,36.9L87.1,36.9L87.1,36.9z M95.3,37.9L95.3,37.9l0.1,0l0,0.1l0,0.1l-0.2,0h-0.1l-0.1,0l0-0.1
			c0,0,0.1,0,0.1,0c0,0,0,0,0,0L95.3,37.9L95.3,37.9L95.3,37.9L95.3,37.9z M94.9,38L94.9,38l-0.1-0.1l0,0.1l-0.1,0c0,0-0.1,0-0.1,0
			c0,0,0,0.1,0,0.1c0,0,0,0,0,0l0.2,0c0,0,0.1,0,0.1,0C94.9,38.1,94.9,38,94.9,38L94.9,38L94.9,38z M93.4,37.9L93.4,37.9l-0.1,0
			c0,0,0,0,0,0c0,0-0.1,0-0.1,0c0,0,0,0-0.1,0c0,0,0,0.1,0,0.1c0,0,0.1,0,0.1,0c0,0,0.2,0,0.2,0s0,0,0-0.1
			C93.4,38,93.4,37.9,93.4,37.9L93.4,37.9L93.4,37.9z M91.6,38L91.6,38l0.1-0.1l0.1,0l0.1,0l0,0c0,0,0.1,0,0.1,0
			c0,0,0.1,0.1,0.1,0.1V38l0,0L91.6,38L91.6,38L91.6,38z M90.1,37.9L90.1,37.9L90.1,37.9l0.1,0l0,0l0,0c0,0,0,0,0,0c0,0,0.1,0,0.1,0
			l0,0.1l0,0.1l-0.1,0l-0.1,0l-0.1,0L90.1,37.9L90.1,37.9L90.1,37.9L90.1,37.9z M89.1,36.9L89.1,36.9l0.7,0l0,0.1l-0.1,0.1l-0.1,0
			l0,0.1l0,0.9l0.1,0l0.1,0l0.1,0l0.1,0l0-0.1l0-0.1c0,0,0-0.1-0.1-0.1c-0.1,0-0.1,0-0.1,0.1c0,0,0,0.1,0,0.1h-0.1l0-0.8
			c0,0,0.1,0,0.1-0.1c0,0,0.1,0,0.1-0.1c0,0,0-0.1,0-0.1l0.6,0c0,0,0.1,0.1,0.1,0.1c0,0,0,0,0,0.1c0,0,0.1,0,0.1,0.1
			c0,0,0.1,0,0.1,0c0,0,0,0.6,0,0.7c0,0,0,0.1,0,0.1c0,0-0.2,0-0.2,0l0,0.1h0.4v-1c0,0-0.1-0.1-0.1-0.1c0,0-0.1-0.1-0.1-0.1v0l0.6,0
			L91.3,37l-0.2,0l0,0.1l0,1h0.3c0,0,0-0.2,0-0.2c0,0-0.1-0.1-0.1,0c0,0-0.1,0.1-0.1,0.1l0,0v-0.7c0,0,0,0,0.1,0
			c0,0,0.2-0.2,0.2-0.2c0,0,0.1,0,0.1,0c0,0,0.4,0,0.4,0L92,37l0.1,0.1l0.1,0.1l0,0.7c0,0,0,0-0.1,0.1c0,0-0.1,0-0.1,0
			c0,0,0,0.1,0,0.1h0.3c0,0,0-0.1,0-0.2c0,0,0-0.9,0-0.9s-0.1,0-0.1,0c0,0-0.1,0-0.1,0l0,0l0.6,0c0,0,0,0.1,0,0.1c0,0-0.1,0-0.2,0
			c0,0-0.1,0-0.1,0c0,0,0,1,0,1c0,0,0,0.1,0,0.1c0.1,0,0.2,0,0.2,0c0,0,0.1,0,0.1,0c0,0,0-0.1,0-0.1c0,0-0.1-0.1-0.1-0.1
			c0,0-0.1,0-0.1,0c0,0,0,0.1,0,0.1c0,0-0.1,0-0.1,0c0,0,0-0.7,0-0.7c0,0,0.2-0.1,0.2-0.1c0,0,0.1-0.1,0.1-0.1c0,0,0.1,0,0.2,0
			c0.1,0,0.3,0,0.3,0c0,0,0,0.1,0,0.1c0,0,0.2,0.1,0.2,0.2c0,0.1,0,0.8,0,0.8c0,0-0.1,0-0.2,0c0,0,0,0,0,0.1c0,0,0.1,0,0.1,0h0.1
			c0,0,0.1,0,0.1,0c0,0,0-1,0-1c0,0,0-0.1-0.1-0.1c0,0-0.1,0-0.1,0c0,0,0-0.1,0-0.1c0,0,0.6,0,0.6,0l0,0.1c0,0-0.1,0-0.2,0
			c0,0,0,0-0.1,0c0,0,0,1,0,1c0,0,0,0,0.1,0c0,0,0.1,0,0.2,0c0,0,0.1,0,0.1,0c0,0,0,0,0-0.1c0-0.1,0-0.1,0-0.1c0,0-0.1,0-0.1,0
			c0,0-0.1,0.1-0.1,0.1c0,0-0.1,0-0.1,0c0,0,0-0.7,0-0.8c0,0,0.1-0.1,0.1-0.1c0,0,0,0,0.1-0.1c0.1-0.1,0.1-0.1,0.2-0.1
			c0.1,0,0.2,0,0.2,0c0,0,0.1,0,0.2,0.1c0,0,0.1,0.1,0.2,0.1c0,0,0.1,0,0.1,0.1c0,0,0,0.5,0,0.5c0,0,0,0,0.1,0c0,0,0.1,0,0.1,0
			c0-0.1,0-0.6,0-0.6c0,0,0-0.1,0-0.1c-0.1,0-0.1,0-0.1,0c0,0,0-0.1,0-0.1l0.3,0v1c0,0,0,0.1,0,0.1c0,0,0,0,0.1,0c0.1,0,0.2,0,0.3,0
			c0,0,0.1,0,0.1,0c0,0,0-0.1,0-0.1s0,0,0-0.1c0,0,0.1,0,0.1,0c0,0,0,0,0,0.1c0,0,0,0.2,0,0.2l-7.4-0.1c0,0,0-0.1,0-0.1
			c0,0,0,0,0.1,0c0,0,0.3,0,0.4,0c0,0,0-0.9,0-1C89.3,36.9,89.2,36.9,89.1,36.9C89.1,36.9,89.1,36.9,89.1,36.9L89.1,36.9L89.1,36.9z
			 M80.7,37.7L80.7,37.7l-0.1,0c0,0,0,0.1,0,0.1c0,0,0,0.1,0,0.1c0,0,0,0,0,0l0.2,0c0,0,0,0,0,0c0,0,0-0.1,0-0.1l-0.1,0
			C80.8,37.8,80.8,37.8,80.7,37.7C80.8,37.8,80.7,37.7,80.7,37.7L80.7,37.7L80.7,37.7z M81.1,37.8L81.1,37.8l0.1-0.1l0.1,0l0.1,0
			l0.1,0c0,0,0,0,0,0c0,0,0,0.1,0,0.1c0,0,0,0,0,0l-0.3,0C81.1,37.9,81.1,37.9,81.1,37.8C81.1,37.9,81.1,37.8,81.1,37.8L81.1,37.8
			L81.1,37.8z M82.6,37.8L82.6,37.8L82.6,37.8l0.1,0l0.1,0l0.1,0l0,0.1l0,0l-0.3,0l0,0C82.6,37.9,82.6,37.8,82.6,37.8
			C82.6,37.8,82.6,37.8,82.6,37.8L82.6,37.8L82.6,37.8L82.6,37.8z M85.5,37.8L85.5,37.8L85.5,37.8l0.1-0.1c0,0,0,0,0,0
			c0,0,0,0,0.1,0c0,0,0,0,0,0l0,0c0,0,0,0,0.1,0c0,0,0,0.1,0,0.1c0,0,0,0,0,0l0,0l-0.3,0C85.6,38,85.5,37.9,85.5,37.8
			C85.5,37.9,85.5,37.8,85.5,37.8L85.5,37.8L85.5,37.8z M80.3,37.8l0-1.2l0.4,0l0,0l-0.2,0.1v0.7l0.1,0l0.1,0V37l0.2-0.2l0.1-0.1
			l0.1,0l0.3,0l0.1,0.1l0.2,0.1l0,0.1l0,0.6l0,0.1l-0.1,0l0,0l-0.1,0l0,0.1l0,0.2l0.3,0l0.1,0l0-0.1l0-1l-0.2-0.1v-0.1l0.5,0l0,0.1
			c0,0-0.1,0-0.2,0.1c0,0,0,0.2,0,0.2v0.8l0,0.1h0.3l0-0.1l-0.1-0.1l0-0.4l0-0.4l0.1-0.1l0.2-0.1l0.1,0l0.3,0l0.3,0.2l0,0.1l0,0.4
			l0,0.2l0,0.1l-0.1-0.1l-0.1,0l-0.1,0l0,0.1c0,0,0.1,0,0.1,0c0,0,0,0.1,0,0.1l0.4,0v-1l-0.2-0.1l-0.1,0l0-0.1h0.7l0,0.1l-0.2,0
			l-0.1,0v1l0.3,0l0-0.1c0,0-0.1,0-0.2,0c0,0,0-0.7,0-0.7l0.1-0.1l0.2-0.1l0.1,0l0.3,0l0.1,0.1l0.2,0.2l0,0.1l0,0.5l0,0.1l-0.1,0
			l-0.1,0l0,0.1l0.3,0l0,0l0-1l-0.2-0.1l0-0.1v-0.1l0.6,0l0,0.1l0,0l-0.2,0l0,0.1l0,0.9l0,0.1l0.4,0l0-0.1l-0.2,0l-0.1-0.1l0-0.6
			l0.1-0.1l0.2-0.2l0.1-0.1l0.4,0l0.1,0l0.1,0.1l0.1,0l0,0.1l0,0.5l0,0.2l-0.1,0l0-0.1l-0.1,0l0,0.1l0,0.1l0,0h0.3l0-1
			c0,0,0,0-0.1-0.1c0,0-0.2-0.1-0.2-0.1l0,0l0.7,0l0,0.1c0,0-0.2,0-0.2,0.1c0,0,0,0.1,0,0.1l0,0.9l0.3,0l0.1,0l0.1,0l0,0L79.8,38
			v-0.3h0.1l0,0.1l0,0L80.3,37.8L80.3,37.8L80.3,37.8L80.3,37.8z M72.4,38.5l0-0.3l31,0.4l0.1,0.4l-10.1-0.1v-0.2h-0.3l0,0.2
			l-10.2-0.1l0-0.3l-0.3,0l0,0.3L72.4,38.5L72.4,38.5L72.4,38.5z M82.6,39l0-0.2c0,0,0.3,0,0.3,0l0,0.2H82.6L82.6,39L82.6,39z
			 M82.8,39.1h-0.2l0,0.3l-0.2,0l-0.1,0l-0.1-0.1l-0.1,0c0,0,0.1,0.2,0.2,0.2c0.1,0,0.2,0,0.2,0c0,0,0.1,0,0.1,0l0,0v2
			c0,0-0.1,0-0.1,0c0,0-0.1,0-0.1,0c0,0,0-0.1,0-0.1l0,0l-0.1,0l0,0.3c0,0-0.3,0-0.3,0c0,0-0.1-0.2-0.1-0.2l-0.1-0.1l-0.3,0l0,0
			h-0.1l0,0.1l-0.1,0l0-0.1H81l0,0.1l-0.1,0l0-0.1h-0.1l-0.1,0.1l-0.1,0l0-0.1h-0.1l-0.2,0.3l3,0l0-0.3l-0.1,0l-0.1,0.1l-0.2,0
			l-0.1-0.1l0-1.9l0,0l0.1,0c0,0,0.2,0,0.2,0c0.1,0,0.1-0.2,0.1-0.2l0-0.1l-0.2,0.2l-0.1,0l-0.2,0l0-0.1L82.8,39.1L82.8,39.1
			L82.8,39.1z M81.1,40.4c-0.2,0-0.3,0.1-0.4,0.3v0.7l0.1,0v0h0.1l0,0l0.1,0v0l0.1,0v-0.1l0.2,0v0.1h0.1l0-0.8
			C81.4,40.6,81.4,40.4,81.1,40.4L81.1,40.4L81.1,40.4z M76.7,41.5v-0.3l0.1,0l0,0l0,0.1l0.1,0l0.1,0l0,0l0,0l0,0l0,0.1l0,0h0
			L76.7,41.5L76.7,41.5L76.7,41.5L76.7,41.5L76.7,41.5z M77.2,41.5l0-0.2l0-0.1l0.1,0l0,0l0,0l0,0.1l0,0l0.1,0l0,0l0.1,0l0.1,0l0,0
			l0,0.1l-0.1,0L77.2,41.5L77.2,41.5L77.2,41.5L77.2,41.5L77.2,41.5z M78,41.3l-0.1,0v0.2l0,0.1l0.1,0h0.1l0.1,0l0.1,0l0-0.1l0,0
			l-0.1,0.1l-0.1,0L78,41.3L78,41.3L78,41.3L78,41.3z M78.6,41.4L78.6,41.4l0.1,0l0.1,0h0.1l0.1,0l0,0.1l-0.1,0l-0.1,0l-0.1,0
			L78.6,41.4L78.6,41.4L78.6,41.4L78.6,41.4z M79.2,41.3l-0.1,0c0,0,0,0.1,0,0.1c0,0,0,0.1,0,0.2c0,0,0,0,0,0l0.1,0l0,0l0.1,0l0.1,0
			l0-0.1v-0.1l-0.1,0L79.2,41.3L79.2,41.3L79.2,41.3L79.2,41.3z M79.9,41.3L79.9,41.3l-0.1,0l-0.1,0.1l0,0.1l0,0.1l0.1,0H80l0,0
			l0.1,0h0.1l0-0.1l0,0l-0.3,0l0,0L79.9,41.3L79.9,41.3L79.9,41.3L79.9,41.3z M76.2,41.5l0-0.3l0.1,0.1l0.1,0.1l0.1,0l0.1-0.1l0,0h0
			l0.1,0l0,0.1c0,0-0.1,0-0.1,0c0,0-0.1,0.1-0.1,0.1s0,0,0,0c0,0-0.1,0-0.1,0l-0.1,0L76.2,41.5L76.2,41.5L76.2,41.5L76.2,41.5z
			 M83.9,40.7l0,0.7l0.7,0l0-0.8c0,0,0-0.3-0.3-0.3C84,40.4,83.9,40.7,83.9,40.7L83.9,40.7L83.9,40.7z M83.7,41.7L83.7,41.7l0.1-0.1
			h0.1v-0.1H84l0,0.1h0.1l0-0.1h0.1v0.1l0.2,0v-0.1h0.1v0l0.3,0l0.1,0.1l0.1,0.1l0,0.1l-1.5,0L83.7,41.7L83.7,41.7L83.7,41.7
			L83.7,41.7z M88.4,41.5l-0.8,0l0-0.9c0,0,0.1-0.3,0.4-0.3c0.3,0,0.4,0.3,0.4,0.3L88.4,41.5L88.4,41.5L88.4,41.5z M87.4,41.6
			L87.4,41.6l-0.1,0.1l-0.1,0.1l0,0.1l1.7,0l-0.2-0.3l-0.1-0.1l-0.1,0l0,0.1l-0.1,0v-0.1h-0.2l0,0.1h-0.1l0-0.1h-0.2l0,0.1h-0.1
			l0-0.1l-0.1,0l0,0.1l-0.1,0l0-0.1L87.4,41.6L87.4,41.6L87.4,41.6z M92,41.5l-0.7,0v-0.7c0,0,0.1-0.3,0.3-0.3
			c0.3,0,0.3,0.3,0.3,0.3L92,41.5L92,41.5L92,41.5z M92.3,42l-1.5,0l0-0.1l0.1-0.1l0.1-0.1l0.4,0v-0.1l0.1,0l0,0.1l0.1,0l0-0.1h0.1
			l0,0.1l0.1,0l0-0.1H92l0,0.1l0.1,0l0.1,0l0,0l0,0.1L92.3,42L92.3,42L92.3,42L92.3,42z M93.1,39.2l0-0.2l0,0l0.2,0.1l0,0l0,0.1
			H93.1L93.1,39.2L93.1,39.2z M92.7,39.4L92.7,39.4l0.2,0.1l0.1,0.1c0,0,0.1,0,0.1,0c0,0,0.1,0,0.1,0l0-0.3l0.1,0c0,0,0.1,0,0.1,0
			c0,0,0,0,0,0v0.3h0.1h0.1l0.1,0l0.1-0.1l0.1-0.1l0,0l0,0.1l-0.1,0.1l-0.1,0l-0.2,0l-0.1,0l0,1.9l0.1,0.1l0.1,0l0,0l0.1,0l0.1,0
			l0,0.1l0,0.1l0,0.1v0l0,0l0.1,0l0.1,0l0,0l-1.3,0l0-0.1l0,0l0-0.1l0-0.1l0.1,0l0.1,0l0.1,0l0.1,0l0.1,0l0,0l0.1-0.1l0-1.8l-0.2,0
			l-0.2,0l-0.1,0l0-0.1L92.7,39.4L92.7,39.4L92.7,39.4z M95.2,41.6l-0.7,0l0-0.8c0,0,0-0.3,0.4-0.3c0.3,0,0.4,0.3,0.4,0.3L95.2,41.6
			L95.2,41.6L95.2,41.6z M95.5,42l-1.5,0l0.1-0.1l0.1-0.1l0,0l0.1,0l0.1,0l0.2,0l0-0.1h0.2c0,0,0,0.1,0,0.1c0,0,0.1,0,0.1,0v-0.1H95
			c0,0,0,0.1,0,0.1c0,0,0.1,0,0.1,0v-0.1h0.1v0.1l0.2,0l0,0.1l0,0.1L95.5,42C95.5,41.9,95.5,42,95.5,42C95.5,42,95.5,42,95.5,42
			L95.5,42L95.5,42z M89.3,41.4L89.3,41.4l0.1-0.1l0,0.1l0,0.2l-0.1,0.1l-0.2,0v-0.1l0.1,0l0.1,0V41.4L89.3,41.4L89.3,41.4z
			 M85.8,41.6l0-0.2l0.1,0l0.1,0.1l0.1,0c0,0,0-0.1,0-0.1c0,0,0-0.1,0-0.1l0.1,0l0,0.2l-0.1,0L85.8,41.6L85.8,41.6L85.8,41.6
			L85.8,41.6z M86.4,41.6l0-0.2l0.1,0l0.1,0v0.2l0.1,0l0-0.1l0.1,0l0.1,0l0,0.1l-0.1,0L86.4,41.6L86.4,41.6L86.4,41.6L86.4,41.6z
			 M89.7,41.6l0-0.1l0.1-0.1l0.1,0.1H90l0,0l0-0.1l0.1,0v0.3l-0.1,0l-0.1,0L89.7,41.6L89.7,41.6L89.7,41.6L89.7,41.6z M92.9,39
			l-9.9-0.1l0,0.1l0.1,0l0,0.1L83,39l0,0.1l0,0l0,0l0.1-0.1l0.1,0l0.1-0.1l0.1,0.1l0,0.1c0,0,0,0.1,0,0.2c0,0.1,0,0.2-0.1,0.2
			c0,0-0.1,0.1-0.1,0.1c-0.1,0-0.1,0-0.1,0c-0.1,0-0.1,0-0.1,0l0,1.6l0.1,0.1l0.1,0l0.1-0.1l0,0c0,0,0.1,0,0.1,0c0,0,0.1,0,0.1,0.1
			c0,0,0,0.1,0,0.1c0,0,0,0.1,0,0.1s0,0,0,0.1c0,0,0,0,0,0.1c0,0,0.1-0.1,0.1-0.1c0,0,0,0,0.1-0.1c0,0,0.1,0,0.1,0s0-0.1,0-0.1
			c0,0,0-0.6,0-0.6c0,0,0.1-0.4,0.6-0.4c0.5,0,0.5,0.4,0.5,0.4l0,0.8l0.2,0l0,0.1c0,0,0,0,0.1,0c0,0,0.1,0.1,0.1,0.1
			c0,0.1,0,0.1,0,0.1c0,0,0,0.1,0,0.1c0,0,1.7,0,1.7,0s0.1-0.1,0.1-0.1c0,0,0-0.1,0-0.1c0,0,0.1-0.1,0.1-0.1c0,0,0-0.1,0-0.1l0.2,0
			l0-0.8c0,0,0-0.5,0.6-0.5c0.5,0,0.6,0.5,0.6,0.5l0,0.8l0,0.1l0.2,0v0.2l0.1,0l0,0.1l0.2,0.3l1.7,0l-0.1-0.1l0-0.1l0.2-0.3h0.2
			l0-0.9c0,0,0.1-0.4,0.5-0.3c0.4,0,0.5,0.4,0.5,0.4l0,0.8l0.3,0.2l0-0.4l0.2,0l0.1,0.1l0.1,0.1l0.1,0l0-1.6l-0.3-0.1l-0.1-0.1
			l-0.1-0.2l0-0.2l0.1-0.2l0.1,0l0.3,0.2L92.9,39L92.9,39L92.9,39z M96.8,41.5L96.8,41.5l-0.1,0.1l-0.1,0.1l0,0l0,0l0,0
			c0,0-0.1,0-0.1,0c0,0,0,0.1,0,0.1c0,0,0.1,0,0.1,0l0.1,0l0.1,0c0,0,0.1,0,0.1,0c0,0,0.1,0,0.1,0l0-0.1c0,0,0-0.1,0-0.1
			C96.8,41.6,96.8,41.5,96.8,41.5C96.8,41.5,96.8,41.5,96.8,41.5L96.8,41.5L96.8,41.5z M97,41.6L97,41.6l0.2,0l0,0l0-0.1h0.1
			l0.1,0.1l0,0.2l-0.1,0h-0.1l0,0l-0.1,0l0,0l-0.1,0c0,0,0,0,0-0.1C97,41.7,97,41.6,97,41.6L97,41.6L97,41.6L97,41.6z M98,41.6
			L98,41.6l-0.1,0.1l0,0.1h0l0-0.1l-0.1,0c0,0-0.1,0.1-0.1,0.1c0,0,0,0.1,0,0.1c0,0,0.1,0.1,0.1,0.1l0.1,0l0.1,0l0.1,0l0.1,0
			L98,41.6L98,41.6L98,41.6L98,41.6L98,41.6z M98.3,41.8l0-0.1l0.1-0.1l0.1,0l0,0.1l0.1,0l0-0.1l0-0.1l0.1,0l0.1,0.1l0,0.1l-0.1,0.1
			l-0.1,0.1l-0.2,0L98.3,41.8L98.3,41.8L98.3,41.8z M99.4,41.8l0.1-0.2l0.1,0l0.1,0.1l0.1-0.1l0.1,0l0.1,0.1l0,0.2l-0.1,0l-0.1,0
			l-0.1,0.1l-0.1,0l0-0.1L99.4,41.8L99.4,41.8L99.4,41.8L99.4,41.8z M98.9,41.7L98.9,41.7l0.2,0l0.1,0l0-0.1l0.1-0.1h0.1l0,0.2
			l-0.1,0.1l-0.2,0L98.9,41.7L98.9,41.7L98.9,41.7L98.9,41.7z M95.7,41.7L95.7,41.7L95.7,41.7l0.3-0.1l0.1,0l0-0.2l0,0l0.1,0.1
			l0,0.2l0,0.1l-0.1,0.1H96l0,0l-0.1,0l0,0C95.8,41.8,95.8,41.7,95.7,41.7C95.7,41.7,95.7,41.7,95.7,41.7L95.7,41.7L95.7,41.7z
			 M107.1,53.9l-0.6-5.9l-2.3,1.8l0.2,4.4L107.1,53.9L107.1,53.9L107.1,53.9z M103.7,47.1l0-1.1l-0.2,0.1c0,0,0,1.8-0.5,2.7
			c-0.4,0.9-0.9,1.6-1.3,2c-0.4,0.4-0.7,0.7-1.2,1c-0.6,0.3-1.5,0.8-1.8,0.9c-0.2,0.1-0.6,0.2-0.6,0.2l0.2,0.2c0,0,1.4-0.4,1.7-0.6
			c0.3-0.2,0.7-0.4,0.7-0.4l0,5.2l1.4-0.1l0,0.5l-2.4,0.1l0.2-1.6l0.7-1.8l-0.1-0.1l-0.9,2l-0.7,1l-6.1-2.7l0,0.1l1.1,0.5l0.1,2.5
			l-0.2,0.1l0,0.4l1.1-0.1l0-0.3l1.5-0.2l0.1-1.2l0.4,0.4l1.9,0.8l0.5-0.7l-0.1,1.2l3.2-0.3l0-0.8l1.8-0.2l0-1.1l2-0.2l-0.1-1.3
			l1.4-0.1l-0.7-7.1l-1.4,1.2c0,0,0.6-1.1,0.8-1.8c0.2-0.7,0.3-1.6,0.3-1.6l-0.3-0.7c0,0,0.1,1.3-0.3,2.3c-0.4,0.9-0.8,1.5-1,2
			c-0.2,0.4-1.3,1.2-1.3,1.2c0,0,0.8-1.2,1-2.3c0.2-1.1,0.2-2.2,0.2-2.4c0-0.1,0-0.5,0-0.5l-0.3,0c0,0,0,2.1-0.2,2.7
			c-0.2,0.6-0.2,0.9-0.5,1.4c-0.3,0.5-0.6,1.2-0.8,1.4c-0.2,0.2-1,0.7-1,0.7s1-1.3,1.2-2C103.4,48.1,103.6,47.7,103.7,47.1
			L103.7,47.1L103.7,47.1z M91.9,2.3L89,1.9L88.8,2l0,0.2l0.1,0.1l3,0.3l2,0.4c0,0,0.6,0.2,0.7,0.3c0.1,0.1,0.4,0.6,0.5,0.8
			c0.1,0.2,0.5,0.6,0.7,0.6c0.2,0,0.6-0.2,0.6-0.5c0-0.3-0.5-0.5-0.6-0.6c-0.2-0.1-0.6-0.2-0.8-0.3c-0.1-0.1-0.4-0.5-0.5-0.5
			C94.2,2.7,92.5,2.3,91.9,2.3L91.9,2.3L91.9,2.3z M93.8,4.2l0.9-0.2c0,0,0.1-0.4-0.3-0.6c-0.4-0.2-1.1-0.3-1.5-0.4
			c-0.4-0.1-1.4-0.2-1.9-0.3c-0.5,0-2-0.2-2-0.2l-0.1,0.1l0,0.2l0,0.1c0,0,1.6,0.1,2.1,0.2c0.5,0,1.5,0.2,1.8,0.2
			c0.3,0.1,0.8,0.3,0.9,0.5C93.8,4,93.8,4.2,93.8,4.2L93.8,4.2L93.8,4.2z M89.9,3.3l-0.9,0l-0.2,0.1l0.1,0.2c0,0,1.9,0.1,2.2,0.2
			c0.4,0.1,1.6,0.2,1.7,0.3c0.1,0.1,0.1,0.2,0.1,0.2c0,0-1.4-0.2-1.9-0.2c-0.4-0.1-1.6-0.2-1.8-0.2C89.1,3.9,89,4,89,4l0,0.1
			l0.1,0.1c0,0,1.6,0.1,2.2,0.1c0.6,0.1,1.4,0.2,1.5,0.3c0.1,0,0.6,0,0.6,0c0.1-0.1,0.2-0.2,0.1-0.3c-0.1-0.2-0.1-0.3-0.3-0.4
			c-0.2-0.1-0.2-0.2-0.7-0.3c-0.5-0.1-1.4-0.2-1.6-0.2C90.8,3.4,90.2,3.3,89.9,3.3L89.9,3.3L89.9,3.3z M94.4,4.4c0.1,0,0.2,0,0.4,0
			c0.1,0.1,0.3,0.1,0.3,0.3c0,0.2-0.3,0.4-0.4,0.5c-0.1,0-0.7,0-0.9,0c-0.1,0-0.7,0-0.8,0c-0.1,0-0.6-0.1-1-0.2
			c-0.5-0.1-0.9-0.1-1.2-0.2c-0.3,0-1.1-0.1-1.2-0.1c-0.1,0-0.2-0.1-0.2-0.1c0,0,0.1-0.2,0.2-0.2c0.1,0,1.7,0.1,2.4,0.3
			c0.8,0.1,1.2,0.2,1.3,0.2c0.1,0,0.4-0.1,0.5-0.2C93.9,4.6,94.1,4.5,94.4,4.4L94.4,4.4L94.4,4.4z M89.8,5.8l-0.5-0.4
			c0,0,0.2,0,0.3-0.1c0.1,0,0.5-0.2,1.1-0.2c0.6,0,1,0.5,1,0.5s-0.2,0.1-0.3,0.1c-0.1,0-0.4,0.2-0.4,0.3c0,0.1,0.1,0.5,0.1,0.5
			c0.1,0-0.2,0-0.4,0c-0.1,0-0.5-0.2-0.7-0.3C89.9,6.1,89.9,6,89.8,5.8L89.8,5.8L89.8,5.8z M95.3,3.2l0-0.2c0,0,0.8,0.2,1,0.3
			c0.3,0.1,0.8,0.2,0.9,0.3c0.1,0.1,0,0.2,0,0.2c0,0,0.1,0.3,0.7,0.5c0.6,0.2,0.7,0.7,0.7,0.7c0,0-0.1,0.2-0.2,0.2
			c-0.1,0-0.7,0-1-0.2c-0.3-0.2-0.5-0.4-0.6-0.6c-0.1-0.2-0.1-0.4-0.3-0.6c-0.2-0.2-0.3-0.3-0.6-0.4C95.7,3.4,95.3,3.3,95.3,3.2
			L95.3,3.2L95.3,3.2z M96.8,4.9l-0.5-0.1c-0.4,0-0.8,0.1-1,0.2c-0.1,0.1-0.2,0.3-0.4,0.4c-0.2,0.1-0.8,0.1-0.8,0.1l1.1,0.3
			c0,0,0.1-0.2,0.5-0.2c0.4-0.1,0.6,0.1,0.9,0c0.4-0.1,0.5-0.2,0.5-0.3C97.1,5.1,97,5,96.8,4.9L96.8,4.9L96.8,4.9z M91.4,6.5
			l-0.2-0.2c0,0,0-0.1,0.2-0.1c0.1,0,0.4-0.3,0.8-0.2C92.6,6,92.8,6.1,93,6.3c0.3,0.2,0.3,0.4,0.3,0.5c0,0.1,0.1,0.1,0.1,0.2
			c0,0-0.4,0.4-0.7,0.3c-0.3-0.1-0.8-0.2-0.9-0.4C91.7,6.8,91.4,6.5,91.4,6.5L91.4,6.5L91.4,6.5z M93.1,6l-0.2-0.2c0,0,0.3,0,0.3,0
			c0.1,0,0.2-0.2,0.7-0.1c0.5,0.1,1,0.4,1,0.4s-0.6,0.1-0.7,0.4c-0.1,0.3,0.2,0.6,0.2,0.6S94,7.2,94,7.2c0,0-0.2-0.1-0.3-0.2
			c0-0.1-0.1-0.5-0.3-0.6C93.3,6.2,93.1,6.1,93.1,6L93.1,6L93.1,6z M91.1,7.2l0.3-0.2c0.1,0,0.3,0.3,0.8,0.5c0.5,0.2,1.1,0,1.1,0
			s-0.1,0.2,0,0.3c0,0.1,0.4,0.5,0.4,0.5S92.9,8,92.6,7.9c-0.4-0.1-0.8-0.1-0.8-0.2c0,0-0.2-0.2-0.3-0.3C91.3,7.3,91.1,7.2,91.1,7.2
			L91.1,7.2L91.1,7.2z M95.9,5.8l-0.2,0.1l1.7,0.7c0,0,0.2-0.2,0.6-0.1c0.4,0.1,0.8,0.1,0.9,0c0.2-0.1,0.4-0.2,0.3-0.4
			c-0.1-0.2-0.3-0.4-0.6-0.5c-0.3-0.1-0.6-0.1-1-0.1c-0.4,0.1-0.8,0.3-1,0.3C96.5,5.9,96,5.8,95.9,5.8L95.9,5.8L95.9,5.8z M96.4,6.9
			l0.2-0.2c-0.1,0,0,0-0.3-0.1c-0.3-0.1-0.4-0.3-0.8-0.3c-0.4,0-0.6,0.1-0.7,0.2c-0.1,0-0.4,0.1-0.5,0.2c0,0.1,0.1,0.3,0.3,0.5
			c0.2,0.1,0.2,0.4,0.2,0.4c0,0,0.9,0.4,1,0.4c0.1,0,0.4,0,0.4,0c0,0-0.1-0.1-0.2-0.2C96,7.5,96,7.3,96,7.1
			C96.1,7,96.3,6.9,96.4,6.9L96.4,6.9L96.4,6.9z M94.5,7.3L94.5,7.3c0.1,0,0.3,0.3,0.5,0.5c0.2,0.2,0.9,0.3,0.9,0.3s-0.4,0-0.5,0.2
			c-0.1,0.1-0.1,0.3-0.1,0.3s-0.4,0-0.6,0c-0.2,0-0.3-0.1-0.4-0.2c-0.1-0.1-0.1-0.2-0.3-0.4c-0.2-0.2-0.4-0.3-0.4-0.4
			c0,0,0.2-0.1,0.4-0.1C94.1,7.6,94.5,7.3,94.5,7.3L94.5,7.3L94.5,7.3z M98.5,4.1l-0.8-0.3l0,0.2l0.1,0.1c0,0,0.5,0.1,0.8,0.4
			c0.3,0.3,0.5,1.3,1,1.6c0.4,0.3,1.1,0.5,1.3,0.3c0.2-0.2,0-0.5-0.2-0.6c-0.2-0.1-0.6-0.4-0.8-0.5c-0.2-0.1-0.3-0.5-0.4-0.6
			C99.3,4.5,98.9,4.3,98.5,4.1L98.5,4.1L98.5,4.1z M98.3,7.7l0.1-0.3c0,0-0.7-0.3-0.8-0.4c-0.1,0-0.2-0.1-0.4-0.1
			C97,6.9,96.7,7,96.6,7c-0.1,0.1-0.3,0.1-0.3,0.2c0,0,0.1,0.2,0.2,0.4c0.1,0.1,0.1,0.2,0.1,0.2s0.5-0.1,0.8,0.1
			c0.3,0.2,0.6,0.4,0.6,0.4l0.6,0c0,0,0-0.2,0-0.2C98.4,7.9,98.3,7.8,98.3,7.7L98.3,7.7L98.3,7.7z M100.1,5.2l0-0.2
			c0,0,0.7,0.4,0.9,0.5c0.2,0.1,0.5,0.3,0.5,0.3c0,0,0.1,0.4,0.2,0.6c0.2,0.1,0.6,0.3,0.8,0.5c0.2,0.2,0.2,0.5,0.2,0.6
			c0,0.1-0.4,0.1-0.4,0.1c-0.1,0-0.5-0.1-0.7-0.3c-0.2-0.2-0.4-0.5-0.4-0.7c0-0.2,0-0.4-0.1-0.5c-0.1-0.1-0.3-0.4-0.5-0.5
			C100.5,5.4,100.2,5.2,100.1,5.2L100.1,5.2L100.1,5.2z M98,6.7l0.5,0.1c0.1,0,0.9-0.2,1.2-0.2c0.3,0,0.9,0,1.2,0.2
			c0.2,0.1,0.4,0.4,0.4,0.5c-0.1,0.2-0.4,0.3-0.6,0.2c-0.2,0-0.5-0.1-0.8-0.1c-0.2,0-0.5,0-0.6,0.1c-0.1,0-0.7-0.3-0.9-0.3
			c-0.2-0.1-0.6-0.3-0.6-0.3s0,0,0-0.1C97.9,6.6,98,6.6,98,6.7L98,6.7L98,6.7z M98.8,8.2l-0.2-0.6c0,0,0.9,0.3,1.4,0.6
			c0.6,0.4,1,0.9,1,0.9l-0.3,0.1l0,0.6l-0.4-0.3c0,0-0.1-0.4-0.5-0.8C99.4,8.4,98.8,8.2,98.8,8.2L98.8,8.2L98.8,8.2z M97.2,8.4
			l0.3-0.1c0,0-0.4-0.3-0.7-0.2c-0.3,0.1-0.5,0.2-0.7,0.3c-0.2,0.1-0.5,0.1-0.5,0.1c0,0-0.1,0.1-0.1,0.1c0,0,0.7,0.5,0.9,0.6
			c0.3,0.1,1,0.1,1,0.1s0-0.2,0-0.2C97.5,9,97.1,8.7,97.2,8.4L97.2,8.4L97.2,8.4z M99.2,8.6c-0.6-0.2-1.1-0.1-1.7-0.1
			c0,0,0.2,0.3,0.3,0.4c0.1,0.2,0.3,0.7,0.6,0.7c0.3,0.1,1,0,1.2-0.1c0.2,0,0.5,0,0.5,0S99.8,8.7,99.2,8.6L99.2,8.6L99.2,8.6z
			 M99.5,10.9c-0.3-0.2-0.6-0.5-0.8-0.8c0,0,0.7-0.1,0.9-0.1c0.2,0,0.9,0.2,0.9,0.3c0,0.1,0,0.2,0,0.2c0,0-0.1,0-0.2,0
			c0,0,0,0.3,0,0.5c0,0.2,0,0.5,0,0.5S99.8,11.1,99.5,10.9L99.5,10.9L99.5,10.9z M102.4,7.8l0.4,0.3c0,0,0.4,0.5,0.2,0.7
			c-0.2,0.2-0.6,0-0.7,0c-0.1,0-0.2-0.1-0.4-0.1c-0.2,0-0.5,0.1-0.5,0.1s-0.7-0.4-0.9-0.5c-0.2-0.1-0.8-0.4-0.8-0.5
			c0,0,0-0.1,0.1-0.1c0.1,0,0.7,0.2,0.9,0.3c0.2,0,1.1-0.1,1.1-0.1C101.9,7.7,102.2,7.7,102.4,7.8L102.4,7.8L102.4,7.8z M100.8,10.1
			l0.1-0.8c0,0,0.5,0.2,0.8,0.2c0.3,0.1,0.5,0.3,0.6,0.5c0.1,0.2,0.2,0.3,0.2,0.3s-0.3,0.1-0.2,0.1c0,0,0,1,0,1s-0.3-0.1-0.5-0.2
			c-0.2-0.1-0.6-0.5-0.7-0.6C100.9,10.3,100.8,10.2,100.8,10.1L100.8,10.1L100.8,10.1z M100.7,10.8l-0.1-0.2c0,0,0.2,0,0.3,0
			c0,0,0.4,0.5,0.6,0.6c0.2,0.1,0.7,0.3,0.7,0.3l0,0.1c0,0-0.1-0.1-0.1-0.1c0,0-0.2,0-0.2,0.1c0,0.1,0.1,0.4,0.1,0.5
			c0,0.1,0.1,0.3,0.1,0.4c0,0.1-0.7-0.4-0.8-0.6c-0.1-0.2-0.3-0.4-0.3-0.6C100.7,11.2,100.7,10.9,100.7,10.8L100.7,10.8L100.7,10.8z
			 M102.6,11l0-0.5c0,0,0.3,0.2,0.5,0.3c0.2,0.1,0.6,0.2,0.8,0.6c0.2,0.4,0.2,1,0.2,1s-0.1,0-0.2,0c0,0-0.3-0.4-0.6-0.3
			c-0.2,0.1-0.1,0.4-0.1,0.4s-0.6-0.6-0.7-0.8C102.5,11.6,102.6,11.3,102.6,11L102.6,11L102.6,11z M102.1,12.7l-0.1-0.8
			c0,0,0.4,0.1,0.5,0.2c0.1,0.1,0.8,0.8,0.8,0.8s0,0.5,0,0.5c0,0.1,0,0.2,0,0.2s-0.3,0-0.3,0c-0.1,0-0.7-0.4-0.8-0.6
			C102.2,12.9,102.1,12.8,102.1,12.7L102.1,12.7L102.1,12.7z M101.8,6l0.1-0.1c0.1,0,1.1,0.6,1.4,0.9c0.3,0.3,0.9,0.8,0.9,0.8
			L103.8,8c0,0,1.4,1.2,1.9,1.7c0.6,0.6,1.4,1.4,1.4,1.5c0,0,0.4,0.2,0.6,0.5c0.1,0.3,0,1.1,0,1.1s-0.2,0-0.2,0c0,0-0.5-0.4-0.5-0.4
			s0-0.8,0-0.9c0-0.2-1.1-1.3-1.4-1.5c-0.2-0.2-1.6-1.4-1.7-1.6c-0.2-0.2-0.7-0.2-0.9-1c-0.2-0.7,0-0.5-0.1-0.7
			c-0.1-0.2-0.3-0.4-0.6-0.6C102,6.1,101.8,6,101.8,6L101.8,6L101.8,6z M103.5,8.6l-0.2,0c0,0,0,0.1,0,0.1c0,0,1.3,1.1,1.5,1.3
			c0.1,0.2,1,1.1,1,1.1c0,0,0.1,0.1,0.1,0.1c0,0.1-0.1,0.1-0.1,0c0,0-0.9-0.8-1.1-1c-0.3-0.2-0.6-0.6-0.7-0.7
			c-0.1-0.1-0.4-0.4-0.5-0.4c-0.1-0.1-0.1-0.1-0.2,0c-0.1,0-0.1,0.1-0.1,0.1c0,0.1,0.7,0.6,0.8,0.7c0.1,0.1,0.9,0.8,1,0.9
			c0.1,0.1,0.7,0.7,0.7,0.8c0,0.1,0.5,0.5,0.7,0.5c0.2,0,0.4-0.1,0.4-0.1c0-0.1,0.1-0.4,0-0.5c-0.1-0.1-0.9-0.9-1.1-1.1
			c-0.2-0.2-0.6-0.5-0.7-0.7c-0.2-0.2-0.6-0.5-0.7-0.6C104.1,9,103.6,8.7,103.5,8.6L103.5,8.6L103.5,8.6z M104.7,8l-0.1-0.1
			c0,0-0.1,0.1-0.1,0.1c0,0,0,0.1,0.1,0.2c0.1,0.1,1.6,1.6,1.8,1.7c0.2,0.2,1.4,1.3,1.5,1.7c0.2,0.3,0.2,0.6,0.2,0.7
			c0,0.2,0,0.7,0,0.9c0,0.2,0,0.6,0.3,0.7c0.3,0.1,0.5-0.2,0.5-0.2c0-0.1,0-0.6-0.2-0.8c-0.1-0.3-0.3-0.4-0.3-0.6
			c0-0.1-0.1-0.7-0.1-0.7s-1.3-1.5-1.7-1.9c-0.4-0.4-1.1-1-1.4-1.3C105,8.2,104.7,8,104.7,8L104.7,8L104.7,8z M102.9,9.8l0.2-0.1
			c0,0,1.3,1.1,1.6,1.5c0.4,0.4,1.1,1.2,1.2,1.3c0.1,0.1,0.6,0.1,0.7,0.1c0.2,0,0.6,0.3,0.8,0.5c0.1,0.2,0.3,0.4,0.3,0.5
			c0,0.1-0.5,0.1-0.5,0c-0.1-0.1-0.3-0.4-0.6-0.5C106.3,13,106,13,106,13s-1.2-1.2-1.4-1.5c-0.2-0.2-1.7-1.5-1.7-1.5
			S102.8,9.8,102.9,9.8L102.9,9.8L102.9,9.8z M103.6,12.8l0-0.4c0.1,0,0.2,0.3,0.3,0.3c0.1,0,0.6-0.1,0.8,0c0.2,0.1,0.5,0.6,0.5,0.7
			c0,0.1-0.1,1.3-0.1,1.4c0,0.1,0,0.3,0.1,0.4c0.1,0,0.2,0.2,0.2,0.2s-0.3-0.1-0.3-0.2c0,0,0-0.2-0.1-0.4c-0.1-0.2-0.3-0.4-0.6-0.6
			c-0.3-0.1-0.4-0.3-0.5-0.5c-0.1-0.2-0.2-0.4-0.2-0.5C103.6,13.3,103.6,12.9,103.6,12.8L103.6,12.8L103.6,12.8z M109.1,12.5
			l-0.2-0.2c0,0-0.1,0-0.1,0l-0.1,0.1l0.1,0.1c0,0,0.2,0.3,0.2,0.4c0,0.1,0.2,0.4,0.2,0.4l0.1-0.1c0,0,0-0.1,0-0.2
			C109.2,12.7,109.1,12.5,109.1,12.5L109.1,12.5L109.1,12.5z M106.5,13.3l-0.2-0.1c0,0-0.1,0.1-0.1,0.1s0.6,0.9,0.7,0.9
			c0.1,0,0.4-0.1,0.6,0c0.2,0.1,0.4,0.6,0.6,0.6c0.2,0.1,0.7,0.1,0.7,0.1s0.2-0.3-0.2-0.6c-0.3-0.3-0.5-0.4-0.9-0.5
			c-0.4-0.1-0.6-0.1-0.6-0.1C106.9,13.8,106.5,13.3,106.5,13.3L106.5,13.3L106.5,13.3z M105.4,13.9l0-0.4c0,0,0.1,0.2,0.2,0.2
			c0.1,0,0.4,0.1,0.6,0.2c0.1,0.1,0.3,0.4,0.3,0.4c0,0,0.2,0.2,0.3,0.4c0.1,0.2,0.1,0.5,0.1,0.5s-0.5-0.3-0.8-0.3
			c-0.2,0.1-0.2,0.2-0.2,0.2s-0.5-0.5-0.6-0.7C105.3,14.3,105.4,14.1,105.4,13.9L105.4,13.9L105.4,13.9z M103.9,14.8l-0.7-1
			c0,0,0.3,0.2,0.3,0.2c0,0,0.6,0.5,0.7,0.6c0.1,0.1,0.4,0.4,0.4,0.5c0,0.1,0,0.2-0.1,0.3C104.4,15.4,104,14.9,103.9,14.8
			L103.9,14.8L103.9,14.8z M109.8,12.1L109.8,12.1c0.1,0,0.3,0.2,0.3,0.2c0,0.1,0.2,0.3,0.2,0.3c0,0-0.5,0.5-0.5,0.6
			s-0.1,0.6-0.1,0.6c0,0,0.4-0.2,0.5-0.3c0.1-0.1,0.4-0.3,0.5-0.3c0.1,0,0.2,0.4,0.2,0.4c0,0,0.2,0.2,0.2,0.2c0,0-0.1,0.2-0.2,0.2
			c-0.1,0-0.6,0-0.8,0.1c-0.2,0-0.3,0-0.4,0c-0.1,0-0.3-0.2-0.3-0.4s0.1-0.7,0.2-0.8c0-0.1,0.1-0.6,0.1-0.6
			C109.7,12.2,109.8,12.1,109.8,12.1L109.8,12.1L109.8,12.1z M109.1,14.5l0-0.6c0,0,0.2,0.3,0.3,0.3c0.1,0,0.4,0,0.4,0.1
			c0.1,0.1,0.2,0.4,0.2,0.6c0,0.2,0,0.5,0,0.6c0,0.1-0.2,0.2-0.4,0.1c-0.2-0.1-0.3-0.3-0.4-0.5C109.2,15,109.1,14.7,109.1,14.5
			L109.1,14.5L109.1,14.5z M107.5,14.6l-0.2-0.2c-0.1,0,0,0.1,0,0.2c0,0,0.7,1.3,0.8,1.3c0,0,0.4,0.2,0.6,0.4
			c0.3,0.2,0.4,0.5,0.5,0.5c0.1,0.1,0.6,0.2,0.7,0c0.2-0.2,0.1-0.6-0.3-0.9c-0.3-0.3-0.6-0.5-1-0.6c-0.4-0.1-0.6-0.1-0.7-0.2
			C107.8,15,107.6,14.7,107.5,14.6L107.5,14.6L107.5,14.6z M106.3,15.7l-0.1-0.5c0,0,0.4,0.2,0.6,0.3c0.1,0,0.4,0,0.4,0.1
			c0.1,0.1,0.6,0.6,0.7,0.8c0.1,0.2,0,0.5,0,0.5c0,0-0.4,0-0.5-0.2c-0.1-0.1-0.3-0.2-0.3-0.1c0,0-0.2,0.2-0.1,0.3c0,0.1,0,0.4,0,0.4
			c0,0-0.1,0-0.1,0s0-0.2,0-0.4c0-0.1,0.1-0.4,0-0.5C106.8,16.2,106.4,15.8,106.3,15.7L106.3,15.7L106.3,15.7z M104.8,15.6l0.1-0.2
			c0.1,0.1,0.3,0.2,0.5,0.2c0.2,0,0.6,0,0.8,0.2c0.2,0.2,0.4,0.3,0.5,0.7c0.1,0.4,0,0.6,0,0.8c0,0.1-0.8,0-0.8-0.1
			c0,0-0.6-0.6-0.7-1C105,16,104.8,15.7,104.8,15.6L104.8,15.6L104.8,15.6z M110.2,14.6l0-0.2c0,0,0.4,0.5,0.5,0.8
			c0.2,0.3,0.3,0.4,0.2,0.5c0,0.1-0.3,0.6,0,1.1c0.3,0.5,0.2,1,0.1,1.1c-0.1,0.1-0.4,0.1-0.7-0.4c-0.3-0.5-0.3-1.1-0.2-1.2
			c0.1-0.2,0.3-0.7,0.2-0.9C110.4,15.1,110.3,14.7,110.2,14.6L110.2,14.6L110.2,14.6z M107.4,17.6l-0.1-0.7c0,0,0.5,0.2,0.7,0.3
			c0.2,0.1,0.4,0.1,0.5,0.2c0.1,0.1,0.4,0.5,0.4,0.7c0,0.2,0.1,0.4,0.1,0.4c-0.1,0-0.3-0.1-0.3-0.2c-0.1-0.1-0.2-0.2-0.3-0.2
			c-0.1,0.1-0.1,0.3-0.2,0.3c-0.1,0.1-0.2-0.2-0.2-0.4C107.8,18,107.4,17.7,107.4,17.6L107.4,17.6L107.4,17.6z M109.2,17.9l-0.7-1.5
			c0.1,0,0.5,0.4,0.6,0.5c0.1,0.1,0.7,0.2,1.1,0.6c0.4,0.4,0.8,0.7,0.8,1c0.1,0.2-0.1,0.5-0.2,0.5c-0.1,0-0.6-0.4-0.9-0.7
			C109.6,17.9,109.3,17.9,109.2,17.9L109.2,17.9L109.2,17.9z M111.4,16.5L111.4,16.5c-0.1-0.1-0.1,0-0.1,0c0,0,0.4,0.7,0.3,1
			c-0.1,0.3-0.4,0.9-0.3,1.3c0,0.4,0.4,1,0.6,1c0.1,0.1,0.4-0.3,0.4-0.5c0-0.3-0.3-0.7-0.3-0.9c-0.1-0.2,0.1-0.7,0.1-0.7
			C112,17.8,111.4,16.6,111.4,16.5L111.4,16.5L111.4,16.5z M106.1,17.7l-0.1-0.2c0,0,0.5,0.1,0.6,0.1c0.1,0,0.4,0,0.5,0.1
			c0.2,0.1,0.6,0.7,0.6,0.7c0,0.1-0.4-0.2-0.5,0c-0.1,0.2,0,0.6,0,0.7c0,0.1-0.1,0.4-0.1,0.4c0,0-0.1-0.2-0.3-0.4
			c-0.2-0.1-0.5-0.6-0.5-0.8C106.2,18.1,106.1,17.8,106.1,17.7L106.1,17.7L106.1,17.7z M112.3,18.3l-0.1-0.1l-0.1,0.1
			c0,0,0.3,0.9,0.3,1.2c0,0.3-0.3,0.8-0.3,0.8c0,0.1,0,0.8,0,0.8l1.1-0.1c0,0-0.3-1.1-0.4-1.5C112.6,19.1,112.3,18.3,112.3,18.3
			L112.3,18.3L112.3,18.3z M109.7,18.5l-0.1-0.2l-0.2,0c0,0,0.7,1.8,0.8,1.9c0.1,0.1,0.4,0.2,0.5,0.3c0.1,0.1,0.5,0.9,0.8,0.8
			c0.2-0.1,0.5-0.7,0.2-1.2c-0.3-0.4-1-0.6-1.3-0.9C110,19,109.7,18.6,109.7,18.5L109.7,18.5L109.7,18.5z M108.3,18.5l0-0.1
			c0,0,0.1,0.2,0.3,0.3c0.1,0,0.5-0.1,0.8,0.7c0.3,0.8,0.1,1.6,0.1,1.6s-0.2-0.4-0.2-0.9c0-0.5-0.2-0.5-0.4-0.8
			c-0.2-0.3-0.3-0.4-0.4-0.5C108.4,18.7,108.3,18.6,108.3,18.5L108.3,18.5L108.3,18.5z M107.4,19.1l0-0.5c0,0,0.2,0.2,0.3,0.2
			c0.1,0,0.2,0,0.4,0c0.2,0.1,0.6,0.5,0.8,0.9c0.2,0.4,0.2,0.9,0.2,1c0,0.1,0.4,0.5,0.4,0.5l-0.1,0.3l-0.1-0.2c0,0-0.3-0.3-0.3-0.3
			c-0.1-0.1-0.1-0.2-0.3-0.3c-0.1-0.1-0.4-0.1-0.6-0.1c-0.2-0.1-0.7-0.5-0.7-0.8C107.4,19.6,107.4,19.2,107.4,19.1L107.4,19.1
			L107.4,19.1z M107.7,21.7l0.1-1c0,0,0.4,0.4,0.5,0.5c0.2,0.1,0.3,0.3,0.4,0.4c0.1,0.1,0.1,0.5,0.1,0.5s-0.3-0.3-0.5-0.3
			c-0.1,0.1-0.2,0.2-0.2,0.3c0,0.1-0.1,0.2-0.1,0.3c0,0-0.1,0.5-0.1,0.5s-0.1-0.4-0.1-0.6C107.8,22.2,107.7,21.8,107.7,21.7
			L107.7,21.7L107.7,21.7z M109.9,21.5l0-0.2l-0.1,0c0,0,0,0.1-0.1,0.2c-0.1,0.1-0.4,0.3-0.4,0.6c-0.1,0.2-0.1,0.7,0,0.9
			c0.1,0.2,0.2,0.7,0.2,0.7s0.1-0.2,0.2-0.2c0.1,0,0.1-0.1,0.1-0.1c0,0,0.1-0.5,0.3-0.5c0.1,0,0.4,0.3,0.4,0.3s0-0.8-0.2-1.1
			C110.2,21.8,109.9,21.5,109.9,21.5L109.9,21.5L109.9,21.5z M108.9,22.7l-0.4-0.5c0,0-0.3,0.8-0.2,1.1c0.2,0.4,1,1.1,1,1.1
			c0,0,0.1-0.5,0.1-0.5s-0.3-0.2-0.3-0.4C109.1,23.4,109,22.8,108.9,22.7L108.9,22.7L108.9,22.7z M110,23.5l0.2-0.4l0.1,0.1
			c0,0,0.1,0.3,0.2,0.4c0.1,0.1,0.2,0.3,0.3,0.4c0,0.1,0,1,0,1s-0.1-0.2-0.2-0.1c0,0.1-0.3,0.4-0.3,0.4l-0.7-0.7
			c0,0,0.1-0.6,0.1-0.8c0-0.1,0,0,0.1-0.1C109.9,23.6,110,23.5,110,23.5L110,23.5L110,23.5z M110.7,25.4l-0.1-0.1
			c0,0-0.2,0.2-0.2,0.2c0,0,0.4,0.5,0.4,0.5s0-0.3,0-0.4C110.9,25.6,110.7,25.4,110.7,25.4L110.7,25.4L110.7,25.4z M112.3,21.7
			L112.3,21.7l-0.2-0.1l-0.1,0.1c0,0,0,0.1,0,0.1c0,0,0.3,1.3,0.4,1.8c0.1,0.6,0.2,1.8,0.2,1.8l-0.1,0.1l-0.1,0c0,0-0.2-1.7-0.2-1.9
			c0-0.2-0.2-0.9-0.2-1.1c0-0.1-0.1-0.5-0.1-0.5c0,0-0.1-0.1-0.1-0.1c-0.1,0-0.1,0.1-0.1,0.1c0,0,0,0.1,0,0.1c0,0,0.2,0.9,0.3,1.3
			c0,0.3,0.2,1.8,0.2,2c0,0.2,0.1,0.6,0.1,0.7c0.1,0.1,0.2,0.3,0.3,0.4c0,0,0.4-0.3,0.4-0.4c0-0.1,0.1-0.4,0.1-0.4
			c0-0.1-0.1-0.1-0.1-0.2c0-0.1-0.2-1.4-0.2-1.5c0-0.1-0.1-0.9-0.1-1c0-0.1-0.1-0.6-0.2-0.8C112.4,22,112.3,21.7,112.3,21.7
			L112.3,21.7L112.3,21.7z M112.8,21.5l-0.1-0.1l-0.1,0l-0.1,0l-0.1,0.1c0,0,0.3,1.4,0.4,2c0.1,0.6,0.3,2.2,0.3,2.4
			c0,0.2-0.1,0.4-0.2,0.5c-0.1,0.1-0.4,0.4-0.4,0.4l0.1,0.6c0,0,0.1,0.2,0.1,0.2c0,0,0.6-0.5,0.7-0.9c0.1-0.4-0.1-0.7-0.1-0.8
			c0-0.1-0.2-1.9-0.3-2.1c0-0.2-0.2-1.4-0.3-1.5C113,22.2,112.9,21.6,112.8,21.5L112.8,21.5L112.8,21.5z M111.3,22.4L111.3,22.4
			c-0.1-0.1-0.2-0.1-0.2,0c0,0.1,0.3,1.6,0.3,2c0.1,0.5,0.2,2.2,0.2,2.2c0,0,1.1,1.3,1.1,1.3c0,0,0-0.1,0-0.3c0-0.2-0.1-0.5-0.2-0.7
			c-0.1-0.2-0.5-0.6-0.5-0.7c0-0.1-0.2-1.7-0.2-1.9c0-0.2-0.3-1.8-0.3-1.9C111.3,22.5,111.3,22.4,111.3,22.4L111.3,22.4L111.3,22.4z
			 M113.7,22l-0.1-0.2c0,0-0.1,0-0.1,0.1c0,0.1,0.1,1.1,0.2,1.7c0.1,0.6,0.2,2,0.3,2.2c0,0.2,0.1,0.9,0,1.3
			c-0.2,0.4-0.4,0.7-0.5,0.7c0,0-0.3,0.3-0.3,0.3c0,0,0,0.1,0,0.2c0,0,0.5,0.6,0.5,0.6s0.2-0.5,0.2-0.7c0-0.2,0-0.5,0.1-0.6
			c0.1-0.2,0.3-0.3,0.4-0.5c0.1-0.1-0.1-2.1-0.2-2.5c0-0.4-0.2-1.3-0.2-1.6C113.8,22.8,113.7,22.1,113.7,22L113.7,22L113.7,22z
			 M114.3,27.9L114.3,27.9l-0.1-0.2l-0.1,0l-0.1,0.1c0,0,0.1,0.6-0.1,0.8c-0.1,0.2-0.2,0.4-0.2,0.4s0.1,0.1,0.1,0.1
			c0,0,0.3,0.3,0.3,0.3l0.1-0.1c0,0,0-0.8,0-0.9C114.3,28.5,114.3,27.9,114.3,27.9L114.3,27.9L114.3,27.9z M109,28.3l-0.1-0.2
			c0,0-0.3,0.6-0.4,1.1c-0.1,0.5,0,0.5-0.1,0.9c-0.1,0.3-0.1,0.5,0,0.6c0,0.1,0.1,0.2,0.1,0.2s0.1-0.3,0.2-0.3
			c0-0.1,0.2-0.2,0.2-0.2l0.3,0.3c0,0,0-0.2,0-0.3c0,0-0.2-0.2-0.2-0.3c0-0.1,0-0.3,0-0.5c0-0.2,0.2-0.5,0.2-0.6
			C109.2,28.7,109,28.3,109,28.3L109,28.3L109,28.3z M109.4,28.7l0.3-0.3l0.6,0.7c0,0-0.1,0.6-0.3,0.9c-0.3,0.2-0.6,0.5-0.6,0.5
			s-0.3-0.3-0.3-0.7c0-0.4,0.1-0.5,0.1-0.5C109.3,29.2,109.3,28.8,109.4,28.7L109.4,28.7L109.4,28.7z M110.3,30.2l0.3-0.6
			c0,0,0,0.3,0.1,0.4c0.1,0.1,0.2,0.3,0.2,0.6c0,0.3-0.2,1.1-0.2,1.1c0,0-0.2-0.7-0.5-0.7c-0.3,0-0.5,0.3-0.5,0.3l-0.2-0.4
			c0,0,0.2-0.3,0.3-0.3C109.9,30.5,110.2,30.4,110.3,30.2L110.3,30.2L110.3,30.2z M109,31l-0.1-0.4l-0.1,0c0,0-0.2,0.3-0.3,0.4
			c-0.1,0.1-0.3,0.2-0.4,0.5c-0.1,0.2,0,0.9,0,0.9s0.2,0,0.3,0.1c0.1,0.1,0.2,0.4,0.2,0.4s0.1-0.5,0.3-0.8c0.1-0.3,0.5-0.5,0.5-0.5
			s-0.1-0.2-0.1-0.3C109.2,31.2,109,31.1,109,31L109,31L109,31z M112.7,31.9l0.1-0.2l-1.3-1.4l0,0.2c0,0,0.2,0.1,0.2,0.3
			c0,0.2,0,0.9,0.2,1.1c0.2,0.2,0.4,0.3,0.5,0.2C112.6,32.1,112.7,31.9,112.7,31.9L112.7,31.9L112.7,31.9z M112.8,32.2l0.2-0.2
			l0.5,0.6c0,0-0.2,0.6-0.3,0.9c-0.1,0.2-0.2,0.4-0.4,0.4c-0.2,0-0.4-0.3-0.3-0.8C112.5,32.4,112.7,32.3,112.8,32.2L112.8,32.2
			L112.8,32.2z M111.6,31.2l0-0.2c0,0,0-0.1,0-0.1c0,0-0.1,0.1-0.1,0.1l-0.2,1c0,0-0.1,0.4,0,0.6c0.1,0.2,0.2,0.4,0.2,0.6
			c0,0.2,0,0.7,0.1,0.9c0.1,0.2,0.2,0.3,0.2,0.3s0.5-0.1,0.5-0.4c0-0.3,0-0.8-0.1-1.3c-0.1-0.5-0.5-0.7-0.5-0.9
			C111.6,31.8,111.6,31.3,111.6,31.2L111.6,31.2L111.6,31.2z M109.8,31.5l0.2-0.3l0.1,0.1l0.1,0.2c0,0,0.3,0.5,0.3,0.7
			c0,0.2-0.1,0.6-0.2,0.7c0,0.1-0.2,0.4-0.2,0.4s-0.2-0.6-0.5-0.6c-0.3,0-0.6,0.5-0.6,0.5s-0.2-0.1-0.2-0.4c0-0.3,0.1-0.8,0.3-1
			C109.5,31.8,109.7,31.6,109.8,31.5L109.8,31.5L109.8,31.5z M108.1,32.8l0.1-0.1c0,0,0.3,0.2,0.2,0.3c0,0.1,0.1,0.3,0.1,0.4
			c0.1,0.1,0.3,0.2,0.3,0.5c0,0.2,0,0.8-0.1,0.8c0,0-0.2-0.3-0.4-0.3c-0.2,0.1-0.5,0.4-0.5,0.4c0,0-0.1,0-0.1,0
			c0,0.1-0.3-0.1-0.2-0.6c0.1-0.5,0.2-0.9,0.3-1C108.1,33,108.1,32.8,108.1,32.8L108.1,32.8L108.1,32.8z M113.6,32.9L113.6,32.9
			c0-0.1,0.1,0,0.1,0c0,0,0,0.1,0,0.1c0,0-0.2,1-0.2,1.1c0,0.1-0.1,0.3-0.2,0.3c-0.1,0-0.3,0.1-0.4,0.3c-0.1,0.1-0.1,0.2-0.1,0.4
			c0,0.2,0,0.4-0.2,0.5c-0.2,0.1-0.3,0.2-0.4,0.3c0,0.1-0.6,1.5-0.7,1.7c-0.1,0.2-0.9,1.8-0.9,2c-0.1,0.2-0.2,0.7-0.3,0.9
			c-0.1,0.2-0.4,0.5-0.6,0.6c-0.2,0.1-0.5,0.2-0.6,0.2c-0.1,0-0.2-0.1-0.2-0.2c0-0.1,0.2-0.6,0.3-0.7c0.1-0.1,0.7-0.2,0.8-0.4
			c0.1-0.1,0.3-0.5,0.4-0.7c0.1-0.2,0.8-1.6,0.9-1.9c0.1-0.3,0.5-1.3,0.5-1.5c0-0.2,0-0.7,0.1-0.9c0.1-0.3,0.4-0.7,0.8-0.9
			c0.4-0.2,0.4-0.1,0.5-0.3c0.1-0.1,0.2-0.5,0.3-0.6C113.5,33.2,113.6,32.9,113.6,32.9L113.6,32.9L113.6,32.9z M111,33.1L111,33.1
			c0.1-0.1,0.2,0,0.2,0c0,0-0.1,1,0,1.3c0.1,0.2,0.5,0.8,0.5,1.3c0,0.4-0.1,0.5-0.1,0.6c-0.1,0.1-0.2,0.2-0.5,0.8
			c-0.2,0.6-0.4,1-0.5,1.2c-0.1,0.2-0.3,0.5-0.4,0.8c-0.1,0.2-0.1,0.3-0.1,0.4c0,0.1-0.2,0.3-0.3,0.4c-0.2,0.1-0.4,0.1-0.5,0.1
			c0,0-0.2-0.2,0-0.8c0.2-0.5,0.7-1.3,0.9-1.8c0.2-0.5,0.6-1.2,0.6-1.6c0-0.4,0-0.5-0.1-0.6c0-0.1-0.1-0.2-0.1-0.3
			c0-0.1,0.3-0.9,0.3-1.1C110.9,33.5,111,33.1,111,33.1L111,33.1L111,33.1z M110.9,36.6L110.9,36.6c-0.1,0-0.2-0.1-0.5,0.6
			c-0.3,0.7-0.4,0.9-0.5,1.1c-0.1,0.2-0.1,0.3-0.1,0.4c0,0.1,0.1,0,0.1,0c0,0,0.3-0.4,0.5-0.9c0.2-0.4,0.3-0.7,0.4-0.9
			C111,36.7,110.9,36.6,110.9,36.6L110.9,36.6L110.9,36.6z M109.8,33.5l-0.1-0.3c-0.1,0-0.1,0-0.2,0.1c0,0.1-0.4,0.3-0.4,0.3
			s0.1,0.5,0,0.7c-0.1,0.2-0.2,0.6-0.3,0.6c0,0,0,0.2,0,0.2c0,0,0,0.5,0,0.5s0.3-0.3,0.4-0.3c0.1,0,0.3,0,0.4,0c0,0,0.4-1.1,0.3-1.3
			C110,33.7,109.9,33.7,109.8,33.5L109.8,33.5L109.8,33.5z M108.5,34.6L108.5,34.6c0.1,0,0.3,0.7,0.3,1.2c0,0.5-0.2,1-0.5,1.2
			c-0.2,0.2-0.5,0.4-0.5,0.4c0,0,0-0.3-0.1-0.5c-0.1-0.2-0.2-0.5-0.2-0.7c0-0.2,0-0.5,0.2-0.8c0.2-0.2,0.4-0.3,0.5-0.4
			C108.2,34.8,108.5,34.6,108.5,34.6L108.5,34.6L108.5,34.6z M109.5,35.9l0-0.4l-0.5,0.4c0,0,0,0.5-0.2,0.9
			c-0.2,0.4-0.9,0.8-0.9,0.8l-0.1,0.4c0,0,0.5-0.2,0.6-0.1c0.1,0.1,0,0.4,0,0.4c0,0,0.7-0.8,0.9-1.3
			C109.4,36.3,109.5,36.1,109.5,35.9L109.5,35.9L109.5,35.9z M107.2,36.1L107.2,36.1L107.2,36.1l-0.5,0.5l0.4,1.3l0.1,0.1
			c0,0,0.2-0.3,0.3-0.6c0-0.3,0-0.4,0-0.5c0-0.1-0.1-0.2-0.1-0.3C107.3,36.4,107.2,36.1,107.2,36.1L107.2,36.1L107.2,36.1z
			 M108.1,38.4l0-0.4c0,0-0.3,0.1-0.4,0.1c-0.1,0-0.3,0-0.4,0c0,0-0.1,0.1-0.1,0.1c0,0,0.4,1.3,0.4,1.3s0.3-0.4,0.4-0.7
			C108.2,38.6,108.1,38.6,108.1,38.4L108.1,38.4L108.1,38.4z M108.2,40.2l0-0.2l-0.1-0.1l-0.1,0.1l-0.1,0.3c0,0,0.1,0.2,0.1,0.2
			C108.1,40.4,108.2,40.2,108.2,40.2L108.2,40.2L108.2,40.2z M110.2,35.5L110.2,35.5l0.2,0l0,0.2c0,0-0.5,1.2-0.6,1.5
			c-0.1,0.3-0.6,1.4-0.7,1.5c-0.1,0.2-0.2,0.3-0.2,0.4c0,0.1,0.1,0.6,0,1.1c-0.1,0.4-0.5,1-0.5,1l-0.2-0.5c0,0,0.3-0.3,0.3-0.7
			c0-0.3-0.1-0.5-0.1-0.6c0.1-0.1,0.8-1.7,1.1-2.1c0.2-0.4,0.5-1.3,0.6-1.4C110,35.8,110.2,35.5,110.2,35.5L110.2,35.5L110.2,35.5z
			 M112.5,36.5l0.1-0.1l0,0.1c0,0-0.6,1.6-0.9,2.2c-0.3,0.6-1.2,2.4-1.3,2.5c-0.1,0.1-0.3,0.2-0.4,0.2c-0.1,0-0.3,0.1-0.3,0.1
			c-0.1,0.1-0.5,0.6-0.7,0.7c-0.2,0.1-0.3,0.1-0.3,0.1s-0.3-0.8-0.3-0.7c0,0,0.8-0.2,1-0.3c0.2-0.1,0.7-0.3,0.7-0.4
			c0-0.1,0.7-1.1,1.2-2.2c0.5-1.2,0.8-2,0.9-2.1C112.3,36.6,112.5,36.5,112.5,36.5L112.5,36.5L112.5,36.5z M109.9,41.8l0.2,0l0,0.2
			c0,0-0.5,0.7-0.6,0.9c-0.1,0.2-0.4,0.5-0.4,0.5l-0.1-0.6l0.1,0c0,0,0.4-0.1,0.5-0.3C109.6,42.2,109.8,41.8,109.9,41.8L109.9,41.8
			L109.9,41.8z M105.6,37.8l2.8,7.4c0,0,0.5-0.6,0.5-0.6c0,0-0.1-0.5-0.1-0.7c0-0.2-2.7-7.3-2.7-7.3l-1.4,2.4l2.6,7.3l0.6-0.7
			l-2.8-7.2L105.6,37.8L105.6,37.8L105.6,37.8z M104.3,40.6l0.4-0.6l0.4,0.9c0,0-0.3,0-0.4,0.1c-0.1,0-0.3,0.1-0.3,0.1
			C104.4,41.1,104.3,40.8,104.3,40.6L104.3,40.6L104.3,40.6z M104.7,41.3l0.4,0l0.2,0.2c0,0,0.1,0.7,0.1,0.7c0,0-0.5,0.6-0.8,0.7
			c-0.2,0-1.1,0-1.3,0.1c-0.3,0.1-0.4,0.1-0.5,0.2c0,0-0.1,0.1-0.1,0.1s0-0.2,0.2-0.3c0.2-0.1,0.3,0,0.4-0.2
			c0.2-0.2,0.3-0.7,0.3-0.8C103.8,41.8,104.5,41.3,104.7,41.3L104.7,41.3L104.7,41.3z M101.9,43.2l0.7-0.4c0,0-0.1,0.3-0.1,0.6
			c0,0.3,0,0.6-0.1,0.8c-0.1,0.2-0.6,0.7-0.8,0.7c-0.2,0-0.7,0-0.7,0s0-0.6,0-0.7c0-0.1-0.1-0.1-0.1-0.1S101.7,43.3,101.9,43.2
			L101.9,43.2L101.9,43.2z M104.2,43.2l0.4-0.1c0,0-0.2,0.2-0.2,0.4c0,0.2-0.1,0.4-0.2,0.5c-0.1,0.1-0.6,0.7-0.7,0.7
			c-0.1,0-0.4,0.2-0.4,0.2s0.1-0.4,0.2-0.6c0-0.2,0-0.3,0-0.3c0,0-0.2,0-0.2,0s0-0.3,0.4-0.6C103.9,43.1,104.2,43.3,104.2,43.2
			L104.2,43.2L104.2,43.2z M102.9,44.8l0.3-0.6c0,0-0.4,0.1-0.4,0.1c0,0-0.6,0.7-0.8,0.8c-0.1,0.1-0.4,0.1-0.4,0.1l-0.2,0l-0.1,0.1
			c0,0,0.2,0,0.2,0c0,0,0.4-0.1,0.4,0c0,0,0.1,0.2,0,0.2c0,0.1-0.2,0.7-0.2,0.7c0,0,0.3,0,0.4-0.1c0.1-0.1,0.8-0.5,0.8-0.8
			C102.9,45.1,102.8,45,102.9,44.8L102.9,44.8L102.9,44.8z M100.7,44.7l0.1-0.3c0,0-0.1,0-0.3,0s-0.8,0.4-0.8,0.4l-0.2,0.9
			c0,0,0.4-0.2,0.6,0c0.1,0.1,0.1,0.4,0.1,0.4s0.4-0.4,0.5-0.5c0.1-0.2,0.1-0.3,0.1-0.5C100.8,44.9,100.7,44.8,100.7,44.7
			L100.7,44.7L100.7,44.7z M105.9,43l-0.1-0.1l-1.1,1.3l-0.1,0l-1.2,1.2l-0.2,0l-1.1,1l-0.4,0l-0.2,0.1c0,0-0.1-0.2,0-0.4
			c0.1-0.2,0-0.3,0.1-0.4c0-0.1,0.1-0.3,0.1-0.3c0,0,0-0.1-0.1-0.1c-0.1,0-0.3,0.1-0.3,0.1c0,0-0.2-0.1-0.2-0.1c0,0-0.2,0.4-0.3,0.5
			c-0.1,0.1-0.6,0.4-0.6,0.4s0.2,0.1,0.3,0.1c0,0,0.1,0.1,0.1,0.2c0,0.1-0.1,0.3-0.1,0.3c-0.1,0.1-0.1,0.2-0.1,0.3
			c0,0.1-0.1,0.2-0.2,0.3c-0.1,0-0.2,0-0.1-0.1c0.1-0.1,0-0.3,0.1-0.4c0.1-0.1,0.2-0.2,0.2-0.2c0-0.1,0.2-0.1,0-0.1
			c-0.1,0-0.2,0-0.2,0.1c0,0-0.5,0.6-0.6,0.7c-0.1,0.1-0.3,0.3-0.3,0.3s0,0.3-0.1,0.3c0,0.1-0.2,0.3-0.2,0.3c0,0-0.2,0.2-0.2,0.2
			s1.6-1,1.7-1.1c0.1-0.1,1.1-0.9,1.2-0.9c0,0,0.5,0,0.5,0l1.1-1l0.2,0l1.2-1.3l0.2,0L105.9,43L105.9,43L105.9,43z M99.8,46.1
			l0.2-0.3L99.5,46l-0.3,1.4c0,0,0.6-0.5,0.6-0.6C99.8,46.6,99.8,46.2,99.8,46.1L99.8,46.1L99.8,46.1z M95.2,46.7l1.4-0.6l-0.1,0.5
			c0,0-0.9,0.3-1.2,0.4c-0.3,0.1-1.2,0.4-1.2,0.4l-0.2-0.5C93.9,47.1,94.9,46.9,95.2,46.7L95.2,46.7L95.2,46.7z M95.3,47.4l1.2-0.5
			l-0.1,0.4c0,0-0.8,0.3-1,0.4c-0.2,0.1-1.1,0.4-1.1,0.3l0-0.4C94.2,47.6,94.9,47.5,95.3,47.4L95.3,47.4L95.3,47.4z M94.3,48.3
			l2-0.8l-0.1,0.4l-2.1,0.8l0-0.1l0.1-0.1L94.3,48.3L94.3,48.3L94.3,48.3z M94.9,48.6l1.3-0.5l-0.1,0.5c0,0-0.8,0.3-1.1,0.4
			c-0.4,0.1-1.1,0.3-1.1,0.3l0.1-0.4C94,48.9,94.5,48.7,94.9,48.6L94.9,48.6L94.9,48.6z M96,49.8L96,49.8l0.3,0.1c0,0-1.5,0.9-1.9,1
			c-0.4,0.1-1.5,0-1.7,0c-0.2,0-1.9-0.1-2-0.1c-0.1,0-0.5-0.1-0.5-0.1c-0.1-0.1-0.2-0.2-0.2-0.3c0-0.1,0-0.2,0-0.2c0,0,0.2,0,0.2,0
			c0.1,0.1,0.2,0.2,0.3,0.2c0.1,0,1.3,0.2,1.8,0.2c0.5,0,1.5,0.1,1.8,0c0.3-0.1,0.9-0.3,1.1-0.4C95.4,50.2,96,49.8,96,49.8L96,49.8
			L96,49.8z M95.9,57.4l0-1.1l-1.8-0.8l0.1,2.1L95.9,57.4L95.9,57.4L95.9,57.4z M102.1,56.1l0-4.8l-1.1,0.5l-0.1,5.1l2.8-0.2
			l-0.1-0.7L102.1,56.1L102.1,56.1L102.1,56.1z M104,54.6l-0.2-4.5c0,0-0.6,0.4-0.6,0.4c0,0-0.1-0.1-0.1-0.1l-0.6,0.5l0,4.7l3.3-0.3
			l-0.1-1L104,54.6L104,54.6L104,54.6z M99.9,54.6l0.2-0.4l-2.3-1.1l-0.6,0.2L99.9,54.6L99.9,54.6L99.9,54.6z M99.6,55.2l0.1-0.4
			l-3.2-1.5l-0.9,0L99.6,55.2L99.6,55.2L99.6,55.2z M99.3,55.8l0.2-0.4l-4.6-2.1l-1,0L99.3,55.8L99.3,55.8L99.3,55.8z M93.9,53.7
			l5.3,2.4L99,56.4l-5.9-2.7L93.9,53.7L93.9,53.7L93.9,53.7z M98.6,57l0.2-0.3l-6.1-2.8l0.3,0.6L98.6,57L98.6,57L98.6,57z
			 M87.8,49.6l0.1,0.2c0,0-0.6,0.1-0.6,0.6c0,0.6,0.5,0.6,0.5,0.7l0,0.1c0,0-0.6-0.2-0.6-0.8C87.1,49.7,87.8,49.6,87.8,49.6
			L87.8,49.6L87.8,49.6z M89.2,50l0,1.2L89,51.4c0,0-0.6,0.2-0.8,0.3c-0.2,0-0.9,0-1.2-0.1c-0.2-0.1-0.4-0.3-0.5-0.4c0,0,0,0,0,0
			l0-1.4c0,0,0,0,0,0c0,0,0,0,0,0l0-0.1c0,0,0,0,0,0c0,0,0-0.1,0-0.1c0-0.1,0.5-0.5,1.1-0.5c0.6,0,0.7,0,1,0.2
			c0.3,0.1,0.4,0.2,0.5,0.4C89.2,49.8,89.2,50,89.2,50L89.2,50L89.2,50z M84.8,2.1l2.9-0.3l0.2,0.1l0,0.2l-0.1,0.1l-3,0.2l-2,0.3
			c0,0-0.6,0.2-0.7,0.3c-0.1,0.1-0.5,0.6-0.5,0.8c-0.1,0.2-0.5,0.5-0.7,0.5c-0.2,0-0.6-0.2-0.6-0.5c0-0.3,0.5-0.5,0.7-0.6
			c0.2-0.1,0.6-0.2,0.8-0.3c0.2-0.1,0.4-0.5,0.5-0.5C82.4,2.5,84.2,2.2,84.8,2.1L84.8,2.1L84.8,2.1z M82.2,53.2L82.1,53
			c0,0,0.5,0,0.8,0c0.3-0.1,1.1-0.3,1.1-0.3l0.1,0c0.8,1.2,2.2,2,3.8,2c1.5,0,2.8-0.7,3.7-1.8l0.1,0l0.9,0.2l0.5,0.1l0.4,0.1
			l-0.1,0.1h-0.7l-0.4,0.5l0.3,0.7l-0.7,0.8l-0.6-0.4l-0.8,0.5l0.1,0.7L90,56.4l-0.5-0.5L88.5,56l-0.1,0.7l-1.1,0L87.2,56l-0.9-0.2
			l-0.4,0.5l-1-0.4l0-0.7l-0.6-0.5l-0.6,0.4L83,54.5l0.4-0.7L83,53.2L82.2,53.2L82.2,53.2L82.2,53.2z M84.7,52.6l0.9-0.4l0,0
			c0.6,0.7,1.4,1.1,2.4,1.1c0.9,0,1.7-0.4,2.2-1l0,0l0.9,0.5l0,0c-0.8,0.9-1.9,1.5-3.1,1.5C86.6,54.3,85.4,53.6,84.7,52.6L84.7,52.6
			L84.7,52.6z M82.8,4L82,3.9c0,0,0-0.4,0.3-0.6c0.4-0.2,1.1-0.3,1.5-0.3c0.4-0.1,1.4-0.2,1.9-0.2c0.5,0,2-0.1,2-0.1l0.1,0.1l0,0.2
			l0,0.1c0,0-1.6,0.1-2.1,0.1c-0.5,0-1.5,0.1-1.8,0.2c-0.3,0.1-0.8,0.3-0.9,0.4C82.8,3.8,82.8,4,82.8,4L82.8,4L82.8,4z M86.7,3.2
			l0.9,0l0.2,0.1l-0.1,0.2c0,0-1.9,0.1-2.2,0.1c-0.4,0.1-1.6,0.2-1.7,0.3c-0.1,0.1-0.1,0.2-0.1,0.2c0,0,1.4-0.1,1.9-0.2
			c0.4,0,1.6-0.1,1.8-0.1c0.2,0,0.3,0.1,0.3,0.1V4l-0.1,0.1c0,0-1.6,0-2.2,0.1c-0.6,0.1-1.4,0.2-1.5,0.2c-0.1,0-0.6,0-0.6,0
			C83.1,4.3,83,4.2,83,4c0.1-0.2,0.1-0.3,0.3-0.4c0.2-0.1,0.2-0.2,0.7-0.2c0.5-0.1,1.4-0.2,1.6-0.2C85.9,3.2,86.4,3.2,86.7,3.2
			L86.7,3.2L86.7,3.2z M82.2,4.2c-0.1,0-0.2,0-0.4,0c-0.1,0.1-0.3,0.1-0.3,0.3c0,0.2,0.3,0.4,0.4,0.5c0.1,0,0.7,0,0.9,0
			c0.1,0,0.7,0,0.8,0c0.1,0,0.6-0.1,1-0.2c0.5-0.1,0.9-0.1,1.2-0.1c0.3,0,1.1,0,1.2,0c0.1,0,0.2-0.1,0.2-0.1c0,0-0.1-0.2-0.2-0.2
			c-0.1,0-1.7,0.1-2.4,0.2c-0.8,0.1-1.2,0.2-1.3,0.2c-0.1,0-0.4-0.1-0.5-0.2C82.7,4.5,82.5,4.3,82.2,4.2L82.2,4.2L82.2,4.2z
			 M86.8,5.7l0.5-0.4c0,0-0.2,0-0.3-0.1c-0.1,0-0.5-0.3-1-0.3c-0.6,0-1,0.5-1,0.5s0.2,0.1,0.3,0.2c0.1,0,0.4,0.2,0.4,0.3
			c0,0.1-0.1,0.5-0.1,0.5c-0.1,0,0.2,0,0.4,0c0.1,0,0.5-0.2,0.7-0.3C86.7,6,86.7,5.8,86.8,5.7L86.8,5.7L86.8,5.7z M81.3,3l0-0.2
			c0,0-0.8,0.2-1,0.3c-0.3,0.1-0.8,0.2-0.9,0.3c-0.1,0.1,0,0.2,0,0.2c0,0-0.1,0.3-0.7,0.5c-0.6,0.2-0.7,0.7-0.7,0.7
			c0,0,0.1,0.2,0.2,0.2c0.1,0,0.7,0,1-0.2c0.3-0.2,0.5-0.4,0.6-0.6C79.8,4,79.8,3.8,80,3.6c0.2-0.2,0.3-0.3,0.6-0.4
			C80.9,3.1,81.3,3.1,81.3,3L81.3,3L81.3,3z M79.8,4.6l0.5-0.1c0.4,0,0.8,0.1,1,0.2c0.1,0.1,0.2,0.3,0.4,0.4
			c0.2,0.1,0.8,0.1,0.8,0.1l-1.1,0.3c0,0-0.1-0.2-0.5-0.3c-0.4-0.1-0.6,0.1-0.9,0c-0.4-0.1-0.5-0.2-0.5-0.3
			C79.5,4.9,79.6,4.7,79.8,4.6L79.8,4.6L79.8,4.6z M85.1,6.3l0.2-0.2c0,0,0-0.1-0.2-0.1c-0.1,0-0.4-0.3-0.8-0.2
			c-0.4,0.1-0.6,0.2-0.8,0.4c-0.3,0.2-0.3,0.4-0.3,0.5c0,0.1-0.1,0.1-0.1,0.2c0,0,0.4,0.4,0.7,0.3c0.3-0.1,0.8-0.2,0.9-0.3
			C84.9,6.6,85.1,6.3,85.1,6.3L85.1,6.3L85.1,6.3z M83.5,5.8l0.2-0.2c0,0-0.3,0-0.3,0c-0.1,0-0.2-0.2-0.7-0.1c-0.5,0-1,0.3-1,0.3
			s0.6,0.1,0.7,0.4c0.1,0.3-0.2,0.6-0.2,0.6S82.5,7,82.5,7c0,0,0.2-0.1,0.3-0.2c0-0.1,0.1-0.5,0.3-0.6C83.2,6,83.4,5.9,83.5,5.8
			L83.5,5.8L83.5,5.8z M85.5,7l-0.3-0.2c-0.1,0-0.3,0.3-0.8,0.5c-0.5,0.2-1.1,0-1.1,0s0.1,0.2,0,0.3c0,0.1-0.4,0.5-0.4,0.5
			s0.8-0.2,1.2-0.3c0.4-0.1,0.8-0.1,0.8-0.1c0,0,0.2-0.2,0.3-0.3C85.2,7.1,85.5,7,85.5,7L85.5,7L85.5,7z M80.7,5.5l0.2,0.1l-1.7,0.6
			c0,0-0.2-0.2-0.6-0.1c-0.4,0.1-0.8,0.1-0.9,0c-0.2-0.1-0.4-0.2-0.3-0.4c0.1-0.2,0.3-0.4,0.6-0.5c0.3-0.1,0.6-0.1,1,0
			c0.4,0.1,0.8,0.3,1,0.3C80.1,5.6,80.6,5.5,80.7,5.5L80.7,5.5L80.7,5.5z M80.2,6.6l-0.2-0.2c0.1,0,0,0,0.3-0.1
			C80.5,6.2,80.6,6,81,6c0.4,0,0.6,0.2,0.7,0.2c0.1,0,0.4,0.1,0.5,0.2c0,0.1-0.2,0.3-0.3,0.5c-0.2,0.1-0.2,0.4-0.2,0.4
			c0,0-0.9,0.4-1,0.4c-0.1,0-0.4,0-0.4,0c0,0,0.1-0.1,0.2-0.2c0.1-0.1,0.2-0.3,0.1-0.5C80.5,6.7,80.3,6.7,80.2,6.6L80.2,6.6
			L80.2,6.6z M82,7.1L82,7.1c-0.1,0-0.3,0.3-0.5,0.5c-0.2,0.2-0.9,0.3-0.9,0.3s0.4,0,0.5,0.2c0.1,0.1,0.1,0.3,0.1,0.3s0.4,0,0.6,0
			c0.2,0,0.3,0,0.4-0.2c0.1-0.1,0.1-0.2,0.3-0.4C82.8,7.7,83,7.5,83,7.5c0,0-0.2-0.1-0.4-0.1C82.4,7.4,82,7.1,82,7.1L82,7.1L82,7.1z
			 M78.1,3.9l0.8-0.3l0,0.2l-0.1,0.1c0,0-0.5,0-0.8,0.3c-0.3,0.3-0.5,1.3-1,1.6C76.7,6,76,6.2,75.8,6c-0.2-0.2,0-0.5,0.2-0.6
			c0.2-0.1,0.6-0.4,0.8-0.5c0.2-0.1,0.3-0.5,0.4-0.6C77.3,4.2,77.7,4,78.1,3.9L78.1,3.9L78.1,3.9z M78.3,7.5l-0.1-0.3
			c0,0,0.7-0.3,0.8-0.4c0.1,0,0.2-0.1,0.4-0.1c0.2,0,0.5,0.1,0.6,0.2c0.1,0.1,0.3,0.1,0.3,0.2c0,0-0.1,0.2-0.2,0.3
			C80,7.4,80,7.5,80,7.5s-0.5-0.1-0.8,0.1C78.9,7.8,78.6,8,78.6,8l-0.6,0c0,0,0-0.2,0-0.2C78.2,7.6,78.3,7.6,78.3,7.5L78.3,7.5
			L78.3,7.5z M76.5,4.9V4.6c0,0-0.7,0.4-0.9,0.4c-0.2,0.1-0.5,0.3-0.5,0.3c0,0-0.1,0.4-0.3,0.6c-0.2,0.1-0.6,0.3-0.8,0.5
			c-0.2,0.2-0.2,0.5-0.2,0.6c0,0.1,0.4,0.1,0.4,0.1c0.1,0,0.5-0.1,0.7-0.3c0.2-0.2,0.4-0.5,0.4-0.7c0-0.2,0-0.4,0.1-0.5
			c0.1-0.1,0.3-0.4,0.5-0.5C76.1,5.1,76.4,4.9,76.5,4.9L76.5,4.9L76.5,4.9z M78.5,6.4l-0.5,0.1c-0.1,0-0.9-0.2-1.2-0.2
			c-0.3,0-0.9,0-1.2,0.1c-0.2,0.1-0.5,0.3-0.4,0.5c0.1,0.2,0.3,0.3,0.6,0.2c0.2,0,0.5-0.1,0.8-0.1c0.2,0,0.5,0,0.6,0.1
			c0.1,0,0.7-0.2,0.9-0.3c0.2-0.1,0.6-0.3,0.6-0.3s0,0,0-0.1C78.7,6.4,78.6,6.4,78.5,6.4L78.5,6.4L78.5,6.4z M77.7,7.9l0.2-0.6
			c0,0-0.9,0.2-1.4,0.6c-0.6,0.3-1,0.8-1,0.8l0.3,0.1l0,0.6l0.4-0.2c0,0,0.1-0.4,0.5-0.8C77.2,8.1,77.7,7.9,77.7,7.9L77.7,7.9
			L77.7,7.9z M79.4,8.1L79,8c0,0,0.4-0.3,0.7-0.2c0.3,0.1,0.5,0.2,0.7,0.3c0.2,0.1,0.5,0.1,0.5,0.2c0,0,0.1,0.1,0.1,0.1
			c0,0-0.7,0.5-1,0.6C79.7,9,79,9,79,9s0-0.2,0-0.2C79.1,8.7,79.4,8.4,79.4,8.1L79.4,8.1L79.4,8.1z M77.4,8.3c0.6-0.2,1.1-0.1,1.7,0
			c0,0-0.2,0.3-0.3,0.4c-0.1,0.2-0.3,0.7-0.6,0.7c-0.3,0.1-1,0-1.2-0.1c-0.2,0-0.5,0-0.5,0S76.8,8.4,77.4,8.3L77.4,8.3L77.4,8.3z
			 M77,10.6c0.3-0.2,0.6-0.5,0.8-0.8c0,0-0.7-0.1-0.9-0.2c-0.2,0-0.9,0.2-0.9,0.3c0,0.1,0,0.2,0,0.2c0,0,0.1,0,0.2,0
			c0,0,0,0.3,0,0.5c0,0.2,0,0.5,0,0.5S76.7,10.8,77,10.6L77,10.6L77,10.6z M74.1,7.4l-0.4,0.3c0,0-0.4,0.5-0.2,0.7
			c0.2,0.2,0.6,0,0.7,0c0.1,0,0.2-0.1,0.4-0.1c0.2,0,0.5,0.1,0.5,0.1S75.8,8,76,7.8c0.2-0.1,0.8-0.4,0.9-0.5c0,0,0-0.1-0.1-0.1
			c-0.1,0-0.7,0.2-0.9,0.3c-0.2,0-1.1-0.1-1.1-0.1C74.7,7.3,74.3,7.3,74.1,7.4L74.1,7.4L74.1,7.4z M75.7,9.8L75.6,9
			c0,0-0.5,0.2-0.8,0.2c-0.3,0.1-0.5,0.3-0.6,0.5C74,9.9,74,9.9,74,9.9s0.3,0.1,0.2,0.1c0,0,0,1,0,1s0.3,0,0.5-0.2
			c0.2-0.1,0.6-0.4,0.7-0.6C75.6,10,75.7,9.9,75.7,9.8L75.7,9.8L75.7,9.8z M75.8,10.5l0.1-0.2c0,0-0.2,0-0.3,0c0,0-0.4,0.5-0.6,0.6
			c-0.2,0.1-0.7,0.3-0.7,0.3l0,0.1c0,0,0.1-0.1,0.1-0.1c0,0,0.2,0,0.2,0.1c0,0.1-0.1,0.4-0.1,0.5c0,0.1-0.1,0.3-0.1,0.4
			c0,0.1,0.7-0.4,0.9-0.6c0.1-0.2,0.3-0.3,0.3-0.6C75.8,10.8,75.8,10.6,75.8,10.5L75.8,10.5L75.8,10.5z M73.9,10.7v-0.5
			c0,0-0.3,0.2-0.5,0.3c-0.2,0.1-0.7,0.2-0.8,0.6c-0.2,0.4-0.2,1-0.2,1s0.1,0,0.2,0c0,0,0.3-0.4,0.6-0.3c0.2,0.1,0.1,0.4,0.1,0.4
			s0.7-0.6,0.7-0.7C74,11.2,73.9,11,73.9,10.7L73.9,10.7L73.9,10.7z M74.3,12.4l0.1-0.8c0,0-0.4,0.1-0.5,0.2
			c-0.1,0.1-0.8,0.8-0.8,0.8s0,0.5,0,0.5c0,0.1,0,0.2,0,0.2s0.3,0,0.3,0c0.1,0,0.7-0.4,0.8-0.5C74.3,12.5,74.3,12.5,74.3,12.4
			L74.3,12.4L74.3,12.4z M74.7,5.6l-0.1-0.1c-0.1,0-1.1,0.5-1.4,0.8c-0.3,0.3-1,0.8-1,0.8l0.4,0.5c0,0-1.4,1.1-2,1.7
			c-0.6,0.6-1.4,1.4-1.4,1.4c0,0-0.4,0.2-0.6,0.5c-0.1,0.3,0,1.1,0,1.1s0.2,0,0.2,0c0,0,0.5-0.4,0.5-0.4s0-0.8,0-0.9
			c0-0.2,1.2-1.3,1.4-1.5c0.2-0.2,1.6-1.4,1.8-1.5c0.2-0.2,0.7-0.2,0.9-0.9c0.2-0.7,0-0.5,0.2-0.7C73.8,6.3,74,6.1,74.3,6
			C74.6,5.8,74.7,5.7,74.7,5.6L74.7,5.6L74.7,5.6z M73,8.2l0.2,0c0,0,0,0.1,0,0.1c0,0-1.4,1.1-1.5,1.3c-0.2,0.2-1,1-1.1,1.1
			c0,0-0.1,0.1-0.1,0.1c0,0.1,0.1,0.1,0.1,0c0,0,0.9-0.8,1.1-1c0.3-0.2,0.7-0.5,0.8-0.7c0.1-0.1,0.4-0.4,0.5-0.4
			c0.1-0.1,0.1-0.1,0.2,0c0.1,0,0.1,0.1,0.1,0.2c0,0.1-0.7,0.6-0.8,0.7c-0.1,0.1-0.9,0.8-1,0.9c-0.1,0.1-0.7,0.7-0.8,0.8
			c0,0.1-0.5,0.5-0.7,0.5c-0.2,0-0.4-0.1-0.4-0.2c0-0.1-0.1-0.4,0-0.5c0.1-0.1,0.9-0.9,1.1-1c0.2-0.2,0.6-0.5,0.7-0.7
			c0.2-0.2,0.6-0.5,0.7-0.6C72.5,8.7,72.9,8.3,73,8.2L73,8.2L73,8.2z M71.8,7.6L72,7.5c0,0,0.1,0.1,0.1,0.1c0,0,0,0.1-0.1,0.2
			c-0.1,0.1-1.6,1.5-1.8,1.7c-0.2,0.2-1.4,1.3-1.5,1.6c-0.2,0.3-0.2,0.6-0.2,0.7c0,0.2,0,0.7,0,0.9c0,0.2,0,0.6-0.3,0.7
			c-0.3,0.1-0.5-0.2-0.5-0.2c0-0.1,0-0.6,0.2-0.8c0.1-0.3,0.3-0.4,0.3-0.6c0-0.1,0.1-0.7,0.1-0.7s1.3-1.5,1.7-1.9
			c0.4-0.4,1.1-1,1.4-1.3C71.5,7.8,71.8,7.6,71.8,7.6L71.8,7.6L71.8,7.6z M73.6,9.4l-0.2-0.1c0,0-1.3,1.1-1.7,1.5
			c-0.4,0.4-1.2,1.2-1.2,1.2c-0.1,0.1-0.6,0.1-0.7,0.1c-0.2,0-0.6,0.3-0.8,0.4c-0.1,0.2-0.3,0.4-0.3,0.5c0,0.1,0.5,0.1,0.5,0
			c0.1-0.1,0.3-0.4,0.6-0.5c0.2-0.1,0.6-0.1,0.6-0.1s1.2-1.2,1.4-1.4c0.2-0.2,1.8-1.5,1.8-1.5S73.7,9.5,73.6,9.4L73.6,9.4L73.6,9.4z
			 M72.9,12.4l0-0.4c-0.1,0-0.2,0.3-0.3,0.3c-0.1,0-0.6-0.1-0.8,0c-0.2,0.1-0.5,0.6-0.5,0.7c0,0.1,0.1,1.3,0.1,1.4
			c0,0.1,0,0.3-0.1,0.4c-0.1,0-0.2,0.2-0.2,0.2s0.3-0.1,0.3-0.2c0,0,0-0.2,0.2-0.4c0.1-0.2,0.3-0.4,0.6-0.5c0.3-0.1,0.4-0.3,0.5-0.5
			c0.1-0.2,0.2-0.4,0.2-0.5C72.9,13,72.9,12.5,72.9,12.4L72.9,12.4L72.9,12.4z M67.4,12l0.2-0.2c0,0,0.1,0,0.1,0l0.1,0.1l-0.1,0.1
			c0,0-0.2,0.3-0.2,0.4c0,0.1-0.2,0.4-0.2,0.4l-0.1-0.1c0,0,0-0.1,0-0.2C67.2,12.2,67.3,12.1,67.4,12L67.4,12L67.4,12z M70,12.8
			l0.2-0.1c0,0,0.1,0.1,0.1,0.1s-0.6,0.9-0.7,0.9c-0.1,0-0.4-0.1-0.6,0c-0.2,0.1-0.4,0.6-0.6,0.6c-0.2,0.1-0.7,0.1-0.7,0.1
			s-0.2-0.3,0.2-0.6c0.3-0.3,0.5-0.4,0.9-0.5c0.4-0.1,0.6-0.1,0.6-0.1C69.5,13.3,69.9,12.9,70,12.8L70,12.8L70,12.8z M71,13.5l0-0.4
			c0,0-0.1,0.2-0.2,0.2c-0.1,0-0.4,0.1-0.6,0.2c-0.1,0.1-0.3,0.4-0.4,0.4c0,0-0.2,0.2-0.3,0.4c-0.1,0.2-0.1,0.5-0.1,0.5
			s0.6-0.3,0.8-0.3c0.2,0.1,0.2,0.2,0.2,0.2s0.6-0.5,0.6-0.7C71.1,13.9,71,13.7,71,13.5L71,13.5L71,13.5z M72.5,14.4l0.7-1
			c0,0-0.3,0.2-0.3,0.2c0,0-0.6,0.5-0.7,0.6c-0.1,0.1-0.4,0.4-0.4,0.5c0,0.1,0,0.2,0.1,0.3C72,15,72.4,14.5,72.5,14.4L72.5,14.4
			L72.5,14.4z M66.6,11.6L66.6,11.6c-0.1,0-0.3,0.2-0.4,0.2c0,0.1-0.2,0.3-0.2,0.3c0,0,0.5,0.5,0.5,0.6c0,0.1,0.1,0.6,0.1,0.6
			c0,0-0.4-0.2-0.5-0.3c-0.1-0.1-0.4-0.3-0.5-0.3c-0.1,0-0.2,0.4-0.2,0.4c0,0-0.2,0.2-0.2,0.2c0,0,0.1,0.2,0.2,0.2
			c0.1,0,0.6,0.1,0.8,0.1c0.2,0,0.3,0,0.4,0c0.1,0,0.3-0.2,0.3-0.4c0-0.1-0.1-0.7-0.1-0.8c0-0.1-0.1-0.6-0.1-0.6
			C66.8,11.7,66.6,11.6,66.6,11.6L66.6,11.6L66.6,11.6z M67.3,14.1l0-0.6c0,0-0.2,0.3-0.3,0.3c-0.1,0-0.4,0-0.4,0.1
			c-0.1,0.1-0.2,0.4-0.3,0.6c0,0.2,0,0.5,0,0.6c0,0.1,0.2,0.2,0.4,0.1c0.2-0.1,0.3-0.3,0.4-0.4C67.2,14.5,67.3,14.3,67.3,14.1
			L67.3,14.1L67.3,14.1z M68.9,14.2l0.2-0.2c0.1,0,0,0.1,0,0.2c0,0-0.8,1.3-0.8,1.3c0,0-0.4,0.1-0.6,0.4c-0.3,0.2-0.4,0.5-0.5,0.5
			c-0.1,0.1-0.6,0.2-0.7,0c-0.1-0.2-0.1-0.6,0.3-0.9c0.4-0.3,0.6-0.4,1-0.5c0.4-0.1,0.6-0.1,0.7-0.2C68.6,14.5,68.8,14.3,68.9,14.2
			L68.9,14.2L68.9,14.2z M70.1,15.3l0.1-0.5c0,0-0.4,0.2-0.6,0.3c-0.1,0-0.4,0-0.4,0.1c-0.1,0.1-0.6,0.6-0.7,0.8
			c-0.1,0.2,0,0.5-0.1,0.5s0.4,0,0.5-0.1c0.1-0.1,0.3-0.1,0.3-0.1c0,0,0.1,0.2,0.1,0.3c0,0.1,0,0.4-0.1,0.4c0,0,0.1,0,0.1,0
			s0-0.2,0-0.4c0-0.1-0.1-0.4,0-0.5C69.6,15.8,70,15.4,70.1,15.3L70.1,15.3L70.1,15.3z M71.6,15.3l-0.1-0.2
			c-0.1,0.1-0.3,0.2-0.5,0.2c-0.2,0-0.6,0-0.8,0.1c-0.2,0.2-0.4,0.3-0.5,0.7c-0.1,0.4,0,0.6,0,0.8c0,0.1,0.8,0,0.8,0
			c0,0,0.6-0.6,0.8-0.9C71.4,15.6,71.6,15.3,71.6,15.3L71.6,15.3L71.6,15.3z M66.2,14.1l0-0.2c0,0-0.4,0.5-0.6,0.8
			c-0.2,0.3-0.3,0.4-0.2,0.5c0,0.1,0.2,0.6-0.1,1.1c-0.3,0.5-0.2,1-0.1,1.1c0.1,0.1,0.4,0.1,0.7-0.4c0.3-0.5,0.3-1.1,0.3-1.2
			c-0.1-0.2-0.3-0.7-0.2-0.9C66,14.6,66.1,14.2,66.2,14.1L66.2,14.1L66.2,14.1z M69,17.1l0.1-0.7c0,0-0.5,0.2-0.7,0.3
			c-0.2,0.1-0.4,0.1-0.5,0.2c-0.1,0.1-0.4,0.5-0.4,0.7c0,0.2-0.1,0.4-0.1,0.4c0.1,0,0.3-0.1,0.4-0.2c0.1-0.1,0.2-0.2,0.3-0.2
			c0.1,0.1,0.1,0.3,0.2,0.4c0.1,0.1,0.2-0.2,0.2-0.4C68.6,17.5,68.9,17.2,69,17.1L69,17.1L69,17.1z M67.1,17.4l0.8-1.4
			c-0.1,0-0.5,0.4-0.6,0.5c-0.1,0.1-0.7,0.2-1.1,0.6c-0.4,0.4-0.8,0.7-0.8,0.9c-0.1,0.2,0.1,0.5,0.2,0.5c0.1,0,0.6-0.4,0.9-0.7
			C66.8,17.4,67,17.4,67.1,17.4L67.1,17.4L67.1,17.4z M65,16L65,16c0.1-0.1,0.1,0,0.1,0c0,0-0.4,0.7-0.3,1c0.1,0.3,0.4,0.9,0.3,1.3
			c0,0.4-0.5,1-0.6,1c-0.1,0.1-0.4-0.3-0.4-0.6c0-0.3,0.3-0.7,0.3-0.9c0.1-0.2-0.1-0.7-0.1-0.7C64.3,17.3,64.9,16.1,65,16L65,16
			L65,16z M70.3,17.3l0.1-0.2c0,0-0.5,0.1-0.6,0.1c-0.1,0-0.4-0.1-0.5,0.1c-0.2,0.1-0.6,0.7-0.6,0.7c0,0.1,0.4-0.2,0.5,0
			c0.1,0.2,0,0.6,0,0.7c0,0.1,0.1,0.4,0.1,0.4c0,0,0.1-0.2,0.3-0.4c0.2-0.1,0.5-0.6,0.5-0.8C70.1,17.7,70.3,17.3,70.3,17.3
			L70.3,17.3L70.3,17.3z M64,17.8l0.1-0.1l0.1,0.1c0,0-0.4,0.9-0.3,1.1c0,0.3,0.3,0.8,0.3,0.9c0,0.1,0,0.8,0,0.8l-1.1-0.1
			c0,0,0.3-1.1,0.4-1.5C63.7,18.6,64,17.8,64,17.8L64,17.8L64,17.8z M66.7,18l0.1-0.2H67c0,0-0.8,1.8-0.8,1.9
			c-0.1,0.1-0.4,0.2-0.5,0.3c-0.1,0.1-0.6,0.9-0.8,0.8c-0.2-0.1-0.4-0.7-0.2-1.2c0.3-0.4,1-0.6,1.3-0.9C66.3,18.5,66.6,18.1,66.7,18
			L66.7,18L66.7,18z M68,18.1l0-0.1c0,0-0.1,0.2-0.3,0.3c-0.1,0-0.5-0.1-0.9,0.7c-0.4,0.8-0.1,1.6-0.1,1.6s0.2-0.4,0.2-0.9
			c0-0.5,0.2-0.5,0.4-0.8c0.2-0.3,0.3-0.4,0.4-0.5C67.9,18.3,68,18.2,68,18.1L68,18.1L68,18.1z M68.9,18.6l0-0.5
			c0,0-0.2,0.2-0.3,0.2c-0.1,0-0.2,0-0.4,0c-0.2,0.1-0.6,0.5-0.8,0.9c-0.2,0.4-0.2,0.9-0.2,1c0,0.1-0.4,0.5-0.4,0.5l0.1,0.3l0.1-0.2
			c0,0,0.3-0.3,0.3-0.3c0.1-0.1,0.1-0.2,0.3-0.3c0.1-0.1,0.4-0.1,0.6-0.1c0.2-0.1,0.7-0.5,0.7-0.8C68.9,19.1,68.9,18.8,68.9,18.6
			L68.9,18.6L68.9,18.6z M68.6,21.2l-0.1-1c0,0-0.4,0.4-0.6,0.5c-0.2,0.1-0.3,0.3-0.4,0.4c-0.1,0.1-0.1,0.5-0.1,0.5s0.3-0.3,0.5-0.3
			c0.1,0.1,0.2,0.2,0.2,0.3c0,0.1,0.1,0.2,0.1,0.3c0,0,0.1,0.5,0.1,0.5s0.1-0.4,0.1-0.6C68.4,21.8,68.6,21.4,68.6,21.2L68.6,21.2
			L68.6,21.2z M66.4,21l0-0.2h0.1c0,0,0,0.1,0.1,0.2c0.1,0.1,0.4,0.3,0.4,0.6c0.1,0.2,0.1,0.7,0,0.9c-0.1,0.2-0.2,0.6-0.2,0.6
			S66.6,23,66.6,23c-0.1,0-0.1-0.1-0.1-0.1c0,0-0.1-0.5-0.3-0.5c-0.1,0-0.4,0.3-0.4,0.3s0-0.8,0.2-1.1C66.1,21.3,66.4,21.1,66.4,21
			L66.4,21L66.4,21z M67.3,22.2l0.4-0.5c0,0,0.3,0.8,0.1,1.1c-0.2,0.4-1,1.1-1,1.1c0,0-0.1-0.5-0.1-0.5s0.3-0.2,0.3-0.4
			C67.2,22.9,67.2,22.4,67.3,22.2L67.3,22.2L67.3,22.2z M66.2,23l-0.2-0.4L66,22.7c0,0-0.1,0.3-0.2,0.4c-0.1,0.1-0.2,0.3-0.3,0.4
			c0,0.1,0,1,0,1s0.1-0.2,0.2-0.1c0,0.1,0.3,0.4,0.3,0.4l0.7-0.6c0,0-0.1-0.6-0.1-0.8c0-0.1,0,0-0.1-0.1C66.3,23.2,66.2,23,66.2,23
			L66.2,23L66.2,23z M65.5,24.9l0.1-0.1c0,0,0.2,0.2,0.2,0.3c0,0-0.5,0.5-0.5,0.5s0-0.3,0-0.4C65.3,25.1,65.5,24.9,65.5,24.9
			L65.5,24.9L65.5,24.9z M63.9,21.2L63.9,21.2l0.2-0.1l0.1,0.1c0,0,0,0.1,0,0.1c0,0-0.3,1.3-0.4,1.8c-0.1,0.6-0.3,1.8-0.2,1.8
			l0.1,0.1l0.1,0c0,0,0.3-1.7,0.3-1.9c0-0.2,0.2-0.9,0.2-1c0-0.1,0.1-0.5,0.1-0.5c0,0,0.1-0.1,0.1-0.1c0.1,0,0.1,0.1,0.1,0.1
			c0,0,0,0.1,0,0.1c0,0-0.3,0.9-0.3,1.3c0,0.3-0.3,1.7-0.3,2c0,0.2-0.1,0.6-0.1,0.7c-0.1,0.1-0.3,0.3-0.3,0.4c0,0-0.4-0.3-0.4-0.4
			c0-0.1-0.1-0.4-0.1-0.4c0-0.1,0.1-0.1,0.1-0.2c0-0.1,0.2-1.4,0.2-1.5c0-0.1,0.1-0.9,0.2-1c0-0.1,0.1-0.6,0.2-0.8
			C63.9,21.5,63.9,21.2,63.9,21.2L63.9,21.2L63.9,21.2z M63.4,21l0.1-0.1l0.1,0l0.1,0l0.1,0.1c0,0-0.3,1.4-0.5,2
			c-0.1,0.6-0.4,2.2-0.4,2.4c0,0.2,0.1,0.4,0.2,0.5c0.1,0.1,0.4,0.5,0.4,0.5L63.4,27c0,0-0.1,0.2-0.1,0.2c0,0-0.6-0.5-0.7-0.9
			c-0.1-0.4,0.1-0.7,0.1-0.8c0-0.1,0.3-1.9,0.3-2.1c0-0.2,0.3-1.4,0.3-1.5C63.2,21.7,63.4,21,63.4,21L63.4,21L63.4,21z M65,21.9
			L65,21.9c0.1-0.1,0.2-0.1,0.2,0c0,0.1-0.3,1.6-0.4,2c-0.1,0.5-0.2,2.2-0.3,2.2c0,0-1.1,1.3-1.1,1.3c0,0,0-0.1,0-0.3
			c0-0.2,0.1-0.5,0.2-0.7c0.1-0.2,0.5-0.6,0.5-0.7c0-0.1,0.2-1.7,0.3-1.9c0-0.2,0.3-1.8,0.4-1.9C65,21.9,65,21.9,65,21.9L65,21.9
			L65,21.9z M62.6,21.5l0.1-0.2c0,0,0.1,0,0.1,0.1c0,0.1-0.2,1.1-0.3,1.7c-0.1,0.6-0.3,2-0.3,2.2c0,0.2-0.1,0.9,0,1.3
			c0.2,0.4,0.4,0.7,0.5,0.7c0,0,0.3,0.3,0.3,0.3c0,0,0,0.1,0,0.2c0,0-0.5,0.6-0.5,0.6s-0.2-0.5-0.2-0.7c0-0.2,0-0.5-0.1-0.6
			c-0.1-0.2-0.3-0.3-0.4-0.5c-0.1-0.1,0.2-2.1,0.2-2.5c0.1-0.4,0.2-1.3,0.3-1.5C62.4,22.2,62.6,21.5,62.6,21.5L62.6,21.5L62.6,21.5z
			 M61.8,27.3L61.8,27.3l0.1-0.2l0.1,0l0.1,0.1c0,0-0.1,0.6,0,0.8c0.1,0.2,0.2,0.4,0.2,0.4s-0.1,0.1-0.1,0.1c0,0-0.3,0.3-0.3,0.3
			l-0.1-0.1c0,0,0-0.8,0-0.9C61.8,27.9,61.8,27.4,61.8,27.3L61.8,27.3L61.8,27.3z M67.2,27.8l0.1-0.2c0,0,0.3,0.6,0.3,1.1
			c0.1,0.5,0,0.5,0,0.9c0,0.3,0.1,0.5,0,0.6c0,0.1-0.1,0.2-0.1,0.2s-0.1-0.3-0.2-0.3c0-0.1-0.1-0.2-0.1-0.2L67,30.2c0,0,0-0.2,0-0.3
			c0,0,0.2-0.2,0.2-0.3c0-0.1,0-0.3,0-0.5c0-0.2-0.2-0.5-0.2-0.6C67,28.3,67.2,27.8,67.2,27.8L67.2,27.8L67.2,27.8z M66.7,28.2
			l-0.3-0.3l-0.7,0.7c0,0,0.1,0.6,0.3,0.9c0.3,0.2,0.6,0.5,0.6,0.5s0.3-0.3,0.3-0.7c0-0.4-0.1-0.5-0.1-0.5
			C66.9,28.7,66.8,28.3,66.7,28.2L66.7,28.2L66.7,28.2z M65.8,29.7l-0.3-0.6c0,0,0,0.3-0.1,0.4c-0.1,0.1-0.2,0.3-0.2,0.6
			c0,0.3,0.2,1.1,0.2,1.1c0,0,0.2-0.7,0.5-0.7c0.3,0,0.5,0.3,0.5,0.3l0.2-0.4c0,0-0.2-0.3-0.3-0.3C66.3,30.1,65.9,29.9,65.8,29.7
			L65.8,29.7L65.8,29.7z M67.1,30.5l0.1-0.3l0.1,0c0,0,0.2,0.3,0.3,0.4c0.1,0.1,0.3,0.2,0.4,0.5c0.1,0.2,0,0.9,0,0.9s-0.2,0-0.3,0.1
			c-0.1,0.1-0.2,0.4-0.2,0.4s-0.1-0.5-0.3-0.8c-0.1-0.3-0.4-0.5-0.4-0.5s0.1-0.2,0.1-0.3C66.9,30.7,67.1,30.6,67.1,30.5L67.1,30.5
			L67.1,30.5z M63.4,31.4l-0.1-0.2l1.3-1.4V30c0,0-0.2,0.1-0.2,0.3c0,0.2,0,0.9-0.3,1.1c-0.2,0.2-0.4,0.3-0.5,0.2
			C63.5,31.6,63.4,31.4,63.4,31.4L63.4,31.4L63.4,31.4z M63.3,31.6l-0.2-0.2L62.7,32c0,0,0.2,0.6,0.3,0.9c0.1,0.2,0.2,0.4,0.4,0.4
			c0.2,0,0.4-0.3,0.3-0.8C63.6,31.9,63.4,31.7,63.3,31.6L63.3,31.6L63.3,31.6z M64.5,30.7l0-0.2c0,0,0-0.1,0-0.1
			c0,0,0.1,0.1,0.1,0.1l0.2,1c0,0,0.1,0.4,0,0.6c-0.1,0.2-0.2,0.4-0.2,0.6s0,0.7-0.1,0.9c-0.1,0.2-0.2,0.3-0.3,0.3
			c-0.1,0-0.5-0.1-0.5-0.4c0-0.3,0-0.8,0.1-1.3c0.1-0.5,0.5-0.7,0.5-0.8C64.5,31.2,64.5,30.7,64.5,30.7L64.5,30.7L64.5,30.7z
			 M66.3,31l-0.2-0.3L66,30.9l-0.1,0.2c0,0-0.4,0.5-0.3,0.7c0,0.2,0.1,0.7,0.2,0.7c0,0.1,0.2,0.4,0.2,0.4s0.2-0.6,0.5-0.6
			c0.3,0,0.6,0.5,0.6,0.5s0.2-0.1,0.2-0.3c0-0.3-0.1-0.8-0.3-1C66.6,31.3,66.4,31.1,66.3,31L66.3,31L66.3,31z M68,32.3l-0.1-0.1
			c0,0-0.3,0.2-0.3,0.3c0,0.1-0.1,0.3-0.1,0.3c-0.1,0.1-0.3,0.2-0.3,0.4c0,0.2,0,0.8,0,0.8c0,0,0.2-0.3,0.4-0.3
			c0.2,0.1,0.5,0.4,0.5,0.4c0,0,0.1,0,0.1,0c0,0.1,0.3-0.1,0.2-0.6c0-0.5-0.1-0.9-0.3-1C68,32.5,68,32.3,68,32.3L68,32.3L68,32.3z
			 M62.5,32.3L62.5,32.3c0-0.1-0.1,0-0.1,0c0,0,0,0.1,0,0.1c0,0,0.2,1,0.2,1.1c0,0.1,0.1,0.3,0.2,0.3c0.1,0,0.3,0.1,0.4,0.3
			c0.1,0.1,0.1,0.3,0.1,0.4c0,0.2,0,0.4,0.2,0.5c0.2,0.1,0.3,0.3,0.4,0.3c0,0.1,0.6,1.5,0.7,1.7c0.1,0.2,0.8,1.8,0.9,2
			c0.1,0.2,0.2,0.7,0.3,0.9c0.1,0.2,0.4,0.5,0.6,0.6c0.2,0.1,0.5,0.2,0.6,0.2c0.1,0,0.2-0.1,0.2-0.2c0-0.1-0.2-0.6-0.3-0.7
			c-0.1-0.1-0.7-0.2-0.8-0.4c-0.1-0.1-0.3-0.5-0.4-0.7c-0.1-0.2-0.8-1.6-0.8-1.9c-0.1-0.3-0.5-1.3-0.5-1.5c0-0.2,0-0.7,0-0.9
			c-0.1-0.3-0.4-0.7-0.8-1c-0.4-0.2-0.4-0.1-0.5-0.3c-0.1-0.1-0.2-0.5-0.3-0.6C62.6,32.6,62.5,32.3,62.5,32.3L62.5,32.3L62.5,32.3z
			 M65.1,32.6L65.1,32.6c-0.1-0.1-0.2,0-0.2,0c0,0,0.1,1,0,1.3c-0.1,0.2-0.5,0.8-0.5,1.2c0,0.4,0.1,0.5,0.1,0.6
			c0.1,0.1,0.2,0.2,0.4,0.8c0.2,0.6,0.4,1,0.5,1.2c0.1,0.2,0.3,0.5,0.4,0.8c0.1,0.2,0,0.3,0.1,0.4c0,0.1,0.2,0.3,0.3,0.4
			c0.2,0.1,0.4,0.2,0.5,0.1c0,0,0.2-0.2,0-0.8c-0.2-0.5-0.6-1.3-0.8-1.8c-0.2-0.5-0.6-1.2-0.6-1.6c0-0.4,0.1-0.5,0.1-0.6
			c0.1-0.1,0.1-0.2,0.1-0.3c0-0.1-0.2-0.9-0.3-1.1C65.1,33,65.1,32.6,65.1,32.6L65.1,32.6L65.1,32.6z M66.2,33l0.1-0.3
			c0.1,0,0.1,0,0.2,0.1c0,0.1,0.4,0.4,0.4,0.4s-0.1,0.5,0,0.7c0.1,0.2,0.2,0.6,0.2,0.6c0,0,0,0.2,0,0.2c0,0,0,0.5,0,0.5
			s-0.3-0.3-0.4-0.3c-0.1,0-0.3,0-0.4,0c0,0-0.4-1.1-0.3-1.3C66,33.2,66.1,33.2,66.2,33L66.2,33L66.2,33z M67.6,34.1L67.6,34.1
			c-0.1,0-0.3,0.7-0.3,1.1c0,0.5,0.2,1,0.5,1.2c0.2,0.2,0.5,0.4,0.5,0.4c0,0,0-0.3,0.1-0.5c0.1-0.2,0.2-0.5,0.2-0.7
			c0-0.2,0-0.5-0.2-0.8c-0.1-0.2-0.4-0.3-0.5-0.4C67.8,34.4,67.6,34.1,67.6,34.1L67.6,34.1L67.6,34.1z M66.5,35.4l0-0.4l0.5,0.4
			c0,0,0,0.5,0.2,0.9c0.2,0.4,0.9,0.8,0.9,0.8l0.1,0.4c0,0-0.5-0.2-0.6-0.1c-0.1,0.1,0,0.4,0,0.4c0,0-0.7-0.8-0.9-1.3
			C66.6,35.9,66.6,35.6,66.5,35.4L66.5,35.4L66.5,35.4z M68.8,35.7L68.8,35.7L68.8,35.7l0.5,0.5l-0.5,1.3l-0.1,0.1
			c0,0-0.2-0.3-0.3-0.6c0-0.3,0-0.4,0-0.5c0-0.1,0.1-0.2,0.2-0.3C68.7,36,68.8,35.7,68.8,35.7L68.8,35.7L68.8,35.7z M67.8,37.9
			l0-0.4c0,0,0.3,0.1,0.4,0.1c0.1,0,0.3,0,0.4,0c0,0,0.1,0.1,0.1,0.1c0,0-0.5,1.3-0.5,1.3s-0.3-0.4-0.4-0.7
			C67.8,38.2,67.9,38.1,67.8,37.9L67.8,37.9L67.8,37.9z M67.7,39.7l0-0.2l0.1-0.1l0.1,0.1l0.1,0.3c0,0-0.1,0.2-0.1,0.2
			C67.9,40,67.7,39.7,67.7,39.7L67.7,39.7L67.7,39.7z M65.9,35L65.9,35l-0.2,0l0,0.2c0,0,0.4,1.2,0.6,1.6c0.1,0.3,0.6,1.4,0.7,1.5
			c0.1,0.2,0.2,0.3,0.2,0.4c0,0.1-0.1,0.6,0,1.1c0.1,0.4,0.5,1,0.5,1l0.2-0.5c0,0-0.3-0.3-0.3-0.7c0-0.3,0.1-0.5,0.1-0.6
			c-0.1-0.1-0.8-1.7-1-2.1c-0.2-0.4-0.5-1.3-0.5-1.4C66,35.3,65.9,35,65.9,35L65.9,35L65.9,35z M63.5,35.9l-0.1-0.1l0,0.1
			c0,0,0.6,1.6,0.9,2.2c0.3,0.6,1.2,2.4,1.3,2.5c0.1,0.1,0.3,0.2,0.4,0.2c0.1,0,0.3,0.1,0.3,0.1c0.1,0.1,0.4,0.6,0.7,0.7
			c0.2,0.1,0.3,0.1,0.3,0.1s0.3-0.7,0.3-0.7c0,0-0.8-0.3-1-0.3c-0.2-0.1-0.7-0.3-0.7-0.4c0-0.1-0.7-1.1-1.2-2.3
			c-0.5-1.2-0.8-2-0.8-2.1C63.7,36.1,63.5,35.9,63.5,35.9L63.5,35.9L63.5,35.9z M66,41.3l-0.2,0l0,0.2c0,0,0.4,0.7,0.6,0.9
			c0.1,0.2,0.4,0.5,0.4,0.5l0.2-0.6l-0.1,0c0,0-0.4-0.1-0.5-0.4C66.3,41.7,66.1,41.3,66,41.3L66,41.3L66,41.3z M70.4,37.4l-3,7.3
			c0,0-0.5-0.6-0.5-0.6c0,0,0.1-0.5,0.1-0.7c0-0.2,2.8-7.2,2.8-7.2l1.3,2.4l-2.8,7.3l-0.6-0.7l2.9-7.1L70.4,37.4L70.4,37.4
			L70.4,37.4z M71.6,40.2l-0.4-0.6l-0.4,0.9c0,0,0.3,0,0.4,0.1c0.1,0,0.3,0.1,0.3,0.1C71.6,40.8,71.6,40.4,71.6,40.2L71.6,40.2
			L71.6,40.2z M71.2,40.9l-0.4,0l-0.2,0.2c0,0-0.1,0.7-0.1,0.7c0,0,0.5,0.7,0.7,0.7c0.2,0,1.1,0,1.3,0.1c0.3,0.1,0.4,0.1,0.5,0.2
			c0,0,0,0.1,0,0.1s0-0.2-0.2-0.3c-0.2-0.1-0.3,0-0.4-0.2c-0.2-0.2-0.2-0.7-0.3-0.8C72.1,41.4,71.4,40.9,71.2,40.9L71.2,40.9
			L71.2,40.9z M73.9,42.9l-0.7-0.4c0,0,0.1,0.3,0.1,0.6c0,0.3,0,0.6,0.1,0.8c0.1,0.2,0.6,0.7,0.7,0.8c0.2,0,0.7,0,0.7,0s0-0.6,0-0.7
			c0-0.1,0.1-0.1,0.1-0.1S74.2,43,73.9,42.9L73.9,42.9L73.9,42.9z M71.6,42.8l-0.4-0.1c0,0,0.2,0.2,0.2,0.4c0,0.2,0.1,0.4,0.2,0.5
			c0.1,0.1,0.6,0.7,0.7,0.7c0.1,0,0.4,0.2,0.4,0.2s-0.1-0.4-0.2-0.6c0-0.2,0-0.3,0-0.3c0,0,0.2,0,0.2,0s0-0.3-0.4-0.6
			C72,42.7,71.7,42.9,71.6,42.8L71.6,42.8L71.6,42.8z M73,44.4l-0.3-0.6c0,0,0.4,0.1,0.4,0.1c0,0,0.6,0.7,0.8,0.8
			c0.1,0.1,0.4,0.1,0.4,0.1l0.2,0l0.1,0.1c0,0-0.2,0-0.2,0c0,0-0.4-0.1-0.4,0c0,0-0.1,0.2,0,0.2c0,0.1,0.2,0.7,0.2,0.7
			c0,0-0.3,0-0.4-0.1c-0.1-0.1-0.8-0.6-0.8-0.8C73,44.7,73.1,44.6,73,44.4L73,44.4L73,44.4z M75.1,44.4l0-0.3c0,0,0.1,0,0.3,0
			c0.2,0,0.8,0.4,0.8,0.4l0.2,0.9c0,0-0.4-0.2-0.6,0c-0.1,0.1-0.1,0.4-0.1,0.4s-0.4-0.4-0.5-0.5c-0.1-0.2-0.1-0.3-0.1-0.5
			C75.1,44.6,75.1,44.5,75.1,44.4L75.1,44.4L75.1,44.4z M76,45.8l-0.2-0.3l0.5,0.1l0.3,1.4c0,0-0.6-0.5-0.6-0.7
			C76,46.3,76.1,45.9,76,45.8L76,45.8L76,45.8z M80.6,46.5l-1.4-0.6l0.1,0.5c0,0,0.9,0.4,1.1,0.5c0.3,0.1,1.3,0.4,1.3,0.4L82,47
			C82,47,80.9,46.6,80.6,46.5L80.6,46.5L80.6,46.5z M80.5,47.1l-1.2-0.5l0.1,0.4c0,0,0.8,0.3,1,0.4c0.2,0.1,1.1,0.4,1.1,0.4l0.1-0.3
			C81.7,47.5,80.9,47.3,80.5,47.1L80.5,47.1L80.5,47.1z M81.5,48.1l-2-0.8l0.1,0.4l2.1,0.8v-0.1l-0.1-0.1V48.1L81.5,48.1L81.5,48.1z
			 M80.9,48.4l-1.3-0.6l0.1,0.5c0,0,0.8,0.3,1.1,0.4c0.4,0.1,1.2,0.4,1.2,0.4l0-0.3C82,48.8,81.3,48.6,80.9,48.4L80.9,48.4
			L80.9,48.4z M79.8,49.6L79.8,49.6l-0.3,0.1c0,0,1.5,1,1.9,1.1c0.4,0.1,1.5,0.1,1.7,0.1c0.2,0,1.9-0.1,2-0.1c0.1,0,0.5,0,0.5-0.1
			c0.1-0.1,0.2-0.2,0.3-0.3c0-0.1,0-0.2,0-0.2c0,0-0.2,0-0.2,0c-0.1,0.1-0.2,0.2-0.3,0.2c-0.1,0-1.3,0.1-1.8,0.1
			c-0.5,0-1.5,0.1-1.8,0c-0.3-0.1-0.9-0.3-1.1-0.5C80.3,50,79.8,49.6,79.8,49.6L79.8,49.6L79.8,49.6z M72.2,46.7v-1.1l0.2,0.1
			c0,0,0,1.8,0.4,2.7c0.4,0.9,0.9,1.7,1.3,2.1c0.4,0.4,0.7,0.8,1.2,1c0.6,0.3,1.5,0.8,1.7,0.9c0.2,0.1,0.6,0.2,0.6,0.2l-0.2,0.2
			c0,0-1.4-0.5-1.7-0.7c-0.3-0.2-0.7-0.4-0.7-0.4l0,5.2l-1.4-0.1v0.5l2.4,0.2l-0.1-1.6l-0.7-1.8l0.1-0.1l0.9,2.1l0.7,1l6.2-2.6
			l0,0.1l-1.1,0.5l-0.2,2.5l0.2,0.1l0,0.4L80.8,58l0-0.3l-1.5-0.2l0-1.2l-0.4,0.4l-2,0.8l-0.5-0.7l0,1.3l-3.2-0.3v-0.8l-1.8-0.2
			l0-1.1l-2-0.3l0.1-1.3l-1.4-0.1l0.9-7.1l1.3,1.3c0,0-0.6-1.2-0.8-1.9c-0.2-0.7-0.3-1.6-0.3-1.6l0.3-0.7c0,0-0.1,1.3,0.2,2.3
			c0.4,0.9,0.8,1.5,1,2c0.2,0.4,1.3,1.2,1.3,1.2c0,0-0.8-1.2-0.9-2.3c-0.2-1.1-0.1-2.2-0.1-2.4c0-0.1,0-0.5,0-0.5l0.3,0
			c0,0,0,2.1,0.2,2.7c0.2,0.6,0.1,0.9,0.4,1.4c0.3,0.5,0.6,1.2,0.8,1.4c0.2,0.2,1,0.8,1,0.8s-0.9-1.3-1.2-2
			C72.4,47.7,72.2,47.3,72.2,46.7L72.2,46.7L72.2,46.7z M68.6,53.5l0.8-5.9l2.2,1.9l-0.3,4.4L68.6,53.5L68.6,53.5L68.6,53.5z
			 M75.7,54.3l-0.2-0.4l2.3-1l0.6,0.2L75.7,54.3L75.7,54.3L75.7,54.3z M76,54.9l-0.1-0.4l3.2-1.4l0.9,0L76,54.9L76,54.9L76,54.9z
			 M76.3,55.5l-0.2-0.4l4.6-2l1,0L76.3,55.5L76.3,55.5L76.3,55.5z M81.8,53.5l-5.3,2.3l0.1,0.3l6-2.6L81.8,53.5L81.8,53.5L81.8,53.5
			z M77,56.8l-0.2-0.3l6.1-2.7l-0.4,0.6L77,56.8L77,56.8L77,56.8z M84,58l0.1-1.9l0.4,0l-0.1,1.7l2.6,0.2l0-0.9h0.4l0,1.3L85,58.3
			l0,0.2l-1.9-0.2l0-0.4L84,58L84,58L84,58z M90.4,49.6c-0.3-1.1-1.3-2-2.5-2c-1.2,0-2.2,0.8-2.5,1.9l-0.5,0c0.3-1.4,1.5-2.5,3-2.5
			c1.5,0,2.8,1.1,3.1,2.6L90.4,49.6L90.4,49.6L90.4,49.6z M92,49.8c-0.2-2.1-1.9-3.8-4.1-3.8c-2.1,0-3.8,1.6-4.1,3.6l-0.5,0
			c0.2-2.3,2.2-4.2,4.6-4.2c2.4,0,4.4,1.9,4.6,4.3L92,49.8L92,49.8L92,49.8z M79.7,57.1l0-1.1l1.8-0.8l-0.1,2.1L79.7,57.1L79.7,57.1
			L79.7,57.1z M73.5,55.7l0.1-4.8l1.1,0.5l0,5.1l-2.8-0.3l0.1-0.7L73.5,55.7L73.5,55.7L73.5,55.7z M71.6,54.2l0.3-4.5
			c0,0,0.6,0.4,0.6,0.4c0,0,0.1-0.1,0.1-0.1l0.6,0.5l-0.1,4.7l-3.3-0.4l0.1-1L71.6,54.2L71.6,54.2L71.6,54.2z M101.1,42.4
			c-0.1,0.1-0.1,0.1-0.2,0.2l-26.1-0.3c-0.1-0.1-0.1-0.1-0.2-0.2L101.1,42.4L101.1,42.4L101.1,42.4z M88.1,7.8
			c10.9,0,19.7,8.9,19.7,19.8c0,4.5-1.5,8.7-4.1,12.1l-0.1-0.6L93.7,39l-0.1,0.4l0,0l0.3-0.3l0.2,0.2v0.2L94,39.7l-0.2,0.2l-0.2,0.1
			h-0.1l0,1.5h0.3v0.4l0.1,0l0.1-0.1l0.1,0l0-0.1l0.1,0l0.1,0v-0.8c0,0,0.1-0.4,0.6-0.3c0.4,0,0.5,0.3,0.5,0.3l0,0.8l0.1,0l0,0.1
			l0.1,0c0,0,0,0.1,0,0.2c0,0,0.1,0.1,0.1,0.1c0,0,0.1,0.2,0.1,0.2l4.1,0.1l0-0.5l0.2,0v0.1l1.8,0c-0.1,0.1-0.2,0.2-0.2,0.2l-1.5,0
			l0,0.2l1.3,0c-0.1,0.1-0.1,0.1-0.2,0.2l-26.8-0.3c0,0-0.1-0.1-0.1-0.1l1.5,0v-0.2l-1.8,0c-0.1-0.1-0.1-0.1-0.2-0.2l0,0l2,0l0-0.1
			l0.2,0v0.5l4,0l0.2-0.4l0.1,0l0-0.2h0.1l0,0.1l0,0l0-0.8c0,0,0.1-0.4,0.5-0.4c0.4,0,0.5,0.4,0.5,0.4l0,0.8l0.1,0l0-0.1l0.1,0
			c0,0,0,0.1,0,0.1c0,0.1,0.1,0.2,0.1,0.2c0,0,0.1,0,0.1,0c0,0,0-0.1,0-0.1c0,0,0-0.1,0-0.1c0,0,0.1-0.1,0.1-0.1h0.3l0-1.5
			c0,0-0.2,0-0.3,0c-0.1-0.1-0.2-0.1-0.3-0.4c0-0.3,0.2-0.4,0.2-0.4l0,0l0.1,0.1l0.1,0.1l0.1,0.1v-0.1L82.3,39l0-0.1l0-0.2l-9.9-0.1
			c0,0-0.1,0.4-0.1,0.7c-2.4-3.3-3.9-7.4-3.9-11.8C68.3,16.7,77.2,7.8,88.1,7.8L88.1,7.8L88.1,7.8z M65.1,36.1L65.1,36.1
			c0.1,0,0.2-0.1,0.4,0.6c0.2,0.7,0.4,1,0.5,1.1c0.1,0.2,0.1,0.3,0.1,0.4c0,0.1-0.1,0-0.1,0c0,0-0.3-0.5-0.5-0.9
			c-0.2-0.4-0.3-0.7-0.4-1C65,36.2,65.1,36.1,65.1,36.1L65.1,36.1L65.1,36.1z M88,8l1.4,4.4l4.6,0l-3.7,2.7l1.4,4.4L88,16.8
			l-3.7,2.7l1.4-4.4L82,12.4l4.6,0L88,8L88,8L88,8z"/>
	</g>
</g>
</svg>
